<?xml version="1.0" standalone="no"?>
<!DOCTYPE svg PUBLIC "-//W3C//DTD SVG 20010904//EN"
 "http://www.w3.org/TR/2001/REC-SVG-20010904/DTD/svg10.dtd">
<svg version="1.0" xmlns="http://www.w3.org/2000/svg"
 width="710.000000pt" height="280.000000pt" viewBox="0 0 710.000000 280.000000"
 preserveAspectRatio="xMidYMid meet">

<g transform="translate(0.000000,280.000000) scale(0.100000,-0.100000)"
fill="#000000" stroke="none">
<path d="M5015 2338 c-2 -13 -21 -160 -41 -328 -20 -168 -37 -306 -38 -307 -2
-2 -27 10 -57 26 -201 109 -489 18 -593 -187 -139 -274 6 -572 287 -590 87 -5
134 6 211 53 32 19 60 35 62 35 2 0 4 -16 4 -35 l0 -35 120 0 c66 0 120 2 120
4 0 10 160 1314 166 1349 l6 37 -121 0 c-117 0 -121 -1 -126 -22z m-208 -773
c88 -37 104 -73 87 -199 -13 -102 -25 -126 -85 -169 -66 -48 -159 -54 -234
-15 -41 21 -64 49 -81 95 -40 112 9 237 111 284 50 23 152 25 202 4z"/>
<path d="M5524 2124 c-16 -8 -38 -28 -47 -43 -19 -32 -22 -102 -7 -132 25 -45
130 -65 189 -35 85 45 90 177 7 211 -45 19 -103 19 -142 -1z"/>
<path d="M1715 1766 c-28 -7 -82 -27 -119 -44 -38 -18 -70 -32 -72 -32 -2 0
-4 16 -4 35 l0 35 -105 0 c-58 0 -105 -2 -105 -5 0 -3 -31 -254 -70 -558 -38
-303 -70 -562 -70 -574 0 -23 2 -23 120 -23 89 0 120 3 120 13 0 22 42 392 45
395 2 2 14 -3 27 -11 39 -25 128 -47 193 -47 238 0 433 172 464 410 27 213
-82 372 -284 409 -70 13 -75 13 -140 -3z m70 -205 c50 -22 91 -69 105 -119 13
-49 13 -59 -5 -120 -30 -101 -114 -164 -220 -166 -75 -1 -128 23 -162 75 -24
37 -24 38 -13 135 8 66 18 106 30 122 67 84 175 114 265 73z"/>
<path d="M643 1756 c-122 -40 -183 -125 -183 -255 0 -108 66 -179 218 -236 83
-31 108 -57 93 -98 -14 -36 -46 -50 -100 -45 -56 6 -106 28 -148 68 -18 17
-36 30 -41 30 -5 0 -33 -27 -62 -61 l-53 -60 34 -36 c48 -49 120 -83 213 -99
226 -40 406 77 410 266 2 106 -51 165 -204 225 -96 39 -110 49 -110 86 0 75
99 91 198 32 26 -15 50 -28 53 -28 9 0 99 116 99 126 0 14 -60 51 -118 71 -74
26 -239 34 -299 14z"/>
<path d="M2589 1756 c-120 -35 -218 -118 -271 -232 -43 -92 -50 -219 -19 -322
51 -169 222 -267 435 -249 67 6 181 38 198 55 5 5 -10 49 -33 99 l-41 91 -42
-19 c-59 -27 -142 -25 -197 4 -24 13 -45 30 -47 38 -2 11 64 31 275 83 153 38
281 71 284 75 11 10 -18 125 -45 183 -38 81 -88 133 -162 169 -61 30 -75 33
-178 36 -71 1 -128 -2 -157 -11z m211 -194 c35 -19 81 -85 68 -97 -9 -9 -341
-96 -346 -90 -2 2 1 27 8 56 14 58 58 115 105 135 44 19 124 17 165 -4z"/>
<path d="M3577 1760 c-264 -66 -398 -367 -276 -617 64 -131 219 -205 402 -190
69 5 202 40 210 55 3 4 -14 48 -37 98 l-41 90 -40 -18 c-52 -23 -138 -23 -190
1 -38 17 -73 47 -64 55 2 2 132 34 287 72 l284 69 -6 48 c-21 153 -122 290
-244 328 -48 15 -236 21 -285 9z m192 -195 c33 -17 81 -70 81 -90 0 -8 -17
-19 -37 -24 -98 -25 -280 -73 -295 -77 -14 -4 -18 1 -18 19 0 64 43 138 98
167 45 23 131 26 171 5z"/>
<path d="M6157 1759 c-164 -38 -290 -179 -317 -351 -19 -121 17 -259 88 -339
68 -78 209 -125 347 -116 75 5 209 39 218 55 3 4 -14 48 -37 98 l-41 90 -40
-18 c-72 -32 -185 -18 -237 29 -10 9 -18 19 -18 23 0 3 128 37 285 75 324 79
298 62 266 177 -31 113 -97 203 -181 248 -69 37 -238 51 -333 29z m192 -194
c33 -17 81 -70 81 -90 0 -8 -17 -19 -37 -24 -106 -27 -280 -73 -295 -77 -14
-4 -18 0 -18 19 0 64 43 138 98 167 45 23 131 26 171 5z"/>
<path d="M5436 1703 c-11 -70 -86 -688 -86 -710 0 -23 2 -23 120 -23 66 0 120
3 120 8 0 4 20 167 45 362 25 195 45 365 45 378 0 22 -2 22 -119 22 l-119 0
-6 -37z"/>
</g>
</svg>
