<?xml version="1.0" standalone="no"?>
<!DOCTYPE svg PUBLIC "-//W3C//DTD SVG 20010904//EN"
 "http://www.w3.org/TR/2001/REC-SVG-20010904/DTD/svg10.dtd">
<svg version="1.0" xmlns="http://www.w3.org/2000/svg"
 width="1024.000000pt" height="1024.000000pt" viewBox="0 0 1024.000000 1024.000000"
 preserveAspectRatio="xMidYMid meet">

<g transform="translate(0.000000,1024.000000) scale(0.100000,-0.100000)"
fill="#000000" stroke="none">
<path d="M8169 6819 l-54 -41 -90 6 c-49 3 -184 12 -300 20 -463 33 -708 40
-1285 41 -757 0 -1132 -22 -1279 -76 -31 -12 -121 -32 -201 -45 -185 -30 -412
-79 -515 -111 -176 -56 -839 -413 -1338 -722 -57 -35 -67 -38 -127 -35 -76 3
-479 -28 -730 -57 -366 -41 -686 -95 -948 -160 -347 -85 -530 -163 -645 -273
-37 -36 -67 -73 -67 -81 0 -8 -21 -36 -47 -61 -46 -44 -47 -47 -51 -113 -4
-58 -1 -71 16 -87 18 -18 19 -26 11 -109 -17 -180 -28 -333 -35 -470 l-7 -140
-45 -30 c-55 -36 -72 -59 -55 -76 40 -40 503 -109 733 -109 l140 0 0 40 c0 22
4 40 9 40 29 0 63 -24 90 -63 l30 -44 -324 -6 -323 -6 -218 -89 c-121 -50
-226 -92 -234 -95 -8 -2 8 -8 35 -12 28 -4 115 -17 195 -31 80 -13 248 -39
373 -59 l228 -35 3772 0 c3875 0 4891 8 4810 37 -21 8 -15 42 12 67 l25 23
-107 31 c-60 17 -162 45 -228 62 -66 17 -167 44 -225 60 -91 25 -131 29 -292
35 l-187 7 17 23 c14 18 22 21 52 14 19 -4 94 -10 165 -14 249 -13 353 -34
575 -117 228 -85 281 -102 208 -63 -13 6 -22 17 -20 23 1 7 -6 12 -15 12 -10
0 -25 5 -33 11 -11 8 -8 9 13 4 19 -4 26 -2 22 5 -3 5 1 10 10 10 9 0 14 -3
12 -7 -3 -5 14 -8 36 -8 23 0 58 -3 77 -7 19 -4 10 1 -20 11 -30 10 -125 31
-210 46 -85 15 -231 43 -325 62 -144 29 -198 36 -347 40 -98 3 -178 9 -178 13
0 10 53 82 72 97 8 7 29 16 46 19 27 6 32 4 32 -13 0 -30 6 -31 73 -17 34 7
177 34 317 59 140 26 289 55 330 65 41 10 102 21 135 25 33 4 72 11 86 16 25
10 67 70 110 162 l23 47 -21 22 -21 21 25 40 c22 35 23 43 13 66 -7 14 -15 83
-18 153 l-5 128 -52 52 -53 53 8 245 c11 317 6 355 -63 490 -49 95 -58 108
-103 132 -27 15 -53 29 -59 31 -9 4 -5 19 19 78 5 11 -1 19 -19 27 -37 17 -56
15 -81 -8 l-21 -21 -29 24 c-38 31 -277 201 -424 302 -63 43 -119 82 -124 86
-6 5 16 32 52 65 65 58 80 94 40 94 -13 0 -63 5 -113 10 -220 23 -423 40 -455
39 -19 -1 -68 11 -108 26 l-73 28 7 54 6 53 -29 0 c-19 0 -49 -15 -84 -41z
m85 -16 c-4 -21 -7 -39 -8 -40 -1 -1 -26 0 -55 4 l-53 6 23 18 c26 20 80 48
92 49 4 0 5 -17 1 -37z m-1189 17 c848 -33 1278 -79 1340 -143 7 -7 4 -8 -10
-3 -223 80 -1558 151 -2360 126 -463 -14 -766 -40 -882 -75 -89 -27 -80 -11
15 25 129 49 559 77 1207 79 242 0 553 -4 690 -9z m270 -75 c311 -17 599 -39
800 -61 122 -13 176 -20 298 -39 22 -4 27 -1 27 15 0 28 14 25 84 -17 211
-127 981 -639 1034 -687 13 -11 33 -38 44 -59 11 -22 38 -59 61 -84 l42 -46
-115 7 c-63 3 -507 9 -987 12 l-872 7 -6 24 c-3 13 -23 43 -45 67 l-40 43 173
6 c94 4 406 10 692 13 286 4 530 11 543 15 55 21 10 73 -163 191 -196 134
-368 240 -460 284 -306 146 -1197 251 -2285 270 -774 14 -1212 -49 -1630 -236
-315 -140 -732 -388 -1026 -609 -100 -76 -110 -81 -143 -75 -20 4 -37 8 -39 9
-5 4 288 218 413 302 289 192 683 401 841 444 l89 24 -77 6 c-42 4 -94 10
-115 14 l-38 8 50 13 c89 24 318 73 415 89 52 9 108 18 123 21 26 6 28 4 22
-17 -7 -21 -6 -22 46 -16 30 4 90 13 135 21 103 19 372 44 589 56 245 12 1201
3 1520 -15z m-880 -65 c686 -29 1074 -64 1514 -136 377 -62 448 -92 851 -359
185 -123 254 -178 247 -199 -2 -7 -101 -13 -308 -17 -167 -3 -485 -10 -706
-14 -285 -6 -403 -5 -403 3 0 7 61 11 188 11 299 1 1186 21 1192 27 8 9 -43
47 -240 178 -393 261 -440 281 -790 340 -561 95 -1249 148 -1905 149 -908 0
-1274 -73 -1816 -364 -261 -140 -440 -254 -639 -407 -78 -60 -185 -120 -196
-110 -11 12 377 278 586 403 258 154 581 306 794 374 161 52 480 101 771 120
179 12 589 12 860 1z m2310 -25 c94 -9 190 -18 214 -21 l43 -6 -23 -25 c-44
-46 -149 -125 -162 -120 -6 2 -58 33 -113 68 -56 35 -126 79 -155 96 l-54 33
40 -5 c22 -2 117 -12 210 -20z m-1930 -40 c127 -8 242 -15 257 -15 23 0 45
-24 157 -172 l129 -173 -41 -2 c-96 -6 -1229 -43 -1301 -43 -76 0 -78 1 -73
23 4 12 18 99 31 192 14 94 28 181 32 194 l5 24 287 -6 c158 -4 391 -14 517
-22z m-1068 3 c-92 -241 -161 -414 -166 -419 -6 -7 -197 -18 -881 -49 -239
-10 -495 -22 -567 -26 -73 -3 -133 -4 -133 -1 0 3 62 39 138 80 388 211 609
303 857 356 235 50 765 91 752 59z m113 6 c0 -4 -22 -84 -49 -178 -27 -94 -52
-188 -56 -208 l-7 -36 -69 -4 c-58 -2 -68 -1 -63 12 3 8 27 71 54 140 26 69
62 160 80 203 l32 77 39 0 c21 0 39 -3 39 -6z m117 -16 c-3 -13 -18 -107 -33
-209 l-28 -187 -71 -5 c-38 -3 -71 -4 -72 -3 -2 2 66 253 98 359 l20 67 46 0
c42 0 45 -2 40 -22z m1223 -28 c18 -9 260 -313 260 -325 0 -3 -15 -5 -32 -5
-31 0 -41 11 -143 146 -60 80 -118 157 -128 170 -18 24 -18 24 3 24 12 0 30
-5 40 -10z m345 -40 c265 -35 536 -81 646 -109 72 -18 218 -86 284 -130 l30
-21 -50 0 c-71 0 -654 -18 -816 -25 l-137 -6 -118 152 c-150 193 -143 181
-102 175 18 -3 137 -19 263 -36z m-3288 -63 c-22 -14 -78 -50 -302 -192 -308
-196 -495 -326 -645 -447 -19 -15 -44 -28 -55 -28 -28 0 -175 34 -175 40 1 6
210 130 485 288 244 140 491 263 512 255 12 -5 14 -3 8 7 -5 8 -4 11 2 7 5 -3
47 14 94 38 81 43 113 56 76 32z m4374 -283 c63 -42 145 -99 184 -128 l69 -51
-194 -6 c-107 -4 -373 -10 -590 -14 l-396 -7 -92 120 c-51 66 -92 122 -92 124
0 5 -6 5 500 18 228 6 422 13 430 14 51 11 73 3 181 -70z m-1488 -92 l78 -127
-73 -2 c-411 -12 -805 -25 -1001 -34 -131 -6 -241 -9 -243 -6 -4 4 34 249 39
253 1 1 227 9 502 18 275 9 514 18 530 20 94 9 83 17 168 -122z m-1751 2 c-16
-32 -40 -88 -53 -123 -15 -40 -31 -66 -44 -71 -11 -4 -87 -10 -170 -14 -331
-15 -735 -36 -827 -42 l-98 -7 0 39 c0 47 -14 69 -93 151 l-60 61 44 6 c24 3
222 13 439 22 217 9 505 22 640 28 135 6 246 11 247 11 2 -1 -10 -28 -25 -61z
m4178 -23 c0 -5 -9 -11 -20 -14 -22 -6 -26 3 -8 21 11 11 28 7 28 -7z m-5520
-28 c56 -46 120 -120 120 -139 0 -9 -12 -14 -37 -15 -21 0 -121 -6 -223 -13
-117 -9 -189 -10 -195 -4 -11 11 47 67 160 154 86 66 112 69 175 17z m5594
-106 c49 -28 51 -41 6 -45 -37 -4 -60 16 -60 50 0 23 7 23 54 -5z m-2044 5 c0
-5 -145 -12 -322 -16 -318 -6 -431 -10 -1196 -42 -342 -14 -406 -14 -391 0 6
6 899 40 1554 59 225 7 355 6 355 -1z m64 -78 c26 -31 46 -62 46 -69 0 -10
-49 -14 -217 -19 -335 -10 -737 -28 -743 -34 -3 -2 208 -2 468 1 259 3 472 2
472 -2 0 -10 -150 -246 -276 -436 -104 -156 -208 -318 -359 -562 -49 -79 -94
-143 -100 -143 -6 0 -49 11 -95 25 -212 64 -273 70 -665 70 -198 0 -420 -4
-494 -8 l-134 -8 7 213 c16 498 33 658 96 910 l12 46 71 6 c95 8 1545 61 1769
64 l97 2 45 -56z m-1994 16 c0 -14 -42 -18 -360 -30 -162 -6 -468 -19 -680
-30 -447 -23 -457 -23 -445 -11 8 7 577 38 1300 70 94 4 173 9 178 9 4 1 7 -2
7 -8z m4030 -8 c0 -5 15 -34 34 -65 47 -77 21 -77 -51 1 l-53 57 27 6 c41 10
43 10 43 1z m-4044 -44 c-19 -72 -68 -334 -76 -412 -5 -50 -15 -235 -21 -411
-6 -176 -12 -321 -14 -322 -1 -2 -150 -10 -331 -18 -889 -41 -1517 -88 -1799
-135 -60 -10 -111 -17 -113 -15 -2 2 -6 189 -9 417 -5 352 -3 430 11 531 20
143 50 243 76 257 10 5 56 10 102 11 46 0 121 4 168 8 l85 9 38 -34 c45 -41
61 -45 23 -6 l-27 29 83 6 c160 13 144 19 234 -90 44 -54 111 -138 149 -188
88 -116 112 -139 50 -50 -64 93 -242 322 -257 332 -15 9 39 17 237 33 139 12
1188 67 1319 69 77 1 78 1 72 -21z m-2741 -13 c91 -23 319 -55 386 -55 58 0
81 -15 37 -24 -13 -2 -156 -12 -318 -21 -974 -55 -1495 -125 -1905 -255 -107
-35 -266 -105 -315 -140 -23 -16 -48 -22 -117 -25 -48 -2 -80 -2 -70 1 9 3 15
9 12 14 -9 15 110 106 195 149 285 143 920 269 1710 340 124 12 241 22 260 24
19 2 42 4 50 5 8 1 42 -5 75 -13z m859 -44 c3 -5 -59 -12 -142 -15 -81 -3
-169 -8 -197 -11 -34 -3 -45 -1 -34 5 30 17 364 36 373 21z m5308 -18 c223 -5
285 -9 281 -19 -10 -28 71 -136 214 -288 l65 -68 -4 -79 c-5 -82 -14 -101 -59
-125 -16 -8 -203 -41 -416 -74 -213 -34 -393 -63 -400 -65 -7 -2 -50 33 -95
78 -185 185 -396 265 -667 255 -429 -17 -747 -270 -868 -690 l-28 -97 -62 -3
c-35 -2 -63 -1 -63 2 0 3 15 28 34 56 18 27 80 126 136 219 57 94 191 305 300
470 108 165 213 328 234 362 l37 63 177 3 c399 6 916 7 1184 0z m-5758 -100
c-46 -138 -57 -298 -52 -744 l5 -405 -66 -19 c-36 -10 -97 -32 -136 -48 -72
-31 -145 -46 -145 -30 0 37 -25 193 -41 258 -26 107 -105 263 -177 354 -112
140 -290 255 -467 303 -114 30 -326 30 -440 -1 -91 -24 -200 -73 -272 -122
-61 -42 -153 -124 -153 -137 0 -9 -31 -14 -205 -28 l-79 -7 128 138 c120 128
127 138 112 153 -14 14 -36 17 -129 14 -62 -1 -130 -5 -152 -8 -61 -8 -26 11
85 47 357 115 811 171 1666 204 483 19 589 32 269 34 -809 4 -1605 -94 -2010
-248 -68 -26 -139 -45 -185 -51 -41 -4 -76 -7 -78 -5 -2 1 39 23 90 48 264
129 639 216 1173 272 246 25 1041 85 1246 94 l35 1 -22 -67z m6329 50 c-7 -2
-21 -2 -30 0 -10 3 -4 5 12 5 17 0 24 -2 18 -5z m-125 -50 c-10 -2 -26 -2 -35
0 -10 3 -2 5 17 5 19 0 27 -2 18 -5z m111 -80 c47 -64 56 -80 47 -85 -1 -2
-31 32 -65 75 -36 45 -55 77 -47 77 8 0 37 -30 65 -67z m149 -324 l-5 -161 48
-46 c27 -25 49 -50 49 -54 0 -4 -19 -8 -41 -8 -57 0 -802 -68 -864 -79 -100
-17 14 -11 422 24 224 19 427 36 451 39 l42 4 0 -77 c0 -42 3 -98 6 -126 l6
-50 -73 -60 c-138 -113 -247 -192 -289 -209 -23 -9 -171 -44 -328 -76 -157
-33 -292 -62 -301 -65 -15 -4 -18 12 -29 122 -18 203 -72 379 -155 505 l-44
66 26 6 c21 4 32 -2 53 -27 43 -51 106 -187 135 -291 26 -93 28 -96 53 -91 14
3 167 25 340 50 337 48 365 53 357 61 -6 7 -104 -5 -432 -52 -132 -19 -248
-35 -258 -37 -15 -2 -23 13 -43 81 -30 104 -74 200 -119 263 -19 27 -35 51
-35 53 0 2 19 6 43 9 263 38 751 120 783 132 54 20 67 52 67 160 l0 84 61 4
c34 2 65 4 70 5 5 1 7 -67 4 -159z m-1559 84 c166 -33 294 -100 415 -218 61
-59 76 -79 65 -86 -27 -17 -49 -9 -85 31 -70 78 -206 154 -357 202 -63 20 -93
23 -237 23 -158 -1 -169 -2 -260 -33 -102 -34 -227 -100 -288 -152 -66 -57
-149 -161 -191 -241 -78 -147 -114 -289 -127 -511 -6 -94 -9 -106 -23 -99 -9
5 -86 27 -171 50 -85 24 -170 49 -189 57 -35 15 -57 10 -31 -6 17 -11 66 -26
245 -76 l120 -34 -90 5 c-295 16 -665 16 -1095 1 -734 -25 -1421 -45 -2630
-76 -223 -6 -415 -13 -427 -16 -21 -4 -23 0 -23 31 0 20 6 38 13 40 16 6 453
22 1062 40 275 8 640 20 810 25 171 6 654 22 1075 35 421 14 794 30 830 35 92
15 201 71 274 141 l59 58 71 3 71 3 40 120 c69 203 143 324 267 439 120 112
285 191 450 215 40 6 84 13 98 15 41 6 179 -5 259 -21z m-6059 -14 c327 -53
598 -300 695 -634 13 -47 30 -135 36 -196 l12 -110 81 5 c45 3 129 8 188 11
l106 6 4 -58 c2 -32 2 -61 -1 -64 -3 -4 -101 -9 -217 -12 l-210 -5 -12 146
c-21 279 -94 461 -250 623 -222 233 -546 308 -856 200 -81 -29 -158 -73 -237
-137 -57 -45 -71 -52 -94 -46 l-28 8 59 53 c126 112 256 177 411 205 95 17
226 19 313 5z m-862 -14 c-2 -3 -28 -9 -57 -15 -46 -9 -109 -45 -218 -125 -2
-1 11 -27 28 -59 33 -60 32 -68 -3 -73 -27 -4 -51 17 -74 68 l-18 41 -111 -6
c-60 -4 -129 -9 -152 -12 -35 -5 -43 -3 -53 16 -7 14 -8 20 -1 16 5 -4 50 -2
98 3 48 6 122 13 165 17 69 5 83 10 153 54 42 27 78 50 80 52 3 3 -100 -2
-398 -20 -193 -11 -182 2 15 17 261 21 555 35 546 26z m-691 -178 c9 -32 20
-60 25 -63 4 -3 8 -12 8 -20 0 -10 -14 -14 -56 -14 l-56 0 4 90 c3 70 8 94 24
111 l19 21 8 -33 c5 -19 16 -60 24 -92z m1603 82 c185 -51 355 -183 434 -336
24 -48 12 -40 -18 11 -35 61 -76 107 -87 100 -5 -3 -8 0 -7 8 2 7 -3 12 -10
10 -6 -1 -11 3 -10 10 2 7 -1 13 -7 13 -24 4 -44 18 -38 28 3 6 1 7 -5 3 -6
-4 -8 -14 -5 -24 6 -15 5 -16 -12 -2 -17 14 -18 14 -6 -7 6 -13 17 -23 24 -24
9 0 9 -2 -1 -6 -6 -2 -9 -10 -5 -16 3 -7 -3 -4 -15 7 -12 10 -19 22 -17 27 3
4 1 10 -5 14 -6 4 -7 12 -4 18 4 8 2 7 -7 -1 -12 -11 -12 -14 1 -22 8 -5 10
-10 4 -10 -16 0 -35 25 -26 35 4 5 1 5 -5 1 -7 -4 -13 -3 -13 3 0 14 -52 39
-69 33 -9 -3 -11 0 -6 8 6 9 4 11 -4 6 -7 -5 -18 -1 -25 10 -7 9 -28 18 -47
19 -19 2 -70 8 -113 15 -59 8 -104 9 -178 1 -115 -13 -184 -35 -269 -87 -59
-35 -184 -151 -221 -204 -14 -20 -16 -21 -11 -5 3 11 12 27 20 37 8 9 16 25
18 35 1 10 8 17 15 15 8 -2 11 4 7 18 -3 11 -2 18 2 15 5 -2 21 9 36 25 15 16
31 27 36 25 4 -3 5 5 1 17 -3 12 -1 19 4 15 6 -3 15 3 22 14 19 30 7 25 -41
-17 -7 -5 -26 -19 -44 -29 -18 -10 -29 -23 -26 -28 3 -6 1 -7 -4 -4 -15 9 -75
-66 -123 -154 -42 -79 -50 -86 -24 -23 28 68 99 167 161 225 121 116 236 169
433 203 53 9 218 -5 290 -25z m6005 6 c33 -9 102 -37 154 -61 75 -37 108 -60
170 -122 63 -63 153 -182 137 -182 -2 0 -23 27 -47 59 -24 33 -48 57 -54 54
-5 -4 -7 -2 -2 2 4 5 0 17 -9 27 -13 14 -20 15 -31 6 -11 -9 -13 -8 -11 2 2 8
-2 14 -9 15 -6 0 -15 3 -19 7 -3 4 4 5 16 3 12 -2 19 -1 16 3 -4 4 -11 7 -14
8 -19 2 -41 17 -37 24 6 10 -34 25 -42 16 -3 -3 10 -14 28 -25 19 -12 31 -21
27 -21 -5 0 -10 1 -12 3 -2 1 -12 -6 -23 -15 -17 -16 -20 -16 -51 4 -32 20
-42 38 -21 38 5 0 7 -5 3 -12 -5 -8 -2 -9 10 -5 9 4 15 3 12 -2 -9 -13 19 -21
35 -9 11 8 10 9 -3 4 -10 -3 -18 -1 -18 4 0 16 -41 33 -52 22 -12 -12 -60 6
-52 19 3 5 -3 6 -12 2 -12 -4 -15 -3 -10 5 5 8 2 10 -8 6 -9 -3 -16 -1 -16 5
0 6 -3 10 -7 10 -20 -3 -44 2 -40 9 3 4 -5 8 -16 8 -12 1 -53 7 -92 14 -73 12
-194 7 -275 -12 -95 -22 -234 -103 -328 -192 -43 -40 -43 -40 -31 -11 18 42
30 56 42 48 6 -4 7 -1 3 6 -5 7 -1 18 10 25 12 9 14 15 5 20 -6 4 -18 3 -25
-3 -7 -6 -16 -8 -20 -4 -4 4 -4 0 -1 -9 5 -13 0 -19 -20 -24 -14 -3 -24 -9
-21 -12 3 -3 -4 -12 -15 -20 -12 -8 -39 -42 -60 -75 -47 -73 -51 -66 -7 12 67
118 223 247 367 302 134 50 340 61 476 24z m-7101 -42 c-4 -15 -13 -38 -20
-52 -7 -13 -11 -28 -8 -33 3 -4 3 -8 0 -8 -3 0 -12 13 -20 29 -14 26 -14 30 4
46 11 10 20 24 20 32 0 7 7 13 15 13 12 0 14 -7 9 -27z m1050 -58 c32 -8 82
-26 112 -40 60 -28 68 -30 59 -15 -3 6 1 7 10 3 11 -4 13 -8 5 -13 -7 -4 -2
-13 15 -24 124 -81 220 -225 266 -396 17 -64 13 -227 -7 -307 -59 -237 -267
-437 -502 -483 -90 -18 -260 -8 -342 20 -271 90 -429 318 -430 615 0 181 63
328 200 465 93 94 184 147 296 174 80 19 245 20 318 1z m6034 -9 c122 -42 191
-84 277 -171 131 -131 195 -282 195 -460 -1 -236 -113 -435 -318 -558 -108
-66 -169 -82 -327 -82 -229 0 -347 45 -485 184 -125 127 -180 264 -180 451 0
127 16 196 72 310 76 156 235 284 410 330 111 29 264 27 356 -4z m-6868 -81
c0 -2 -20 -33 -45 -69 -103 -147 -159 -337 -178 -596 l-2 -35 -68 -5 c-55 -4
-71 -2 -77 10 -4 8 -41 96 -81 195 -79 197 -92 221 -119 230 -10 3 -64 1 -121
-4 -88 -8 -107 -13 -121 -32 -31 -37 -24 -50 24 -43 l41 7 -7 -54 c-24 -197
-28 -268 -14 -295 22 -46 89 -87 153 -92 54 -4 55 -5 33 -20 -13 -8 -35 -26
-50 -40 -27 -25 -28 -25 -105 -13 -105 17 -213 43 -213 51 0 4 20 21 45 37
l45 29 5 169 c6 157 39 542 48 551 2 2 52 7 111 11 106 6 107 6 135 -21 l28
-27 104 11 c57 6 136 18 174 26 39 8 90 14 114 14 40 0 42 -1 30 -17 -7 -10
-2 -8 11 5 17 15 37 22 62 22 21 0 38 -2 38 -5z m60 -37 c-93 -125 -133 -206
-171 -353 -21 -80 -24 -113 -24 -287 l0 -198 -160 1 c-137 1 -322 13 -274 17
29 3 196 90 210 109 10 15 31 22 77 26 35 4 67 9 71 12 4 2 11 51 14 108 13
202 83 409 188 550 35 47 48 57 72 57 l29 0 -32 -42z m7090 6 c-7 -7 5 -24 35
-53 25 -23 45 -46 45 -52 0 -5 -26 17 -59 48 -59 59 -66 73 -31 70 13 -1 16
-5 10 -13z m-5978 -49 c3 0 9 -3 13 -7 4 -3 0 -5 -9 -4 -9 1 -22 8 -29 16 -10
10 -9 11 3 4 8 -5 18 -9 22 -9z m29 -42 c13 -16 12 -17 -3 -4 -10 7 -18 15
-18 17 0 8 8 3 21 -13z m48 -73 c17 -28 31 -56 31 -63 0 -6 -7 1 -16 18 -8 16
-24 44 -35 62 -12 18 -18 33 -16 33 3 0 19 -23 36 -50z m4891 46 c0 -2 -7 -9
-15 -16 -13 -11 -14 -10 -9 4 5 14 24 23 24 12z m1135 -59 c24 -47 12 -41 -19
11 -15 25 -21 40 -12 33 8 -7 22 -27 31 -44z m-1182 -12 c-9 -19 -18 -33 -21
-31 -4 5 26 66 33 66 3 0 -3 -16 -12 -35z m1215 -60 c-3 -3 -9 2 -12 12 -6 14
-5 15 5 6 7 -7 10 -15 7 -18z m-8043 -25 c-16 -4 -39 -8 -50 -8 l-20 -1 20 9
c11 5 34 8 50 8 l30 0 -30 -8z m68 3 c-7 -2 -19 -2 -25 0 -7 3 -2 5 12 5 14 0
19 -2 13 -5z m137 -70 c27 -66 29 -90 9 -77 -6 3 -8 13 -4 23 5 12 3 13 -6 4
-8 -8 -8 -45 2 -152 11 -126 14 -141 33 -147 19 -6 19 -7 1 -20 -26 -19 -35
-9 -35 39 0 43 -25 301 -36 372 -8 53 3 40 36 -42z m9095 10 c-10 -15 -83 -96
-162 -179 -136 -144 -145 -151 -195 -162 -62 -13 -391 -74 -528 -97 -52 -8
-103 -18 -112 -21 -11 -3 -18 0 -18 8 0 10 51 23 183 47 304 55 428 81 458 97
17 8 92 75 167 149 142 139 212 199 220 190 3 -2 -3 -17 -13 -32z m-3258 -7
c101 -19 290 -70 301 -81 12 -12 -105 -112 -170 -144 -84 -41 -155 -49 -548
-61 -179 -5 -395 -12 -482 -16 l-156 -6 -4 73 c-2 41 -3 75 -3 76 0 1 259 13
575 28 723 32 781 35 775 45 -2 4 -46 5 -97 3 -51 -2 -340 -15 -641 -28 -302
-14 -563 -25 -582 -25 l-33 0 -7 66 c-4 36 -5 68 -2 70 11 11 380 22 667 19
246 -2 335 -6 407 -19z m-1093 -12 c3 -9 6 -40 6 -69 l0 -54 -52 -5 c-29 -3
-120 -8 -203 -11 -82 -3 -404 -16 -715 -30 -311 -14 -666 -30 -790 -35 -124
-5 -284 -13 -356 -16 l-131 -7 -7 34 c-8 41 -3 44 93 58 334 50 965 97 1881
140 275 13 267 13 274 -5z m-2887 -46 c-3 -8 -6 -5 -6 6 -1 11 2 17 5 13 3 -3
4 -12 1 -19z m7228 -28 c4 -6 -5 -10 -20 -10 -15 0 -24 4 -20 10 3 6 12 10 20
10 8 0 17 -4 20 -10z m-287 -125 c-62 -60 -87 -77 -130 -89 -46 -14 -551 -106
-578 -106 -5 0 -10 8 -10 18 0 16 41 26 308 81 317 64 378 84 442 139 64 56
46 33 -32 -43z m-4044 3 c12 -105 27 -95 -151 -102 -87 -4 -304 -11 -483 -16
-179 -6 -593 -19 -920 -30 -327 -11 -616 -20 -641 -20 l-47 0 -5 58 c-2 31 -4
58 -3 59 2 3 483 25 1581 73 253 11 483 21 510 23 28 2 73 4 101 5 l51 2 7
-52z m-2274 2 c0 -25 -4 -30 -32 -34 -44 -7 -220 -15 -215 -10 9 9 204 73 225
73 18 1 22 -4 22 -29z m-2352 -111 c-3 -8 -7 -3 -11 10 -4 17 -3 21 5 13 5 -5
8 -16 6 -23z m7 -29 c-3 -5 -18 -10 -33 -9 -24 0 -25 1 -7 9 28 12 47 12 40 0z
m5 -40 c-32 -20 -242 -112 -246 -108 -10 11 110 80 178 102 69 23 100 26 68 6z
m6153 -44 l57 0 0 -36 0 -36 -122 3 c-68 2 -273 8 -457 14 -183 6 -381 8 -440
4 -58 -3 -398 -12 -756 -20 -1688 -38 -2477 -52 -2512 -46 -13 2 -23 10 -23
17 0 11 18 14 73 14 39 0 198 5 352 10 154 5 483 14 730 20 248 6 648 17 890
25 242 8 629 20 860 26 231 6 422 14 425 16 3 3 199 2 435 -3 237 -4 456 -8
488 -8z m-6678 -36 c13 -5 14 -9 5 -9 -8 0 -24 4 -35 9 -13 5 -14 9 -5 9 8 0
24 -4 35 -9z m6817 -11 c30 -8 46 -22 78 -69 l41 -60 -2351 0 c-1292 0 -2350
3 -2350 6 0 3 12 23 28 44 20 29 38 42 69 49 69 18 75 16 68 -23 -5 -25 -3
-35 9 -39 9 -4 218 -2 464 3 246 6 670 14 942 20 970 19 1816 39 1913 45 54 3
249 1 435 -5 185 -5 392 -11 460 -13 l122 -2 0 28 c0 30 12 33 72 16z m-6713
-15 c9 -8 -45 -2 -64 6 -14 7 -8 8 20 3 22 -3 42 -7 44 -9z m286 -24 c83 -5
205 -11 272 -12 90 -2 123 -6 123 -15 0 -21 -211 -16 -448 11 -205 23 -296 41
-161 31 35 -3 132 -9 214 -15z m7825 -104 c0 -2 -8 -10 -17 -17 -16 -13 -17
-12 -4 4 13 16 21 21 21 13z m-30 -39 c0 -1 -24 -25 -52 -52 l-53 -50 50 53
c46 48 55 57 55 49z m-6050 -20 c0 -2 -15 -16 -32 -33 l-33 -29 29 33 c28 30
36 37 36 29z m4935 -37 c10 -11 16 -20 13 -20 -3 0 -13 9 -23 20 -10 11 -16
20 -13 20 3 0 13 -9 23 -20z m-5900 -83 c6 -6 -5 -1 -23 9 -18 10 -41 28 -50
38 -15 18 47 -23 73 -47z m890 53 c-3 -5 -20 -19 -38 -30 -32 -22 -32 -22 3 9
37 32 45 37 35 21z m5066 -17 c13 -16 12 -17 -3 -4 -10 7 -18 15 -18 17 0 8 8
3 21 -13z m919 -25 c-34 -29 -175 -95 -230 -107 -52 -12 -174 -13 -210 -1 -16
5 15 8 87 9 98 1 122 5 196 32 47 16 104 43 128 59 52 34 63 37 29 8z m-6060
-12 c0 -8 -87 -54 -145 -76 -56 -22 -72 -23 -263 -21 -214 3 -249 9 -350 60
-69 35 -48 31 41 -8 l82 -36 210 -1 c230 -2 269 4 365 55 61 33 60 33 60 27z
m5230 -22 c0 -2 -9 0 -20 6 -11 6 -20 13 -20 16 0 2 9 0 20 -6 11 -6 20 -13
20 -16z m95 -37 c28 -11 73 -21 100 -22 94 -5 104 -7 65 -14 -53 -10 -125 5
-193 39 -65 32 -56 31 28 -3z"/>
<path d="M4143 5913 c9 -2 23 -2 30 0 6 3 -1 5 -18 5 -16 0 -22 -2 -12 -5z"/>
<path d="M7109 5671 c-117 -7 -129 -12 -161 -74 -25 -51 -13 -65 62 -74 38 -4
60 -13 71 -27 16 -19 27 -21 124 -20 94 2 109 4 130 24 12 11 51 28 86 36 35
8 68 19 73 24 13 13 -1 55 -30 89 l-26 31 -111 -2 c-62 -1 -160 -4 -218 -7z
m347 -36 c32 -43 27 -44 -233 -47 -137 -2 -250 -2 -253 0 -2 2 3 15 12 30 14
23 24 27 72 30 45 2 56 0 56 -13 0 -13 17 -15 105 -15 95 0 105 2 105 18 0 27
4 29 66 22 39 -4 61 -12 70 -25z m13 -59 c-2 -2 -53 -6 -114 -9 -65 -4 -100
-2 -85 3 25 8 207 14 199 6z m-341 -13 c-32 -2 -84 -2 -115 0 -32 2 -6 3 57 3
63 0 89 -1 58 -3z m190 -39 c3 -21 -2 -22 -102 -29 -111 -8 -126 -5 -126 25 0
17 9 20 73 23 134 7 152 4 155 -19z"/>
<path d="M7083 4933 c26 -3 37 -9 37 -21 0 -15 2 -15 10 -2 17 26 11 30 -37
28 -44 -1 -45 -2 -10 -5z"/>
<path d="M6668 4923 c56 -2 148 -2 205 0 56 1 10 3 -103 3 -113 0 -159 -2
-102 -3z"/>
<path d="M6213 4913 c37 -2 97 -2 135 0 37 2 6 3 -68 3 -74 0 -105 -1 -67 -3z"/>
<path d="M5798 4903 c34 -2 88 -2 120 0 31 2 3 3 -63 3 -66 0 -92 -1 -57 -3z"/>
<path d="M7106 4873 c-6 -14 -5 -15 5 -6 7 7 10 15 7 18 -3 3 -9 -2 -12 -12z"/>
<path d="M5244 5626 c-177 -12 -184 -15 -220 -82 -19 -35 -19 -36 0 -50 11 -8
39 -14 62 -14 31 0 51 -7 72 -25 28 -23 38 -25 130 -25 93 0 103 2 131 25 16
15 58 35 92 47 l61 21 -6 36 c-3 21 -16 45 -31 59 -30 25 -37 25 -291 8z m285
-32 c28 -35 27 -39 -11 -39 -18 -1 -131 -4 -251 -9 l-219 -8 16 31 c16 29 20
31 75 31 43 0 60 -4 65 -15 4 -11 22 -15 69 -15 92 0 127 9 127 31 0 16 8 19
54 19 47 0 57 -4 75 -26z m-44 -64 c-33 -4 -125 -7 -205 -7 l-145 1 140 6 c77
3 169 6 205 6 l65 1 -60 -7z m-75 -42 c-1 -29 -19 -35 -111 -40 -98 -5 -129 1
-129 27 0 16 32 21 153 23 64 2 87 -1 87 -10z"/>
<path d="M5378 4893 c29 -2 74 -2 100 0 26 2 2 3 -53 3 -55 0 -76 -1 -47 -3z"/>
<path d="M4983 4883 c31 -2 83 -2 115 0 31 2 5 3 -58 3 -63 0 -89 -1 -57 -3z"/>
<path d="M4523 4873 c26 -2 68 -2 95 0 26 2 4 3 -48 3 -52 0 -74 -1 -47 -3z"/>
<path d="M4118 4863 c28 -2 76 -2 105 0 28 2 5 3 -53 3 -58 0 -81 -1 -52 -3z"/>
<path d="M3738 4853 c29 -2 74 -2 100 0 26 2 2 3 -53 3 -55 0 -76 -1 -47 -3z"/>
<path d="M3368 4843 c29 -2 74 -2 100 0 26 2 2 3 -53 3 -55 0 -76 -1 -47 -3z"/>
<path d="M2358 5763 c12 -2 32 -2 45 0 12 2 2 4 -23 4 -25 0 -35 -2 -22 -4z"/>
<path d="M2185 5753 c-16 -2 -106 -13 -200 -24 -481 -58 -884 -152 -1125 -261
-62 -28 -215 -136 -206 -145 2 -3 29 16 60 41 195 159 730 298 1426 371 85 9
164 17 175 19 28 5 -94 4 -130 -1z"/>
<path d="M2890 4833 c0 -5 5 -15 11 -23 9 -13 10 -12 5 2 -4 15 4 18 67 21
l72 3 -77 2 c-43 1 -78 -1 -78 -5z"/>
<path d="M2914 4780 c9 -32 39 -101 43 -97 2 3 -8 29 -22 58 -14 30 -23 47
-21 39z"/>
<path d="M2961 4669 c-1 -3 8 -31 18 -61 10 -31 24 -81 31 -113 6 -31 14 -54
17 -52 6 7 -30 152 -50 197 -8 19 -16 32 -16 29z"/>
<path d="M8952 4870 c0 -14 2 -19 5 -12 2 6 2 18 0 25 -3 6 -5 1 -5 -13z"/>
<path d="M6869 4433 c-13 -16 -12 -17 4 -4 16 13 21 21 13 21 -2 0 -10 -8 -17
-17z"/>
<path d="M6818 4404 c-38 -20 -36 -28 2 -9 17 9 30 18 30 20 0 7 -1 6 -32 -11z"/>
<path d="M3015 4211 c-83 -24 -98 -32 -45 -25 25 3 63 14 85 24 50 23 38 23
-40 1z"/>
<path d="M1020 5162 c0 -18 37 -89 52 -98 10 -6 10 -5 1 7 -7 8 -21 35 -32 60
-11 24 -21 38 -21 31z"/>
<path d="M1934 5088 c5 -29 11 -114 31 -418 5 -77 -3 -139 -16 -118 -5 7 -6
20 -4 29 3 9 0 16 -7 16 -7 0 -23 3 -36 7 -12 4 -22 4 -21 -1 4 -21 -2 -34
-13 -27 -7 4 -8 3 -4 -4 8 -13 -10 -52 -24 -52 -10 0 7 57 23 78 5 7 8 14 6
16 -2 3 -67 32 -144 66 -77 34 -163 72 -192 85 l-51 23 -21 -51 c-24 -59 -54
-158 -49 -161 2 -1 84 -17 183 -34 99 -18 222 -40 272 -49 87 -16 125 -13 93
7 -10 6 -2 10 26 12 39 3 92 -15 107 -36 4 -7 9 -2 13 12 4 13 10 19 13 14 4
-6 100 6 259 33 139 24 256 45 261 47 9 3 -40 169 -57 196 -10 14 -32 6 -302
-115 -173 -77 -175 -78 -173 -108 2 -29 2 -29 -7 -5 -15 46 -10 163 15 340 14
96 25 177 25 181 0 3 -12 4 -27 3 -16 -2 -58 -5 -95 -7 -60 -4 -68 -3 -68 13
0 12 10 20 31 24 48 9 128 7 150 -4 11 -6 19 -7 19 -1 0 16 -30 21 -127 21
l-95 0 6 -32z m88 -193 l-37 -33 19 -54 c11 -29 30 -72 44 -96 13 -24 22 -45
20 -48 -10 -9 -81 73 -84 97 -2 13 -6 51 -10 85 l-6 60 33 16 c51 25 62 11 21
-27z m68 -22 c0 -3 -7 -14 -15 -23 -17 -18 -30 -94 -15 -85 6 4 10 -1 10 -9 0
-25 -17 -18 -28 12 -21 51 -24 82 -12 97 12 15 60 21 60 8z m-567 -125 c2 -7
0 -20 -4 -28 -5 -8 -16 -42 -26 -75 -14 -48 -23 -61 -40 -63 -29 -4 -29 -5 4
95 20 61 32 83 44 83 10 0 19 -6 22 -12z m1055 -5 c15 -28 54 -144 50 -147 -1
-2 -15 -6 -29 -9 -25 -6 -27 -4 -48 66 -13 39 -25 77 -27 84 -4 10 8 17 38 22
4 0 11 -7 16 -16z m-908 -59 c0 3 32 -11 70 -30 54 -28 70 -41 70 -57 0 -24
-13 -48 -26 -50 -5 -1 -8 -5 -6 -10 1 -4 -7 -2 -18 5 -31 19 -40 72 -15 90 15
11 -7 10 -24 -1 -8 -5 -12 -19 -9 -35 4 -21 1 -27 -17 -32 -13 -3 -35 1 -51 9
l-27 14 26 18 c14 9 30 14 36 11 5 -3 12 1 15 10 4 9 5 17 4 18 -2 1 -13 9
-25 19 -21 18 -22 18 -42 -2 -22 -22 -27 -41 -12 -41 5 0 17 7 25 16 9 8 22
14 29 11 14 -4 -44 -37 -68 -37 -20 0 -19 5 7 51 18 32 24 36 40 28 10 -5 18
-7 18 -5z m782 -49 c10 -32 17 -59 16 -60 -2 -1 -40 -9 -84 -18 l-82 -16 -41
40 c-23 21 -35 39 -27 39 7 0 16 -6 19 -14 3 -8 18 -23 32 -32 23 -15 33 -16
96 -4 38 7 69 18 69 24 0 6 -5 28 -11 50 -10 37 -12 38 -47 33 l-37 -5 30 13
c17 8 34 13 40 11 5 -1 18 -29 27 -61z m-402 1 c0 -2 -16 -6 -35 -8 -19 -2
-35 0 -35 4 0 4 16 8 35 8 19 0 35 -2 35 -4z m-219 -57 c-5 -13 -10 -19 -10
-12 -1 15 10 45 15 40 3 -2 0 -15 -5 -28z m360 12 c-7 -5 -10 -14 -7 -20 4 -6
5 -11 2 -11 -3 0 -10 8 -15 18 -8 14 -5 18 12 19 16 2 18 0 8 -6z m-116 -61
c10 -11 16 -23 13 -26 -3 -3 -15 5 -27 17 -16 18 -24 20 -33 11 -14 -14 -58
-16 -58 -3 0 25 83 26 105 1z m168 3 c-7 -2 -19 -2 -25 0 -7 3 -2 5 12 5 14 0
19 -2 13 -5z"/>
<path d="M2591 4644 c0 -11 3 -14 6 -6 3 7 2 16 -1 19 -3 4 -6 -2 -5 -13z"/>
<path d="M2590 4610 c0 -5 5 -10 11 -10 5 0 7 5 4 10 -3 6 -8 10 -11 10 -2 0
-4 -4 -4 -10z"/>
<path d="M1763 4616 c0 -7 6 -13 14 -13 7 0 13 4 13 8 0 4 -6 9 -13 12 -8 3
-14 0 -14 -7z"/>
<path d="M1868 5094 c-110 -38 -198 -96 -283 -186 -47 -49 -85 -92 -85 -96 0
-4 20 -14 44 -21 25 -7 108 -44 185 -82 78 -38 152 -71 166 -75 14 -3 28 -10
31 -15 3 -5 10 -9 16 -9 7 0 8 16 4 47 -3 27 -13 138 -21 247 -9 110 -16 201
-18 202 -1 1 -19 -4 -39 -12z m-61 -55 c-54 -27 -100 -56 -104 -64 -3 -8 -12
-15 -20 -15 -8 0 -11 -4 -8 -10 3 -5 -1 -10 -10 -10 -9 0 -13 -4 -10 -10 3 -5
1 -10 -4 -10 -18 0 -61 -42 -54 -53 3 -6 1 -7 -4 -4 -6 4 -19 -3 -29 -15 -11
-12 -13 -18 -6 -14 13 8 16 -3 4 -21 -11 -18 -36 1 -26 19 22 37 92 113 134
143 53 39 198 114 220 114 8 0 -29 -22 -83 -50z m10 -59 c-44 -21 -84 -37 -90
-36 -7 2 -9 1 -5 -1 3 -2 -28 -38 -69 -79 -74 -74 -113 -98 -54 -33 22 24 27
35 18 41 -8 5 -5 8 10 8 13 0 33 15 51 38 30 37 41 44 112 75 96 41 116 32 27
-13z m63 -159 c-7 -17 -19 -36 -28 -43 -13 -11 -12 -8 2 13 9 15 16 31 15 35
-1 5 -1 18 0 29 1 14 4 16 12 8 9 -9 9 -19 -1 -42z m-36 3 c8 -21 1 -31 -35
-50 -25 -12 -28 -18 -18 -30 7 -9 8 -14 1 -14 -6 0 -12 5 -14 12 -3 9 -6 9
-11 1 -8 -12 42 -47 83 -57 l25 -7 -22 17 c-18 13 -20 20 -13 34 7 13 7 21 0
25 -5 3 -10 1 -10 -4 0 -6 -5 -11 -11 -11 -20 0 -3 25 18 26 11 1 25 4 31 8
12 7 42 -20 42 -37 0 -7 -7 -3 -15 7 -17 22 -18 19 -15 -41 1 -24 0 -43 -2
-43 -10 0 -95 45 -116 60 l-22 18 42 36 c24 20 37 36 31 36 -7 0 -31 -16 -53
-36 -22 -20 -44 -34 -50 -32 -9 3 106 95 121 97 4 1 10 -6 13 -15z m66 -152
c-9 -3 -9 -7 1 -13 11 -7 10 -9 -4 -9 -11 0 -16 5 -13 13 3 6 9 21 13 32 7 20
7 20 11 0 2 -10 -1 -21 -8 -23z"/>
<path d="M1820 4821 c0 -5 5 -13 10 -16 6 -3 10 -2 10 4 0 5 -4 13 -10 16 -5
3 -10 2 -10 -4z"/>
<path d="M2165 5048 c-4 -35 -18 -133 -31 -218 -13 -85 -24 -170 -24 -187 0
-40 -15 -45 230 76 102 50 193 91 203 91 9 0 17 4 17 8 0 16 -112 143 -153
174 -36 26 -214 118 -230 118 -3 0 -8 -28 -12 -62z m129 -4 c93 -44 229 -164
187 -164 -5 0 -11 8 -13 18 -3 9 -18 24 -34 32 -16 8 -40 26 -53 40 -13 14
-20 18 -15 10 6 -13 5 -13 -12 0 -10 9 -36 23 -56 33 -21 9 -38 22 -38 29 0 9
-3 10 -8 2 -4 -7 -15 -8 -27 -3 l-20 8 20 1 c14 1 10 5 -15 15 -28 11 -30 14
-12 14 12 1 56 -15 96 -35z m-30 -48 c40 -18 89 -50 109 -70 20 -20 37 -34 37
-31 0 4 15 -13 33 -37 22 -28 40 -42 53 -40 17 2 17 1 2 -8 -14 -8 -29 2 -87
59 -52 51 -92 80 -150 108 -44 21 -80 41 -80 46 -1 11 6 9 83 -27z m254 -141
c15 -33 15 -36 -3 -29 -8 3 -13 11 -12 17 1 7 -6 11 -15 9 -9 -1 -20 3 -24 9
-4 7 -3 9 4 5 6 -3 13 -2 17 4 10 17 21 12 33 -15z m-247 -41 c74 -49 89 -64
64 -64 -22 0 -94 47 -135 88 -44 45 -20 37 71 -24z m-62 -90 c8 -7 21 -10 28
-7 21 8 15 -5 -8 -18 -17 -9 -20 -8 -15 3 4 7 1 6 -5 -3 -10 -13 -17 -15 -36
-6 -22 10 -26 38 -8 54 4 5 5 2 1 -4 -4 -7 -2 -13 3 -13 6 0 11 8 12 18 0 13
2 14 6 2 4 -8 13 -20 22 -26z"/>
<path d="M1400 4500 c0 -84 30 -212 70 -295 66 -139 48 -140 202 12 190 188
279 251 303 213 3 -6 -1 -7 -9 -4 -27 10 -77 -30 -240 -195 -87 -89 -163 -158
-168 -155 -6 4 -9 2 -7 -3 10 -26 174 -152 183 -142 2 2 21 31 42 64 20 33 74
111 118 174 88 125 88 127 22 170 -25 17 -33 28 -26 35 12 12 71 -16 93 -43 7
-9 -5 -5 -28 9 l-40 24 30 -30 c28 -29 31 -29 46 -13 9 10 19 16 21 13 8 -7
-7 70 -16 84 -10 16 9 15 21 0 5 -7 17 -38 27 -68 18 -51 182 -398 204 -429 8
-12 22 -7 79 27 37 23 78 51 91 61 l23 20 -38 49 c-21 27 -86 108 -145 181
-58 73 -113 146 -120 162 l-15 29 -41 -36 c-52 -44 -56 -34 -5 12 42 38 30 47
-14 10 -23 -20 -30 -21 -41 -10 -16 18 -54 26 -257 58 -93 15 -214 35 -267 45
l-98 18 0 -47z m92 -50 c10 -92 26 -145 65 -222 32 -62 37 -98 11 -82 -7 4 -8
2 -4 -4 3 -6 -2 -16 -13 -22 -18 -9 -24 -3 -60 72 -44 90 -66 168 -76 266 l-7
63 38 -3 39 -3 7 -65z m130 -6 c11 -3 25 -1 31 5 6 6 18 11 27 10 10 0 9 -3
-5 -9 -17 -7 -16 -9 10 -9 30 -1 30 -2 29 -56 0 -30 -4 -58 -8 -62 -10 -10
-24 15 -31 58 -6 37 -37 59 -52 37 -10 -17 -33 22 -32 51 2 23 2 24 6 4 2 -12
13 -25 25 -29z m204 -26 c-10 -6 -22 -6 -26 -2 -5 5 3 10 18 11 22 1 24 0 8
-9z m-169 -27 c0 -11 -5 -17 -9 -15 -12 7 -8 -26 7 -66 7 -19 18 -34 24 -32 6
1 11 -2 11 -8 0 -5 -6 -10 -14 -10 -8 0 -22 22 -31 51 -15 43 -15 55 -4 75 15
29 18 30 16 5z m98 -11 c-3 -5 -11 -10 -16 -10 -6 0 -7 5 -4 10 3 6 11 10 16
10 6 0 7 -4 4 -10z m398 -12 c2 -7 -3 -26 -11 -43 -9 -16 -15 -35 -14 -41 1
-6 -5 -18 -15 -25 -15 -12 -16 -12 -10 4 4 11 3 16 -3 12 -6 -3 -13 1 -16 9
-4 10 6 27 26 46 17 16 29 34 25 40 -3 5 -2 10 4 10 5 0 11 -6 14 -12z m-410
-43 c-20 -25 -39 -45 -41 -45 -8 0 30 55 50 73 34 29 31 19 -9 -28z m-73 20
c0 -8 -2 -15 -4 -15 -2 0 -6 7 -10 15 -3 8 -1 15 4 15 6 0 10 -7 10 -15z m172
-37 c-7 -7 -12 -8 -12 -2 0 14 12 26 19 19 2 -3 -1 -11 -7 -17z m85 -17 c-8
-9 -33 -51 -56 -93 -52 -96 -64 -103 -17 -10 19 37 39 79 44 93 6 14 17 26 26
26 14 0 14 -3 3 -16z m355 -99 l47 -59 -32 -18 c-18 -10 -29 -14 -25 -10 4 4
3 14 -3 21 -14 17 8 29 26 14 9 -7 15 -8 15 -2 0 14 -26 33 -34 24 -4 -4 -6 0
-4 8 2 8 -1 14 -7 15 -5 0 -14 3 -20 6 -5 4 -18 5 -28 4 -9 -2 -15 1 -12 6 3
4 -3 14 -14 21 -18 11 -19 14 -4 42 l15 29 17 -21 c9 -11 37 -47 63 -80z
m-516 23 c-43 -38 -69 -49 -32 -12 23 22 56 45 66 46 3 1 -13 -15 -34 -34z
m60 -44 c-15 -28 -31 -51 -37 -51 -15 0 -92 41 -86 46 2 3 20 -5 40 -16 31
-18 35 -19 41 -5 3 9 10 14 15 11 4 -3 16 12 26 34 10 22 20 38 22 36 2 -2 -7
-27 -21 -55z m351 30 c9 -15 9 -19 0 -17 -21 3 -38 17 -32 27 9 14 19 11 32
-10z m-12 -31 c4 -6 11 -8 16 -5 5 3 6 0 3 -8 -3 -8 6 -21 21 -31 14 -9 23
-22 19 -28 -4 -6 2 -8 17 -4 24 7 24 7 -1 -8 -31 -19 -41 -20 -39 -3 3 26 -2
36 -15 31 -9 -3 -20 7 -30 27 -9 18 -16 34 -16 36 0 7 19 2 25 -7z m-531 -112
c9 -13 14 -17 10 -10 -5 11 -2 12 15 2 12 -6 18 -16 15 -22 -5 -7 -2 -8 5 -4
7 5 20 1 29 -7 9 -8 22 -16 28 -18 8 -3 9 -12 3 -27 -8 -22 -10 -22 -40 -7
-52 27 -122 97 -107 107 19 12 24 10 42 -14z m781 -36 c-6 -4 -32 -22 -57 -39
-63 -44 -99 -58 -110 -41 -15 25 -8 37 40 61 26 14 60 32 77 41 27 14 31 14
45 0 10 -10 11 -17 5 -22z"/>
<path d="M1435 4501 c-3 -5 -2 -36 1 -67 5 -39 9 -52 14 -39 6 17 8 16 12 -8
3 -15 1 -30 -3 -33 -5 -3 -9 -11 -9 -17 0 -7 4 -6 10 3 7 12 10 11 15 -5 4
-11 18 -46 31 -78 14 -31 22 -63 18 -70 -5 -8 -2 -7 9 2 15 12 17 12 12 -1 -4
-9 1 -18 9 -21 9 -4 16 -4 16 -2 0 13 -45 95 -53 95 -4 0 -5 5 -2 10 3 6 1 10
-5 10 -6 0 -8 5 -5 10 3 6 -2 22 -12 38 -11 15 -20 45 -22 67 -2 42 -19 115
-26 115 -2 0 -6 -4 -10 -9z"/>
<path d="M1460 4501 c0 -6 4 -13 10 -16 6 -3 7 1 4 9 -7 18 -14 21 -14 7z"/>
<path d="M1496 4217 c3 -10 9 -15 12 -12 3 3 0 11 -7 18 -10 9 -11 8 -5 -6z"/>
<path d="M2207 4240 c-3 -10 1 -24 9 -31 11 -9 14 -9 14 0 0 7 5 9 12 5 7 -4
8 -3 4 5 -4 6 -12 9 -17 6 -5 -3 -6 0 -3 8 3 8 1 18 -4 21 -5 3 -12 -3 -15
-14z"/>
<path d="M1690 4010 c0 -5 5 -10 11 -10 5 0 7 5 4 10 -3 6 -8 10 -11 10 -2 0
-4 -4 -4 -10z"/>
<path d="M2480 4524 c-229 -37 -330 -57 -335 -65 -3 -4 31 -51 76 -106 44 -54
118 -144 162 -200 l82 -102 33 37 c82 94 136 231 148 376 5 70 4 86 -7 85 -8
-1 -79 -12 -159 -25z m135 -169 c-20 -90 -63 -182 -110 -234 -36 -39 -39 -41
-56 -25 -26 24 -24 37 16 98 45 67 82 171 91 255 5 45 9 59 16 48 12 -23 -18
-160 -53 -237 -18 -39 -22 -56 -11 -42 25 32 70 155 83 227 6 33 16 66 22 74
19 23 21 -82 2 -164z m-155 133 c-1 -77 -78 -273 -104 -265 -6 2 -34 34 -63
70 -51 67 -51 67 -37 100 39 85 34 81 114 93 41 6 78 12 83 13 4 0 7 -5 7 -11z
m-265 -49 c11 -17 -1 -21 -15 -4 -8 9 -8 15 -2 15 6 0 14 -5 17 -11z"/>
<path d="M2460 4160 c-12 -16 -19 -30 -16 -30 2 0 14 14 26 30 12 17 19 30 16
30 -2 0 -14 -13 -26 -30z"/>
<path d="M2370 4473 c-8 -3 -21 -12 -27 -21 -9 -11 -13 -12 -13 -3 0 11 -3 11
-15 1 -8 -7 -15 -9 -15 -4 0 5 -5 2 -10 -6 -5 -8 -10 -32 -10 -53 0 -26 -4
-36 -11 -31 -7 4 -10 1 -7 -7 3 -8 10 -13 16 -12 6 2 17 -7 23 -20 7 -12 10
-22 8 -23 -2 -1 7 -13 21 -27 23 -24 26 -25 42 -10 15 13 16 19 5 31 -7 10 -8
13 -1 9 16 -10 50 66 58 131 l7 52 -28 -1 c-15 0 -35 -3 -43 -6z"/>
<path d="M1987 4484 c6 -17 15 -18 31 -2 9 9 12 8 12 -5 0 -9 5 -17 11 -17 5
0 7 -4 4 -10 -10 -16 11 -12 25 5 11 13 10 14 -4 9 -11 -4 -16 -1 -16 10 0 9
-3 16 -7 17 -5 0 -20 2 -35 4 -20 3 -25 0 -21 -11z"/>
<path d="M1945 4197 c-44 -66 -104 -158 -132 -204 l-53 -84 28 -10 c93 -36
212 -46 335 -28 103 15 105 17 73 75 -22 40 -152 319 -167 360 -2 6 -40 -43
-84 -109z m83 15 c-7 -8 -14 -10 -21 -3 -7 7 -6 15 3 26 10 12 15 13 21 3 4
-7 3 -18 -3 -26z m-17 -19 c8 -10 9 -14 2 -10 -6 4 -14 3 -18 -3 -4 -6 -10 -8
-15 -5 -5 3 -11 1 -14 -4 -12 -18 13 -21 30 -4 10 10 20 17 23 17 3 -1 5 2 4
6 -1 4 4 10 11 13 14 6 88 -132 79 -147 -6 -9 -209 -3 -219 7 -10 10 84 147
101 147 1 0 9 -8 16 -17z m-36 -234 c5 -6 2 -9 -8 -9 -26 0 -21 -39 6 -49 28
-11 57 4 57 29 0 12 -7 21 -17 21 -10 1 9 5 42 9 33 4 70 10 81 14 15 4 23 2
27 -8 4 -9 0 -13 -11 -11 -9 1 -11 0 -4 -2 6 -3 12 -8 12 -13 0 -5 6 -7 14 -4
20 8 28 -33 7 -42 -30 -13 -255 -17 -311 -5 -82 17 -91 26 -58 54 15 13 25 26
22 29 -9 10 130 -4 141 -13z"/>
<path d="M2060 4130 c0 -5 5 -10 11 -10 5 0 7 5 4 10 -3 6 -8 10 -11 10 -2 0
-4 -4 -4 -10z"/>
<path d="M1926 4083 c-6 -14 -5 -15 5 -6 7 7 10 15 7 18 -3 3 -9 -2 -12 -12z"/>
<path d="M7986 5113 l-48 -4 6 -32 c11 -52 36 -356 36 -437 0 -41 -5 -82 -10
-90 -9 -13 -10 -13 -11 0 -1 8 0 27 1 42 1 25 -40 510 -45 515 -4 6 -104 -34
-165 -66 -42 -22 -94 -62 -147 -116 -78 -77 -97 -105 -73 -105 35 0 420 -212
420 -231 0 -5 -12 -3 -28 5 -27 14 -28 14 -46 -30 -19 -46 -23 -49 -44 -36
-10 7 -7 17 13 46 14 20 25 39 25 41 0 3 -82 46 -181 96 -157 78 -184 89 -196
76 -15 -15 -73 -171 -73 -198 0 -12 14 -18 58 -22 107 -12 437 -79 481 -98 24
-11 46 -17 49 -14 3 2 -6 9 -20 14 -32 12 -44 40 -20 48 9 4 29 16 44 27 35
25 69 12 89 -33 9 -19 19 -29 28 -26 39 15 463 86 514 85 15 0 27 2 27 4 0 8
-68 200 -75 214 -2 3 -355 -143 -409 -169 -38 -18 -59 -18 -40 0 14 15 344
168 392 183 23 7 42 15 42 18 0 3 -29 38 -65 77 -76 83 -148 133 -256 179 -88
37 -89 37 -89 -49 0 -29 -9 -126 -20 -217 -12 -91 -21 -191 -21 -223 0 -59
-13 -69 -24 -19 -3 16 3 109 14 208 11 98 23 215 26 259 l7 80 -59 1 c-32 0
-80 -1 -107 -3z m144 -30 c0 -16 -11 -18 -82 -18 -76 0 -97 6 -98 28 0 4 41 7
90 7 79 0 90 -2 90 -17z m-220 -3 c0 -5 -6 -10 -14 -10 -14 0 -121 -53 -142
-71 -6 -5 -13 -7 -16 -4 -2 3 -17 -9 -33 -25 -16 -17 -32 -30 -37 -30 -8 0
-37 -22 -69 -52 -10 -9 -16 -27 -15 -41 3 -20 -1 -25 -17 -21 -11 2 -22 6 -25
9 -10 10 111 125 180 171 94 62 188 99 188 74z m429 -53 c81 -47 143 -101 193
-168 26 -35 26 -37 8 -42 -11 -3 -18 -1 -15 4 8 13 -14 51 -26 44 -5 -4 -8 -3
-7 2 2 5 -9 22 -24 38 -16 16 -28 26 -28 21 0 -5 -7 -3 -15 4 -8 7 -13 16 -10
20 5 8 -17 20 -44 26 -8 1 -17 6 -20 11 -9 12 -51 32 -101 48 -25 7 -36 14
-25 15 16 1 15 4 -7 12 -16 5 -28 14 -28 19 0 10 99 -25 149 -54z m-434 -7
c-3 -5 -11 -10 -16 -10 -21 0 -136 -63 -184 -100 -27 -22 -59 -53 -70 -70 -22
-33 -35 -39 -35 -15 0 8 5 15 12 15 6 0 8 3 5 6 -7 8 39 52 98 93 80 56 209
111 190 81z m395 -38 c36 -16 75 -40 88 -53 64 -68 92 -102 92 -111 0 -6 8 -7
18 -3 13 5 14 3 6 -5 -9 -9 -28 4 -78 53 -44 41 -96 79 -151 108 -47 24 -85
47 -85 51 0 9 19 2 110 -40z m-196 -154 c-7 -46 -14 -97 -16 -115 -2 -30 -3
-31 -37 -26 -20 3 -37 7 -38 7 -1 1 -6 48 -10 104 -10 114 -13 109 68 111 l46
1 -13 -82z m140 31 c49 -23 126 -85 126 -102 0 -6 -11 0 -25 13 -14 13 -25 20
-25 15 0 -4 -11 4 -25 19 -14 15 -25 24 -25 21 0 -4 -12 3 -26 14 -15 12 -33
21 -40 21 -7 0 -16 5 -19 10 -10 16 11 12 59 -11z m-325 -93 c6 -55 14 -111
18 -125 l6 -25 -24 23 c-13 12 -37 29 -53 38 -21 11 -25 18 -17 26 6 6 11 19
11 30 0 11 4 15 12 11 8 -5 9 -2 5 9 -4 12 -1 17 11 18 9 0 12 3 6 5 -7 3 -10
14 -7 24 3 11 0 20 -6 20 -6 0 -11 -8 -11 -17 -1 -17 -1 -17 -11 0 -6 9 -15
15 -20 12 -5 -4 -7 -10 -4 -15 3 -5 0 -12 -6 -16 -8 -4 -9 -3 -5 4 14 23 -9
11 -27 -14 -23 -30 -9 -54 31 -54 19 0 23 -3 15 -11 -8 -8 -22 -5 -52 10 -22
12 -41 25 -41 29 0 18 146 129 156 119 1 -1 7 -47 13 -101z m-389 4 c18 -10
18 -11 0 -53 -10 -23 -24 -63 -30 -89 -11 -41 -16 -48 -37 -48 -24 0 -25 2
-19 42 7 40 54 158 63 158 2 0 13 -5 23 -10z m1096 -102 c13 -39 23 -72 21
-73 -1 -2 -12 -5 -24 -9 -19 -6 -23 0 -42 61 -12 37 -26 75 -31 83 -7 11 -3
18 13 27 27 14 29 11 63 -89z m-318 58 c-39 -20 -75 -33 -125 -42 -7 -1 -13 3
-13 10 0 6 11 13 24 14 14 1 48 10 78 20 75 27 89 26 36 -2z m166 -86 c3 -19
3 -30 0 -23 -3 7 -13 9 -22 6 -13 -4 -14 -3 -3 5 21 15 6 66 -17 57 -9 -4 -23
-8 -30 -9 -7 -1 -21 -9 -30 -17 -10 -9 -24 -13 -31 -11 -9 3 -11 0 -6 -9 5 -8
4 -10 0 -6 -5 4 -14 -1 -19 -12 -9 -16 -13 -17 -24 -5 -10 11 -3 18 40 40 29
15 68 32 88 39 39 14 42 11 54 -55z m-782 42 c18 -10 55 -27 81 -37 58 -22 60
-26 40 -54 -12 -18 -17 -20 -25 -10 -5 9 -6 4 -2 -15 8 -32 12 -32 -119 -4
l-48 10 7 36 c9 50 17 56 12 10 -4 -41 4 -49 50 -47 l27 1 -25 8 c-14 5 -18 8
-9 9 9 1 23 9 30 18 12 15 12 16 -6 9 -16 -6 -17 -5 -8 5 9 9 10 16 2 26 -9
10 -8 13 2 13 8 0 3 6 -11 14 -21 11 -27 11 -37 -2 -12 -14 -13 -14 -13 -1 0
14 8 29 16 29 2 0 18 -8 36 -18z m328 -22 c0 -5 16 -17 37 -25 20 -8 33 -18
29 -22 -3 -4 -12 -1 -18 5 -7 7 -25 12 -40 12 -21 0 -28 5 -28 20 0 11 5 20
10 20 6 0 10 -4 10 -10z m256 -67 c-7 -7 -26 7 -26 19 0 6 6 6 15 -2 9 -7 13
-15 11 -17z m-60 8 c-14 -5 -16 -10 -8 -15 7 -4 10 -11 7 -16 -3 -5 1 -15 10
-23 12 -13 12 -16 1 -20 -9 -4 -19 5 -26 24 -7 16 -18 29 -24 29 -6 0 -2 7 8
15 11 8 27 15 35 14 12 0 11 -2 -3 -8z m274 -16 c0 -10 -9 -15 -27 -14 -24 2
-25 2 -5 6 12 2 22 9 22 14 0 5 2 9 5 9 3 0 5 -7 5 -15z m-330 -19 c0 -3 -4
-8 -10 -11 -5 -3 -10 -1 -10 4 0 6 5 11 10 11 6 0 10 -2 10 -4z m140 -19 c9
-3 4 -6 -12 -6 -27 -1 -35 8 -21 22 4 4 9 3 12 -1 3 -5 13 -12 21 -15z m45 13
c3 -5 1 -10 -4 -10 -6 0 -11 5 -11 10 0 6 2 10 4 10 3 0 8 -4 11 -10z"/>
<path d="M8054 4752 c3 -5 1 -12 -6 -14 -13 -5 -2 -28 13 -28 13 0 11 37 -3
46 -6 4 -8 3 -4 -4z"/>
<path d="M7860 4830 c-8 -5 -10 -10 -5 -10 6 0 17 5 25 10 8 5 11 10 5 10 -5
0 -17 -5 -25 -10z"/>
<path d="M7865 4700 c-7 -12 19 -24 37 -17 7 3 3 6 -10 6 -13 1 -20 5 -17 11
3 6 4 10 1 10 -3 0 -8 -5 -11 -10z"/>
<path d="M8564 4739 c-3 -6 -2 -15 4 -21 6 -6 12 -6 17 3 6 8 4 10 -5 4 -10
-6 -12 -4 -7 8 7 19 2 23 -9 6z"/>
<path d="M8586 4693 c-6 -14 -5 -15 5 -6 7 7 10 15 7 18 -3 3 -9 -2 -12 -12z"/>
<path d="M8598 4634 c2 -12 11 -25 19 -28 11 -5 13 -2 9 10 -3 8 -6 21 -6 28
0 7 -6 13 -13 13 -9 0 -12 -9 -9 -23z"/>
<path d="M7410 4503 c1 -126 44 -269 114 -377 l37 -59 17 24 c26 39 262 281
309 318 24 19 47 31 51 27 4 -4 -5 -16 -19 -26 -23 -17 -250 -261 -313 -337
l-27 -32 63 -47 c35 -25 80 -55 100 -65 l37 -19 37 68 c20 37 73 131 117 210
73 131 79 147 75 187 -5 38 -3 43 13 40 10 -2 21 0 24 6 4 5 16 9 28 10 14 0
17 3 8 6 -10 4 -5 10 15 20 16 7 21 11 12 8 -11 -2 -18 1 -18 9 0 7 -9 21 -20
31 -16 14 -18 21 -8 27 8 6 4 7 -12 3 -39 -11 -45 -23 -15 -31 18 -4 23 -9 15
-14 -7 -4 -29 -1 -49 7 l-36 14 30 -24 c26 -22 32 -23 50 -11 21 14 35 10 35
-9 0 -5 -7 -7 -15 -4 -8 4 -17 2 -20 -3 -4 -6 0 -10 7 -10 7 0 5 -5 -6 -12
-14 -8 -28 -8 -50 0 -45 16 -150 37 -358 72 -101 16 -193 32 -205 35 -21 5
-23 2 -23 -42z m82 3 c4 -6 8 -27 8 -46 1 -60 29 -162 67 -237 35 -70 36 -73
19 -98 -10 -14 -23 -25 -29 -23 -7 2 -33 45 -58 96 -45 89 -60 145 -74 274
l-6 58 33 -7 c18 -3 36 -11 40 -17z m163 -26 c-13 -6 -2 -8 35 -5 37 4 48 2
35 -4 -11 -4 -24 -6 -28 -4 -5 3 -5 -3 1 -13 5 -11 7 -26 5 -34 -3 -10 0 -9 7
3 13 21 30 22 30 2 0 -8 5 -15 10 -15 6 0 10 -8 9 -17 0 -10 -3 -13 -6 -6 -3
9 -9 10 -23 1 -14 -9 -22 -9 -33 0 -11 10 -17 9 -28 -5 -8 -9 -9 -14 -2 -10 6
4 14 3 18 -3 4 -6 10 -8 14 -6 4 3 8 -2 8 -10 0 -8 -5 -13 -12 -11 -6 3 -12
-5 -13 -16 0 -12 2 -17 6 -11 4 6 14 11 22 12 8 0 26 4 40 8 24 7 24 6 -6 -22
-17 -16 -33 -36 -37 -44 -5 -13 -7 -13 -16 0 -13 18 -48 133 -56 183 -5 34 -4
37 17 36 22 0 22 -1 3 -9z m102 -42 c-3 -7 -5 -2 -5 12 0 14 2 19 5 13 2 -7 2
-19 0 -25z m-27 18 c0 -3 -4 -8 -10 -11 -5 -3 -10 -1 -10 4 0 6 5 11 10 11 6
0 10 -2 10 -4z m85 -34 c-3 -8 -5 -23 -5 -35 -1 -20 -2 -20 -11 -5 -5 10 -12
31 -14 48 -3 27 -2 28 16 17 11 -7 17 -18 14 -25z m111 -67 c4 -9 13 -14 21
-13 10 2 17 -6 20 -21 3 -24 3 -24 -17 -6 -11 10 -20 15 -20 11 0 -3 -11 1
-25 10 -14 9 -25 20 -25 25 0 15 40 10 46 -6z m-36 -39 c8 -11 10 -17 3 -13
-7 4 -19 -2 -28 -15 l-17 -23 7 25 c6 24 5 24 -9 6 -9 -10 -13 -23 -10 -27 3
-5 0 -9 -5 -9 -6 0 -11 -7 -11 -16 0 -8 -4 -12 -10 -9 -5 3 -10 3 -10 -2 0 -4
-13 -23 -29 -42 -27 -32 -28 -36 -13 -48 14 -11 13 -12 -10 -2 -16 7 -28 16
-28 20 0 9 151 182 154 177 1 -2 8 -12 16 -22z m61 -18 c11 -21 11 -22 -4 -9
-10 7 -17 17 -17 22 0 15 9 10 21 -13z m-62 -140 c-17 -35 -33 -65 -35 -67 -5
-6 -64 20 -70 31 -4 5 8 2 26 -7 30 -15 33 -15 46 2 8 10 11 29 8 42 -4 18 -1
22 9 18 9 -3 19 4 26 19 6 13 13 24 16 24 3 0 -9 -28 -26 -62z m-107 -168 c9
0 3 -48 -7 -58 -8 -8 -105 52 -135 83 -28 29 -30 34 -16 48 14 14 22 11 82
-29 36 -24 70 -44 76 -44z"/>
<path d="M7457 4478 c9 -49 20 -54 19 -8 -1 24 -6 40 -13 40 -9 0 -11 -10 -6
-32z"/>
<path d="M7441 4424 c0 -11 3 -14 6 -6 3 7 2 16 -1 19 -3 4 -6 -2 -5 -13z"/>
<path d="M7481 4393 c-1 -17 4 -35 9 -38 11 -7 11 9 0 45 -8 24 -8 24 -9 -7z"/>
<path d="M7461 4324 c0 -11 3 -14 6 -6 3 7 2 16 -1 19 -3 4 -6 -2 -5 -13z"/>
<path d="M7490 4238 c0 -11 32 -68 41 -74 5 -3 0 12 -12 33 -22 40 -29 50 -29
41z"/>
<path d="M7540 4224 c0 -7 9 -22 21 -35 16 -19 18 -20 10 -4 -17 34 -31 51
-31 39z"/>
<path d="M7550 4130 c6 -11 13 -20 16 -20 2 0 0 9 -6 20 -6 11 -13 20 -16 20
-2 0 0 -9 6 -20z"/>
<path d="M7670 4420 c-9 -6 -10 -10 -3 -10 6 0 15 5 18 10 8 12 4 12 -15 0z"/>
<path d="M8540 4528 c-69 -9 -176 -24 -237 -33 -190 -26 -188 -10 -21 -188 79
-83 162 -174 185 -200 l42 -49 44 61 c86 116 120 219 115 348 l-3 79 -125 -18z
m110 -161 c-8 -42 -27 -99 -51 -145 -44 -87 -98 -158 -99 -129 0 9 -5 17 -12
17 -6 0 -1 10 11 21 20 19 51 76 51 94 0 11 -37 -31 -56 -62 -10 -18 -22 -33
-26 -33 -12 0 -11 3 32 76 47 81 67 136 83 236 9 51 17 74 28 76 12 2 15 -4
12 -25 -2 -15 0 -46 5 -68 l10 -40 1 50 c1 28 5 61 9 75 13 45 14 -67 2 -143z
m-185 123 c4 -6 -10 -9 -37 -9 l-43 2 35 7 c19 4 36 8 37 9 1 0 5 -3 8 -9z
m-100 -20 c-11 -5 -30 -9 -42 -9 -20 -1 -23 -7 -23 -38 0 -21 -3 -48 -6 -60
-5 -16 4 -32 35 -63 36 -37 44 -40 58 -29 15 13 15 12 3 -10 l-13 -25 -49 53
c-44 46 -50 56 -44 83 3 17 6 47 6 67 l0 36 48 2 c34 2 42 0 27 -7z m-168 -16
c-3 -3 -12 -4 -19 -1 -8 3 -5 6 6 6 11 1 17 -2 13 -5z m257 -43 c-4 -17 -9
-30 -11 -27 -3 2 -2 19 2 36 9 41 17 33 9 -9z m-23 -68 c-12 -20 -14 -14 -5
12 4 9 9 14 11 11 3 -2 0 -13 -6 -23z"/>
<path d="M8616 4340 c-3 -23 -11 -38 -16 -35 -5 3 -14 -3 -19 -14 -8 -14 -7
-20 5 -25 10 -4 18 3 25 22 13 33 24 92 17 92 -3 0 -8 -18 -12 -40z"/>
<path d="M8555 4251 c-3 -5 -2 -12 3 -15 5 -3 9 1 9 9 0 17 -3 19 -12 6z"/>
<path d="M8077 4422 c-34 -23 -37 -29 -31 -56 3 -17 15 -47 26 -66 11 -21 16
-26 12 -12 -4 17 1 31 17 48 12 13 25 21 30 19 4 -3 11 0 15 6 4 8 3 9 -4 5
-16 -10 -15 9 1 23 10 8 17 7 25 -1 17 -17 16 -21 -30 -79 l-42 -53 28 -50
c109 -200 170 -294 185 -289 54 20 202 133 173 133 -5 0 -88 89 -183 198 -95
108 -175 198 -178 198 -3 1 -23 -10 -44 -24z m134 -109 c13 -16 12 -17 -3 -4
-10 7 -18 15 -18 17 0 8 8 3 21 -13z m-37 -115 c-3 -4 2 -21 11 -38 13 -25 19
-29 35 -20 12 6 21 7 25 0 3 -5 13 -7 23 -4 9 3 0 -4 -21 -16 -22 -12 -40 -20
-41 -18 -2 2 -19 33 -38 70 -31 58 -32 65 -13 50 13 -9 21 -20 19 -24z m122
20 c12 -14 13 -18 3 -10 -9 6 -18 10 -21 7 -2 -3 -5 2 -5 10 0 19 0 19 23 -7z
m37 -59 c-14 -13 -46 -14 -49 -1 -1 7 0 8 2 3 9 -17 33 -1 26 17 -5 15 -4 15
12 3 9 -8 13 -18 9 -22z m100 -148 c-44 -37 -120 -74 -138 -67 -29 11 -14 34
47 72 83 52 90 54 108 37 13 -13 11 -18 -17 -42z"/>
<path d="M8030 4326 c0 -19 -128 -268 -191 -373 l-38 -62 50 -10 c89 -19 212
-24 300 -12 47 7 91 16 97 20 9 5 -3 35 -39 102 -29 52 -80 153 -115 224 -35
72 -64 122 -64 111z m11 -93 c-12 -20 -14 -14 -5 12 4 9 9 14 11 11 3 -2 0
-13 -6 -23z m43 -63 c-6 -6 -10 -3 -10 10 0 13 4 16 10 10 7 -7 7 -13 0 -20z
m-64 14 c0 -8 -19 -13 -24 -6 -3 5 1 9 9 9 8 0 15 -2 15 -3z m109 -83 c11 -21
17 -41 14 -45 -11 -10 -197 -6 -213 5 -11 7 -4 8 25 5 26 -4 32 -3 16 2 -33
10 -36 25 -10 48 22 19 22 19 10 -3 -15 -29 -14 -33 5 -33 9 0 12 5 8 12 -5 8
0 9 17 5 23 -6 23 -5 5 8 -11 8 -15 15 -9 15 7 0 18 -6 25 -12 7 -7 31 -13 54
-13 34 0 40 3 36 17 -2 10 -9 15 -15 11 -6 -3 -7 -1 -3 5 11 18 14 15 35 -27z
m-124 -141 c25 -1 27 -2 13 -11 -10 -5 -18 -19 -18 -30 0 -17 6 -20 37 -17 28
2 39 8 41 22 2 10 -2 22 -10 27 -8 6 2 9 28 9 23 0 56 3 74 7 30 6 33 4 28
-15 -4 -13 -2 -19 6 -16 14 5 39 -33 27 -41 -22 -13 -192 -23 -261 -15 -41 5
-84 9 -95 10 -42 1 -49 15 -24 50 23 31 26 32 74 26 28 -3 64 -6 80 -6z"/>
<path d="M7968 3943 c7 -3 16 -2 19 1 4 3 -2 6 -13 5 -11 0 -14 -3 -6 -6z"/>
<path d="M1225 4979 c-4 -6 -5 -12 -2 -15 2 -3 7 2 10 11 7 17 1 20 -8 4z"/>
<path d="M720 4911 c-47 -9 -91 -20 -97 -24 -17 -10 -67 -96 -60 -103 2 -3 16
15 31 40 18 31 36 48 58 55 48 15 168 34 175 28 3 -3 -9 -31 -27 -62 -18 -31
-30 -58 -27 -61 4 -5 87 127 87 139 0 11 -47 7 -140 -12z"/>
</g>
</svg>
