<?xml version="1.0" standalone="no"?>
<!DOCTYPE svg PUBLIC "-//W3C//DTD SVG 20010904//EN"
 "http://www.w3.org/TR/2001/REC-SVG-20010904/DTD/svg10.dtd">
<svg version="1.0" xmlns="http://www.w3.org/2000/svg"
 width="1024.000000pt" height="1024.000000pt" viewBox="0 0 1024.000000 1024.000000"
 preserveAspectRatio="xMidYMid meet">

<g transform="translate(0.000000,1024.000000) scale(0.100000,-0.100000)"
fill="#000000" stroke="none">
<path d="M3520 6945 c-325 -13 -408 -20 -550 -40 -343 -51 -627 -143 -974
-317 -242 -121 -574 -322 -829 -501 -54 -38 -126 -80 -160 -94 -142 -58 -324
-165 -405 -237 -90 -81 -117 -205 -109 -501 3 -142 1 -227 -9 -294 -15 -103
-12 -137 31 -338 41 -189 57 -213 168 -262 40 -18 79 -36 87 -40 8 -4 24 -48
36 -97 38 -156 84 -252 157 -331 l40 -43 -184 -1 c-101 -1 -251 -4 -334 -8
l-150 -6 80 -8 c231 -24 768 -84 1220 -137 281 -33 744 -87 1030 -120 565 -65
552 -64 1210 -145 248 -31 455 -57 460 -60 6 -2 -7 -4 -28 -4 -39 -1 -76 -24
-57 -36 6 -4 8 -11 5 -16 -4 -5 14 -9 41 -9 26 0 45 -2 43 -4 -9 -9 -833 -26
-1294 -27 -697 -2 -824 -12 -255 -22 250 -4 700 -12 1000 -17 300 -6 820 -15
1155 -20 336 -6 624 -13 640 -15 17 -3 -4 5 -47 18 -89 27 -147 63 -225 138
-170 164 -262 379 -297 699 -4 30 -3 50 1 44 5 -7 19 -14 33 -15 22 -4 26 0
31 36 5 34 6 31 8 -25 2 -89 43 -263 85 -360 96 -221 248 -364 421 -393 78
-13 154 3 229 48 31 18 56 32 56 30 0 -2 -24 -20 -52 -41 -29 -21 -55 -39 -57
-40 -6 -5 39 -94 47 -94 20 0 103 63 166 126 38 38 64 60 58 48 -6 -11 -42
-50 -80 -86 -91 -85 -175 -128 -274 -137 l-73 -7 105 -12 c253 -29 784 -66
1330 -93 299 -14 1373 -22 1555 -11 130 8 138 9 61 11 -74 1 -87 3 -82 16 3
10 -1 15 -12 16 -9 1 -1 5 18 9 30 6 26 8 -30 10 -44 1 2 8 145 21 609 53 895
106 895 168 0 11 -4 23 -10 26 -6 4 -2 14 9 26 23 25 32 66 17 74 -6 3 2 3 17
1 16 -2 25 0 20 4 -12 12 -183 28 -450 42 -134 6 -243 14 -242 17 0 4 26 18
57 33 72 34 159 112 218 194 25 35 52 64 59 64 7 0 77 7 155 15 125 13 144 13
170 0 38 -20 52 -19 83 5 23 18 26 29 31 117 4 54 9 122 11 150 9 103 6 580
-5 688 -10 103 -13 112 -40 138 -26 24 -30 35 -30 81 0 29 -7 76 -15 104 -9
28 -13 63 -9 77 11 44 -26 86 -155 176 -36 25 -102 72 -146 104 -110 80 -266
153 -458 215 -89 29 -211 69 -272 91 -307 107 -745 195 -1224 244 -85 9 -158
18 -162 21 -4 2 -5 13 -2 24 10 37 -18 80 -82 125 -83 60 -174 101 -239 109
-43 6 -81 24 -187 87 -296 176 -715 370 -904 418 -165 41 -583 108 -850 135
-375 38 -858 45 -1445 21z m1260 -30 c201 -17 463 -47 605 -70 165 -28 366
-67 362 -71 -2 -3 -91 2 -198 10 -462 36 -994 51 -1384 38 l-250 -8 -72 33
c-39 18 -108 42 -154 53 -45 10 -83 21 -86 23 -2 3 94 5 214 6 119 1 220 5
223 8 9 9 542 -7 740 -22z m-1115 -35 c262 -60 464 -229 793 -665 58 -77 118
-154 135 -172 16 -17 27 -38 24 -45 -5 -14 -125 -83 -131 -76 -2 1 -51 75
-109 163 -156 238 -249 358 -372 480 -147 146 -240 199 -425 241 -92 21 -408
29 -556 14 -241 -24 -522 -88 -730 -166 -305 -113 -638 -302 -718 -406 -38
-51 -82 -153 -109 -254 -19 -75 -29 -97 -57 -121 -31 -28 -42 -31 -130 -37
-52 -4 -133 -9 -179 -13 l-84 -6 19 32 c22 37 57 50 165 58 49 4 83 2 97 -6
12 -6 22 -8 22 -3 0 21 -61 35 -122 28 -120 -14 -380 -73 -332 -75 7 -1 46 6
89 15 42 9 78 14 80 12 2 -2 -7 -18 -21 -36 -19 -24 -33 -32 -57 -32 -57 0
-224 -29 -281 -48 -31 -10 -56 -18 -56 -16 0 4 214 140 250 159 19 10 78 37
130 60 52 23 140 73 195 112 123 87 382 249 575 361 468 269 876 411 1317 457
190 20 458 13 578 -15z m-227 -81 c139 -15 214 -35 321 -86 83 -40 106 -57
211 -161 126 -126 223 -249 345 -438 43 -65 90 -138 106 -161 27 -40 28 -52 3
-35 -6 4 -57 77 -114 162 -130 196 -211 300 -325 419 -225 234 -412 300 -807
289 -87 -3 -155 -1 -151 3 18 18 276 23 411 8z m1912 -23 c407 -28 546 -45
630 -77 230 -88 758 -380 1103 -611 86 -58 104 -74 70 -64 -28 8 -293 30 -343
28 -31 0 -39 2 -25 7 11 4 -99 7 -245 6 -174 -1 -224 0 -145 4 l120 7 -105 3
c-92 2 -127 5 -177 12 -7 1 -10 7 -6 12 3 5 -4 6 -18 2 -14 -4 -20 -4 -16 1 5
5 39 12 75 15 37 4 11 5 -59 2 l-125 -5 -54 34 c-50 31 -59 33 -139 33 -74 0
-93 -4 -138 -28 -29 -15 -54 -27 -56 -27 -2 0 -37 51 -77 114 l-73 113 -194
42 c-107 23 -196 41 -198 39 -2 -2 25 -69 60 -149 34 -80 72 -171 83 -201 l21
-55 -107 -7 c-59 -3 -129 -9 -155 -13 l-48 -6 6 34 c9 52 -22 247 -48 299 -29
58 -59 69 -205 69 -137 1 -176 -12 -198 -65 l-15 -37 -55 6 c-40 4 -53 2 -48
-6 9 -18 -39 35 -157 174 -58 68 -123 139 -145 157 -64 56 -178 142 -186 142
-5 0 -8 5 -8 11 0 17 1113 5 1400 -15z m-2352 9 c-3 -3 -52 -13 -109 -21 -312
-46 -566 -125 -854 -264 -241 -117 -358 -202 -397 -288 -26 -58 -36 -173 -16
-190 11 -8 106 -12 354 -15 l339 -2 -407 -3 c-225 -1 -408 2 -408 6 0 5 8 33
19 63 45 132 91 191 216 276 202 137 563 297 823 364 173 45 459 93 440 74z
m59 -52 c-34 -189 -59 -382 -69 -536 l-12 -189 -29 6 c-16 3 -44 6 -61 6 l-32
0 27 158 c37 220 116 537 142 570 18 23 40 14 34 -15z m475 4 c193 -44 349
-148 502 -335 l56 -69 0 -94 c-1 -90 -1 -93 -15 -62 -17 40 -100 124 -146 149
-48 27 -331 27 -399 0 -114 -43 -164 -109 -165 -216 0 -36 4 -76 9 -89 l8 -24
-83 6 c-46 4 -131 7 -188 7 l-104 0 7 128 c11 205 45 468 77 585 l10 39 182
-5 c108 -3 209 -11 249 -20z m-563 -44 c-34 -99 -97 -373 -114 -493 -9 -63
-18 -130 -21 -147 -5 -33 -5 -33 -64 -33 -33 0 -60 2 -60 4 0 18 49 204 81
309 35 114 124 350 150 399 5 10 18 18 29 18 19 0 19 -1 -1 -57z m-94 -33
c-63 -148 -150 -426 -189 -602 l-6 -28 -355 0 c-195 0 -355 3 -355 8 0 4 13
57 29 117 34 130 105 322 127 347 29 31 275 125 445 168 65 17 291 64 331 69
3 1 -9 -35 -27 -79z m-835 -281 c-22 -61 -54 -164 -71 -227 -16 -64 -31 -118
-33 -120 -2 -2 -22 -2 -45 0 l-41 3 86 180 c47 99 97 204 110 234 41 92 38 48
-6 -70z m-113 -116 c-46 -103 -88 -198 -91 -210 -7 -22 -13 -23 -96 -23 -103
0 -107 4 -95 93 14 99 68 166 194 237 34 19 85 49 114 66 29 17 54 29 56 28 1
-2 -35 -87 -82 -191z m1978 43 c61 -26 155 -142 155 -192 0 -16 -16 -17 -197
-11 -108 4 -258 7 -335 7 -151 0 -146 -3 -128 62 18 63 84 116 175 138 56 14
293 11 330 -4z m348 -198 c53 -81 109 -157 125 -169 l27 -22 -49 7 c-27 3 -61
6 -75 6 -22 1 -24 2 -8 11 22 13 22 36 -1 48 -10 5 -52 11 -94 13 -74 3 -75 3
-67 26 5 13 9 83 9 155 0 130 0 131 18 102 9 -17 61 -96 115 -177z m2798 96
c89 -52 154 -105 148 -122 -3 -8 -53 18 -139 74 -74 47 -139 91 -145 96 -25
25 66 -8 136 -48z m-2993 -130 c2 -1 1 -12 -3 -24 -8 -24 -18 -24 -460 0 -93
5 -175 10 -181 10 -7 0 -15 7 -18 16 -5 13 29 14 327 8 182 -4 334 -8 335 -10z
m1950 1 c1 -1 -46 -5 -105 -8 -60 -3 -109 -4 -111 -2 -15 14 199 24 216 10z
m577 -45 c572 -18 955 -55 1400 -136 492 -89 780 -196 1048 -389 l48 -34 -298
-3 -298 -3 -150 72 c-179 85 -305 136 -480 193 -348 113 -831 209 -1280 254
-261 26 -342 27 -130 1 704 -86 1228 -201 1620 -357 107 -43 377 -169 372
-174 -2 -2 -111 -15 -243 -28 -144 -15 -257 -31 -284 -41 -25 -10 -54 -17 -65
-17 -11 0 -100 30 -198 66 -708 264 -1723 441 -2687 469 -229 7 -122 -8 205
-28 962 -59 1840 -226 2516 -477 l136 -51 -33 -30 -34 -29 -153 55 c-669 241
-1534 402 -2352 437 -128 5 -266 6 -310 1 -74 -8 -69 -8 75 -10 362 -3 913
-57 1340 -132 424 -73 752 -155 1145 -287 l200 -67 -139 -7 c-110 -6 -148 -12
-183 -29 -43 -21 -45 -21 -177 -5 -73 9 -189 19 -257 22 l-124 7 -40 36 c-72
66 -171 130 -276 180 -91 44 -217 86 -226 77 -2 -2 38 -18 89 -35 121 -42 237
-104 337 -180 44 -34 82 -65 86 -70 3 -6 -49 -9 -132 -9 -159 1 -264 -15 -501
-73 l-163 -40 -42 34 c-136 110 -329 164 -495 138 -312 -48 -538 -310 -622
-720 -24 -120 -42 -364 -32 -446 6 -49 9 -26 15 125 12 339 85 582 234 777
136 180 360 275 573 245 152 -22 272 -85 400 -212 244 -244 391 -632 441
-1165 6 -71 16 -139 20 -150 6 -13 7 -5 4 25 -2 25 -7 88 -10 140 -29 457
-190 904 -410 1136 -30 32 -53 58 -52 59 8 5 112 25 127 25 10 0 66 -38 124
-85 59 -46 127 -96 152 -111 99 -58 230 -81 614 -109 844 -60 1074 -73 995
-55 -22 5 -67 9 -100 10 -33 1 -80 5 -105 8 l-45 7 80 23 c108 32 151 56 159
87 13 52 -13 70 -114 77 -19 2 -34 8 -34 13 3 20 144 65 227 72 99 8 78 16
-93 33 -424 42 -609 66 -624 80 -16 16 69 30 224 36 131 6 161 4 194 -10 54
-22 57 -20 13 10 l-39 26 34 24 c41 31 45 30 212 -47 72 -32 132 -57 134 -55
5 6 -152 90 -216 117 -29 12 -52 25 -52 29 0 16 93 31 341 56 l256 26 101 -61
c56 -34 104 -61 107 -61 11 0 -48 46 -112 87 -34 22 -59 43 -56 47 4 3 136 6
295 6 l289 0 57 -53 c88 -81 119 -106 102 -82 -8 11 -30 37 -49 57 -19 21 -33
39 -30 41 2 2 48 -1 102 -8 l98 -11 87 -86 c94 -93 173 -147 92 -64 -54 56
-41 61 18 6 44 -41 52 -69 26 -91 -12 -10 -14 -23 -9 -58 6 -42 25 -82 25 -53
0 18 20 15 27 -4 4 -11 -2 -23 -16 -33 -20 -15 -21 -22 -15 -75 l7 -58 39 5
c49 7 52 -16 6 -38 l-33 -14 37 5 36 6 6 -54 c3 -29 8 -87 11 -129 l6 -76 -45
-56 c-51 -63 -90 -133 -83 -151 3 -7 1 -19 -5 -27 -9 -14 -6 65 8 219 4 42 3
62 -5 62 -7 0 -11 -20 -11 -51 0 -71 -19 -240 -31 -267 -13 -32 -101 -70 -179
-77 -36 -3 -267 -19 -515 -36 -247 -17 -468 -34 -491 -38 l-41 -8 0 56 c-1 67
-41 191 -83 258 -39 63 -38 52 5 -38 19 -41 39 -105 45 -142 10 -63 9 -73 -19
-157 -38 -112 -96 -227 -154 -306 -64 -87 -118 -112 -268 -124 -122 -10 -806
-14 -797 -4 4 3 176 6 385 8 l378 2 75 39 75 40 -45 7 c-25 3 -174 7 -331 7
-318 1 -529 10 -529 22 0 5 12 7 28 4 15 -2 214 -6 442 -8 228 -3 390 -1 360
3 -30 5 -170 9 -310 10 -140 1 -316 5 -390 9 -131 6 -135 7 -138 29 l-3 23
308 -3 c169 -2 325 1 346 5 20 4 54 22 74 40 45 39 129 166 144 217 l12 38 76
6 c42 3 115 8 163 12 49 3 90 9 92 13 3 4 -3 25 -13 47 -30 66 -112 108 -271
138 -171 33 -487 56 -785 57 -209 2 -222 0 -268 -21 -43 -20 -70 -47 -91 -90
-4 -8 4 -3 18 13 14 15 27 27 29 27 2 0 -4 -24 -14 -54 -22 -65 -43 -298 -37
-420 6 -130 47 -200 135 -231 35 -13 22 -14 -147 -15 -102 0 -236 3 -297 7
l-113 6 0 52 c0 80 -28 337 -51 465 -126 702 -517 1134 -938 1035 -273 -65
-466 -307 -547 -690 -23 -106 -23 -381 -1 -475 8 -36 14 -66 13 -66 0 -1 -55
6 -121 16 -66 9 -173 23 -237 30 -64 7 -122 16 -127 19 -6 4 -13 39 -17 79 -8
85 -31 79 196 52 184 -22 183 -22 154 -10 -11 4 -94 18 -185 31 -90 13 -165
24 -167 25 -1 1 2 32 8 70 8 49 9 175 2 434 -5 201 -8 367 -6 370 1 3 80 0
176 -7 267 -18 371 -17 416 6 48 25 92 66 92 86 0 9 -15 22 -33 30 -36 15
-278 41 -494 53 -79 5 -146 11 -150 15 -10 10 14 266 35 367 l17 85 75 -3
c174 -7 631 -44 840 -67 423 -48 819 -125 993 -194 91 -36 218 -99 267 -133
60 -41 67 -41 22 1 -24 22 -87 62 -140 89 -271 139 -700 225 -1449 291 -217
19 -222 20 -253 48 -40 35 -56 66 -65 125 l-7 46 53 6 c56 6 336 27 616 47
155 10 542 24 763 27 58 1 245 -3 415 -8z m-3882 -37 c-46 -2 -120 -2 -165 0
-46 1 -9 3 82 3 91 0 128 -2 83 -3z m395 -10 c-54 -2 -142 -2 -195 0 -54 1
-10 3 97 3 107 0 151 -2 98 -3z m1627 -88 c10 -59 16 -72 48 -101 43 -40 51
-39 -134 -24 -410 32 -1282 68 -1694 71 -115 1 -213 3 -217 5 -4 3 10 29 30
60 l37 55 225 -5 c198 -6 667 -26 939 -41 52 -2 99 -9 104 -14 11 -11 -49 -49
-92 -57 -59 -12 -31 -21 86 -27 128 -7 153 0 175 49 10 22 17 24 78 24 37 0
95 -3 130 -7 l62 -6 -6 -39 c-4 -21 -2 -38 3 -38 15 0 23 39 16 76 -4 25 -2
34 8 34 7 0 38 17 68 38 51 36 56 38 89 27 33 -11 35 -15 45 -80z m-1982 67
l27 -7 -34 -51 -35 -52 -648 -4 c-356 -2 -650 -3 -652 -1 -2 1 8 12 23 24 14
11 35 38 46 59 11 21 28 41 37 44 27 8 1204 -3 1236 -12z m635 11 c-27 -2 -69
-2 -95 0 -27 2 -5 3 47 3 52 0 74 -1 48 -3z m-688 -152 c0 -4 -5 -33 -10 -62
-6 -30 -14 -123 -19 -207 -4 -83 -10 -154 -13 -157 -2 -3 -106 -1 -229 4 -407
17 -594 23 -589 18 3 -3 174 -13 380 -22 206 -9 389 -18 407 -21 l31 -5 6
-107 c7 -135 35 -520 43 -588 l5 -51 -178 23 c-99 13 -190 23 -204 22 -26 -1
74 -16 263 -42 60 -8 111 -17 114 -20 4 -3 1 -31 -6 -62 l-13 -57 -47 6 c-25
3 -165 22 -311 41 -237 31 -429 51 -375 39 11 -2 180 -28 374 -56 l355 -52 12
-65 c7 -36 17 -78 23 -94 l12 -29 -58 6 c-165 17 -535 69 -583 83 -85 25 -149
61 -206 119 -152 151 -380 600 -462 905 -21 82 -25 117 -26 260 l-1 165 120 5
c204 10 1185 11 1185 1z m-1328 -130 c-5 -172 27 -331 104 -525 4 -10 -26 15
-67 56 -99 100 -164 132 -274 132 -68 1 -89 -3 -136 -27 -52 -25 -121 -87
-161 -146 l-17 -24 -94 89 -94 89 15 31 c14 29 12 39 -31 165 -51 151 -51 161
17 193 43 20 186 52 279 61 l69 7 -8 -24 c-52 -164 -45 -219 30 -234 48 -8
165 12 196 34 24 18 56 96 80 199 9 35 15 42 38 46 61 9 57 18 54 -122z m2278
109 c275 -11 583 -27 708 -37 l84 -6 -6 -26 c-15 -69 -37 -230 -44 -323 l-7
-103 -90 2 c-49 0 -283 13 -520 27 -236 14 -531 30 -655 36 -124 5 -271 13
-327 16 l-103 6 0 96 c0 92 13 243 26 306 l6 29 342 -6 c187 -4 451 -12 586
-17z m-2386 -27 c-13 -72 -45 -164 -64 -183 -25 -25 -82 -40 -157 -40 -55 0
-64 3 -79 25 -11 17 -14 34 -9 57 11 55 35 132 45 148 9 15 82 24 218 28 l53
2 -7 -37z m7726 -160 c106 -40 262 -116 329 -162 l44 -29 -64 4 c-112 8 -123
13 -214 80 -50 37 -125 87 -167 112 -82 47 -96 58 -50 41 15 -6 70 -26 122
-46z m-5950 -258 c290 -16 840 -48 1150 -68 l185 -12 3 -67 3 -67 -48 4 c-84
9 -500 25 -581 24 -106 -3 -64 -6 193 -19 121 -6 268 -13 326 -17 l105 -6 12
-371 c9 -264 9 -390 1 -436 -5 -35 -12 -66 -13 -68 -2 -2 -131 15 -287 37
-156 22 -529 74 -829 117 -300 42 -547 78 -549 80 -2 2 3 29 11 61 13 56 15
58 43 55 43 -5 895 -127 1058 -152 76 -12 143 -20 149 -18 14 5 -314 57 -817
129 -231 34 -421 62 -422 63 -8 8 -52 613 -53 734 0 15 20 15 360 -3z m-1770
-49 c122 -61 184 -138 300 -367 45 -88 95 -183 111 -211 22 -37 26 -49 14 -44
-9 3 -33 6 -53 6 l-37 0 -33 108 c-18 59 -53 148 -77 199 -152 315 -453 377
-613 126 -69 -109 -103 -275 -103 -510 0 -89 3 -185 7 -213 8 -62 4 -63 -96
-12 -96 48 -108 72 -154 299 l-35 172 16 93 c11 68 14 130 9 229 l-6 136 49 6
48 6 100 -99 101 -99 -29 -81 c-38 -106 -59 -241 -58 -360 l2 -95 8 110 c12
164 63 382 90 393 5 2 9 14 9 26 0 53 122 176 199 201 66 21 167 13 231 -19z
m3189 -42 c30 -6 31 -9 31 -54 0 -31 5 -50 14 -53 7 -3 108 -9 223 -13 186 -6
213 -5 245 10 20 10 39 24 42 32 6 16 46 20 46 4 0 -11 -70 -48 -115 -61 -27
-8 -305 2 -472 17 l-63 6 0 59 c0 32 4 59 9 59 5 0 23 -3 40 -6z m339 -39 c95
-8 181 -15 190 -15 11 -1 7 -6 -12 -17 -26 -13 -50 -15 -175 -7 -81 5 -174 9
-208 9 -38 0 -62 4 -59 10 2 6 -1 18 -5 27 -8 15 -3 16 44 12 28 -2 130 -11
225 -19z m1900 -58 c33 -40 66 -78 74 -84 8 -7 90 -16 198 -23 102 -6 320 -19
485 -30 165 -11 343 -22 395 -26 122 -7 140 -12 140 -35 0 -17 -8 -19 -87 -18
-49 0 -308 15 -578 33 -269 18 -492 31 -494 29 -11 -8 55 -84 78 -89 53 -12
44 -14 -34 -10 l-80 5 -43 48 c-42 48 -192 256 -192 267 0 3 18 6 39 6 37 0
44 -5 99 -73z m-5422 38 c97 -40 195 -171 238 -315 16 -54 16 -55 -6 -72 -25
-18 -38 -15 -38 10 0 9 -20 58 -45 108 -50 99 -125 182 -190 209 -48 21 -141
19 -191 -4 -50 -23 -104 -87 -144 -172 -17 -35 -28 -53 -24 -39 11 43 55 127
86 164 83 100 222 150 314 111z m5273 -93 l61 -83 -47 5 c-27 3 -75 8 -107 11
-34 3 -74 15 -93 26 -43 27 -42 30 6 13 56 -19 206 -31 197 -15 -4 6 -12 8
-18 5 -7 -4 -8 -2 -4 5 13 20 -13 42 -35 30 -10 -5 -19 -6 -19 -1 0 5 -42 12
-92 16 -131 10 -129 22 3 18 111 -4 111 -4 99 17 -6 13 -16 19 -23 15 -7 -4
-9 -4 -5 1 4 4 2 15 -5 23 -10 13 -9 14 4 6 9 -5 44 -46 78 -92z m279 34 c18
-25 29 -46 23 -46 -5 0 -23 23 -41 51 -37 61 -27 58 18 -5z m-1065 -6 c118
-17 189 -68 298 -213 101 -134 235 -435 214 -483 -15 -35 -18 -49 -24 -129
l-6 -80 -13 93 c-16 117 -62 263 -118 372 -49 95 -115 186 -132 183 -6 -2 -9
3 -6 10 6 16 -48 69 -67 65 -7 -2 -13 3 -14 10 0 7 -20 26 -45 42 -118 79
-295 93 -423 32 -38 -17 -83 -41 -100 -54 -29 -20 -31 -20 -14 -1 29 33 123
94 187 119 49 20 116 36 185 43 6 0 41 -4 78 -9z m1426 -30 c23 -29 28 -40 16
-40 -14 0 -55 54 -55 73 0 13 6 8 39 -33z m264 -60 c-7 -7 -73 70 -73 84 0 6
18 -9 39 -34 21 -25 37 -47 34 -50z m156 -5 c0 -5 -13 6 -29 25 -17 19 -30 39
-30 44 0 6 13 -5 30 -24 16 -19 29 -39 29 -45z m-6604 10 c-20 -18 -32 -34
-25 -37 7 -2 5 -10 -8 -21 -13 -12 -22 -15 -27 -7 -3 6 -1 9 6 8 6 -2 14 3 17
11 3 10 0 11 -9 5 -11 -6 -11 -4 1 12 20 26 43 49 55 55 6 2 9 8 7 12 -1 5 3
5 9 1 8 -4 -1 -18 -26 -39z m208 31 c4 -10 1 -13 -8 -9 -8 3 -12 9 -9 14 7 12
11 11 17 -5z m64 -10 c25 -14 52 -34 60 -45 8 -12 19 -18 25 -15 6 4 8 2 5 -3
-4 -6 0 -13 8 -17 8 -3 15 -11 15 -18 0 -9 -3 -8 -10 2 -6 9 -10 10 -10 3 0
-7 9 -17 20 -23 11 -6 20 -16 20 -23 0 -7 -4 -6 -10 3 -5 8 -10 12 -10 8 0 -4
11 -24 25 -44 14 -21 35 -67 46 -104 17 -56 18 -77 11 -131 -8 -53 -10 -57
-11 -24 -2 51 -32 148 -71 226 -16 34 -27 66 -23 72 3 7 3 9 -2 5 -4 -4 -17 7
-29 24 -12 18 -41 47 -64 65 -24 18 -40 33 -37 33 4 0 2 7 -5 15 -17 21 -6 19
47 -9z m6525 -18 c12 -17 17 -28 10 -25 -6 4 -21 22 -34 39 -12 17 -17 28 -10
25 6 -4 21 -22 34 -39z m-6573 -16 c57 -26 127 -127 170 -244 23 -60 46 -186
37 -195 -3 -4 -6 4 -6 16 0 19 -10 14 -72 -40 -93 -79 -125 -113 -120 -128 7
-21 154 -141 165 -134 6 3 7 1 3 -5 -4 -7 -2 -12 3 -12 6 0 11 -8 11 -17 0
-16 2 -16 11 -3 8 11 9 5 5 -25 -20 -141 -123 -316 -210 -356 -84 -38 -166
-13 -240 74 -55 65 -76 107 -115 231 -27 84 -33 119 -36 220 l-4 121 9 -118
c16 -192 74 -339 179 -450 48 -51 83 -68 141 -69 57 0 76 8 60 26 -15 20 -30
152 -35 326 -7 207 -7 208 -16 105 -4 -49 -7 -170 -8 -267 -1 -111 -5 -178
-11 -178 -11 0 -12 197 -2 404 6 100 4 130 -6 133 -14 6 -87 -41 -106 -69 -7
-10 -15 -15 -18 -12 -3 3 -9 1 -13 -5 -3 -6 -2 -11 4 -11 6 0 8 -7 4 -16 -3
-8 19 10 50 40 57 57 77 68 77 41 0 -8 -3 -15 -7 -15 -5 0 -7 -24 -5 -52 1
-29 -2 -100 -7 -158 l-10 -105 3 148 c1 81 1 147 0 147 -6 0 -148 -207 -162
-236 -8 -18 -19 -31 -23 -28 -10 6 25 65 107 183 70 101 82 132 19 49 -22 -28
-44 -56 -50 -62 -6 -6 -30 -40 -53 -75 -23 -35 -42 -55 -42 -46 0 10 23 46 51
82 28 36 49 67 46 69 -5 5 -86 -93 -94 -113 -8 -21 -23 -14 -23 10 0 16 18 40
55 72 30 27 55 53 55 58 0 5 -18 -7 -39 -26 -22 -19 -48 -40 -59 -46 -19 -10
-21 -7 -28 42 -9 65 -9 256 1 326 l7 52 51 -44 c29 -24 91 -73 139 -110 67
-51 88 -63 92 -51 9 22 38 13 42 -13 2 -13 -1 -23 -6 -23 -6 0 -10 -5 -10 -11
0 -17 130 -160 140 -154 8 5 70 -60 70 -73 0 -4 -16 11 -36 33 -42 48 -41 39
6 -34 l35 -54 9 39 9 38 -73 68 c-41 37 -79 64 -84 61 -6 -3 -8 -3 -4 2 4 4
-6 23 -23 42 -22 26 -27 38 -19 48 6 7 9 19 8 26 -2 8 3 13 10 11 7 -1 15 5
19 14 7 18 73 81 128 123 32 24 34 29 29 66 -7 46 -23 82 -24 53 0 -10 -38
-64 -85 -122 -47 -58 -85 -110 -85 -116 0 -13 -17 -13 -25 0 -4 6 -11 8 -16 4
-6 -3 -9 92 -7 261 l3 267 -48 -5 c-34 -3 -59 -13 -90 -37 -37 -30 -39 -30
-17 -6 58 64 125 76 209 38z m5358 -57 c34 -4 67 -13 74 -21 14 -17 13 -17
-70 -3 -36 6 -88 22 -116 36 -72 35 -77 46 -9 18 32 -13 87 -26 121 -30z
m-5473 18 c3 -16 13 -122 21 -238 9 -115 17 -215 20 -222 8 -24 -9 -21 -51 8
-70 51 -204 212 -204 245 0 27 16 12 60 -58 25 -38 72 -95 105 -126 l60 -56 3
54 c3 52 -23 351 -34 397 -4 13 -2 23 4 23 6 0 13 -12 16 -27z m6511 -65 c94
-7 207 -13 252 -13 45 0 80 -1 79 -2 -1 -2 -47 -17 -102 -34 l-99 -31 -200 7
c-110 3 -261 12 -335 20 l-135 14 115 -3 c63 -1 122 -1 131 1 20 5 31 50 15
58 -6 2 16 3 49 0 33 -3 137 -10 230 -17z m-2335 9 c0 -2 -12 -14 -27 -28
l-28 -24 24 28 c23 25 31 32 31 24z m227 -13 c-3 -3 -12 -4 -19 -1 -8 3 -5 6
6 6 11 1 17 -2 13 -5z m-4594 -16 c-10 -13 -45 -122 -63 -193 l-10 -40 5 45
c7 60 54 200 67 200 7 0 7 -4 1 -12z m4771 -13 c79 -21 139 -58 209 -130 62
-63 127 -167 127 -203 0 -11 -37 -64 -82 -118 -175 -205 -188 -224 -188 -265
0 -59 8 -65 212 -149 l136 -57 7 48 c4 26 4 52 2 57 -3 4 -1 14 4 22 17 24 1
-185 -20 -275 -24 -101 -49 -158 -106 -246 -84 -129 -195 -210 -310 -224 -111
-14 -254 55 -353 171 -78 91 -157 275 -193 449 -13 66 -10 283 6 384 31 186
82 303 183 412 108 117 232 159 366 124z m-265 1 c-15 -15 -79 -54 -74 -45 4
6 21 19 39 30 29 18 45 24 35 15z m1619 -3 c-15 -2 -42 -2 -60 0 -18 2 -6 4
27 4 33 0 48 -2 33 -4z m-1128 -102 c41 -42 83 -91 93 -109 28 -49 15 -38 -27
22 -36 53 -99 117 -161 164 -25 19 -26 21 -5 11 14 -6 59 -46 100 -88z m-580
46 c0 -2 -12 -14 -27 -28 l-28 -24 24 28 c23 25 31 32 31 24z m-60 -71 c0 -2
-8 -10 -17 -17 -16 -13 -17 -12 -4 4 13 16 21 21 21 13z m-159 -93 c-12 -20
-14 -14 -5 12 4 9 9 14 11 11 3 -2 0 -13 -6 -23z m-4041 -18 c13 -14 21 -25
18 -25 -2 0 -15 11 -28 25 -13 14 -21 25 -18 25 2 0 15 -11 28 -25z m4113 -20
c-9 -19 -18 -33 -21 -31 -4 5 26 66 33 66 3 0 -3 -16 -12 -35z m-3496 19 c21
-4 39 -21 68 -67 95 -146 210 -232 352 -262 38 -8 610 -82 1273 -165 1570
-196 1512 -188 1521 -197 6 -7 49 -196 45 -199 -4 -4 -863 91 -1921 210 -860
98 -1127 127 -1282 142 -85 8 -72 -24 -103 244 -12 96 -27 203 -34 238 l-14
62 33 0 c18 0 46 -3 62 -6z m3390 -76 c-3 -8 -6 -5 -6 6 -1 11 2 17 5 13 3 -3
4 -12 1 -19z m58 -73 c-13 -44 -24 -73 -24 -64 -1 20 39 152 44 147 2 -1 -7
-39 -20 -83z m935 40 c0 -5 -5 -3 -10 5 -5 8 -10 20 -10 25 0 6 5 3 10 -5 5
-8 10 -19 10 -25z m-4633 -22 c-3 -10 -5 -2 -5 17 0 19 2 27 5 18 2 -10 2 -26
0 -35z m8254 -38 c-17 -20 -40 -53 -51 -75 -11 -22 -23 -40 -25 -40 -3 0 4 18
15 40 19 38 76 110 87 110 3 0 -9 -16 -26 -35z m-6181 -149 c410 -58 770 -109
800 -113 l55 -8 7 -74 c4 -41 6 -76 4 -78 -3 -3 -193 20 -1221 147 -220 28
-403 50 -407 50 -10 0 -48 127 -48 162 0 29 2 30 33 24 17 -3 367 -53 777
-110z m3785 98 c-65 -7 -313 -9 -297 -2 9 4 87 6 172 6 85 -1 142 -3 125 -4z
m208 -11 c-29 -2 -77 -2 -105 0 -29 2 -6 3 52 3 58 0 81 -1 53 -3z m-2396 -35
c-3 -7 -5 -2 -5 12 0 14 2 19 5 13 2 -7 2 -19 0 -25z m2541 25 c-16 -2 -40 -2
-55 0 -16 2 -3 4 27 4 30 0 43 -2 28 -4z m115 -10 c-13 -2 -35 -2 -50 0 -16 2
-5 4 22 4 28 0 40 -2 28 -4z m-500 -13 c-8 -8 -283 -6 -283 3 0 4 65 7 144 5
79 -2 142 -5 139 -8z m84 4 c-3 -3 -12 -4 -19 -1 -8 3 -5 6 6 6 11 1 17 -2 13
-5z m511 -1 c-10 -2 -28 -2 -40 0 -13 2 -5 4 17 4 22 1 32 -1 23 -4z m-908 -7
c0 -2 11 -60 24 -128 13 -67 29 -161 35 -208 6 -47 18 -134 26 -193 21 -147
20 -154 -11 -161 -17 -5 -36 0 -60 14 -36 23 -45 33 -19 24 10 -4 15 0 15 12
0 11 10 32 23 47 21 27 23 27 24 8 1 -11 -2 -23 -7 -26 -5 -3 -7 -12 -4 -20 4
-8 10 -12 16 -9 5 3 7 41 3 92 -8 102 -22 191 -24 150 0 -15 -15 -55 -32 -89
-34 -66 -52 -129 -38 -129 5 0 11 12 14 28 3 15 18 52 33 82 l27 55 3 -38 c3
-32 -3 -47 -38 -93 -23 -30 -45 -52 -50 -49 -5 3 -16 26 -26 50 -32 84 -6 486
36 564 9 18 30 29 30 17z m983 -3 c-7 -2 -21 -2 -30 0 -10 3 -4 5 12 5 17 0
24 -2 18 -5z m60 -10 c-7 -2 -19 -2 -25 0 -7 3 -2 5 12 5 14 0 19 -2 13 -5z
m-2896 -35 c-3 -7 -5 -2 -5 12 0 14 2 19 5 13 2 -7 2 -19 0 -25z m2946 25 c-7
-2 -19 -2 -25 0 -7 3 -2 5 12 5 14 0 19 -2 13 -5z m87 -23 c18 -12 2 -12 -25
0 -13 6 -15 9 -5 9 8 0 22 -4 30 -9z m-6656 -107 c-10 -52 -28 -40 -20 13 3
26 6 56 7 68 1 13 4 7 10 -14 4 -19 6 -50 3 -67z m6714 83 c33 -17 68 -54 59
-63 -4 -3 -7 -1 -7 6 0 6 -21 25 -47 41 -49 31 -52 40 -5 16z m-6751 -18 c-3
-8 -6 -5 -6 6 -1 11 2 17 5 13 3 -3 4 -12 1 -19z m5730 6 c-3 -3 -12 -4 -19
-1 -8 3 -5 6 6 6 11 1 17 -2 13 -5z m-6350 -36 c-3 -7 -5 -2 -5 12 0 14 2 19
5 13 2 -7 2 -19 0 -25z m4270 -60 c-2 -18 -4 -4 -4 32 0 36 2 50 4 33 2 -18 2
-48 0 -65z m907 76 c5 -13 4 -14 -7 -6 -8 7 -18 8 -22 4 -5 -4 -5 -1 -1 6 10
17 23 15 30 -4z m3611 -109 c20 -136 50 -256 75 -305 14 -28 16 -40 7 -49 -14
-14 -37 -15 -37 -1 0 6 4 10 9 10 6 0 1 25 -9 56 -37 107 -90 428 -66 403 2
-2 11 -53 21 -114z m-1543 71 c135 -1 170 4 136 17 -7 3 -8 6 -2 6 6 1 21 -10
33 -23 l23 -24 -54 -6 c-29 -3 -99 -8 -156 -11 -95 -6 -104 -5 -125 14 -12 12
-31 28 -42 36 -18 14 -18 14 10 3 18 -7 90 -12 177 -12z m-2047 -7 c5 -16 0
-28 -19 -46 -14 -13 -26 -29 -26 -36 0 -8 -3 -8 -9 1 -4 8 -12 13 -17 13 -14
-2 -12 48 3 69 19 27 60 26 68 -1z m-5113 -204 c30 -57 101 -147 120 -151 7
-2 31 -10 53 -18 136 -51 262 39 333 240 19 53 33 78 45 80 9 1 17 -2 17 -8 0
-6 -6 -8 -14 -5 -9 4 -16 -3 -19 -16 -2 -12 -8 -31 -12 -41 -7 -16 -5 -18 8
-13 19 7 21 -6 7 -38 -8 -19 -9 -18 -9 4 -1 22 -12 25 -13 4 0 -4 -4 -16 -9
-25 -6 -10 -5 -19 1 -23 5 -3 10 -1 10 6 0 7 3 10 6 6 3 -3 1 -14 -5 -24 -6
-11 -11 -13 -11 -5 0 7 -5 10 -10 7 -8 -5 -7 -11 1 -21 9 -11 5 -24 -16 -60
-84 -143 -200 -197 -311 -144 -79 39 -185 205 -233 366 -31 103 -25 114 8 14
15 -47 39 -108 53 -135z m6215 189 c-3 -3 -12 -4 -19 -1 -8 3 -5 6 6 6 11 1
17 -2 13 -5z m-67 -38 c0 -3 -4 -8 -10 -11 -5 -3 -10 -1 -10 4 0 6 5 11 10 11
6 0 10 -2 10 -4z m-6055 -16 c-3 -5 -12 -10 -18 -10 -7 0 -6 4 3 10 19 12 23
12 15 0z m6122 -6 c-3 -3 -12 -4 -19 -1 -8 3 -5 6 6 6 11 1 17 -2 13 -5z
m-5660 -36 c-3 -8 -6 -5 -6 6 -1 11 2 17 5 13 3 -3 4 -12 1 -19z m8250 -29 c7
-13 12 -51 11 -84 l-1 -60 -6 65 c-5 50 -8 60 -14 43 -11 -31 -34 -29 -39 2
-5 21 -2 25 13 20 25 -8 24 7 -1 30 -11 10 -20 22 -20 28 0 15 44 -18 57 -44z
m-2652 31 c-3 -5 -10 -10 -16 -10 -5 0 -9 5 -9 10 0 6 7 10 16 10 8 0 12 -4 9
-10z m-5988 -86 c15 -21 23 -44 23 -72 0 -46 -12 -52 -45 -24 -34 28 -111 135
-100 139 6 2 24 11 40 22 l30 18 14 -26 c8 -14 25 -40 38 -57z m6240 80 c-3
-3 -12 -4 -19 -1 -8 3 -5 6 6 6 11 1 17 -2 13 -5z m-202 -14 c3 -5 1 -10 -4
-10 -6 0 -11 5 -11 10 0 6 2 10 4 10 3 0 8 -4 11 -10z m260 -20 c3 -5 -1 -10
-9 -10 -9 0 -16 5 -16 10 0 6 4 10 9 10 6 0 13 -4 16 -10z m-6252 -52 c3 -21
2 -38 -4 -38 -5 0 -9 19 -9 42 0 49 5 47 13 -4z m6034 36 c-3 -3 -12 -4 -19
-1 -8 3 -5 6 6 6 11 1 17 -2 13 -5z m-4802 -49 c367 -39 761 -84 790 -89 11
-2 -271 -3 -627 -2 -357 0 -648 2 -648 2 0 1 16 25 35 54 19 29 35 58 35 66 0
12 10 13 48 9 26 -3 191 -21 367 -40z m4972 39 c-3 -3 -12 -4 -19 -1 -8 3 -5
6 6 6 11 1 17 -2 13 -5z m-120 -10 c-3 -3 -12 -4 -19 -1 -8 3 -5 6 6 6 11 1
17 -2 13 -5z m500 0 c-3 -3 -12 -4 -19 -1 -8 3 -5 6 6 6 11 1 17 -2 13 -5z
m-632 -14 c3 -5 1 -10 -4 -10 -6 0 -11 5 -11 10 0 6 2 10 4 10 3 0 8 -4 11
-10z m55 -10 c0 -5 -2 -10 -4 -10 -3 0 -8 5 -11 10 -3 6 -1 10 4 10 6 0 11 -4
11 -10z m130 0 c0 -5 -7 -7 -15 -4 -8 4 -15 8 -15 10 0 2 7 4 15 4 8 0 15 -4
15 -10z m110 0 c0 -5 -4 -10 -10 -10 -5 0 -10 5 -10 10 0 6 5 10 10 10 6 0 10
-4 10 -10z m-160 -30 c0 -5 -4 -10 -10 -10 -5 0 -10 5 -10 10 0 6 5 10 10 10
6 0 10 -4 10 -10z m-120 -10 c0 -5 -5 -10 -11 -10 -5 0 -7 5 -4 10 3 6 8 10
11 10 2 0 4 -4 4 -10z m237 4 c-3 -3 -12 -4 -19 -1 -8 3 -5 6 6 6 11 1 17 -2
13 -5z m-187 -14 c0 -5 -2 -10 -4 -10 -3 0 -8 5 -11 10 -3 6 -1 10 4 10 6 0
11 -4 11 -10z m-6010 -35 c0 -19 -4 -35 -10 -35 -5 0 -10 16 -10 35 0 19 5 35
10 35 6 0 10 -16 10 -35z m7105 -30 c-49 -109 -123 -203 -187 -236 -58 -30
-155 -38 -543 -43 -198 -4 -453 -9 -566 -12 -209 -7 -499 2 -499 15 0 4 134 8
298 8 493 1 1182 19 1237 32 27 7 64 21 82 32 51 32 118 113 159 193 21 41 40
73 41 72 2 -2 -8 -29 -22 -61z m-982 48 c-7 -2 -19 -2 -25 0 -7 3 -2 5 12 5
14 0 19 -2 13 -5z m317 -3 c0 -5 -4 -10 -9 -10 -6 0 -13 5 -16 10 -3 6 1 10 9
10 9 0 16 -4 16 -10z m190 -10 c0 -5 -2 -10 -4 -10 -3 0 -8 5 -11 10 -3 6 -1
10 4 10 6 0 11 -4 11 -10z m-660 -20 c0 -5 -7 -10 -15 -10 -8 0 -15 5 -15 10
0 6 7 10 15 10 8 0 15 -4 15 -10z m40 -10 c0 -5 -4 -10 -10 -10 -5 0 -10 5
-10 10 0 6 5 10 10 10 6 0 10 -4 10 -10z m1260 0 c0 -5 -2 -10 -4 -10 -3 0 -8
5 -11 10 -3 6 -1 10 4 10 6 0 11 -4 11 -10z m1317 -22 c-3 -7 -5 -2 -5 12 0
14 2 19 5 13 2 -7 2 -19 0 -25z m-132 -17 c32 -10 60 -22 62 -27 2 -5 -18 -10
-45 -12 -26 -1 -132 -11 -237 -22 -310 -32 -1214 -104 -1220 -98 -2 2 9 18 23
35 l27 33 480 40 c264 22 541 47 615 54 188 19 226 18 295 -3z m-3470 -151
c-9 -28 -19 -50 -21 -48 -2 2 4 27 13 56 9 28 19 50 21 47 2 -2 -4 -27 -13
-55z m-99 -194 c-31 -46 -69 -92 -84 -102 -19 -12 -14 -3 18 32 25 27 61 74
80 105 19 32 37 55 39 53 3 -2 -21 -42 -53 -88z m2020 56 l41 -37 -156 -2
c-86 -1 -241 4 -346 12 -104 8 -251 18 -325 22 -199 11 -94 21 255 23 154 1
318 5 365 9 47 5 94 8 105 9 11 1 38 -16 61 -36z m-1946 -136 c0 -2 -8 -10
-17 -17 -16 -13 -17 -12 -4 4 13 16 21 21 21 13z"/>
<path d="M4188 6608 c27 -29 65 -71 84 -92 l35 -40 89 32 c49 17 109 36 134
43 31 9 39 14 25 17 -78 16 -384 84 -398 88 -11 4 2 -16 31 -48z"/>
<path d="M4588 6553 c7 -3 16 -2 19 1 4 3 -2 6 -13 5 -11 0 -14 -3 -6 -6z"/>
<path d="M6418 6113 c7 -3 16 -2 19 1 4 3 -2 6 -13 5 -11 0 -14 -3 -6 -6z"/>
<path d="M8925 5233 c-278 -11 -555 -48 -623 -82 -21 -11 -43 -31 -50 -46 -43
-94 32 -509 114 -627 45 -65 89 -88 201 -105 113 -17 359 -12 570 12 405 47
441 83 450 455 6 208 -5 317 -35 343 -48 43 -301 63 -627 50z m-27 -40 c-21
-2 -55 -2 -75 0 -21 2 -4 4 37 4 41 0 58 -2 38 -4z m-170 -10 c-10 -2 -28 -2
-40 0 -13 2 -5 4 17 4 22 1 32 -1 23 -4z m735 0 c-7 -2 -19 -2 -25 0 -7 3 -2
5 12 5 14 0 19 -2 13 -5z m-840 -10 c-7 -2 -21 -2 -30 0 -10 3 -4 5 12 5 17 0
24 -2 18 -5z m-90 -10 c-7 -2 -19 -2 -25 0 -7 3 -2 5 12 5 14 0 19 -2 13 -5z
m1022 -50 c14 -32 18 -339 6 -423 -21 -138 -52 -188 -138 -220 -182 -68 -759
-104 -915 -57 -74 23 -103 50 -148 139 -22 44 -40 88 -40 97 0 9 11 -10 24
-42 65 -157 113 -173 491 -164 346 9 534 44 594 112 55 63 66 123 66 363 l0
212 26 0 c16 0 30 -7 34 -17z m-541 -89 c30 -30 17 -184 -17 -206 -41 -26 -65
5 -90 117 -15 64 -15 71 0 87 20 23 86 24 107 2z m-747 -46 c-2 -13 -4 -5 -4
17 -1 22 1 32 4 23 2 -10 2 -28 0 -40z m10 -85 c-3 -10 -5 -4 -5 12 0 17 2 24
5 18 2 -7 2 -21 0 -30z m10 -70 c-3 -10 -5 -4 -5 12 0 17 2 24 5 18 2 -7 2
-21 0 -30z m10 -65 c-3 -7 -5 -2 -5 12 0 14 2 19 5 13 2 -7 2 -19 0 -25z m10
-40 c-3 -8 -6 -5 -6 6 -1 11 2 17 5 13 3 -3 4 -12 1 -19z m10 -40 c-3 -8 -6
-5 -6 6 -1 11 2 17 5 13 3 -3 4 -12 1 -19z"/>
<path d="M8930 5005 c-13 -15 -11 -28 16 -122 25 -89 64 -62 64 45 0 44 -5 63
-18 75 -23 21 -46 22 -62 2z m51 -5 c19 -11 26 -51 13 -84 -8 -21 -24 -20 -25
2 0 12 -2 13 -6 3 -3 -8 -12 3 -20 29 -12 35 -12 44 -1 51 17 11 16 11 39 -1z
m3 -121 c-6 -11 -24 -2 -24 11 0 5 7 7 15 4 8 -4 12 -10 9 -15z"/>
<path d="M7185 4799 c85 -10 873 -59 939 -59 83 0 21 13 -101 21 -541 35 -991
56 -838 38z"/>
<path d="M7285 4740 c-4 -7 7 -41 26 -79 l34 -66 113 -9 c81 -6 116 -6 124 2
16 16 -9 89 -42 124 -23 25 -32 27 -136 34 -83 5 -113 3 -119 -6z m234 -24
c17 -13 50 -84 51 -108 0 -15 -8 -17 -67 -12 -153 11 -146 9 -176 70 -15 30
-27 59 -27 64 0 13 201 0 219 -14z"/>
<path d="M7989 4591 c-27 -28 -31 -37 -26 -68 8 -45 31 -70 78 -85 32 -9 42
-8 64 6 73 48 43 158 -47 173 -32 5 -41 1 -69 -26z m116 -16 c48 -47 23 -125
-41 -125 -68 0 -111 84 -67 132 24 27 78 24 108 -7z"/>
<path d="M9447 4403 c-15 -15 -7 -43 13 -43 15 0 20 7 20 25 0 24 -18 34 -33
18z m23 -18 c0 -8 -4 -15 -10 -15 -5 0 -10 7 -10 15 0 8 5 15 10 15 6 0 10 -7
10 -15z"/>
<path d="M8394 4326 c-9 -24 4 -48 23 -44 12 2 18 12 18 28 0 29 -32 41 -41
16z m31 -26 c-5 -8 -11 -8 -17 -2 -6 6 -7 16 -3 22 5 8 11 8 17 2 6 -6 7 -16
3 -22z"/>
<path d="M8512 4308 c2 -15 10 -23 23 -23 30 0 27 39 -3 43 -20 3 -23 0 -20
-20z m38 -3 c0 -8 -7 -15 -15 -15 -8 0 -15 7 -15 15 0 8 7 15 15 15 8 0 15 -7
15 -15z"/>
<path d="M6608 3993 c23 -2 61 -2 85 0 23 2 4 4 -43 4 -47 0 -66 -2 -42 -4z"/>
<path d="M6590 3930 c51 -11 199 -21 175 -11 -11 4 -63 11 -115 14 -56 3 -80
2 -60 -3z"/>
<path d="M1668 5765 c-12 -27 -22 -31 -107 -39 -61 -6 -67 -10 -75 -46 -10
-42 7 -55 69 -53 42 1 55 -2 55 -12 0 -22 42 -45 69 -38 13 3 29 19 36 37 12
27 17 30 53 28 43 -4 72 16 72 49 0 21 -35 39 -75 39 -12 0 -23 6 -22 13 1 40
-4 47 -33 47 -23 0 -33 -6 -42 -25z m56 -11 c8 -22 5 -24 -22 -17 -18 4 -20 8
-11 19 15 18 25 18 33 -2z m25 -40 c51 -6 61 -10 61 -26 0 -18 -7 -19 -145
-17 -124 3 -145 6 -143 19 2 10 20 17 58 21 87 9 103 9 169 3z m-51 -87 c5
-25 -33 -40 -52 -21 -28 27 -20 40 21 38 17 0 29 -7 31 -17z"/>
<path d="M2233 4673 c9 -2 25 -2 35 0 9 3 1 5 -18 5 -19 0 -27 -2 -17 -5z"/>
<path d="M3003 5752 c-16 -28 -21 -30 -97 -34 -67 -4 -82 -8 -98 -28 -44 -54
-8 -95 80 -88 23 2 42 0 42 -5 0 -4 11 -19 25 -32 41 -42 98 -29 118 28 5 13
18 17 55 17 57 0 75 15 70 57 -3 25 -9 29 -49 37 -41 8 -48 13 -56 40 -7 25
-15 32 -41 34 -27 3 -35 -2 -49 -26z m67 -2 c0 -5 -12 -10 -26 -10 -14 0 -23
4 -19 10 3 6 15 10 26 10 10 0 19 -4 19 -10z m0 -28 c0 -5 -13 -7 -30 -4 -16
2 -30 6 -30 8 0 2 14 4 30 4 17 0 30 -4 30 -8z m89 -41 c11 -7 21 -18 21 -26
0 -13 -25 -14 -177 -9 -98 4 -179 8 -181 9 -7 6 12 35 26 39 31 9 289 -2 311
-13z m-271 -58 c-10 -2 -26 -2 -35 0 -10 3 -2 5 17 5 19 0 27 -2 18 -5z m172
-11 c0 -17 -32 -52 -47 -52 -21 0 -53 29 -53 47 0 9 15 13 50 13 28 0 50 -3
50 -8z"/>
<path d="M3548 5173 c23 -2 59 -2 80 0 20 2 1 4 -43 4 -44 0 -61 -2 -37 -4z"/>
<path d="M3998 4423 c6 -2 18 -2 25 0 6 3 1 5 -13 5 -14 0 -19 -2 -12 -5z"/>
<path d="M4058 4413 c6 -2 18 -2 25 0 6 3 1 5 -13 5 -14 0 -19 -2 -12 -5z"/>
<path d="M540 4842 c0 -24 151 -114 166 -99 3 3 -27 20 -65 37 -39 18 -76 39
-82 46 -13 15 1 19 17 5 12 -11 124 -61 124 -56 0 7 -137 75 -150 75 -5 0 -10
-4 -10 -8z"/>
<path d="M1185 4958 c-3 -46 -5 -157 -3 -247 l3 -164 98 116 99 117 -12 37
c-19 59 -80 151 -124 189 -22 19 -43 34 -47 34 -4 0 -10 -37 -14 -82z m161
-176 c-18 -16 -18 -16 -6 6 6 13 14 21 18 18 3 -4 -2 -14 -12 -24z m-35 -60
c-5 -9 -19 -26 -32 -37 -17 -15 -15 -10 7 17 32 41 40 48 25 20z"/>
<path d="M874 4635 c-4 -9 -4 -55 -1 -103 4 -71 9 -89 26 -103 15 -12 21 -30
22 -63 2 -35 5 -42 13 -32 6 8 46 42 89 75 42 34 77 67 77 75 0 7 -30 33 -67
56 -38 24 -87 59 -111 77 -36 29 -43 32 -48 18z"/>
<path d="M1198 4379 c7 -9 12 -21 10 -25 -1 -5 3 -18 9 -29 6 -11 18 -55 27
-97 20 -97 39 -143 65 -157 18 -10 24 -6 51 30 30 42 37 59 22 59 -4 0 -35 40
-69 88 -34 48 -77 101 -95 117 -18 17 -27 23 -20 14z"/>
<path d="M889 4303 c-13 -16 -12 -17 4 -4 9 7 17 15 17 17 0 8 -8 3 -21 -13z"/>
<path d="M5517 4886 c-86 -24 -86 -24 -32 -182 55 -160 153 -415 165 -428 11
-12 43 53 69 144 12 41 45 144 73 229 57 177 61 160 -47 212 -73 35 -160 44
-228 25z"/>
<path d="M5404 4826 c-8 -21 86 -308 148 -451 77 -175 60 -168 -36 15 -54 104
-122 254 -167 369 l-10 24 -23 -22 c-13 -12 -32 -37 -41 -55 l-18 -34 68 -88
c38 -49 90 -114 116 -144 43 -51 134 -181 141 -201 2 -5 14 -4 28 2 l25 12
-37 76 c-39 80 -126 315 -164 441 -16 56 -24 70 -30 56z"/>
<path d="M5860 4755 c0 -11 -27 -97 -59 -190 -33 -94 -62 -179 -66 -190 -3
-11 12 16 35 59 47 91 104 187 137 232 l22 30 -34 40 c-29 32 -35 35 -35 19z"/>
<path d="M5818 4455 c-71 -117 -128 -220 -128 -229 0 -16 29 -24 31 -8 3 32
20 57 116 168 59 70 121 142 136 160 l28 33 -20 40 c-12 22 -24 42 -28 44 -5
3 -65 -91 -135 -208z"/>
<path d="M5214 4593 c-32 -68 -55 -176 -67 -310 -7 -88 -8 -142 -1 -160 9 -26
13 -28 59 -25 l50 2 -65 -22 c-84 -28 -53 -36 37 -9 37 11 106 29 153 41 182
46 187 48 194 82 5 23 1 37 -13 52 -10 12 -45 56 -77 98 -70 91 -236 286 -245
287 -4 1 -15 -16 -25 -36z m28 -391 c30 -17 43 -41 31 -53 -4 -4 -32 -14 -60
-23 l-53 -15 0 81 0 81 27 -27 c15 -15 39 -35 55 -44z m81 -89 c-7 -2 -19 -2
-25 0 -7 3 -2 5 12 5 14 0 19 -2 13 -5z"/>
<path d="M5670 4223 c0 -12 4 -24 9 -27 4 -3 11 -20 15 -37 12 -63 -45 -105
-78 -57 -24 34 -19 66 13 99 18 18 24 29 15 29 -20 0 -52 -35 -60 -65 -9 -34
12 -80 42 -94 37 -16 51 -14 71 13 l18 23 25 -22 c14 -13 54 -48 90 -80 36
-31 86 -77 112 -102 26 -25 51 -42 57 -39 13 8 51 -42 44 -59 -3 -10 -45 23
-131 105 -187 176 -201 177 -22 2 85 -84 156 -152 156 -152 1 0 4 12 8 28 3
15 12 53 20 84 l14 57 -162 79 c-88 44 -168 88 -177 98 -9 11 -31 46 -48 79
-20 40 -31 53 -31 38z"/>
<path d="M5651 4157 c-1 -10 -5 -15 -11 -12 -6 3 -7 -1 -4 -9 7 -17 20 -21 27
-8 3 4 1 16 -4 27 -7 18 -8 18 -8 2z"/>
<path d="M5400 4066 c-109 -42 -227 -95 -249 -113 -2 -1 4 -27 13 -58 l18 -55
29 17 c16 9 86 59 156 111 71 52 147 105 171 119 90 53 28 43 -138 -21z"/>
<path d="M5494 4018 c-92 -69 -222 -178 -258 -216 l-28 -30 25 -55 c54 -118
152 -234 232 -274 17 -8 25 -10 19 -3 -8 8 -7 31 7 88 35 148 100 465 102 500
3 53 -18 51 -99 -10z m-36 -383 l33 -35 -16 -62 c-8 -34 -18 -64 -20 -66 -10
-11 -145 139 -183 203 l-42 70 43 5 c23 3 51 11 62 17 17 10 23 5 55 -43 19
-29 50 -69 68 -89z"/>
<path d="M5617 4018 c-7 -62 -106 -578 -112 -588 -10 -17 39 -19 51 -2 12 16
13 15 14 -4 0 -18 27 -42 35 -32 4 5 24 662 21 665 -2 2 -6 -16 -9 -39z"/>
<path d="M5678 4038 c7 -7 12 -21 12 -32 0 -18 -1 -19 -20 -1 -19 17 -20 17
-20 0 0 -9 11 -26 25 -37 41 -32 53 -66 90 -253 33 -169 47 -215 63 -215 4 0
25 14 47 32 l40 32 -30 -33 c-16 -19 -53 -49 -81 -67 -53 -34 -112 -56 -100
-36 3 5 -5 81 -19 169 -13 87 -29 190 -33 228 l-9 70 -1 -105 c-1 -145 21
-334 42 -368 5 -8 0 -12 -13 -12 -11 0 -23 -5 -27 -12 -12 -19 62 -2 133 31
42 20 85 51 121 89 58 59 135 177 130 199 -6 25 -322 333 -342 333 -16 0 -17
-3 -8 -12z"/>
<path d="M6000 3851 c0 -6 4 -13 10 -16 6 -3 7 1 4 9 -7 18 -14 21 -14 7z"/>
<path d="M1924 4216 c-32 -14 -50 -33 -41 -43 7 -6 215 -36 482 -68 110 -13
274 -33 365 -45 1155 -145 2174 -259 2189 -244 15 14 -29 21 -504 69 -336 35
-553 60 -1165 135 -1045 127 -1329 165 -1322 172 17 17 117 20 227 9 61 -7
310 -36 555 -66 245 -30 758 -93 1140 -140 721 -89 1011 -129 1043 -147 28
-15 32 -2 5 16 -44 29 -159 45 -1228 176 -228 27 -671 82 -984 120 -577 71
-706 80 -762 56z"/>
<path d="M6932 4350 c0 -14 2 -19 5 -12 2 6 2 18 0 25 -3 6 -5 1 -5 -13z"/>
<path d="M6942 4295 c0 -16 2 -22 5 -12 2 9 2 23 0 30 -3 6 -5 -1 -5 -18z"/>
<path d="M6962 4190 c0 -14 2 -19 5 -12 2 6 2 18 0 25 -3 6 -5 1 -5 -13z"/>
<path d="M6971 4134 c0 -11 3 -14 6 -6 3 7 2 16 -1 19 -3 4 -6 -2 -5 -13z"/>
<path d="M6982 4075 c0 -16 2 -22 5 -12 2 9 2 23 0 30 -3 6 -5 -1 -5 -18z"/>
<path d="M5987 4253 c-10 -9 -9 -23 1 -23 5 0 9 7 9 15 0 17 -1 18 -10 8z"/>
<path d="M5945 4230 c-3 -5 -1 -10 4 -10 6 0 11 5 11 10 0 6 -2 10 -4 10 -3 0
-8 -4 -11 -10z"/>
<path d="M1370 3975 c-7 -8 -9 -15 -5 -15 4 0 -3 -9 -16 -21 -23 -20 -23 -20
9 1 17 12 32 28 32 36 0 18 -4 18 -20 -1z"/>
</g>
</svg>
