<?xml version="1.0" standalone="no"?>
<!DOCTYPE svg PUBLIC "-//W3C//DTD SVG 20010904//EN"
 "http://www.w3.org/TR/2001/REC-SVG-20010904/DTD/svg10.dtd">
<svg version="1.0" xmlns="http://www.w3.org/2000/svg"
 width="1024.000000pt" height="1024.000000pt" viewBox="0 0 1024.000000 1024.000000"
 preserveAspectRatio="xMidYMid meet">

<g transform="translate(0.000000,1024.000000) scale(0.100000,-0.100000)"
fill="#000000" stroke="none">
<path d="M6793 7610 c-40 -4 -103 -17 -140 -28 -56 -16 -110 -21 -303 -26
-233 -6 -571 -27 -725 -46 -44 -6 -132 -10 -196 -10 -263 0 -640 -32 -776 -66
-73 -18 -168 -61 -219 -100 -17 -12 -72 -41 -123 -62 -234 -101 -610 -353
-1040 -695 -118 -94 -139 -107 -173 -107 -60 0 -413 -38 -608 -65 -159 -22
-302 -48 -755 -135 -155 -30 -440 -105 -625 -164 -221 -71 -388 -145 -461
-205 -47 -39 -87 -116 -98 -187 -5 -33 -21 -92 -36 -132 -34 -95 -65 -234 -65
-297 0 -46 -7 -60 -80 -168 -89 -131 -89 -131 -65 -267 8 -47 26 -165 40 -264
14 -98 30 -187 36 -197 12 -23 5 -38 -50 -104 -51 -61 -53 -93 -10 -130 18
-14 48 -34 68 -45 49 -25 223 -84 291 -100 129 -29 125 -26 164 -90 70 -113
202 -226 320 -274 58 -24 63 -36 14 -36 -53 0 -902 -120 -895 -126 2 -2 98 3
213 10 281 20 452 27 434 20 -8 -4 -88 -33 -178 -66 -90 -33 -161 -62 -159
-65 4 -4 239 28 1347 182 599 83 610 85 1055 121 317 26 421 27 667 8 l76 -6
17 -52 c56 -171 165 -334 278 -417 l37 -27 -112 -6 c-62 -3 -358 -13 -658 -21
-625 -18 -1133 -33 -1400 -44 l-185 -7 105 -7 c58 -4 301 -16 540 -27 239 -11
482 -22 540 -25 58 -3 276 -12 485 -21 208 -8 381 -16 382 -18 4 -4 -212 -68
-649 -193 -186 -53 -336 -98 -334 -100 2 -2 32 1 68 6 94 15 625 85 1458 190
1029 131 1365 171 1890 226 135 14 250 27 255 30 6 2 -62 4 -150 4 -136 1
-428 15 -972 47 l-112 7 46 51 c137 153 238 360 298 616 10 41 19 76 20 78 2
2 30 -4 63 -12 137 -36 412 -38 547 -5 98 24 189 83 222 143 9 16 40 21 254
42 134 12 456 43 714 69 798 78 878 85 879 83 1 -2 10 -30 21 -63 42 -128 119
-255 199 -327 40 -37 40 -37 15 -38 -50 0 -1556 -192 -2359 -300 -245 -33
-497 -67 -560 -75 l-115 -15 95 5 c116 6 574 37 1045 70 193 14 517 36 720 50
204 14 444 34 535 45 91 11 390 47 665 80 275 34 552 65 615 69 138 10 179 27
260 110 123 127 208 359 235 644 4 37 10 67 15 67 5 0 34 23 65 51 98 91 163
256 201 513 23 156 15 229 -35 331 -43 87 -48 109 -86 360 -43 280 -46 287
-134 375 -42 41 -109 105 -149 143 -59 55 -106 118 -256 345 -101 152 -203
298 -226 325 -50 57 -95 84 -224 137 -54 21 -114 53 -133 71 -44 38 -89 58
-251 108 -298 94 -696 176 -1047 216 -164 19 -479 27 -582 15z m576 -46 c156
-17 442 -64 581 -94 275 -60 584 -150 673 -196 52 -28 22 -25 -64 5 -473 166
-1191 286 -1601 268 -186 -9 -273 -28 -388 -85 -52 -26 -99 -49 -105 -51 -5
-2 10 17 34 42 105 108 238 140 560 131 95 -2 235 -11 310 -20z m-875 -78
c-68 -77 -79 -78 -473 -81 -443 -4 -882 -29 -1241 -70 -140 -17 -145 -17 -139
-10 11 10 321 66 550 99 355 51 798 90 1104 99 50 2 123 4 164 5 l74 2 -39
-44z m882 19 c273 -26 612 -89 894 -165 153 -41 509 -160 590 -197 63 -29 66
-31 82 -84 43 -134 219 -362 489 -630 l186 -186 -86 18 c-107 22 -291 39 -396
38 -71 -1 -61 -4 90 -19 150 -16 368 -50 418 -66 30 -9 19 -20 -17 -16 -45 5
-76 -12 -76 -43 0 -30 77 -162 132 -228 l40 -48 -12 -52 c-19 -79 -37 -107
-83 -128 -23 -10 -49 -19 -58 -19 -8 0 -37 20 -64 45 -68 64 -126 79 -269 72
-61 -3 -123 -9 -138 -13 l-28 -6 0 58 c0 112 -20 282 -40 348 -18 56 -32 78
-98 149 l-77 82 175 10 c96 6 181 14 188 18 41 27 -31 128 -230 323 -271 266
-517 437 -718 502 -320 103 -863 174 -1162 151 -223 -16 -343 -51 -468 -134
-145 -97 -329 -315 -485 -576 l-78 -131 -51 6 c-28 3 -77 6 -109 6 l-59 0 29
38 c16 20 74 102 128 182 362 533 502 657 790 699 98 14 401 12 571 -4z
m-2281 -61 c-242 -40 -366 -65 -504 -100 -74 -19 -136 -33 -137 -31 -11 10
147 80 217 96 114 27 386 58 504 58 50 1 37 -3 -80 -23z m2550 -68 c340 -48
601 -112 740 -180 195 -97 413 -263 626 -478 113 -113 203 -230 196 -252 -2
-6 -28 -14 -58 -18 -82 -9 -309 -9 -309 1 0 4 57 11 127 13 83 3 128 9 131 17
2 6 24 11 50 11 34 0 43 3 32 10 -8 5 -27 10 -42 10 -21 0 -28 5 -28 19 0 75
-330 393 -575 554 -119 78 -183 109 -285 140 -361 106 -859 166 -1155 138
-281 -27 -404 -79 -563 -240 -178 -180 -433 -582 -473 -746 -18 -72 -45 -91
-34 -24 38 231 378 736 599 894 115 81 198 113 361 140 115 18 501 13 660 -9z
m-1225 -2 c0 -3 -31 -40 -70 -81 -83 -89 -161 -192 -341 -452 -147 -214 -213
-293 -268 -321 -43 -21 -111 -36 -110 -24 0 5 28 29 62 54 63 46 80 67 362
451 123 167 317 379 348 379 9 0 17 -3 17 -6z m-159 -71 c-86 -87 -154 -174
-345 -435 -154 -213 -206 -272 -281 -322 l-40 -26 -500 6 c-469 6 -1357 -8
-1465 -23 l-45 -6 30 39 c64 86 185 224 269 308 171 170 479 394 571 414 114
26 490 64 855 87 342 21 338 21 696 23 l322 2 -67 -67z m1088 -55 c51 -235
140 -765 128 -773 -1 -1 -95 -9 -208 -16 l-207 -14 -6 44 c-7 49 -41 114 -78
148 -68 63 -240 106 -438 107 -114 1 -128 -1 -156 -21 l-31 -23 -7 38 c-15 92
-10 109 61 201 90 117 226 248 304 294 119 70 278 104 496 106 l121 1 21 -92z
m71 88 c0 -2 20 -86 46 -187 43 -174 115 -520 130 -621 l6 -48 -49 0 -50 0
-12 103 c-16 133 -62 404 -101 592 -16 82 -30 153 -30 157 0 4 14 8 30 8 17 0
30 -2 30 -4z m87 -10 c13 -11 148 -513 188 -698 33 -157 35 -150 -22 -146 -47
3 -48 4 -55 43 -45 260 -124 616 -174 794 -7 22 -5 23 27 16 19 -4 35 -8 36
-9z m160 -11 c132 -17 294 -46 425 -77 61 -14 89 -25 92 -36 83 -285 181 -689
171 -700 -2 -2 -138 -6 -303 -9 l-300 -6 -11 59 c-24 121 -132 543 -170 662
-21 67 -35 122 -30 122 4 0 61 -7 126 -15z m-3327 -70 c0 -2 -13 -11 -30 -20
-38 -19 -40 -11 -2 9 31 17 32 18 32 11z m-84 -48 c-260 -164 -562 -385 -781
-573 -117 -100 -176 -144 -192 -144 -14 0 -14 2 2 20 25 27 348 280 501 392
152 112 359 251 429 290 50 28 77 37 41 15z m3989 -58 c78 -282 159 -639 146
-639 -4 0 -22 71 -41 158 -18 86 -55 238 -82 337 -28 99 -52 189 -55 200 -4
15 -3 17 6 9 6 -5 18 -35 26 -65z m233 -202 c77 -128 162 -274 191 -324 29
-51 56 -95 62 -98 29 -19 -4 -25 -128 -25 -169 0 -180 3 -188 44 -43 219 -107
475 -161 648 -5 16 -2 16 40 2 46 -16 47 -18 184 -247z m-45 155 c13 -20 73
-120 132 -222 60 -102 134 -229 166 -282 32 -54 53 -98 46 -98 -7 0 -35 40
-63 88 -47 80 -309 520 -327 549 -20 31 23 -2 46 -35z m147 -71 c188 -138 405
-348 460 -445 50 -86 50 -86 -100 -86 l-129 0 -25 43 c-159 276 -311 535 -322
548 -8 8 -14 19 -14 23 0 10 33 -11 130 -83z m614 -251 c81 -122 145 -224 143
-227 -3 -2 -33 29 -69 69 -183 208 -285 357 -312 458 -15 54 93 -82 238 -300z
m-5308 221 c-3 -4 -67 -54 -143 -109 -76 -56 -205 -156 -288 -222 -176 -141
-235 -184 -241 -177 -6 5 323 262 525 409 153 112 155 113 147 99z m2439 -254
c6 -59 5 -66 -26 -116 -29 -46 -34 -63 -34 -117 0 -62 -1 -64 -26 -64 -31 0
-85 -18 -117 -38 -33 -21 -21 -25 23 -7 60 26 124 23 169 -8 l39 -27 -49 0
c-27 -1 -91 -7 -141 -14 -51 -7 -93 -10 -93 -6 0 28 51 144 103 235 99 171
131 225 139 225 3 0 9 -28 13 -63z m385 -27 c98 -15 193 -48 234 -82 20 -16
36 -33 36 -37 0 -5 -28 -9 -62 -10 -35 -1 -88 -6 -118 -11 -62 -10 -500 -33
-507 -26 -17 16 86 152 131 172 33 16 160 13 286 -6z m-687 -146 c46 -7 46 -7
33 -33 -28 -53 -56 -165 -56 -220 0 -37 11 -85 31 -141 50 -139 60 -173 51
-182 -4 -4 -89 -17 -187 -29 -402 -45 -427 -61 -50 -30 121 10 223 16 228 14
4 -2 7 -24 7 -48 0 -24 5 -78 11 -120 6 -42 9 -78 6 -81 -3 -4 -35 -12 -70
-20 -203 -42 -267 -103 -282 -264 l-5 -55 14 62 c36 153 80 190 283 237 l61
14 4 -77 c2 -42 0 -204 -4 -361 -5 -157 -9 -343 -11 -415 l-2 -129 -45 -13
-45 -12 48 6 c36 4 47 2 47 -8 0 -50 -35 -305 -43 -310 -5 -4 -59 -12 -119
-19 -95 -10 -112 -10 -133 4 -29 19 -32 46 -39 306 -12 421 -99 730 -248 879
-49 48 -158 104 -235 120 -223 46 -575 0 -775 -103 -70 -36 -92 -43 -119 -37
l-32 6 55 42 c156 118 350 168 648 167 136 -1 179 -5 244 -22 130 -36 218 -99
288 -206 21 -33 38 -55 38 -49 0 21 -79 130 -122 170 -59 53 -110 79 -206 104
-221 56 -592 20 -789 -76 -39 -20 -96 -55 -126 -80 l-54 -44 -134 24 c-74 13
-136 24 -138 24 -2 1 3 9 12 19 26 29 57 111 57 152 0 30 -6 43 -26 59 -34 26
-97 45 -149 43 -97 -3 -94 8 11 48 261 100 671 188 1295 278 220 32 276 44
325 67 32 16 63 27 67 26 15 -3 50 93 55 154 4 60 5 62 47 84 24 12 55 36 71
52 25 26 34 29 94 29 37 0 88 -3 113 -6z m840 -21 c-7 -2 -19 -2 -25 0 -7 3
-2 5 12 5 14 0 19 -2 13 -5z m157 -37 c0 -17 -43 -22 -270 -35 -272 -16 -453
-18 -457 -4 -6 16 43 21 292 29 116 4 242 10 280 14 122 12 155 11 155 -4z
m-1460 -24 c19 -5 32 -10 28 -11 -4 -1 -121 -15 -260 -31 -1249 -149 -2217
-354 -2786 -590 -114 -48 -133 -65 -26 -25 196 74 717 219 1059 294 534 117
961 188 1665 276 201 25 382 50 403 54 43 10 44 6 26 -79 -14 -67 -55 -113
-124 -139 -29 -11 -176 -38 -327 -61 -688 -102 -1028 -178 -1308 -290 -88 -35
-105 -39 -230 -45 -380 -18 -939 -100 -1203 -177 l-107 -31 -21 26 c-34 44
-63 48 -609 84 -323 21 -1069 25 -1114 5 -16 -7 -30 -11 -32 -9 -8 8 20 73 44
106 72 98 334 203 819 331 106 27 196 50 200 50 8 -1 -60 -27 -225 -86 -131
-47 -69 -35 81 16 214 72 583 162 824 200 463 74 1103 126 1773 144 266 7
1417 -3 1450 -12z m3238 -18 c12 -4 22 -10 22 -14 0 -4 -258 -9 -572 -12 -315
-3 -579 -7 -587 -9 -8 -2 -17 4 -19 13 -3 15 8 18 95 21 187 6 1038 7 1061 1z
m-1180 -27 c3 -14 -6 -17 -56 -17 -32 0 -164 -9 -292 -20 -128 -11 -235 -18
-238 -15 -3 2 0 11 7 18 11 14 170 31 434 47 143 8 141 8 145 -13z m1225 -32
c5 -9 38 -48 73 -87 96 -108 124 -206 124 -443 l0 -113 -26 -6 c-112 -28 -238
-194 -325 -427 -36 -99 -109 -329 -108 -344 0 -5 26 64 58 155 105 301 171
429 263 517 30 28 73 60 96 72 l42 21 0 -32 c0 -28 -6 -36 -43 -57 -151 -85
-222 -207 -350 -596 -36 -110 -73 -227 -83 -259 -22 -72 -73 -127 -140 -150
-58 -20 -668 -106 -749 -106 -10 0 -9 12 5 58 10 31 30 113 45 182 16 69 31
128 34 132 3 4 139 29 301 57 318 55 444 79 420 80 -23 1 -323 -35 -530 -64
-101 -14 -187 -22 -191 -18 -4 4 -16 48 -25 96 -17 88 -17 91 10 315 22 188
45 420 46 468 0 11 109 21 465 44 126 8 125 8 -40 4 -93 -3 -226 -10 -294 -15
-80 -6 -128 -6 -134 0 -5 5 -12 41 -15 79 l-4 69 143 6 c79 4 299 8 489 8 475
2 368 17 -181 25 l-435 7 -11 61 c-12 71 -28 107 -83 195 -22 36 -38 66 -36
68 9 9 614 21 885 18 259 -3 296 -6 304 -20z m-1213 -8 c0 -8 19 -43 42 -78
42 -66 78 -160 78 -208 l0 -27 -292 -12 c-463 -20 -1240 -71 -1320 -88 -25 -5
-28 -3 -28 20 0 14 -18 74 -41 132 -30 81 -37 109 -28 115 7 4 40 10 73 14 34
3 153 17 266 30 113 13 284 27 380 31 115 4 189 12 215 21 40 15 103 22 415
47 226 18 240 19 240 3z m-1170 -56 c26 -4 39 -10 30 -14 -18 -7 -461 -59
-466 -54 -2 1 1 8 5 15 5 8 74 22 177 36 191 27 193 27 254 17z m3232 -203 c9
-8 22 -50 32 -98 28 -146 21 -153 -51 -47 -53 76 -83 129 -83 147 0 14 83 13
102 -2z m-1949 -160 c3 -35 8 -71 12 -80 8 -21 12 -21 -315 -48 -400 -33 -971
-99 -1204 -139 l-106 -18 -5 21 c-14 74 -26 219 -19 226 11 11 409 39 989 70
352 19 436 23 586 28 l56 2 6 -62z m17 -158 c0 -50 -25 -298 -45 -443 -19
-139 -19 -274 1 -349 8 -33 14 -62 12 -63 -2 -2 -151 -26 -333 -55 -413 -64
-745 -119 -1038 -171 -126 -23 -231 -38 -235 -34 -10 9 -9 236 2 633 9 325 10
333 30 337 184 39 1362 178 1559 184 l47 1 0 -40z m1999 23 c5 -10 16 -67 26
-128 10 -66 28 -135 45 -174 21 -49 26 -70 19 -88 -14 -37 -10 -52 5 -18 l12
30 12 -34 c45 -130 -41 -556 -135 -671 l-21 -24 -5 264 c-4 226 -8 277 -26
347 -28 110 -63 194 -106 254 l-35 49 26 10 c14 6 28 10 31 10 3 0 20 7 39 16
40 19 59 51 75 124 11 52 22 62 38 33z m-357 -75 c36 -11 128 -80 128 -97 0
-4 -28 6 -61 23 -52 25 -76 31 -153 34 -61 3 -119 -1 -171 -12 -43 -9 -80 -14
-82 -12 -11 11 12 57 31 61 11 2 30 6 41 8 44 10 230 6 267 -5z m-5457 -8
l-40 -7 50 -2 c85 -2 83 -17 -4 -24 -374 -29 -1041 -133 -1155 -181 -42 -17
-56 -57 -56 -158 0 -53 -3 -68 -15 -68 -19 0 -29 55 -23 130 3 49 10 66 34 91
24 27 25 30 7 20 -44 -22 -56 -66 -50 -169 3 -52 2 -91 -3 -86 -4 5 -15 66
-25 136 -18 140 -15 157 34 183 66 34 455 96 831 134 95 9 469 10 415 1z
m-2910 -50 c3 -5 -1 -10 -9 -10 -9 0 -16 5 -16 10 0 6 4 10 9 10 6 0 13 -4 16
-10z m67 -5 c0 -5 -5 -11 -11 -13 -6 -2 -11 4 -11 13 0 9 5 15 11 13 6 -2 11
-8 11 -13z m-372 1 c0 -3 -4 -8 -10 -11 -5 -3 -10 -1 -10 4 0 6 5 11 10 11 6
0 10 -2 10 -4z m65 -6 c-3 -5 -10 -10 -16 -10 -5 0 -9 5 -9 10 0 6 7 10 16 10
8 0 12 -4 9 -10z m55 0 c0 -5 -4 -10 -10 -10 -5 0 -10 5 -10 10 0 6 5 10 10
10 6 0 10 -4 10 -10z m60 0 c0 -5 -4 -10 -10 -10 -5 0 -10 5 -10 10 0 6 5 10
10 10 6 0 10 -4 10 -10z m60 0 c0 -5 -4 -10 -10 -10 -5 0 -10 5 -10 10 0 6 5
10 10 10 6 0 10 -4 10 -10z m490 -5 c0 -8 -6 -15 -14 -15 -20 0 -29 17 -14 23
22 9 28 7 28 -8z m7990 -12 c26 -12 67 -44 97 -77 86 -93 132 -244 148 -481
l7 -100 -30 -11 -31 -12 -5 77 c-18 227 -38 317 -91 407 -61 105 -189 146
-347 113 -109 -23 -198 -82 -263 -173 -57 -81 -83 -135 -145 -301 -29 -77 -56
-141 -61 -143 -5 -2 -9 -11 -9 -20 0 -9 -8 -44 -18 -77 l-18 -60 -47 -5 c-56
-7 -59 -30 33 250 117 355 203 498 347 572 60 31 87 40 178 62 49 12 211 -2
255 -21z m-7900 7 c0 -5 -9 -10 -21 -10 -11 0 -17 5 -14 10 3 6 13 10 21 10 8
0 14 -4 14 -10z m95 1 c3 -5 1 -13 -5 -16 -15 -9 -43 3 -35 15 8 13 32 13 40
1z m85 -11 c0 -5 -9 -10 -21 -10 -11 0 -17 5 -14 10 3 6 13 10 21 10 8 0 14
-4 14 -10z m98 -7 c2 -8 -5 -13 -17 -13 -12 0 -21 6 -21 16 0 18 31 15 38 -3z
m-512 -12 c160 -73 199 -396 68 -564 -38 -49 -119 -97 -163 -97 -20 0 -14 5
27 26 82 41 129 109 157 226 25 109 15 200 -35 303 -43 89 -137 127 -225 91
-33 -13 -37 -13 -21 -1 11 8 36 17 55 21 20 3 41 7 46 9 23 8 53 3 91 -14z
m597 4 c-6 -17 -25 -15 -31 3 -2 7 5 12 17 12 14 0 19 -5 14 -15z m97 0 c0 -8
-9 -15 -20 -15 -11 0 -20 7 -20 15 0 8 9 15 20 15 11 0 20 -7 20 -15z m-1404
-32 c-11 -11 -19 6 -11 24 8 17 8 17 12 0 3 -10 2 -21 -1 -24z m1494 27 c0 -5
-9 -10 -20 -10 -11 0 -20 5 -20 10 0 6 9 10 20 10 11 0 20 -4 20 -10z m88 -2
c-7 -19 -38 -22 -38 -4 0 10 9 16 21 16 12 0 19 -5 17 -12z m-1518 -13 c0 -8
-4 -15 -10 -15 -5 0 -10 7 -10 15 0 8 5 15 10 15 6 0 10 -7 10 -15z m60 0 c0
-8 -4 -15 -10 -15 -5 0 -10 7 -10 15 0 8 5 15 10 15 6 0 10 -7 10 -15z m60 0
c0 -8 -4 -15 -10 -15 -5 0 -10 7 -10 15 0 8 5 15 10 15 6 0 10 -7 10 -15z m60
0 c0 -8 -4 -15 -9 -15 -13 0 -22 16 -14 24 11 11 23 6 23 -9z m51 -8 c-13 -13
-26 -3 -16 12 3 6 11 8 17 5 6 -4 6 -10 -1 -17z m69 8 c0 -8 -4 -15 -9 -15
-13 0 -22 16 -14 24 11 11 23 6 23 -9z m68 3 c-6 -18 -28 -21 -28 -4 0 9 7 16
16 16 9 0 14 -5 12 -12z m1242 -4 c0 -10 -7 -14 -22 -12 -32 5 -35 28 -4 28
17 0 26 -5 26 -16z m-979 -29 c73 -48 120 -194 101 -310 -30 -183 -156 -308
-275 -274 -69 20 -139 130 -136 217 1 32 3 30 10 -18 12 -72 57 -148 100 -172
72 -40 167 -6 226 82 l23 32 -85 57 c-89 59 -103 75 -84 97 20 24 35 16 108
-61 l71 -75 16 57 c33 113 6 259 -60 331 -81 89 -210 57 -277 -68 -10 -19 -18
-30 -19 -24 0 19 58 102 84 120 75 48 134 51 197 9z m139 20 c0 -8 -4 -15 -10
-15 -5 0 -10 7 -10 15 0 8 5 15 10 15 6 0 10 -7 10 -15z m1124 -9 c20 -31 31
-81 50 -227 19 -144 27 -164 80 -183 45 -17 222 -36 329 -36 81 0 295 35 557
90 308 66 332 77 415 199 40 58 53 71 70 67 11 -3 68 -13 128 -23 107 -17 124
-27 92 -53 -25 -21 -125 -188 -170 -285 -64 -135 -63 -155 0 -31 48 94 153
263 198 319 9 10 28 17 51 17 l38 0 -54 -59 c-170 -188 -299 -524 -409 -1064
-22 -111 -50 -223 -61 -250 -59 -137 -170 -161 -763 -162 -430 0 -460 4 -528
70 -20 19 -102 124 -183 232 -219 293 -305 372 -439 401 -81 18 -125 21 -440
32 -191 7 -375 20 -508 35 -245 29 -338 31 -386 7 -51 -25 -92 -84 -123 -175
-19 -53 -26 -68 -22 -42 9 61 42 153 63 176 65 70 76 78 122 89 27 7 70 9 96
6 377 -48 481 -56 793 -66 348 -11 433 -21 509 -59 23 -12 41 -19 41 -16 0 14
-128 65 -188 74 -37 6 -215 16 -397 21 -214 7 -383 17 -480 30 -350 46 -430
39 -481 -43 -14 -23 -23 -35 -20 -27 10 29 35 115 46 158 11 42 11 43 48 37
36 -6 35 -5 -18 22 -89 47 -130 114 -144 238 -6 49 -6 50 7 16 26 -66 71 -106
164 -146 151 -63 483 -135 623 -135 140 0 676 40 810 61 143 21 241 62 302
126 54 56 71 103 63 177 -8 70 -52 297 -64 329 -8 20 -2 24 68 49 95 33 95 33
115 4z m-1034 -1 c0 -8 -6 -15 -14 -15 -17 0 -28 14 -19 24 12 12 33 6 33 -9z
m90 -5 c0 -5 -9 -10 -20 -10 -11 0 -20 5 -20 10 0 6 9 10 20 10 11 0 20 -4 20
-10z m98 -2 c-7 -19 -38 -22 -38 -4 0 10 9 16 21 16 12 0 19 -5 17 -12z m87 2
c10 -16 -3 -29 -25 -23 -16 4 -18 8 -9 19 14 17 25 18 34 4z m95 -11 c0 -14
-5 -19 -17 -17 -23 4 -28 25 -6 31 10 3 19 5 21 6 1 0 2 -8 2 -20z m1995 12
c-11 -5 -63 -11 -115 -14 l-95 -5 85 13 c104 15 155 18 125 6z m1359 -6 c95
-20 187 -65 239 -118 137 -136 219 -427 243 -855 8 -137 6 -142 -52 -142 l-31
0 -6 178 c-15 430 -110 693 -281 777 -186 91 -552 66 -781 -53 -239 -125 -394
-479 -525 -1201 -61 -338 -95 -422 -185 -457 -40 -15 -69 -16 -228 -11 -100 4
-315 18 -478 32 -449 38 -586 60 -654 108 -16 12 -91 80 -166 152 -148 144
-197 175 -314 200 -39 8 -243 30 -455 50 -212 19 -495 47 -630 61 -341 36
-360 32 -430 -85 -22 -36 -40 -63 -40 -58 0 21 88 184 116 213 31 33 33 34
113 34 78 0 1006 -75 1302 -105 80 -8 168 -22 197 -30 64 -19 138 -86 256
-229 46 -56 100 -116 120 -134 62 -54 85 -57 486 -56 364 0 582 12 710 39 46
10 52 13 20 9 -176 -18 -273 -24 -480 -28 l-235 -5 200 9 c465 21 568 54 622
200 12 30 40 149 63 265 129 644 306 1014 546 1142 170 91 541 140 738 98z
m-3254 -8 c0 -19 -10 -27 -26 -20 -21 8 -17 33 6 33 11 0 20 -6 20 -13z m90
-7 c0 -13 -7 -20 -20 -20 -19 0 -27 20 -13 33 13 14 33 6 33 -13z m90 -5 c0
-8 -9 -15 -20 -15 -11 0 -20 7 -20 15 0 8 9 15 20 15 11 0 20 -7 20 -15z
m-963 -115 c3 -117 2 -121 -20 -129 -13 -5 -23 -5 -26 1 -5 13 31 248 38 248
3 0 7 -54 8 -120z m1061 108 c-3 -7 -13 -13 -23 -13 -10 0 -20 6 -22 13 -3 7
5 12 22 12 17 0 25 -5 23 -12z m1395 5 c-7 -2 -21 -2 -30 0 -10 3 -4 5 12 5
17 0 24 -2 18 -5z m-1333 -24 c0 -5 -4 -9 -10 -9 -5 0 -10 7 -10 16 0 8 5 12
10 9 6 -3 10 -10 10 -16z m1273 14 c-7 -2 -21 -2 -30 0 -10 3 -4 5 12 5 17 0
24 -2 18 -5z m57 -14 c-143 -25 -185 -43 -221 -92 -18 -25 -26 -44 -20 -50 13
-13 177 -21 237 -13 45 7 55 14 131 94 45 48 84 84 87 81 4 -3 -21 -40 -54
-82 -88 -110 -112 -119 -289 -115 -77 2 -143 6 -147 10 -12 12 27 87 58 113
39 33 201 73 293 73 17 0 -17 -9 -75 -19z m-3077 -4 c0 -6 -7 -11 -16 -13 -12
-3 -15 1 -11 13 7 17 25 17 27 0z m67 0 c0 -8 -7 -15 -15 -15 -16 0 -20 12 -8
23 11 12 23 8 23 -8z m60 1 c0 -8 -4 -17 -9 -21 -12 -7 -24 12 -16 25 9 15 25
12 25 -4z m55 -16 c-5 -8 -11 -8 -17 -2 -6 6 -7 16 -3 22 5 8 11 8 17 2 6 -6
7 -16 3 -22z m60 1 c-9 -16 -25 -3 -18 15 4 10 9 12 15 6 6 -6 7 -15 3 -21z
m138 3 c-3 -8 -9 -14 -13 -14 -13 0 -22 19 -15 30 9 14 34 0 28 -16z m2584 20
c-3 -3 -12 -4 -19 -1 -8 3 -5 6 6 6 11 1 17 -2 13 -5z m225 -36 c-38 -55 -70
-84 -105 -97 -34 -13 -214 -15 -221 -2 -8 12 35 56 74 76 24 12 197 53 273 64
4 0 -5 -18 -21 -41z m-2882 17 c0 -8 -4 -15 -10 -15 -5 0 -10 7 -10 15 0 8 5
15 10 15 6 0 10 -7 10 -15z m2485 -5 c-3 -5 -30 -9 -58 -9 l-52 2 40 7 c61 11
77 11 70 0z m105 6 c0 -2 -7 -7 -16 -10 -8 -3 -12 -2 -9 4 6 10 25 14 25 6z
m-1980 -21 c0 -8 -7 -15 -15 -15 -8 0 -15 7 -15 15 0 8 7 15 15 15 8 0 15 -7
15 -15z m90 -5 c0 -11 -7 -20 -15 -20 -15 0 -21 21 -8 33 12 13 23 7 23 -13z
m2393 -10 c-35 -60 -107 -132 -149 -150 -47 -20 -469 -115 -549 -124 -51 -6
29 13 334 78 96 21 191 46 210 56 45 22 87 63 131 123 38 53 50 62 23 17z
m-2299 5 c-4 -8 -12 -15 -20 -15 -8 0 -14 7 -14 15 0 8 9 15 20 15 13 0 18 -5
14 -15z m96 0 c0 -8 -9 -15 -20 -15 -20 0 -26 11 -13 23 12 13 33 7 33 -8z
m98 -2 c-4 -20 -18 -26 -37 -14 -18 12 -5 31 20 31 14 0 19 -6 17 -17z m100 0
c-4 -22 -48 -31 -48 -10 0 19 10 27 32 27 13 0 18 -6 16 -17z m92 -5 c0 -11
-7 -18 -20 -18 -18 0 -27 19 -15 32 12 12 35 3 35 -14z m90 -1 c0 -19 -10 -27
-26 -20 -21 8 -17 33 6 33 11 0 20 -6 20 -13z m98 -10 c3 -12 -4 -17 -22 -17
-24 0 -35 18 -20 32 11 11 39 1 42 -15z m82 -7 c0 -13 -5 -17 -14 -14 -24 9
-28 34 -6 34 13 0 20 -7 20 -20z m920 13 c0 -14 -81 -113 -102 -124 -28 -15
-186 -24 -217 -12 l-24 10 37 41 c41 45 72 58 184 77 91 15 122 17 122 8z m29
-68 c-85 -105 -96 -110 -251 -110 -160 0 -169 6 -134 82 16 34 35 57 55 67 42
22 52 20 15 -3 -36 -22 -79 -100 -63 -116 16 -16 219 -12 254 5 16 8 54 45 83
83 40 49 61 67 78 67 22 0 19 -6 -37 -75z m-2749 30 c0 -8 -7 -15 -15 -15 -16
0 -20 12 -8 23 11 12 23 8 23 -8z m40 0 c0 -8 -7 -15 -15 -15 -16 0 -20 12 -8
23 11 12 23 8 23 -8z m52 0 c0 -5 -5 -11 -11 -13 -6 -2 -11 4 -11 13 0 9 5 15
11 13 6 -2 11 -8 11 -13z m68 -5 c0 -5 -7 -10 -15 -10 -8 0 -15 5 -15 10 0 6
7 10 15 10 8 0 15 -4 15 -10z m60 0 c0 -5 -7 -10 -15 -10 -8 0 -15 5 -15 10 0
6 7 10 15 10 8 0 15 -4 15 -10z m60 0 c0 -5 -7 -10 -16 -10 -8 0 -12 5 -9 10
3 6 10 10 16 10 5 0 9 -4 9 -10z m60 -5 c0 -9 -6 -12 -15 -9 -8 4 -12 10 -9
15 8 14 24 10 24 -6z m70 -1 c0 -8 -4 -12 -10 -9 -5 3 -10 10 -10 16 0 5 5 9
10 9 6 0 10 -7 10 -16z m51 -30 c-5 -16 -10 -21 -10 -12 -1 18 10 51 15 45 2
-1 -1 -16 -5 -33z m577 9 c-2 -10 -10 -18 -18 -18 -8 0 -16 8 -18 18 -2 12 3
17 18 17 15 0 20 -5 18 -17z m88 1 c-3 -9 -6 -18 -6 -20 0 -2 -7 -4 -15 -4
-18 0 -20 26 -2 33 23 10 29 7 23 -9z m94 -9 c0 -8 -7 -15 -15 -15 -8 0 -15 7
-15 15 0 8 7 15 15 15 8 0 15 -7 15 -15z m100 0 c0 -8 -9 -15 -20 -15 -11 0
-20 7 -20 15 0 8 9 15 20 15 11 0 20 -7 20 -15z m100 0 c0 -9 -9 -15 -25 -15
-24 0 -32 10 -18 23 12 13 43 7 43 -8z m100 -5 c0 -13 -7 -20 -20 -20 -13 0
-20 7 -20 20 0 13 7 20 20 20 13 0 20 -7 20 -20z m90 0 c0 -13 -7 -20 -20 -20
-19 0 -27 20 -13 33 13 14 33 6 33 -13z m84 14 c23 -9 20 -34 -4 -34 -13 0
-20 7 -20 20 0 22 1 23 24 14z m116 -9 c0 -25 -4 -30 -20 -26 -21 4 -23 8 -17
26 8 19 37 20 37 0z m-1830 -40 c0 -8 -4 -15 -10 -15 -5 0 -10 7 -10 15 0 8 5
15 10 15 6 0 10 -7 10 -15z m60 0 c0 -8 -4 -15 -10 -15 -5 0 -10 7 -10 15 0 8
5 15 10 15 6 0 10 -7 10 -15z m46 -12 c-10 -10 -19 5 -10 18 6 11 8 11 12 0 2
-7 1 -15 -2 -18z m74 7 c0 -5 -7 -10 -15 -10 -8 0 -15 5 -15 10 0 6 7 10 15
10 8 0 15 -4 15 -10z m55 0 c-3 -5 -10 -10 -16 -10 -5 0 -9 5 -9 10 0 6 7 10
16 10 8 0 12 -4 9 -10z m65 0 c0 -5 -7 -10 -16 -10 -8 0 -12 5 -9 10 3 6 10
10 16 10 5 0 9 -4 9 -10z m60 0 c0 -5 -7 -10 -16 -10 -8 0 -12 5 -9 10 3 6 10
10 16 10 5 0 9 -4 9 -10z m60 -12 c0 -16 -3 -19 -11 -11 -6 6 -8 16 -5 22 11
17 16 13 16 -11z m47 -40 c-2 -13 -4 -3 -4 22 0 25 2 35 4 23 2 -13 2 -33 0
-45z m8127 32 c-64 -32 -225 -206 -207 -224 4 -3 1 -6 -6 -6 -7 0 -10 -4 -7
-9 3 -5 -7 -38 -23 -73 -16 -36 -44 -114 -62 -174 -38 -123 -48 -118 -24 13
30 158 111 319 206 410 42 39 117 83 144 83 13 0 6 -7 -21 -20z m-7551 -6 c8
-8 -3 -34 -14 -34 -5 0 -9 9 -9 20 0 19 11 26 23 14z m97 -8 c0 -8 -4 -17 -8
-20 -13 -8 -35 11 -28 23 10 16 36 14 36 -3z m90 -1 c0 -8 -7 -15 -15 -15 -8
0 -15 7 -15 15 0 8 7 15 15 15 8 0 15 -7 15 -15z m100 0 c0 -8 -9 -15 -20 -15
-11 0 -20 7 -20 15 0 8 9 15 20 15 11 0 20 -7 20 -15z m98 -2 c-5 -26 -38 -29
-38 -4 0 15 6 21 21 21 14 0 19 -5 17 -17z m95 11 c9 -10 -4 -34 -19 -34 -8 0
-14 6 -14 13 0 22 19 35 33 21z m97 -14 c0 -11 -7 -20 -15 -20 -8 0 -15 9 -15
20 0 11 7 20 15 20 8 0 15 -9 15 -20z m104 11 c9 -14 -4 -41 -20 -41 -8 0 -14
10 -14 25 0 25 23 35 34 16z m116 -10 c0 -11 -4 -23 -10 -26 -5 -3 -10 -2 -10
4 0 6 -7 8 -15 5 -15 -6 -21 16 -8 29 14 15 43 7 43 -12z m6965 0 c53 -24 127
-107 165 -184 122 -252 132 -697 21 -983 -59 -152 -155 -280 -244 -326 -130
-66 -293 20 -366 196 -30 73 -80 250 -82 290 0 11 -3 16 -6 9 -7 -19 26 -168
57 -255 30 -86 23 -93 -16 -16 -49 97 -67 189 -67 348 -1 402 109 735 290 881
24 19 58 39 75 46 49 17 128 15 173 -6z m-8805 -26 c0 -8 -4 -15 -10 -15 -5 0
-10 7 -10 15 0 8 5 15 10 15 6 0 10 -7 10 -15z m60 -6 c0 -5 -7 -9 -15 -9 -9
0 -12 6 -9 15 6 15 24 11 24 -6z m50 6 c0 -8 -4 -15 -10 -15 -5 0 -10 7 -10
15 0 8 5 15 10 15 6 0 10 -7 10 -15z m60 -6 c0 -5 -7 -9 -15 -9 -15 0 -20 12
-9 23 8 8 24 -1 24 -14z m52 -11 c-9 -9 -12 -7 -12 12 0 19 3 21 12 12 9 -9 9
-15 0 -24z m76 11 c-2 -6 -8 -10 -13 -10 -5 0 -11 4 -13 10 -2 6 4 11 13 11 9
0 15 -5 13 -11z m62 -4 c0 -8 -4 -15 -10 -15 -5 0 -10 7 -10 15 0 8 5 15 10
15 6 0 10 -7 10 -15z m60 -7 c0 -16 -3 -19 -11 -11 -6 6 -8 16 -5 22 11 17 16
13 16 -11z m207 -26 c-19 -24 -125 -73 -133 -61 -8 13 -4 16 71 68 53 37 60
40 66 24 4 -10 2 -24 -4 -31z m3745 37 c15 -8 19 -8 14 0 -9 14 24 13 89 -4
l50 -13 -81 -1 c-83 -1 -151 -19 -233 -60 -35 -18 -50 -20 -84 -13 l-42 8 33
17 c24 13 37 15 51 7 25 -13 54 -13 46 0 -3 6 -18 10 -33 10 -26 1 -26 1 -7
16 14 10 36 14 70 11 27 -2 38 -2 23 0 -16 2 -28 8 -28 13 0 18 103 25 132 9z
m-2538 -71 c-12 -18 -34 -7 -34 18 0 14 4 23 10 19 6 -3 10 2 11 12 0 10 4 6
9 -11 5 -16 7 -33 4 -38z m-604 27 c0 -16 -6 -25 -15 -25 -28 0 -18 40 13 49
1 1 2 -10 2 -24z m90 0 c0 -16 -6 -25 -15 -25 -28 0 -18 40 13 49 1 1 2 -10 2
-24z m200 0 c0 -16 -6 -25 -15 -25 -28 0 -18 40 13 49 1 1 2 -10 2 -24z m-480
-5 c0 -21 -15 -27 -25 -10 -7 12 2 30 16 30 5 0 9 -9 9 -20z m90 0 c0 -11 -7
-20 -15 -20 -15 0 -21 21 -8 33 12 13 23 7 23 -13z m290 0 c0 -11 -7 -20 -15
-20 -8 0 -15 9 -15 20 0 11 7 20 15 20 8 0 15 -9 15 -20z m198 -2 c-5 -32 -28
-35 -28 -4 0 17 5 26 16 26 10 0 14 -7 12 -22z m102 -3 c0 -16 -6 -25 -15 -25
-9 0 -15 9 -15 25 0 16 6 25 15 25 9 0 15 -9 15 -25z m2906 -34 c106 -52 207
-160 272 -293 229 -463 172 -1142 -128 -1548 -238 -320 -587 -345 -807 -58
-212 275 -281 751 -175 1199 61 256 189 489 334 609 114 96 211 131 344 127
80 -2 100 -7 160 -36z m-4626 14 c0 -8 -4 -15 -10 -15 -5 0 -10 7 -10 15 0 8
5 15 10 15 6 0 10 -7 10 -15z m60 -10 c0 -8 -4 -15 -9 -15 -13 0 -22 16 -14
24 11 11 23 6 23 -9z m60 0 c0 -8 -7 -15 -15 -15 -8 0 -15 7 -15 15 0 8 7 15
15 15 8 0 15 -7 15 -15z m60 -11 c0 -17 -22 -14 -28 4 -2 7 3 12 12 12 9 0 16
-7 16 -16z m60 1 c0 -8 -7 -15 -15 -15 -8 0 -15 7 -15 15 0 8 7 15 15 15 8 0
15 -7 15 -15z m2463 8 c-7 -2 -19 -2 -25 0 -7 3 -2 5 12 5 14 0 19 -2 13 -5z
m-2403 -18 c0 -8 -7 -15 -15 -15 -8 0 -15 7 -15 15 0 8 7 15 15 15 8 0 15 -7
15 -15z m60 -6 c0 -24 -23 -21 -28 4 -2 10 3 17 12 17 10 0 16 -9 16 -21z
m2277 15 c-3 -3 -12 -4 -19 -1 -8 3 -5 6 6 6 11 1 17 -2 13 -5z m-2207 -20 c0
-17 -22 -14 -28 4 -2 7 3 12 12 12 9 0 16 -7 16 -16z m3709 7 c10 -7 8 -12
-10 -25 -25 -17 -49 -20 -88 -9 l-24 6 24 18 c25 20 75 25 98 10z m-2305 -7
c17 -6 23 -44 7 -44 -23 0 -41 14 -41 31 0 20 8 23 34 13z m-214 -30 c0 -31
-23 -28 -28 4 -2 15 2 22 12 22 11 0 16 -9 16 -26z m110 6 c0 -23 -35 -28 -43
-6 -7 18 1 26 25 26 11 0 18 -7 18 -20z m-690 -16 c0 -8 -7 -14 -15 -14 -8 0
-15 9 -15 20 0 13 5 18 15 14 8 -4 15 -12 15 -20z m288 3 c2 -12 -3 -17 -17
-17 -15 0 -21 6 -21 21 0 25 33 22 38 -4z m92 3 c0 -11 -7 -20 -15 -20 -8 0
-15 9 -15 20 0 11 7 20 15 20 8 0 15 -9 15 -20z m110 0 c0 -13 -7 -20 -20 -20
-13 0 -20 7 -20 20 0 13 7 20 20 20 13 0 20 -7 20 -20z m-580 -5 c0 -8 -7 -15
-15 -15 -16 0 -20 12 -8 23 11 12 23 8 23 -8z m188 -2 c-2 -10 -10 -18 -18
-18 -8 0 -16 8 -18 18 -2 12 3 17 18 17 15 0 20 -5 18 -17z m92 -3 c0 -11 -7
-20 -15 -20 -8 0 -15 9 -15 20 0 11 7 20 15 20 8 0 15 -9 15 -20z m-1294 -63
c7 -34 11 -63 10 -63 0 -1 -24 3 -52 9 l-51 10 36 57 c20 32 38 55 41 53 3 -3
10 -32 16 -66z m74 63 c0 -5 -2 -10 -4 -10 -3 0 -8 5 -11 10 -3 6 -1 10 4 10
6 0 11 -4 11 -10z m35 -19 c-9 -16 -25 -3 -18 15 4 10 9 12 15 6 6 -6 7 -15 3
-21z m4044 13 c12 -11 -39 -33 -76 -34 -47 0 -51 5 -26 32 14 15 25 18 58 12
22 -3 42 -8 44 -10z m-3975 -19 c-4 -8 -10 -15 -15 -15 -5 0 -9 7 -9 15 0 8 7
15 15 15 9 0 12 -6 9 -15z m63 -8 c-6 -20 -27 -19 -27 2 0 14 5 19 15 14 9 -3
14 -10 12 -16z m1673 -3 c0 -16 -16 -19 -25 -4 -8 13 4 32 16 25 5 -4 9 -13 9
-21z m-1612 4 c-3 -7 -11 -13 -18 -13 -7 0 -15 6 -17 13 -3 7 4 12 17 12 13 0
20 -5 18 -12z m52 -13 c0 -8 -7 -15 -15 -15 -16 0 -20 12 -8 23 11 12 23 8 23
-8z m50 -10 c0 -8 -4 -15 -10 -15 -5 0 -10 7 -10 15 0 8 5 15 10 15 6 0 10 -7
10 -15z m1404 6 c8 -12 -21 -34 -34 -26 -17 11 -11 35 9 35 11 0 22 -4 25 -9z
m-1344 -16 c0 -8 -7 -15 -15 -15 -8 0 -15 7 -15 15 0 8 7 15 15 15 8 0 15 -7
15 -15z m43 -5 c-3 -11 -7 -20 -9 -20 -2 0 -4 9 -4 20 0 11 4 20 9 20 5 0 7
-9 4 -20z m37 -11 c0 -10 -4 -19 -10 -19 -5 0 -10 12 -10 26 0 14 4 23 10 19
6 -3 10 -15 10 -26z m1155 6 c0 -10 -5 -20 -11 -22 -13 -4 -27 24 -18 38 9 15
29 4 29 -16z m2380 -5 c-16 -16 -36 -30 -44 -30 -14 0 -14 -2 -1 -10 25 -16
-16 -50 -62 -50 -43 0 -44 1 -22 35 10 15 27 25 43 26 17 1 20 3 9 6 -22 6
-22 12 -1 35 11 12 30 18 61 18 l46 0 -29 -30z m-2485 16 c0 -2 3 -11 6 -20 4
-12 0 -16 -15 -16 -14 0 -21 6 -21 20 0 11 7 20 15 20 8 0 15 -2 15 -4z m-190
-32 c0 -8 -9 -14 -20 -14 -22 0 -28 26 -7 33 16 6 27 -1 27 -19z m90 6 c0 -11
-7 -20 -15 -20 -8 0 -15 9 -15 20 0 11 7 20 15 20 8 0 15 -9 15 -20z m-380
-10 c0 -13 -7 -20 -20 -20 -19 0 -27 20 -13 33 13 14 33 6 33 -13z m90 -1 c0
-24 -23 -21 -28 4 -2 10 3 17 12 17 10 0 16 -9 16 -21z m100 6 c0 -8 -9 -15
-20 -15 -11 0 -20 7 -20 15 0 8 9 15 20 15 11 0 20 -7 20 -15z m-290 -16 c0
-24 -23 -21 -28 4 -2 10 3 17 12 17 10 0 16 -9 16 -21z m815 11 c3 -6 -1 -13
-10 -16 -19 -8 -30 0 -20 15 8 14 22 14 30 1z m-1605 -10 c18 -12 2 -12 -25 0
-13 6 -15 9 -5 9 8 0 22 -4 30 -9z m40 -10 c0 -5 -2 -10 -4 -10 -3 0 -8 5 -11
10 -3 6 -1 10 4 10 6 0 11 -4 11 -10z m40 -10 c0 -5 -4 -10 -9 -10 -6 0 -13 5
-16 10 -3 6 1 10 9 10 9 0 16 -4 16 -10z m1440 -5 c0 -8 -9 -15 -20 -15 -20 0
-26 11 -13 23 12 13 33 7 33 -8z m-1762 -11 c42 -8 22 -21 -45 -27 -37 -4 -69
-4 -71 -2 -3 3 3 14 13 24 17 20 27 20 103 5z m382 12 c0 -11 -19 -15 -25 -6
-3 5 1 10 9 10 9 0 16 -2 16 -4z m30 -16 c0 -5 -4 -10 -10 -10 -5 0 -10 5 -10
10 0 6 5 10 10 10 6 0 10 -4 10 -10z m1240 -6 c0 -14 -28 -26 -41 -18 -18 11
-8 29 16 29 14 0 25 -5 25 -11z m-1180 -4 c0 -5 -7 -10 -15 -10 -8 0 -15 5
-15 10 0 6 7 10 15 10 8 0 15 -4 15 -10z m50 -11 c0 -5 -4 -9 -10 -9 -5 0 -10
7 -10 16 0 8 5 12 10 9 6 -3 10 -10 10 -16z m1010 -5 c0 -17 -26 -19 -36 -3
-7 12 15 31 28 23 4 -3 8 -12 8 -20z m7715 -180 c-7 -116 -8 -122 -31 -133
l-24 -11 0 164 0 164 28 10 c26 9 27 8 30 -32 2 -23 1 -96 -3 -162z m-8667
174 c-5 -15 -23 -11 -26 6 -2 11 2 14 13 10 9 -4 14 -11 13 -16z m852 2 c0
-21 -24 -28 -35 -10 -8 14 3 30 21 30 8 0 14 -9 14 -20z m-790 0 c11 -7 12
-12 3 -21 -13 -13 -33 -4 -33 17 0 16 9 18 30 4z m590 -10 c0 -11 -7 -20 -15
-20 -15 0 -21 21 -8 33 12 13 23 7 23 -13z m100 0 c0 -11 -6 -20 -14 -20 -7 0
-16 9 -19 20 -4 15 0 20 14 20 12 0 19 -7 19 -20z m-190 -10 c0 -23 -25 -27
-33 -6 -7 16 1 26 20 26 7 0 13 -9 13 -20z m2880 13 c-1 -21 -39 -51 -72 -57
-43 -8 -47 1 -22 39 13 20 25 25 55 25 22 0 39 -3 39 -7z m-3274 -33 c-1 -34
-1 -34 -27 -20 -28 15 -25 50 5 50 19 0 23 -5 22 -30z m94 5 c0 -17 -8 -29
-25 -37 -30 -13 -33 -11 -41 30 -6 31 -6 32 30 32 32 0 36 -3 36 -25z m100 5
c0 -11 -7 -20 -15 -20 -8 0 -15 9 -15 20 0 11 7 20 15 20 8 0 15 -9 15 -20z
m100 5 c0 -8 -7 -15 -15 -15 -8 0 -15 7 -15 15 0 8 7 15 15 15 8 0 15 -7 15
-15z m-947 -22 c36 -25 38 -28 31 -67 -6 -41 -52 -196 -58 -196 -1 0 -1 37 2
83 2 51 -2 105 -11 145 -8 34 -12 62 -9 62 3 0 23 -12 45 -27z m7166 -100
c-26 -121 -68 -276 -77 -285 -7 -6 -1543 -200 -1548 -195 -3 3 34 318 38 322
2 1 131 21 288 44 356 52 1100 167 1200 185 41 8 85 14 97 15 l21 1 -19 -87z
m-3279 71 c0 -4 -21 -29 -46 -56 -25 -27 -61 -81 -80 -121 -38 -81 -36 -56 8
80 30 92 30 92 67 96 20 2 39 4 44 5 4 1 7 -1 7 -4z m-50 -111 c-40 -81 -77
-197 -107 -343 -22 -107 -26 -152 -27 -312 l-1 -188 -55 -10 c-30 -6 -63 -12
-72 -14 -16 -4 -18 4 -18 56 l0 60 68 -6 67 -5 -57 11 c-61 11 -65 17 -48 62
9 24 13 25 57 21 l48 -5 -44 11 c-42 10 -43 12 -37 42 9 44 20 53 51 39 14 -6
25 -8 25 -3 0 5 -12 12 -26 15 -24 6 -26 10 -21 43 7 43 14 50 29 35 7 -7 17
-12 23 -12 5 1 0 9 -12 19 -20 16 -21 23 -12 55 9 31 13 35 25 25 9 -7 14 -8
14 -1 0 6 -5 14 -11 18 -33 20 82 356 143 421 12 13 23 23 24 23 1 0 -10 -26
-26 -57z m4290 1 c0 -3 -21 -76 -46 -162 -25 -87 -47 -164 -50 -173 -4 -14
-10 -13 -52 7 -136 66 -482 70 -992 10 -990 -115 -1538 -197 -1739 -262 -121
-38 -171 -94 -84 -94 44 0 701 64 1338 131 1026 107 1384 148 1455 169 53 15
63 14 50 -10 -20 -37 -56 -51 -176 -65 -118 -15 -704 -73 -1609 -160 -419 -40
-749 -73 -1049 -105 -55 -5 -100 -9 -102 -7 -2 1 3 39 11 82 7 44 16 135 20
201 l7 122 30 6 c57 11 58 10 58 -54 0 -64 18 -113 45 -124 39 -15 41 -15
1425 159 1146 143 1173 147 1241 173 43 17 101 74 121 120 18 39 22 42 58 42
22 0 40 -3 40 -6z m-8172 -91 c2 -53 -26 -218 -35 -210 -2 3 3 44 12 92 8 48
15 89 15 91 0 2 -18 8 -40 14 -22 6 -40 15 -40 20 0 8 65 48 81 50 3 0 6 -26
7 -57z m498 -7 c115 -15 311 -29 464 -35 385 -16 440 -19 505 -36 139 -37 192
-87 435 -410 28 -38 64 -83 79 -100 22 -26 23 -27 2 -10 -13 11 -72 82 -132
157 -248 312 -297 339 -654 358 -467 25 -557 32 -694 50 -227 30 -294 34 -334
21 -64 -22 -80 -50 -182 -316 -25 -66 -55 -140 -66 -164 l-21 -45 24 -18 23
-19 -30 13 c-16 7 -31 13 -33 14 -2 1 6 20 17 42 20 39 103 258 135 358 24 75
65 131 106 148 50 21 129 19 356 -8z m-306 -56 c0 -5 -2 -10 -4 -10 -3 0 -8 5
-11 10 -3 6 -1 10 4 10 6 0 11 -4 11 -10z m203 -13 c7 3 8 2 4 -3 -5 -5 -17
-9 -28 -9 -10 0 -19 -4 -19 -10 0 -5 5 -10 10 -10 6 0 10 -4 11 -10 0 -5 8
-18 16 -27 9 -10 14 -18 12 -19 -2 0 -12 -2 -21 -4 -9 -2 -22 3 -29 11 -6 8
-14 12 -18 10 -4 -3 -7 4 -7 15 0 18 2 18 12 5 6 -9 14 -13 18 -9 3 4 -5 19
-20 34 l-26 27 31 -3 c18 -1 31 2 32 9 0 7 2 6 6 -2 2 -6 10 -9 16 -5z m-218
-7 c11 -17 -9 -40 -25 -30 -13 8 -12 10 3 10 9 0 17 5 17 11 0 5 -4 7 -10 4
-5 -3 -10 -1 -10 4 0 14 17 14 25 1z m63 -8 c15 11 15 11 5 -3 -7 -9 -11 -19
-8 -22 3 -4 2 -5 -2 -2 -3 3 -14 -2 -24 -11 -13 -12 -19 -12 -25 -3 -4 7 -3
10 3 6 6 -4 16 0 22 7 8 10 9 16 1 21 -5 3 -10 12 -10 18 0 7 5 4 11 -6 9 -15
13 -16 27 -5z m208 6 c3 -4 -1 -5 -10 -4 -8 1 -18 5 -22 8 -3 4 1 5 10 4 8 -1
18 -5 22 -8z m93 -24 c-2 -1 5 -11 15 -23 11 -12 16 -21 12 -21 -4 0 -4 -5 0
-11 4 -8 9 -7 15 2 7 11 9 11 9 1 0 -7 5 -10 10 -7 6 4 8 10 5 14 -2 5 3 15
13 24 13 12 21 13 32 6 13 -9 13 -10 -1 -6 -27 9 -41 -14 -23 -34 14 -16 14
-17 -3 -15 -10 2 -24 -1 -30 -7 -7 -5 -13 -6 -13 -2 0 4 -6 3 -12 -2 -11 -8
-38 -10 -64 -4 -4 0 -1 8 6 16 12 15 11 16 -12 19 -7 0 -13 10 -13 20 0 11 -6
21 -14 24 -9 3 -11 0 -6 -8 5 -8 4 -11 -3 -6 -6 4 -9 13 -5 22 4 11 9 12 19 3
11 -9 14 -9 14 0 0 7 5 9 10 6 6 -3 13 1 17 10 5 16 7 15 16 -1 6 -11 9 -20 6
-20z m154 -6 c5 1 6 -2 2 -8 -4 -6 -15 -4 -31 6 -30 20 -32 29 -1 12 12 -7 26
-11 30 -10z m36 9 c8 -10 7 -14 -4 -14 -8 0 -12 4 -9 8 2 4 -2 10 -8 12 -8 4
-9 6 -2 6 6 1 17 -5 23 -12z m64 -1 c15 2 27 -1 27 -6 0 -14 -18 -21 -25 -10
-3 5 -11 10 -17 10 -7 0 -7 -4 0 -13 6 -7 9 -28 7 -46 -4 -27 -2 -31 10 -21 7
6 12 17 9 25 -8 21 18 30 32 11 11 -16 13 -16 27 4 14 21 15 21 15 -6 0 -18
-3 -22 -9 -13 -8 13 -13 6 -10 -16 1 -5 -8 1 -19 14 -11 13 -23 21 -27 17 -4
-3 4 -17 16 -30 20 -21 20 -24 5 -37 -18 -15 -47 -22 -39 -9 5 9 -15 28 -30
28 -14 0 -36 -19 -30 -27 2 -4 -2 -8 -10 -8 -11 0 -12 4 -4 14 11 12 10 14
-10 17 -5 0 -13 4 -17 9 -4 4 -17 -1 -28 -10 -21 -18 -21 -18 -2 4 10 13 23
20 29 16 6 -4 8 0 4 11 -5 11 -3 15 5 10 8 -5 9 -2 5 9 -9 25 -2 21 19 -10 15
-24 15 -26 1 -14 -9 7 -17 9 -17 3 0 -5 6 -15 14 -21 10 -9 16 -8 26 4 7 8 9
15 5 15 -4 0 -2 6 4 13 6 8 7 18 3 22 -4 5 -1 5 6 1 12 -7 17 6 5 17 -10 10
-34 -14 -26 -27 4 -6 -1 -5 -10 3 -9 7 -17 16 -17 19 0 3 3 2 7 -1 3 -4 12 -2
20 4 11 10 11 15 1 28 -11 14 -11 14 2 5 8 -6 27 -9 43 -8z m-491 -8 c-15 -15
-16 -32 -2 -23 18 11 11 -1 -16 -26 -17 -16 -23 -18 -19 -7 5 14 2 16 -15 13
-18 -4 -20 -2 -9 11 8 10 15 12 23 4 13 -13 29 -13 21 0 -6 10 11 40 23 40 3
0 1 -5 -6 -12z m135 -10 c1 -10 -2 -20 -8 -23 -5 -3 -6 0 -3 8 3 8 -2 17 -12
21 -12 5 -15 2 -10 -11 6 -14 4 -15 -5 -6 -15 15 -6 29 18 29 11 0 20 -8 20
-18z m183 17 c0 -2 -6 -8 -13 -14 -10 -8 -14 -7 -14 2 0 8 6 14 14 14 7 0 13
-1 13 -2z m297 -9 c12 1 20 -3 17 -8 -3 -5 2 -15 12 -23 16 -12 22 -11 39 3
20 17 20 17 2 -4 -21 -26 -10 -40 15 -17 10 9 18 13 18 9 0 -3 15 1 33 9 28
14 30 14 13 0 -11 -8 -24 -15 -29 -15 -5 0 -4 -7 3 -15 7 -8 10 -15 6 -15 -3
0 -9 0 -13 0 -5 0 -9 5 -9 10 -3 21 -4 22 -19 10 -8 -7 -12 -17 -8 -23 4 -6 1
-7 -6 -3 -8 5 -12 3 -10 -5 1 -8 1 -21 0 -29 -1 -13 -3 -13 -10 -1 -6 9 -6 22
-1 31 12 23 -8 44 -27 28 -11 -9 -11 -14 -1 -27 12 -14 11 -14 -5 -2 -16 13
-16 15 -1 32 16 18 16 19 -13 15 -17 -1 -30 2 -30 8 0 6 -4 20 -8 31 -4 11 -3
16 2 10 4 -6 18 -10 30 -9z m47 -12 c3 -8 2 -12 -4 -9 -6 3 -10 10 -10 16 0
14 7 11 14 -7z m-809 -4 c3 -6 -1 -7 -9 -4 -18 7 -21 14 -7 14 6 0 13 -4 16
-10z m315 -29 c7 -14 7 -22 0 -26 -6 -4 -10 -3 -9 2 3 19 -2 36 -8 29 -5 -4
-9 -12 -9 -17 -1 -5 -2 -15 -3 -21 -1 -8 -6 -6 -12 5 -6 9 -15 14 -21 11 -7
-4 -8 -2 -4 5 4 6 11 9 16 6 4 -3 13 2 20 10 16 19 17 19 30 -4z m204 8 c3 -3
-4 -5 -14 -6 -11 -1 -22 2 -24 6 -5 8 30 8 38 0z m451 1 c4 -6 -1 -7 -12 -3
-16 6 -16 5 -4 -10 10 -13 17 -15 27 -6 8 6 14 8 14 3 0 -4 7 1 16 12 14 18
15 18 4 -4 -7 -13 -14 -21 -17 -18 -4 3 -12 1 -18 -4 -9 -7 -16 -6 -25 5 -9
11 -16 12 -25 5 -10 -8 -15 -8 -21 1 -4 7 -3 9 3 6 6 -4 16 0 23 8 14 17 26
19 35 5z m218 -4 c11 1 16 0 13 -3 -3 -4 0 -13 7 -21 8 -11 8 -14 0 -9 -6 4
-14 3 -17 -2 -4 -5 -14 -8 -24 -7 -9 2 -20 -2 -24 -8 -5 -8 -8 -7 -8 2 0 7 -5
10 -10 7 -8 -5 -7 -11 1 -21 6 -7 16 -11 22 -7 6 4 7 1 3 -6 -6 -9 -12 -9 -25
3 -20 18 -36 10 -20 -10 7 -8 6 -14 -2 -20 -7 -4 -9 -3 -5 4 6 10 -10 26 -26
27 -3 0 -9 3 -12 8 -3 4 -3 5 1 2 3 -3 15 2 25 12 10 9 18 13 18 8 0 -4 7 -2
15 5 8 7 12 17 9 22 -4 6 -10 5 -15 -3 -7 -12 -9 -12 -9 0 0 11 -3 11 -17 0
-16 -13 -17 -12 -5 3 10 13 26 16 50 9 8 -3 17 5 14 13 -2 5 3 5 10 -1 7 -6
21 -9 31 -7z m-1165 -10 c4 5 13 10 20 12 22 4 13 -7 -20 -24 -18 -9 -30 -13
-26 -9 4 5 2 15 -5 24 -11 14 -10 14 6 2 11 -9 21 -11 25 -5z m1236 5 c-8 -8
-34 -10 -38 -2 -3 4 6 7 19 7 14 0 22 -2 19 -5z m62 -24 c8 3 13 12 10 20 -3
8 -1 11 4 8 6 -3 8 -16 4 -29 -3 -14 1 -27 10 -35 17 -14 22 -2 7 15 -5 5 -5
17 0 29 9 18 9 18 5 -2 -5 -27 9 -40 18 -16 5 12 10 13 17 6 14 -14 2 -36 -13
-27 -7 5 -9 2 -6 -8 5 -11 0 -14 -20 -12 -15 1 -28 3 -29 4 -2 1 -12 3 -22 4
-10 0 -28 10 -40 20 -30 27 -34 16 -5 -17 13 -15 24 -25 24 -21 0 3 6 2 13 -3
6 -6 20 -9 30 -8 9 2 15 -1 11 -6 -3 -5 -10 -7 -15 -4 -5 4 -9 0 -9 -7 0 -9
-3 -10 -8 -2 -4 6 -15 10 -24 8 -10 -1 -20 2 -24 7 -3 5 -10 7 -15 3 -5 -3 -7
-9 -5 -13 3 -4 -1 -8 -9 -8 -8 0 -13 3 -10 5 3 3 0 11 -5 17 -8 10 -3 12 20
10 35 -3 38 5 10 30 -21 19 -17 40 5 31 8 -3 17 4 20 15 l7 21 14 -21 c9 -12
21 -18 30 -14z m-570 -14 c0 -16 4 -27 10 -26 6 1 11 -5 11 -13 0 -12 -3 -12
-17 1 -13 12 -18 41 -11 63 4 11 8 -3 7 -25z m262 -1 c10 7 14 8 10 4 -4 -5
-2 -16 5 -25 11 -14 10 -14 -5 -2 -16 12 -22 9 -19 -11 1 -8 -20 -5 -39 7 -19
13 -32 13 -47 3 -7 -6 -14 -4 -19 3 -4 7 -3 9 4 5 6 -3 13 -2 16 3 3 5 19 7
36 6 17 -1 30 2 31 9 0 6 3 6 6 -2 4 -10 8 -10 21 0z m-573 -11 c-9 -8 -36
-10 -30 -2 2 4 11 8 20 8 8 0 13 -3 10 -6z m434 -9 c8 -15 6 -18 -14 -18 -13
0 -21 4 -19 8 3 5 10 5 16 2 7 -5 9 -1 5 9 -9 23 0 22 12 -1z m6904 -6 c38 -9
75 -20 83 -24 7 -4 -75 -15 -184 -25 -197 -18 -290 -27 -1072 -113 -361 -39
-971 -110 -1382 -160 -70 -8 -145 -14 -165 -12 l-38 3 42 22 c138 74 735 170
1783 287 173 19 331 37 350 40 19 2 143 3 275 1 173 -3 259 -8 308 -19z
m-7250 -1 c-3 -9 -8 -14 -10 -11 -3 3 -2 9 2 15 9 16 15 13 8 -4z m897 0 c-10
-12 -10 -18 0 -30 7 -8 16 -12 21 -9 5 3 8 0 7 -8 -2 -8 5 -12 17 -10 15 2 17
1 6 -7 -16 -10 -41 -4 -41 11 0 6 -6 6 -14 -1 -9 -8 -16 -8 -20 -2 -4 5 -2 12
4 16 6 4 8 11 4 16 -5 9 12 39 23 39 3 0 0 -7 -7 -15z m-1629 -36 c-6 -17 -9
-35 -6 -39 3 -4 -6 -38 -19 -74 -40 -110 -77 -160 -92 -123 -3 9 10 36 31 63
47 61 79 125 68 133 -21 14 -22 42 -2 62 27 27 34 18 20 -22z m912 26 c-3 -9
-8 -14 -10 -11 -3 3 -2 9 2 15 9 16 15 13 8 -4z m767 -16 c0 -6 -4 -7 -10 -4
-5 3 -10 11 -10 16 0 6 5 7 10 4 6 -3 10 -11 10 -16z m-414 -1 c3 -4 -1 -5
-10 -4 -8 1 -18 5 -22 8 -3 4 1 5 10 4 8 -1 18 -5 22 -8z m-206 -4 c0 -8 -19
-13 -24 -6 -3 5 1 9 9 9 8 0 15 -2 15 -3z m271 -31 c12 -16 12 -17 -2 -6 -9 7
-20 9 -24 5 -5 -4 -5 -1 -1 6 9 16 11 15 27 -5z m409 -18 c13 -14 21 -25 18
-25 -2 0 -15 11 -28 25 -13 14 -21 25 -18 25 2 0 15 -11 28 -25z m-755 -226
c336 -34 612 -63 614 -65 2 -2 2 -6 0 -8 -2 -2 -220 18 -484 44 -744 76 -789
81 -810 91 -15 7 -9 8 25 5 25 -2 320 -32 655 -67z m-660 -83 c294 -50 783
-101 1379 -146 211 -15 262 -22 275 -35 18 -19 19 -19 -419 11 -484 33 -1130
109 -1315 155 -101 26 -115 30 -115 40 0 7 10 9 23 6 12 -4 90 -17 172 -31z
m-190 -16 c13 -5 14 -9 5 -9 -8 0 -24 4 -35 9 -13 5 -14 9 -5 9 8 0 24 -4 35
-9z m52 -16 c-3 -3 -12 -4 -19 -1 -8 3 -5 6 6 6 11 1 17 -2 13 -5z m159 -35
c139 -28 471 -74 719 -99 116 -11 248 -25 295 -30 l85 -9 -95 5 c-269 13 -868
88 -1030 128 -119 30 -104 33 26 5z m86 -66 c9 -10 27 -38 42 -63 l27 -45 -51
54 c-27 30 -50 58 -50 63 0 14 16 9 32 -9z m122 -65 c23 -37 52 -81 65 -99
l25 -32 -33 19 c-36 21 -85 77 -119 137 -27 47 -27 49 0 45 14 -2 35 -25 62
-70z m37 52 c5 0 22 -26 38 -57 16 -32 41 -73 55 -92 41 -54 19 -51 -32 5 -57
61 -115 161 -88 151 10 -4 22 -7 27 -7z m117 -10 c33 0 36 -3 46 -51 3 -14 17
-42 30 -62 l25 -37 -40 0 c-48 0 -75 24 -113 98 -32 62 -32 66 -3 58 12 -3 37
-6 55 -6z m3098 -37 c4 -27 8 -66 8 -87 1 -37 -2 -41 -54 -73 -30 -18 -50 -33
-44 -33 5 0 32 14 58 31 27 16 50 28 53 26 2 -3 6 -20 10 -40 5 -31 1 -39 -36
-72 -22 -21 -41 -41 -41 -46 0 -5 18 9 40 31 23 23 45 38 49 36 19 -12 18 -60
0 -90 -36 -59 -18 -129 63 -256 l22 -35 -22 19 c-97 84 -205 320 -246 533
l-13 72 61 14 c33 8 66 15 73 16 7 0 15 -19 19 -46z m-170 -55 c27 -153 98
-361 150 -440 23 -36 23 -38 5 -38 -11 0 -29 12 -41 27 -47 60 -121 247 -154
391 -13 57 -13 68 2 107 9 24 18 42 20 40 2 -2 11 -41 18 -87z m-2791 67 c35
-6 45 -14 75 -62 63 -99 179 -200 265 -231 29 -10 29 -10 5 -11 -39 -1 -146
27 -191 49 -63 32 -118 88 -176 177 -29 46 -53 85 -53 89 0 3 8 3 18 0 9 -2
35 -7 57 -11z m230 -66 c74 -74 141 -103 245 -107 85 -4 86 -3 175 42 77 40
97 46 149 46 l60 0 -39 -41 c-22 -22 -63 -56 -92 -75 -139 -92 -294 -114 -415
-57 -73 34 -172 122 -217 192 -17 26 -31 51 -31 55 0 4 26 4 58 1 51 -7 62
-12 107 -56z m463 34 c-15 -2 -42 -2 -60 0 -18 2 -6 4 27 4 33 0 48 -2 33 -4z
m139 -10 c-20 -2 -52 -2 -70 0 -17 2 0 4 38 4 39 0 53 -2 32 -4z m190 -10
c-20 -2 -52 -2 -70 0 -17 2 0 4 38 4 39 0 53 -2 32 -4z m269 -48 c24 -8 93
-22 152 -30 59 -9 130 -19 157 -24 31 -5 -107 -8 -356 -7 l-405 1 29 42 30 41
174 -4 c120 -2 188 -8 219 -19z m1464 -229 c17 -50 46 -119 64 -153 23 -43 30
-63 20 -63 -36 0 -101 117 -155 283 l-32 97 23 25 24 26 13 -62 c7 -34 26
-103 43 -153z m-2794 184 c19 0 34 -5 34 -11 0 -15 -78 -5 -94 12 -8 9 -7 10
7 5 10 -3 34 -6 53 -6z m2679 -137 c15 -49 46 -125 70 -170 46 -86 46 -105 0
-52 -50 60 -143 278 -128 301 15 26 34 0 58 -79z m-85 0 c25 -77 68 -172 101
-223 19 -29 20 -32 4 -20 -36 29 -108 151 -145 248 -24 64 -24 62 -1 62 15 0
24 -15 41 -67z m488 -58 c-3 -3 -9 2 -12 12 -6 14 -5 15 5 6 7 -7 10 -15 7
-18z"/>
<path d="M9018 6303 c6 -2 18 -2 25 0 6 3 1 5 -13 5 -14 0 -19 -2 -12 -5z"/>
<path d="M9235 6236 c-15 -11 -17 -21 -12 -58 9 -65 72 -207 109 -245 39 -40
122 -73 187 -73 83 0 100 45 60 162 -46 134 -94 199 -160 218 -50 15 -162 12
-184 -4z m216 -22 c62 -35 157 -262 130 -312 -14 -27 -51 -34 -107 -22 -66 15
-119 45 -147 82 -29 40 -71 136 -89 201 -12 45 -11 50 7 64 29 21 160 13 206
-13z"/>
<path d="M5615 6230 c-28 -31 -95 -48 -319 -80 -401 -59 -677 -110 -936 -175
-140 -35 -327 -96 -370 -122 -34 -19 -7 -12 99 27 211 77 671 174 1186 250
116 17 233 37 262 46 51 14 114 56 102 68 -3 3 -14 -3 -24 -14z"/>
<path d="M3644 6409 c-286 -22 -752 -113 -1094 -214 -136 -41 -293 -95 -288
-101 2 -1 55 13 118 32 415 127 1007 247 1345 274 76 6 141 13 144 15 6 7
-103 4 -225 -6z"/>
<path d="M3778 6373 c12 -2 32 -2 45 0 12 2 2 4 -23 4 -25 0 -35 -2 -22 -4z"/>
<path d="M3635 6363 c-250 -31 -522 -79 -755 -134 -150 -35 -461 -121 -457
-126 2 -2 105 21 228 51 345 84 807 174 1074 209 19 3 13 4 -15 4 -25 0 -58
-2 -75 -4z"/>
<path d="M2325 6325 c-187 -30 -363 -67 -518 -110 -178 -48 -329 -96 -324
-102 3 -2 43 7 88 21 188 57 757 184 934 209 28 4 28 4 -5 5 -19 0 -98 -10
-175 -23z"/>
<path d="M1389 5987 c-23 -16 -34 -31 -34 -47 0 -22 5 -25 37 -28 68 -6 146
50 117 84 -18 22 -81 17 -120 -9z m101 -7 c0 -13 -37 -50 -51 -50 -5 0 3 11
18 25 21 18 24 24 11 25 -9 0 -19 -6 -22 -12 -4 -10 -8 -10 -11 -2 -7 15 -42
6 -49 -12 -3 -7 3 -18 12 -23 9 -6 13 -10 7 -11 -41 0 -43 44 -3 60 31 12 88
12 88 0z"/>
<path d="M8590 6302 c-45 -22 -50 -52 -14 -81 46 -36 195 -62 246 -42 56 21
46 101 -17 127 -49 20 -171 18 -215 -4z m225 -32 c11 -5 -25 -8 -82 -8 -56 0
-115 -3 -132 -7 -19 -4 -31 -3 -31 4 0 5 17 13 38 16 20 4 44 8 52 9 22 5 132
-6 155 -14z m23 -52 c-3 -7 -15 -15 -29 -18 -26 -7 -164 12 -176 23 -3 4 42 7
101 7 80 0 107 -3 104 -12z"/>
<path d="M7355 6284 c-62 -16 -87 -28 -102 -50 -14 -22 -14 -26 1 -49 20 -31
67 -44 191 -51 93 -6 102 -5 128 16 23 18 28 29 25 58 -5 55 -40 75 -140 78
-46 2 -92 1 -103 -2z m214 -49 c7 -7 -16 -11 -69 -13 -44 -2 -115 -7 -157 -12
-72 -8 -93 -7 -82 4 2 3 36 11 74 20 76 17 218 17 234 1z m-1 -57 c-7 -21 -58
-27 -132 -18 -39 5 -80 10 -91 11 -45 4 56 16 138 18 65 1 88 -2 85 -11z"/>
<path d="M9777 5254 c-16 -16 -7 -44 14 -44 15 0 20 5 17 22 -3 22 -19 33 -31
22z m23 -19 c0 -8 -4 -15 -10 -15 -5 0 -10 7 -10 15 0 8 5 15 10 15 6 0 10 -7
10 -15z"/>
<path d="M3545 5748 c-274 -35 -596 -82 -680 -99 -85 -17 -185 -50 -185 -61 0
-2 -4 -18 -10 -37 -10 -36 -4 -36 14 1 20 39 84 65 232 92 140 25 575 88 729
105 70 7 73 8 25 8 -30 0 -86 -4 -125 -9z"/>
<path d="M3588 5713 c7 -3 16 -2 19 1 4 3 -2 6 -13 5 -11 0 -14 -3 -6 -6z"/>
<path d="M3498 5703 c6 -2 18 -2 25 0 6 3 1 5 -13 5 -14 0 -19 -2 -12 -5z"/>
<path d="M3428 5693 c7 -3 16 -2 19 1 4 3 -2 6 -13 5 -11 0 -14 -3 -6 -6z"/>
<path d="M3158 5653 c7 -3 16 -2 19 1 4 3 -2 6 -13 5 -11 0 -14 -3 -6 -6z"/>
<path d="M3098 5643 c7 -3 16 -2 19 1 4 3 -2 6 -13 5 -11 0 -14 -3 -6 -6z"/>
<path d="M3038 5633 c7 -3 16 -2 19 1 4 3 -2 6 -13 5 -11 0 -14 -3 -6 -6z"/>
<path d="M2918 5613 c7 -3 16 -2 19 1 4 3 -2 6 -13 5 -11 0 -14 -3 -6 -6z"/>
<path d="M2798 5583 c7 -3 16 -2 19 1 4 3 -2 6 -13 5 -11 0 -14 -3 -6 -6z"/>
<path d="M9205 5640 c-169 -36 -272 -122 -355 -296 -40 -84 -121 -312 -119
-336 0 -7 18 39 40 102 60 176 138 328 200 389 153 150 410 175 539 52 48 -45
101 -157 125 -261 22 -95 23 -100 24 -72 1 35 -36 176 -63 237 -32 72 -95 138
-158 165 -57 24 -169 34 -233 20z"/>
<path d="M9662 5170 c0 -14 2 -19 5 -12 2 6 2 18 0 25 -3 6 -5 1 -5 -13z"/>
<path d="M3582 4931 c65 -56 98 -162 67 -224 -9 -19 -7 -18 10 3 26 33 32 67
19 113 -12 38 -73 109 -112 129 -12 5 -5 -4 16 -21z"/>
<path d="M2502 4897 c-7 -8 -37 -18 -66 -21 -101 -13 -117 -26 -24 -20 79 5
91 4 126 -18 32 -19 38 -27 31 -43 -14 -36 -9 -93 11 -145 11 -27 16 -50 12
-50 -4 0 -56 -7 -116 -15 -123 -16 -196 -37 -220 -64 -15 -16 -15 -19 5 -37
24 -22 39 -22 270 -11 l165 9 51 -89 50 -88 -110 -22 c-119 -23 -189 -46 -207
-68 -8 -10 -5 -18 16 -34 32 -25 89 -27 260 -10 l113 12 37 -33 c20 -17 58
-41 83 -52 97 -41 507 -52 579 -14 44 23 72 71 72 124 0 84 -85 291 -178 432
-138 210 -262 257 -707 267 -207 5 -242 3 -253 -10z m499 -27 c279 -35 379
-108 509 -375 69 -141 102 -235 98 -279 -2 -26 -7 -31 -28 -31 -22 0 -28 9
-58 95 -85 249 -194 414 -312 475 -93 47 -258 77 -495 90 -135 7 -175 13 -175
25 0 5 10 11 23 14 33 7 341 -3 438 -14z m-290 -87 c13 -16 12 -17 -3 -4 -21
16 -24 -1 -4 -18 11 -10 17 -7 30 11 9 12 17 18 17 13 1 -6 3 -22 5 -37 1 -15
-1 -30 -7 -33 -15 -10 -10 -21 11 -21 15 0 18 6 16 28 -2 15 0 25 5 22 4 -2
15 9 24 26 8 16 18 30 21 30 3 0 2 -4 -1 -10 -3 -5 -1 -20 6 -32 6 -13 8 -20
4 -16 -4 4 -14 0 -22 -10 -12 -16 -13 -16 -7 3 6 20 5 20 -10 1 -20 -25 1 -42
25 -20 14 12 18 12 33 -4 10 -12 14 -26 10 -38 -7 -18 -6 -18 17 1 13 11 18
13 12 5 -10 -11 -10 -17 0 -29 10 -14 10 -14 -3 -5 -8 6 -23 10 -32 9 -10 -2
-21 2 -25 7 -4 7 -1 8 7 3 8 -5 11 -3 8 6 -3 8 -11 13 -17 11 -7 -1 -10 2 -6
8 5 8 11 7 21 -1 8 -7 14 -7 14 -1 0 5 -6 15 -14 21 -11 10 -17 7 -30 -11 -9
-12 -16 -17 -16 -10 0 7 -5 10 -10 7 -6 -4 -7 -12 -4 -18 5 -8 3 -8 -7 1 -18
17 -32 15 -25 -4 3 -8 2 -12 -4 -9 -6 3 -10 2 -10 -3 0 -5 -7 -9 -16 -9 -15 0
-15 1 0 12 22 17 20 25 -6 21 -13 -1 -23 -8 -23 -14 0 -6 -4 -14 -9 -19 -5 -4
-6 -3 -3 3 4 7 0 17 -8 24 -8 7 -15 9 -15 5 0 -4 -7 -2 -15 5 -12 10 -15 10
-15 -1 0 -11 -2 -11 -10 1 -5 8 -7 25 -4 36 4 15 0 26 -13 33 -10 6 -13 11 -6
11 6 0 15 -5 19 -11 4 -8 9 -7 15 2 6 10 8 8 6 -8 -2 -12 -6 -26 -10 -29 -18
-18 -4 -25 15 -8 19 15 20 16 9 2 -7 -10 -11 -19 -7 -19 40 -8 51 -2 34 19 -7
10 -8 14 -4 10 5 -4 15 -3 23 4 11 9 11 14 -3 29 -9 10 -13 23 -9 28 8 14 10
14 26 -6z m153 -1 c3 -5 -1 -9 -9 -9 -8 0 -12 4 -9 9 3 4 7 8 9 8 2 0 6 -4 9
-8z m112 -14 c4 4 3 0 -4 -10 -13 -17 -4 -30 25 -34 18 -3 36 23 27 38 -5 10
-4 10 6 1 11 -10 11 -15 0 -28 -13 -16 -12 -17 19 -19 11 0 22 -4 25 -7 4 -4
-61 -4 -71 0 -2 1 -5 0 -7 -1 -2 -2 -13 5 -24 15 -16 15 -21 15 -31 4 -9 -11
-7 -17 6 -28 15 -12 16 -12 10 4 -9 25 0 21 14 -5 6 -13 8 -20 4 -15 -5 4 -18
-1 -29 -10 -16 -14 -18 -14 -8 -2 10 13 10 19 -1 28 -8 6 -16 9 -19 6 -2 -3
-5 2 -5 10 0 8 3 13 5 10 3 -3 11 0 19 7 11 9 11 14 -4 32 -17 20 -17 20 1 6
18 -14 19 -13 13 5 -7 18 -6 19 6 3 8 -10 18 -14 23 -10z m-312 -18 c-6 -6
-10 -3 -10 10 0 13 4 16 10 10 7 -7 7 -13 0 -20z m223 4 c-3 -4 -2 -15 3 -25
15 -27 -5 -32 -26 -6 -19 21 -19 21 0 7 18 -14 19 -13 14 2 -6 15 -1 28 10 28
3 0 2 -3 -1 -6z m37 -2 c3 -5 -1 -9 -9 -9 -8 0 -12 4 -9 9 3 4 7 8 9 8 2 0 6
-4 9 -8z m187 -35 c-6 -8 -8 -17 -4 -20 3 -4 12 1 20 11 12 16 13 16 6 -2 -6
-18 -4 -18 27 4 18 13 30 17 25 9 -14 -22 -15 -42 -3 -57 9 -10 13 -11 19 0 9
13 9 12 9 -17 0 -3 -3 -5 -7 -6 -5 0 -14 -6 -21 -12 -10 -8 -12 -7 -10 4 2 8
-3 13 -12 11 -8 -2 -12 0 -8 4 10 10 -12 35 -24 28 -5 -3 -5 -11 2 -19 7 -9 6
-16 -5 -25 -8 -7 -15 -9 -15 -5 0 4 -7 2 -15 -5 -12 -10 -14 -8 -10 9 2 11 -1
23 -6 27 -6 4 -4 13 7 25 9 10 14 19 9 19 -4 0 -2 7 5 15 7 8 15 15 17 15 3 0
0 -6 -6 -13z m-181 -31 c0 -2 -8 -10 -17 -17 -16 -13 -17 -12 -4 4 13 16 21
21 21 13z m128 -22 c8 -16 8 -21 -3 -21 -8 0 -11 7 -7 16 5 14 3 14 -10 3 -13
-10 -18 -10 -24 -1 -4 8 -3 9 5 5 6 -4 14 0 17 9 7 18 7 18 22 -11z m208 4
c12 -14 13 -18 3 -10 -9 6 -18 10 -21 7 -2 -3 -5 2 -5 10 0 19 0 19 23 -7z
m-285 -15 c13 -16 12 -17 -3 -4 -10 7 -18 15 -18 17 0 8 8 3 21 -13z m-176 -2
c-9 -8 -36 -10 -30 -2 2 4 11 8 20 8 8 0 13 -3 10 -6z m463 -14 c6 -5 18 -5
25 -2 6 4 4 0 -5 -8 -10 -8 -17 -16 -15 -18 1 -2 0 -3 -2 -2 -2 2 -10 -2 -18
-8 -7 -6 -13 -8 -13 -5 0 4 -9 2 -19 -4 -24 -12 -40 5 -22 23 9 9 11 8 5 -6
-5 -13 -2 -16 10 -11 9 3 16 11 15 18 -4 34 9 41 39 23z m-411 -11 c0 -8 -6
-12 -15 -9 -11 5 -11 7 0 14 7 5 13 9 14 9 0 0 1 -6 1 -14z m-63 -4 c3 -5 -1
-9 -9 -9 -8 0 -12 4 -9 9 3 4 7 8 9 8 2 0 6 -4 9 -8z m159 -9 c-3 -7 -6 -13
-8 -13 -2 0 -5 6 -8 13 -3 8 1 14 8 14 7 0 11 -6 8 -14z m201 9 c3 -5 -1 -9
-9 -9 -8 0 -12 4 -9 9 3 4 7 8 9 8 2 0 6 -4 9 -8z m180 -28 c3 -8 2 -12 -4 -9
-6 3 -10 10 -10 16 0 14 7 11 14 -7z m-487 -34 c101 -5 242 -10 315 -11 230
-3 182 -15 -108 -27 -153 -7 -383 -17 -509 -24 -127 -6 -244 -8 -260 -4 l-30
8 37 19 c87 45 235 55 555 39z m78 -89 c-3 -5 -1 -12 5 -16 5 -3 10 2 10 11 0
24 9 13 13 -16 2 -13 10 -26 17 -28 7 -3 10 1 8 9 -6 16 9 49 21 49 5 0 12 -7
15 -16 5 -14 4 -15 -9 -4 -8 7 -15 8 -15 2 0 -13 25 -33 33 -27 4 3 5 2 2 -2
-7 -9 26 -44 35 -38 5 3 7 -3 6 -12 -2 -11 -13 -18 -28 -18 -18 -1 -25 3 -23
14 1 9 -2 22 -8 29 -5 6 -6 12 -3 12 4 0 4 5 1 10 -4 6 -20 -9 -36 -32 -30
-45 -37 -64 -17 -52 7 4 8 3 4 -5 -6 -8 -12 -9 -20 -2 -7 6 -15 9 -17 6 -3 -2
-5 4 -5 15 0 14 3 16 13 8 8 -7 13 -7 13 0 0 5 -6 15 -14 21 -25 21 -42 -28
-21 -58 7 -11 7 -13 -2 -8 -6 4 -13 1 -16 -5 -2 -7 -4 4 -2 24 1 20 8 44 15
53 12 14 15 14 30 0 15 -13 19 -14 29 -1 8 10 9 16 1 21 -5 3 -10 0 -10 -7 0
-10 -3 -9 -9 2 -6 8 -8 17 -5 21 2 4 -3 12 -11 19 -13 11 -12 30 1 30 3 0 3
-4 -1 -9z m116 -8 c13 -16 12 -17 -3 -4 -10 7 -18 15 -18 17 0 8 8 3 21 -13z
m257 7 c7 -7 29 -5 39 2 6 5 14 5 18 -2 4 -6 3 -10 -2 -9 -20 3 -25 -2 -13
-16 9 -11 16 -12 25 -5 9 7 16 6 25 -5 7 -8 10 -16 6 -16 -23 -5 -32 -4 -43 3
-10 8 -25 -4 -29 -24 -1 -5 -2 -11 -3 -14 0 -3 -6 -2 -12 1 -7 5 -5 13 5 24
15 16 14 20 -9 41 -18 17 -25 19 -26 9 0 -10 -2 -11 -6 -1 -4 9 -8 10 -18 2
-10 -8 -15 -8 -21 1 -4 7 -3 9 4 5 6 -3 13 -2 16 3 5 8 34 8 44 1z m97 0 c-3
-5 -12 -10 -18 -10 -7 0 -6 4 3 10 19 12 23 12 15 0z m-539 -35 c2 -23 0 -24
-14 -13 -13 11 -15 11 -9 -4 4 -13 2 -15 -11 -10 -15 5 -15 3 1 -23 l18 -30
-20 24 c-12 12 -18 28 -14 35 4 6 8 14 9 19 1 4 2 10 3 13 0 4 8 0 17 -7 15
-12 16 -11 9 11 -4 14 -4 22 0 18 4 -4 9 -19 11 -33z m27 12 c13 -20 13 -24 1
-24 -8 0 -12 2 -9 5 2 3 0 13 -6 23 -14 27 -4 24 14 -4z m295 -43 c6 3 14 1
18 -5 4 -8 3 -9 -4 -5 -7 4 -12 3 -12 -3 0 -5 -8 -8 -17 -7 -10 2 -18 9 -18
17 0 8 -12 14 -33 15 -18 1 -38 6 -43 11 -7 7 -1 9 20 7 31 -4 38 3 24 22 -5
5 6 -6 23 -25 17 -19 36 -31 42 -27z m48 30 c1 -9 -1 -13 -4 -9 -4 4 -7 10 -7
13 0 4 -4 14 -9 22 -7 12 -6 13 4 3 8 -7 15 -20 16 -29z m-30 4 c1 -8 -5 -15
-12 -15 -8 0 -12 3 -9 5 3 3 0 11 -6 18 -7 9 -6 12 7 10 10 -2 18 -9 20 -18z
m94 -28 c-7 -14 -6 -23 8 -36 15 -15 15 -17 1 -12 -9 4 -22 2 -28 -3 -6 -5 -9
-6 -6 -3 3 4 -1 14 -8 23 -10 14 -10 14 4 3 14 -11 17 -9 17 13 0 22 -3 24
-17 13 -11 -9 -10 -5 3 9 22 26 41 21 26 -7z m-431 -17 c-1 -5 0 -10 1 -13 7
-17 5 -48 -2 -44 -5 4 -7 12 -4 20 3 7 1 16 -5 19 -5 4 -7 11 -4 16 7 11 15
12 14 2z m138 -13 c2 -23 -12 -35 -22 -20 -4 6 -1 17 5 25 16 19 15 19 17 -5z
m373 -11 c-14 -25 -17 -24 -14 4 3 30 3 29 14 22 7 -4 7 -13 0 -26z m-569 4
c13 -16 12 -17 -3 -4 -17 13 -22 21 -14 21 2 0 10 -8 17 -17z m288 5 c-1 -1 3
-13 9 -25 10 -17 9 -21 -3 -19 -8 1 -18 6 -22 11 -4 4 -2 5 5 1 9 -6 11 -1 8
19 -3 15 -3 25 0 22 3 -3 5 -7 3 -9z m45 -6 c3 -5 -1 -9 -9 -9 -8 0 -12 4 -9
9 3 4 7 8 9 8 2 0 6 -4 9 -8z m96 2 c0 -8 -19 -13 -24 -6 -3 5 1 9 9 9 8 0 15
-2 15 -3z m-45 -13 c-9 -8 -36 -10 -30 -2 2 4 11 8 20 8 8 0 13 -3 10 -6z
m236 -12 c-2 -8 -4 -19 -4 -24 0 -6 -11 -11 -24 -11 -15 0 -20 3 -13 10 17 17
11 29 -7 15 -16 -12 -16 -11 0 8 20 23 54 24 48 2z m-385 -21 c4 -7 3 -8 -4
-4 -7 4 -12 2 -12 -5 0 -7 -3 -10 -6 -6 -6 5 3 27 11 27 2 0 7 -5 11 -12z
m159 -59 c180 -1 261 -5 215 -9 -41 -4 -252 -24 -467 -45 -322 -31 -398 -36
-419 -26 -38 17 -22 27 73 51 108 28 197 39 258 34 28 -2 181 -5 340 -5z m155
-55 c0 -8 -19 -13 -24 -6 -3 5 1 9 9 9 8 0 15 -2 15 -3z m1 -69 c3 3 6 -2 6
-10 0 -8 -1 -15 -2 -15 0 0 -19 19 -40 42 -37 40 -37 41 -4 10 19 -18 38 -30
40 -27z m96 38 c0 -9 -4 -10 -14 -2 -7 6 -13 12 -13 14 0 1 6 2 13 2 8 0 14
-6 14 -14z m-300 -10 c-4 11 -3 16 3 12 10 -6 8 -41 -3 -50 -4 -3 -5 -2 -2 2
3 3 -5 18 -17 32 l-23 26 24 -20 c22 -18 24 -18 18 -2z m238 7 c8 6 11 2 11
-15 l0 -25 -21 20 c-12 11 -25 17 -30 13 -4 -5 -5 -2 0 5 5 10 10 11 18 3 7
-7 15 -7 22 -1z m-179 -12 c3 -4 -1 -5 -10 -4 -8 1 -18 5 -22 8 -3 4 1 5 10 4
8 -1 18 -5 22 -8z m65 -15 c13 -16 12 -17 -3 -4 -17 13 -22 21 -14 21 2 0 10
-8 17 -17z m-20 -10 c13 -16 12 -17 -3 -4 -17 13 -22 21 -14 21 2 0 10 -8 17
-17z m226 10 c-4 -3 -2 -12 5 -20 6 -7 8 -16 4 -20 -3 -3 -6 0 -6 8 0 12 -2
11 -10 -1 -8 -11 -9 -9 -6 10 6 32 5 30 13 30 3 0 3 -3 0 -7z m-280 -16 c0 -7
-9 -14 -20 -14 -19 -2 -19 -2 -1 12 11 8 19 15 20 15 0 0 1 -6 1 -13z"/>
<path d="M2715 4740 c-16 -16 -25 -30 -21 -30 5 0 2 -8 -5 -17 -13 -16 -12
-17 4 -4 9 7 17 10 17 6 0 -5 8 0 19 9 10 9 19 28 19 41 0 14 -1 25 -2 25 -1
0 -15 -13 -31 -30z m13 -20 c-7 -10 -14 -18 -15 -16 -6 6 9 36 18 36 5 0 4 -9
-3 -20z"/>
<path d="M3146 4691 c-3 -4 7 -19 22 -32 23 -21 24 -21 8 -2 -10 12 -15 27
-11 32 3 6 2 11 -4 11 -5 0 -12 -4 -15 -9z"/>
<path d="M3089 4674 c-7 -8 -7 -14 1 -19 6 -3 8 -10 5 -15 -4 -7 3 -7 34 -1 2
1 -1 7 -8 14 -7 9 -7 17 0 24 6 6 5 10 -6 10 -8 0 -20 -6 -26 -13z m18 -1 c-4
-3 -1 -13 6 -22 11 -14 10 -14 -5 -2 -16 12 -16 31 -1 31 4 0 3 -3 0 -7z"/>
<path d="M3250 4629 c0 -5 -4 -7 -10 -4 -6 3 -7 -1 -4 -10 5 -12 10 -13 20 -4
8 6 11 15 8 20 -7 12 -14 11 -14 -2z"/>
<path d="M3017 4408 c4 -7 8 -17 8 -22 0 -5 8 -10 19 -12 16 -2 16 0 -5 22
-24 26 -35 32 -22 12z"/>
<path d="M3310 4456 c0 -2 8 -10 18 -17 15 -13 16 -12 3 4 -13 16 -21 21 -21
13z"/>
<path d="M3366 4432 c-3 -5 1 -9 9 -9 8 0 12 4 9 9 -3 4 -7 8 -9 8 -2 0 -6 -4
-9 -8z"/>
<path d="M3394 4338 c0 -10 1 -18 3 -18 1 0 7 8 12 18 7 13 6 19 -2 19 -7 0
-13 -9 -13 -19z"/>
<path d="M3774 4292 c-19 -13 -23 -41 -8 -57 21 -20 41 -19 54 4 13 25 13 27
-6 45 -17 18 -24 19 -40 8z m42 -23 c3 -6 0 -18 -9 -26 -18 -18 -37 -9 -37 18
0 21 34 27 46 8z"/>
<path d="M4872 5544 c-193 -28 -335 -84 -430 -169 -88 -80 -186 -257 -257
-469 -47 -141 -44 -159 4 -26 114 313 229 483 377 558 142 72 342 107 554 99
155 -6 227 -26 307 -87 117 -88 203 -295 253 -610 15 -100 18 -110 14 -50 -18
255 -103 518 -204 632 -104 118 -334 164 -618 122z"/>
<path d="M3858 3943 c6 -2 18 -2 25 0 6 3 1 5 -13 5 -14 0 -19 -2 -12 -5z"/>
<path d="M2528 3903 c7 -3 16 -2 19 1 4 3 -2 6 -13 5 -11 0 -14 -3 -6 -6z"/>
<path d="M2613 3883 c9 -2 23 -2 30 0 6 3 -1 5 -18 5 -16 0 -22 -2 -12 -5z"/>
<path d="M3535 3880 c-60 -4 -267 -9 -460 -10 l-350 -3 210 -9 c210 -10 644 3
745 21 l45 8 -40 0 c-22 0 -89 -4 -150 -7z"/>
<path d="M2673 3873 c9 -2 25 -2 35 0 9 3 1 5 -18 5 -19 0 -27 -2 -17 -5z"/>
<path d="M9165 5231 c-56 -25 -146 -128 -188 -214 -71 -147 -100 -288 -101
-492 -1 -265 73 -462 208 -552 94 -64 201 -39 300 68 129 139 211 437 187 677
-23 218 -68 350 -153 447 -73 83 -164 107 -253 66z m153 -16 c111 -47 195
-199 227 -413 20 -132 19 -228 -5 -360 -34 -191 -87 -308 -181 -400 -82 -82
-168 -103 -247 -63 -87 44 -152 145 -193 297 -34 122 -38 346 -9 484 36 176
95 302 183 390 74 75 149 96 225 65z"/>
<path d="M9217 5183 c-3 -5 -8 -75 -11 -158 -4 -82 -9 -187 -12 -232 -5 -70
-4 -83 9 -83 8 0 18 8 22 18 21 52 123 428 117 433 -24 21 -116 37 -125 22z"/>
<path d="M9149 5152 c-69 -44 -138 -140 -177 -245 -12 -32 -22 -62 -22 -67 0
-5 34 -32 74 -60 41 -27 80 -58 85 -67 9 -16 10 -15 10 7 1 44 -19 163 -40
248 -12 46 -19 85 -16 88 19 19 85 -323 70 -364 -6 -15 -4 -15 14 1 17 15 23
38 32 130 9 103 22 357 17 357 -1 0 -22 -13 -47 -28z m-11 -129 c-4 -28 -4
-28 -23 10 -19 39 -19 39 0 53 18 14 20 13 23 -10 2 -15 2 -38 0 -53z"/>
<path d="M9346 5093 c-30 -95 -86 -316 -81 -321 2 -3 -5 -20 -16 -38 -18 -30
-19 -38 -9 -70 7 -19 9 -38 6 -41 -3 -4 -6 1 -6 9 0 17 -37 68 -49 68 -4 0
-18 -10 -30 -21 -18 -17 -20 -23 -10 -30 7 -4 11 -10 8 -13 -3 -3 -13 2 -21
12 -45 49 -88 88 -138 123 -48 35 -55 37 -62 22 -10 -26 -9 -45 1 -38 12 7
100 -56 100 -72 1 -7 -4 -13 -9 -13 -20 0 -90 40 -90 52 0 6 -3 9 -6 6 -3 -3
-7 -28 -8 -54 -2 -27 -1 -39 1 -26 5 25 20 28 47 7 11 -8 27 -15 37 -15 9 0
22 -6 28 -13 9 -11 -1 -17 -51 -31 -49 -14 -63 -15 -69 -4 -6 8 -9 -1 -9 -24
l0 -37 33 10 c17 6 41 14 52 19 11 5 33 11 49 15 16 3 47 15 68 25 25 12 38
14 38 7 0 -25 -19 -36 -119 -71 -58 -20 -109 -40 -115 -46 -17 -17 44 -300 65
-300 4 0 37 58 73 128 36 71 72 134 80 141 11 10 13 18 6 31 -6 10 -10 29 -10
42 1 19 3 17 16 -12 19 -44 20 -45 41 -29 10 7 15 10 11 5 -3 -4 0 -23 8 -42
18 -43 60 -216 83 -343 l17 -94 56 55 c31 30 60 67 64 82 7 31 -27 89 -122
206 -96 119 -98 123 -80 159 9 16 16 37 16 45 0 20 41 6 179 -63 57 -29 106
-50 109 -47 21 22 20 311 -2 303 -6 -3 -64 -26 -129 -52 -66 -26 -124 -44
-133 -41 -9 4 -15 8 -13 10 2 2 65 27 139 54 l135 50 -1 43 c-2 39 -35 153
-49 167 -5 5 -77 -71 -159 -168 -22 -27 -43 -47 -45 -44 -13 13 174 238 191
228 15 -9 -21 56 -54 99 -16 20 -33 37 -38 37 -5 0 -15 -21 -24 -47z m5 -302
c-24 -33 -91 -94 -97 -88 -5 5 98 114 109 116 5 0 -1 -12 -12 -28z m-61 -161
c0 -5 -2 -10 -4 -10 -3 0 -8 5 -11 10 -3 6 -1 10 4 10 6 0 11 -4 11 -10z m-83
-92 c-2 -13 -4 -3 -4 22 0 25 2 35 4 23 2 -13 2 -33 0 -45z m-143 -83 c5 -31
1 -52 -18 -90 l-24 -50 -26 57 c-44 99 -44 104 6 121 24 8 46 12 49 8 4 -3 10
-24 13 -46z m-114 3 c0 -7 14 -49 31 -92 26 -67 29 -83 19 -104 -15 -35 -25
-20 -49 72 -23 87 -27 136 -11 136 6 0 10 -6 10 -12z"/>
<path d="M9254 4542 c3 -5 -1 -15 -9 -22 -23 -19 -18 -31 35 -90 28 -30 62
-75 77 -100 14 -25 41 -67 59 -93 l32 -49 17 36 c29 60 64 196 53 202 -25 16
-226 112 -247 119 -15 4 -21 3 -17 -3z m76 -114 c-1 -22 -1 -22 -12 -3 -6 11
-22 33 -35 48 -36 45 -26 56 12 15 19 -21 35 -48 35 -60z"/>
<path d="M9170 4468 c-2 -135 -12 -322 -20 -382 -9 -64 -9 -80 2 -87 18 -12
71 -11 104 1 26 10 27 12 21 73 -10 103 -82 397 -98 397 -5 0 -9 -1 -9 -2z"/>
<path d="M9104 4363 c-21 -38 -55 -99 -77 -137 l-40 -69 19 -35 c20 -37 90
-102 110 -102 6 0 14 15 18 33 8 49 20 377 13 377 -3 0 -23 -30 -43 -67z"/>
<path d="M8813 4405 c0 -22 2 -30 4 -17 2 12 2 30 0 40 -3 9 -5 -1 -4 -23z"/>
<path d="M4903 5095 c-227 -63 -407 -305 -490 -655 -34 -144 -43 -429 -19
-570 72 -414 337 -666 612 -582 252 77 437 354 506 757 26 152 21 380 -11 518
-42 181 -131 351 -230 439 -103 91 -246 128 -368 93z m261 -50 c78 -40 182
-151 229 -247 80 -162 106 -271 114 -483 5 -129 2 -180 -12 -260 -27 -154 -71
-289 -133 -410 -71 -140 -177 -253 -287 -306 -65 -32 -76 -34 -170 -34 -89 0
-106 3 -157 28 -112 55 -224 193 -282 349 -102 275 -91 647 29 944 92 228 226
378 390 436 80 29 204 21 279 -17z"/>
<path d="M4955 5035 c-5 -2 -36 -11 -67 -21 -63 -18 -64 -21 -48 -89 14 -57
46 -258 65 -409 l17 -128 -30 -32 c-16 -17 -36 -42 -45 -56 -14 -20 -17 -21
-17 -7 0 10 -67 87 -149 170 l-149 151 -17 -39 c-9 -22 -27 -81 -40 -131 -63
-243 -57 -529 14 -708 l12 -29 41 39 c22 21 94 100 159 174 107 121 119 139
119 173 0 25 -5 40 -16 44 -8 3 -92 2 -185 -3 -168 -9 -169 -9 -169 12 0 20 7
21 128 27 70 4 150 7 177 7 50 0 51 -1 64 -37 27 -81 35 -94 62 -108 38 -20
43 -19 83 15 48 43 70 104 64 181 -4 54 -8 66 -36 90 -34 30 -70 37 -89 18 -9
-9 -4 -17 19 -33 37 -25 50 -64 42 -122 -14 -95 -70 -133 -113 -78 -32 40 -30
136 4 180 14 18 25 37 25 42 0 5 8 16 18 25 58 52 152 -26 152 -126 0 -57 -28
-131 -66 -175 -24 -28 -29 -40 -17 -35 49 17 88 88 100 180 7 53 8 55 13 23
l5 -35 130 -22 c72 -12 163 -25 203 -29 l72 -7 0 139 c0 77 -4 145 -9 152 -6
10 -42 0 -162 -43 -85 -31 -176 -66 -203 -78 -27 -11 -51 -17 -53 -12 -11 35
-48 78 -78 92 -39 19 -41 24 -21 56 39 60 154 521 144 574 -2 9 -14 20 -28 24
-26 7 -108 10 -125 4z m59 -176 c6 -5 3 -38 -8 -84 -18 -75 -18 -75 -51 -75
-30 0 -33 3 -39 38 -7 47 -8 127 0 134 7 8 87 -3 98 -13z m-423 -375 l47 -46
-29 -61 c-15 -34 -34 -85 -40 -114 l-12 -53 -44 0 c-41 0 -43 2 -43 28 0 63
54 292 69 292 3 0 26 -21 52 -46z m119 -144 c0 -9 -7 -39 -15 -67 -15 -51 -15
-51 -63 -55 -26 -3 -48 -4 -49 -3 -7 4 29 120 48 156 l21 41 29 -28 c16 -15
29 -35 29 -44z m540 -74 c0 -25 -4 -47 -8 -50 -10 -6 -142 10 -150 19 -8 8 15
22 83 52 72 31 75 30 75 -21z m-470 -18 c0 -22 -5 -28 -21 -28 -18 0 -20 4
-14 33 4 17 10 36 12 41 8 13 23 -16 23 -46z m-90 -153 c0 -11 -12 -15 -50
-15 -38 0 -50 4 -50 15 0 11 12 15 50 15 38 0 50 -4 50 -15z m-130 -9 c0 -8
-15 -16 -37 -20 -62 -10 -73 -8 -73 14 0 18 7 20 55 20 40 0 55 -4 55 -14z
m150 -74 c0 -38 -44 -81 -68 -66 -15 10 -50 68 -52 87 0 4 27 7 60 7 59 0 60
0 60 -28z m-132 -17 c7 -18 25 -45 41 -57 l28 -24 -64 -69 c-51 -57 -65 -67
-73 -55 -11 17 -35 120 -45 193 l-7 47 54 0 c52 0 54 -1 66 -35z"/>
<path d="M5130 4982 c0 -69 -65 -348 -122 -521 l-20 -63 21 -22 c19 -18 23
-19 31 -6 5 8 71 121 146 252 135 236 136 236 119 262 -20 30 -144 126 -162
126 -7 0 -13 -12 -13 -28z m30 -283 c0 -30 -27 -53 -48 -40 -10 6 -10 19 0 60
l12 53 18 -22 c10 -12 18 -35 18 -51z"/>
<path d="M4752 4938 c-56 -45 -131 -141 -172 -220 l-34 -66 148 -153 c81 -85
153 -154 159 -154 7 0 18 12 25 27 10 22 11 49 2 130 -19 189 -67 468 -80 468
-4 0 -26 -15 -48 -32z m-18 -145 c19 -54 19 -111 3 -206 l-12 -68 -68 69 -69
69 17 39 c17 41 92 144 105 144 5 0 15 -21 24 -47z m68 -291 l-4 -63 -24 22
c-29 27 -29 28 -2 91 27 62 37 45 30 -50z"/>
<path d="M5330 4815 c-7 -9 -71 -117 -142 -242 -108 -190 -127 -229 -115 -240
11 -11 44 -2 206 58 106 40 195 78 198 85 12 33 -96 330 -127 349 -4 3 -13 -2
-20 -10z m-97 -312 c4 -19 2 -35 -6 -41 -16 -12 -77 -32 -77 -25 0 3 14 32 32
64 33 60 40 61 51 2z"/>
<path d="M4873 4281 c-44 -41 -41 -153 4 -174 21 -9 27 -8 39 8 35 48 44 143
16 168 -24 22 -34 21 -59 -2z"/>
<path d="M5072 4118 c-12 -42 -9 -47 107 -198 53 -69 113 -149 134 -177 22
-29 42 -53 47 -53 21 0 100 244 114 355 l7 50 -186 23 c-103 13 -193 26 -200
28 -9 4 -17 -5 -23 -28z"/>
<path d="M5011 4022 c-8 -15 7 -69 63 -233 40 -118 80 -242 90 -276 9 -35 21
-63 26 -63 13 0 109 118 131 163 11 21 18 44 16 51 -12 30 -289 376 -302 376
-8 0 -19 -8 -24 -18z"/>
<path d="M4816 4005 c-23 -35 -133 -160 -229 -259 l-76 -79 21 -41 c24 -47 67
-110 100 -147 38 -42 98 -83 108 -73 21 23 87 320 111 502 10 81 10 95 -3 108
-13 14 -17 12 -32 -11z m-23 -141 c13 -81 -70 -354 -108 -354 -34 0 -131 134
-121 167 3 10 36 49 73 85 55 55 75 68 107 72 46 6 60 16 23 16 -31 0 -33 6
-10 32 23 26 30 23 36 -18z"/>
<path d="M4896 3983 c-3 -10 -17 -88 -32 -173 -27 -160 -76 -366 -95 -402 -13
-24 -3 -33 51 -47 72 -19 98 -22 104 -12 12 20 25 368 19 509 -5 127 -8 142
-24 142 -10 0 -20 -8 -23 -17z"/>
<path d="M4967 3839 c3 -90 0 -238 -5 -329 -6 -90 -10 -166 -8 -167 1 -2 27 4
57 13 63 19 149 64 149 79 0 38 -170 539 -190 559 -5 5 -6 -63 -3 -155z"/>
<path d="M855 4560 c-3 -5 -5 -10 -3 -11 33 -8 38 -7 27 7 -14 17 -16 17 -24
4z"/>
<path d="M1007 4595 c-15 -10 -15 -14 -3 -18 8 -3 20 0 26 8 15 18 -1 26 -23
10z"/>
<path d="M1025 4570 c-3 -6 -10 -8 -15 -5 -5 3 -12 0 -16 -7 -4 -7 -4 -10 1
-6 13 13 37 -13 25 -27 -7 -9 -3 -11 18 -9 37 3 36 2 23 17 -6 8 -9 16 -6 19
3 3 -1 11 -9 17 -10 8 -16 9 -21 1z m22 -17 c-4 -3 -2 -11 3 -18 7 -8 5 -12
-4 -12 -8 0 -12 7 -11 16 5 22 4 21 12 21 3 0 3 -3 0 -7z"/>
<path d="M1265 4530 c-3 -5 -1 -10 4 -10 6 0 11 5 11 10 0 6 -2 10 -4 10 -3 0
-8 -4 -11 -10z"/>
<path d="M1301 4506 c-9 -10 -8 -16 3 -25 10 -9 16 -8 25 3 9 10 8 16 -3 25
-10 9 -16 8 -25 -3z"/>
<path d="M1400 4571 c0 -5 7 -11 14 -14 10 -4 13 -1 9 9 -6 15 -23 19 -23 5z"/>
<path d="M1800 4526 c-7 -10 -4 -13 15 -12 14 1 26 6 28 10 3 14 -31 15 -43 2z"/>
<path d="M1927 4517 c-7 -17 8 -31 33 -32 8 0 21 -4 28 -9 11 -7 11 -4 0 13
-7 12 -14 17 -16 11 -2 -6 -12 0 -21 11 -15 19 -18 20 -24 6z"/>
<path d="M1626 4478 c3 -5 10 -6 15 -3 13 9 11 12 -6 12 -8 0 -12 -4 -9 -9z"/>
<path d="M4183 3834 c-29 -13 -53 -26 -53 -29 0 -5 110 42 119 50 10 11 -17 2
-66 -21z"/>
<path d="M5428 3473 c7 -3 16 -2 19 1 4 3 -2 6 -13 5 -11 0 -14 -3 -6 -6z"/>
</g>
</svg>
