<?xml version="1.0" standalone="no"?>
<!DOCTYPE svg PUBLIC "-//W3C//DTD SVG 20010904//EN"
 "http://www.w3.org/TR/2001/REC-SVG-20010904/DTD/svg10.dtd">
<svg version="1.0" xmlns="http://www.w3.org/2000/svg"
 width="1024.000000pt" height="1024.000000pt" viewBox="0 0 1024.000000 1024.000000"
 preserveAspectRatio="xMidYMid meet">

<g transform="translate(0.000000,1024.000000) scale(0.100000,-0.100000)"
fill="#000000" stroke="none">
<path d="M5385 7044 c-173 -18 -317 -58 -392 -108 -45 -31 -41 -31 123 -7 208
32 376 41 748 41 718 0 1312 -36 2238 -136 l157 -17 57 -88 c63 -97 81 -112
230 -187 133 -67 586 -320 650 -363 28 -19 88 -62 132 -96 45 -34 145 -93 222
-133 77 -39 140 -74 140 -79 0 -4 -5 -22 -11 -38 l-10 -31 -257 -6 c-341 -9
-412 -17 -461 -49 -21 -14 -98 -93 -170 -175 l-131 -150 -42 20 c-23 11 -94
34 -157 51 -110 29 -126 30 -306 31 -145 0 -208 -4 -265 -17 -105 -25 -108
-37 -4 -16 238 49 475 31 707 -53 31 -11 57 -23 57 -27 -1 -3 -9 -16 -19 -28
l-19 -23 -47 21 c-203 90 -529 103 -748 31 -52 -18 -57 -18 -51 -3 4 9 34 95
67 191 73 211 79 270 35 338 l-28 41 33 5 c258 39 698 40 975 1 110 -16 149
-18 140 -10 -13 13 -261 46 -414 55 -214 11 -635 -10 -726 -36 -11 -3 -34 11
-64 38 l-46 43 243 27 c354 39 465 69 484 128 39 121 -488 399 -957 504 -431
97 -1009 149 -1648 148 -779 -1 -1087 -72 -1575 -362 -258 -153 -562 -371
-728 -522 l-78 -70 -107 13 -107 14 90 70 c322 253 793 536 1150 690 114 49
141 65 143 83 3 20 -1 22 -40 22 -64 0 -167 -25 -247 -58 -178 -75 -776 -427
-1197 -705 l-101 -67 -91 0 c-137 0 -667 -52 -987 -96 -221 -31 -385 -62 -620
-119 -223 -54 -261 -68 -410 -155 -66 -39 -174 -97 -240 -129 -115 -55 -274
-148 -342 -199 -19 -14 -47 -53 -65 -90 -38 -77 -40 -107 -24 -434 l9 -188
-27 -40 c-31 -47 -33 -83 -6 -127 33 -55 162 -184 234 -234 78 -55 173 -89
516 -185 163 -45 225 -58 301 -61 l95 -5 25 -36 c40 -60 157 -169 222 -209
l62 -38 -40 -2 c-22 -1 -231 -7 -465 -13 -420 -10 -796 -23 -1062 -36 -259
-12 -138 -24 250 -24 213 0 662 -7 997 -14 779 -19 5360 -41 6535 -32 829 6
1672 25 1684 37 4 3 -56 9 -131 12 -181 8 -713 35 -831 43 l-94 6 79 50 c95
62 198 164 263 263 26 41 50 79 52 85 2 5 111 32 244 59 263 54 390 85 441
106 66 28 236 211 341 368 58 85 67 109 52 137 -7 13 -8 26 -2 33 5 7 7 83 4
180 l-5 169 -46 61 -46 62 -3 290 c-1 159 -2 305 -2 324 0 41 -13 57 -110 131
-91 69 -201 134 -255 150 -22 7 -98 54 -170 105 -71 50 -199 138 -282 193 -84
56 -159 112 -168 125 -24 37 -28 105 -11 190 8 43 13 84 10 92 -5 12 -36 15
-173 16 -91 0 -247 6 -346 13 -156 11 -187 17 -235 39 -128 59 -734 125 -1545
168 -202 10 -1176 20 -1250 13z m2392 -130 c-3 -3 -12 -4 -19 -1 -8 3 -5 6 6
6 11 1 17 -2 13 -5z m140 -20 c-3 -3 -12 -4 -19 -1 -8 3 -5 6 6 6 11 1 17 -2
13 -5z m60 -10 c-3 -3 -12 -4 -19 -1 -8 3 -5 6 6 6 11 1 17 -2 13 -5z m66 -11
c-7 -2 -19 -2 -25 0 -7 3 -2 5 12 5 14 0 19 -2 13 -5z m60 -10 c-7 -2 -19 -2
-25 0 -7 3 -2 5 12 5 14 0 19 -2 13 -5z m50 -10 c-7 -2 -19 -2 -25 0 -7 3 -2
5 12 5 14 0 19 -2 13 -5z m-2265 -10 c-38 -2 -98 -2 -135 0 -38 2 -7 3 67 3
74 0 105 -1 68 -3z m199 0 c-20 -2 -52 -2 -70 0 -17 2 0 4 38 4 39 0 53 -2 32
-4z m-604 -10 c-18 -2 -48 -2 -65 0 -18 2 -4 4 32 4 36 0 50 -2 33 -4z m840 0
c-29 -2 -78 -2 -110 0 -32 2 -8 3 52 3 61 0 87 -1 58 -3z m-995 -10 c-10 -2
-28 -2 -40 0 -13 2 -5 4 17 4 22 1 32 -1 23 -4z m1282 -3 c50 -5 26 -6 -70 -3
-80 3 -147 7 -149 9 -7 6 137 2 219 -6z m-1397 -7 c-7 -2 -19 -2 -25 0 -7 3
-2 5 12 5 14 0 19 -2 13 -5z m-70 -10 c-7 -2 -19 -2 -25 0 -7 3 -2 5 12 5 14
0 19 -2 13 -5z m1895 -24 c182 -23 300 -43 310 -54 4 -4 -2 -5 -13 -2 -41 12
-297 48 -470 67 -113 12 -145 18 -85 14 52 -2 168 -14 258 -25z m1637 12 l250
-6 -100 -56 c-55 -31 -144 -79 -197 -108 l-97 -52 -40 21 c-73 37 -114 81
-195 209 -7 12 2 13 60 6 38 -4 182 -10 319 -14z m-4055 1 c0 -5 -19 -14 -41
-21 -230 -69 -920 -468 -1241 -718 -88 -69 -112 -83 -140 -81 l-33 1 31 4 c20
3 65 32 127 81 52 42 112 90 132 105 20 16 34 31 31 34 -7 7 -139 -54 -216
-100 -182 -110 -60 -24 180 126 363 227 790 472 910 522 100 42 260 71 260 47z
m467 2 c-3 -3 -12 -4 -19 -1 -8 3 -5 6 6 6 11 1 17 -2 13 -5z m-100 -20 c-3
-3 -12 -4 -19 -1 -8 3 -5 6 6 6 11 1 17 -2 13 -5z m2479 -72 c-7 -7 -86 9 -86
17 0 5 20 4 45 -2 25 -6 43 -12 41 -15z m165 -36 c332 -92 695 -282 753 -396
16 -30 11 -47 -17 -62 -21 -11 -21 -10 -4 9 9 11 17 27 17 36 0 94 -445 325
-819 423 -47 12 -79 23 -70 23 8 1 71 -14 140 -33z m-2063 -183 c-16 -2 -40
-2 -55 0 -16 2 -3 4 27 4 30 0 43 -2 28 -4z m-160 -10 c-10 -2 -28 -2 -40 0
-13 2 -5 4 17 4 22 1 32 -1 23 -4z m234 -10 c22 -20 23 -62 2 -156 -19 -81
-31 -110 -44 -102 -19 12 -1044 -75 -1059 -90 -7 -8 9 -7 321 20 356 30 710
53 838 55 60 1 97 5 102 13 4 6 14 42 24 80 9 37 19 66 21 63 6 -6 -75 -308
-86 -319 -5 -5 -48 -12 -95 -14 l-86 -6 14 34 c8 19 22 36 33 38 10 2 23 6 28
10 6 4 27 7 48 6 20 0 37 3 37 7 0 4 5 8 11 8 7 0 9 -11 6 -30 -9 -43 0 -37
12 8 22 83 24 95 14 89 -5 -3 -46 -7 -91 -8 l-80 -2 -19 -76 -19 -76 -64 -8
c-61 -7 -1161 -46 -1168 -41 -2 1 9 8 24 16 33 16 64 72 64 116 0 18 -9 50
-20 71 l-19 39 87 42 c48 23 124 57 169 76 87 36 313 105 341 103 9 0 -21 -11
-68 -24 -139 -38 -320 -108 -320 -124 0 -5 16 -5 35 -1 19 4 249 6 510 4 261
-2 474 0 473 4 -1 4 4 21 11 37 7 17 15 51 18 76 5 40 3 48 -18 63 -13 9 -19
16 -15 16 5 0 18 -7 28 -17z m547 14 c-2 -1 -12 -9 -22 -16 -15 -12 -17 -12
-11 3 3 9 13 16 22 16 8 0 13 -1 11 -3z m139 -4 c-15 -2 -42 -2 -60 0 -18 2
-6 4 27 4 33 0 48 -2 33 -4z m-1040 -10 c-10 -2 -28 -2 -40 0 -13 2 -5 4 17 4
22 1 32 -1 23 -4z m1185 0 c-13 -2 -33 -2 -45 0 -13 2 -3 4 22 4 25 0 35 -2
23 -4z m-1285 -10 c-10 -2 -26 -2 -35 0 -10 3 -2 5 17 5 19 0 27 -2 18 -5z
m1415 0 c-13 -2 -35 -2 -50 0 -16 2 -5 4 22 4 28 0 40 -2 28 -4z m-1490 -10
c-7 -2 -21 -2 -30 0 -10 3 -4 5 12 5 17 0 24 -2 18 -5z m1590 0 c-13 -2 -33
-2 -45 0 -13 2 -3 4 22 4 25 0 35 -2 23 -4z m-1650 -10 c-7 -2 -21 -2 -30 0
-10 3 -4 5 12 5 17 0 24 -2 18 -5z m1755 0 c-10 -2 -28 -2 -40 0 -13 2 -5 4
17 4 22 1 32 -1 23 -4z m-663 -68 c-7 -69 -1 -106 18 -104 7 1 39 0 72 -2 57
-3 56 -3 -25 -8 -47 -3 -87 -2 -88 2 -5 11 19 177 25 177 3 0 2 -29 -2 -65z
m815 43 c23 -7 44 -29 71 -71 21 -33 39 -64 39 -69 0 -19 -21 6 -45 53 -31 59
-59 79 -139 96 l-61 13 52 -5 c28 -3 66 -10 83 -17z m-2710 8 c0 -2 -8 -10
-17 -17 -16 -13 -17 -12 -4 4 13 16 21 21 21 13z m-90 -10 c0 -2 -8 -10 -17
-17 -16 -13 -17 -12 -4 4 13 16 21 21 21 13z m1697 -38 c-3 -8 -6 -5 -6 6 -1
11 2 17 5 13 3 -3 4 -12 1 -19z m-1737 7 c0 -2 -42 -32 -92 -67 -90 -60 -362
-266 -442 -334 -22 -19 -44 -34 -48 -34 -23 0 319 265 492 381 92 62 90 61 90
54z m5011 -32 c13 -16 12 -17 -3 -4 -10 7 -18 15 -18 17 0 8 8 3 21 -13z
m-5017 -18 c-4 -8 -10 -15 -16 -15 -5 0 -6 -5 -3 -11 13 -20 -5 -56 -32 -68
l-28 -12 24 20 c23 18 42 69 21 56 -16 -10 -12 7 7 27 20 22 35 24 27 3z m99
-5 c3 -12 0 -20 -8 -20 -8 0 -11 8 -8 20 3 11 7 20 8 20 1 0 5 -9 8 -20z
m4113 -45 c12 -19 13 -28 4 -45 -22 -42 -120 -62 -430 -90 -63 -5 -132 -13
-152 -16 -37 -6 -38 -5 -65 50 -15 30 -24 58 -21 62 4 3 105 2 225 -3 l218 -8
-182 -5 c-190 -5 -243 -17 -164 -38 29 -7 39 -7 34 1 -4 7 0 8 13 2 28 -11
154 -19 154 -9 0 5 40 10 88 11 82 3 187 16 242 31 39 11 36 42 -7 87 -38 38
-38 38 -5 16 18 -13 40 -33 48 -46z m978 -56 c75 -49 82 -57 31 -31 -46 23
-155 103 -176 129 -8 9 9 0 36 -21 28 -20 77 -55 109 -77z m-4984 24 c50 -44
75 -79 84 -115 l6 -28 -82 -1 c-46 0 -165 -8 -265 -18 -142 -13 -183 -14 -183
-5 0 18 152 117 251 164 107 50 137 51 189 3z m2916 -3 l144 0 0 -67 c0 -38 4
-63 8 -57 12 18 38 23 127 25 98 2 118 13 106 56 l-7 27 -106 -3 c-68 -2 -108
1 -113 8 -4 8 29 11 109 11 l116 0 29 -60 c18 -36 25 -60 18 -60 -7 0 -61 -5
-122 -10 -489 -43 -1365 -90 -1669 -90 l-92 0 25 90 25 90 80 -2 81 -2 -76 -3
-77 -4 -7 -36 c-5 -29 -2 -40 16 -57 12 -12 18 -14 13 -6 -6 12 -5 13 7 4 8
-7 33 -15 56 -19 30 -5 43 -12 48 -28 7 -22 7 -22 15 3 4 14 8 55 9 91 l1 66
58 7 c101 10 987 36 1020 29 8 -2 79 -3 158 -3z m-3206 -25 c0 -2 -10 -9 -22
-15 -22 -11 -22 -10 -4 4 21 17 26 19 26 11z m-90 -19 c0 -2 -7 -7 -16 -10 -8
-3 -12 -2 -9 4 6 10 25 14 25 6z m-38 -70 c-51 -47 -69 -88 -53 -122 9 -20 9
-25 -1 -22 -7 3 -14 24 -16 47 -3 41 0 46 50 91 29 27 54 47 56 45 2 -2 -14
-20 -36 -39z m5527 -16 c83 -27 172 -61 199 -74 57 -29 194 -126 240 -169 53
-51 45 -57 -73 -57 l-105 0 10 26 c6 14 10 31 10 37 0 7 -60 43 -132 80 -119
60 -339 207 -312 207 6 0 79 -22 163 -50z m-5609 -5 c0 -3 -15 -14 -32 -25
-18 -11 -31 -23 -29 -27 2 -4 -11 -15 -28 -24 -17 -9 -29 -18 -27 -20 2 -2 -8
-13 -22 -23 -14 -11 -22 -13 -17 -6 6 9 4 11 -4 5 -27 -16 9 -22 109 -15 108
6 124 5 102 -9 -13 -8 -272 -24 -278 -18 -4 4 208 166 219 167 4 0 7 -2 7 -5z
m3925 -66 c25 -23 44 -43 42 -45 -2 -2 -70 -14 -153 -26 -82 -12 -142 -24
-134 -25 8 -2 78 5 155 16 l140 19 32 -35 c63 -69 56 -135 -39 -390 l-61 -163
-54 -25 c-207 -94 -417 -309 -518 -528 -46 -99 -91 -276 -105 -413 -7 -60 -13
-110 -14 -111 -2 -3 -1107 -23 -1262 -23 l-142 0 -13 83 c-21 127 -18 695 4
917 20 202 49 385 76 491 26 99 60 190 74 194 7 2 212 10 457 19 448 17 978
46 1275 70 88 7 168 14 178 15 9 0 38 -18 62 -40z m-3801 -67 c3 -5 -22 -35
-54 -67 -71 -71 -79 -60 -14 19 46 55 58 64 68 48z m1779 -53 c-23 -58 -73
-255 -73 -291 0 -15 -10 -18 -59 -18 l-59 0 2 32 c2 48 -27 58 -165 58 -166 0
-308 -29 -357 -73 -21 -20 -47 -22 -505 -43 -265 -13 -630 -30 -811 -39 -181
-8 -331 -13 -334 -10 -10 9 17 168 39 233 11 34 31 76 43 94 l22 33 154 7 c85
4 170 9 187 12 l33 5 -21 -29 c-27 -36 -19 -62 27 -91 28 -17 46 -20 90 -17
48 4 68 13 153 72 l98 67 119 6 c65 3 412 15 769 28 358 12 655 23 661 24 7 0
2 -24 -13 -60z m-2553 32 c30 -5 105 -17 165 -26 61 -10 112 -19 113 -20 2 -2
-6 -16 -17 -32 -32 -42 -68 -157 -82 -255 l-13 -87 -50 -5 c-28 -3 -154 -11
-281 -17 -330 -16 -365 -29 -60 -21 143 4 289 7 325 7 l65 0 -2 -140 c-2 -77
-6 -360 -9 -628 l-6 -488 -42 3 -41 3 -7 80 c-56 617 -448 1059 -1000 1125
-190 22 -430 -25 -604 -119 -49 -26 -53 -27 -88 -13 -20 8 -36 18 -36 22 0 18
231 121 330 147 92 24 124 27 260 28 166 0 245 -11 370 -52 84 -28 213 -91
280 -136 161 -110 322 -299 440 -520 23 -43 44 -76 46 -74 2 2 -21 50 -52 108
-172 321 -407 532 -708 635 -309 106 -699 61 -950 -111 l-39 -26 -154 58
c-124 46 -152 60 -138 68 59 34 249 172 294 213 62 55 64 77 6 88 -20 3 -34 8
-32 11 10 9 288 52 452 70 139 15 251 18 620 18 295 0 421 3 365 8 -109 10
-651 14 -795 5 -225 -13 118 31 560 72 206 20 410 20 515 1z m6710 -221 c0 -5
-32 -10 -72 -12 -46 -2 -73 -7 -76 -15 -3 -10 14 -13 62 -13 36 0 66 -4 66
-10 0 -6 -136 -9 -357 -10 -237 0 -353 3 -343 10 9 6 120 10 268 10 217 0 252
2 252 15 0 13 -32 15 -217 17 -161 1 -195 3 -128 8 153 11 545 11 545 0z
m-854 -45 c43 -25 95 -50 114 -55 20 -6 193 -10 398 -10 l362 0 0 -209 0 -210
48 -68 c46 -66 47 -70 47 -143 l0 -75 -145 -12 c-124 -11 -153 -17 -199 -40
-50 -26 -101 -76 -90 -88 4 -4 142 8 377 31 l62 7 0 -32 c0 -40 -9 -58 -80
-151 -83 -108 -95 -117 -180 -135 -72 -14 -486 -75 -514 -75 -9 0 -15 24 -19
88 -12 169 -82 368 -180 512 -73 107 -190 211 -328 291 -74 43 -76 45 -61 67
19 29 27 28 98 -16 129 -80 197 -137 293 -246 71 -80 108 -115 128 -119 15 -3
91 1 168 9 77 9 257 26 400 38 143 13 238 24 210 25 -48 1 -378 -25 -644 -50
-153 -15 -157 -13 -255 108 -79 96 -177 179 -289 244 -42 24 -76 47 -74 51 2
7 268 308 271 308 2 0 38 -20 82 -45z m-7599 1 c-2 -6 -71 -57 -154 -113 -141
-95 -153 -101 -177 -90 -26 12 -25 12 11 15 50 5 319 180 302 197 -5 4 -173
-48 -259 -79 -36 -14 -76 -27 -90 -31 -23 -6 -23 -5 5 14 51 36 16 23 -99 -35
-119 -60 -240 -134 -232 -142 3 -2 45 3 93 11 48 9 109 19 136 22 26 4 47 12
48 18 0 7 4 2 9 -10 8 -20 13 -21 36 -13 43 17 38 5 -7 -15 -30 -14 -42 -16
-48 -7 -5 9 -32 7 -106 -7 -55 -11 -134 -22 -175 -26 l-75 -6 30 25 c51 42
231 145 336 192 110 49 219 80 324 92 76 9 98 6 92 -12z m4077 -12 c34 -13 15
-29 -37 -31 -102 -4 -373 -23 -404 -29 -20 -4 -33 -2 -33 4 0 19 64 30 210 36
80 4 161 11 180 15 45 11 65 12 84 5z m131 -127 c-29 -217 -36 -281 -46 -426
-14 -199 -7 -680 11 -764 7 -31 10 -60 7 -63 -3 -3 -192 -10 -419 -15 -475
-10 -1533 -28 -1718 -30 l-125 -1 -3 208 -2 209 282 2 c156 1 479 9 718 17
239 8 611 21 825 27 221 7 394 16 400 22 11 10 -53 9 -1170 -28 -401 -14 -804
-25 -894 -25 l-164 0 7 79 c3 44 6 228 6 410 l1 331 22 0 c29 0 1044 47 1397
64 232 12 285 12 340 0 123 -26 339 -12 388 24 18 13 39 16 84 14 l60 -4 -7
-51z m-231 44 c10 -16 -24 -21 -144 -21 -130 0 -186 11 -110 21 73 10 248 10
254 0z m-4347 -83 c-3 -8 -6 -5 -6 6 -1 11 2 17 5 13 3 -3 4 -12 1 -19z m242
-119 c75 -28 140 -55 144 -59 5 -4 -19 -32 -53 -61 -113 -99 -303 -351 -285
-379 8 -14 38 -13 53 2 18 18 15 28 -8 28 -22 0 -27 -15 -7 -23 6 -3 1 -6 -12
-6 -28 -1 -26 7 25 86 80 125 284 343 321 343 8 0 28 -7 44 -16 l31 -15 -49
-31 c-69 -43 -207 -189 -268 -283 -134 -205 -197 -396 -212 -642 l-6 -103 -74
0 -75 0 -100 94 c-55 52 -124 107 -152 122 -49 27 -58 29 -209 32 -86 2 -157
7 -157 11 0 3 14 26 30 50 18 27 30 57 30 77 0 38 -18 273 -25 323 -3 26 -1
31 7 23 7 -7 26 -12 44 -12 26 0 33 -5 38 -25 8 -33 1 -45 -30 -45 -13 0 -24
-4 -24 -10 0 -5 13 -10 30 -10 30 0 35 -7 42 -69 l3 -23 139 1 c77 1 143 4
147 7 4 2 10 0 13 -4 7 -12 -103 -22 -246 -22 -72 0 -118 -4 -118 -10 0 -5 16
-10 34 -10 34 0 35 -1 38 -47 l3 -47 130 2 c84 1 123 -2 110 -7 -11 -6 -82
-10 -157 -10 -131 -1 -175 -11 -109 -26 22 -5 31 -14 36 -36 8 -34 15 -35 130
-18 159 24 183 72 201 390 8 147 2 194 -29 214 -15 9 -75 18 -182 25 -171 11
-215 18 -215 30 0 21 61 77 139 129 98 65 128 82 89 51 -16 -12 -28 -28 -28
-35 0 -31 41 -38 179 -32 157 6 242 27 359 87 42 21 83 39 91 40 8 0 75 -23
150 -51z m936 41 c299 -43 552 -190 724 -420 139 -186 219 -415 254 -727 l5
-43 -59 0 -59 0 0 33 c0 66 -40 256 -76 358 -64 185 -139 311 -256 428 -182
183 -405 274 -668 273 -165 0 -323 -44 -470 -129 -81 -47 -262 -226 -308 -305
-92 -157 -149 -352 -159 -548 l-6 -115 -58 0 -59 0 0 55 c0 214 78 480 193
658 56 86 179 217 267 284 195 149 501 231 735 198z m6178 -23 c111 -30 255
-94 348 -158 246 -166 399 -432 425 -739 4 -47 7 -87 8 -90 1 -3 -25 -7 -56
-10 l-58 -5 0 33 c0 55 -30 182 -64 274 -89 238 -260 426 -478 527 -141 66
-238 85 -418 85 -171 -1 -257 -17 -377 -74 l-63 -29 16 37 c9 20 22 54 31 74
13 33 22 39 80 59 116 38 198 49 358 45 121 -3 169 -8 248 -29z m-7477 -16
c-6 -10 -94 -31 -124 -31 -33 1 12 19 70 29 29 5 54 9 56 10 2 0 1 -3 -2 -8z
m6768 -58 c-9 -21 -23 -58 -32 -82 -13 -33 -30 -52 -74 -82 -224 -153 -375
-424 -410 -740 l-12 -109 -48 0 c-26 0 -51 1 -55 3 -11 3 -4 118 13 217 59
345 246 612 550 785 43 25 80 45 81 45 2 0 -4 -17 -13 -37z m-7054 17 c0 -5
-7 -10 -15 -10 -8 0 -15 5 -15 10 0 6 7 10 15 10 8 0 15 -4 15 -10z m7745
-150 c207 -66 374 -198 460 -362 43 -80 80 -187 89 -249 l5 -44 -18 55 c-28
87 -95 210 -146 270 -76 90 -105 121 -105 113 0 -4 -4 -3 -8 3 -12 19 -119 83
-188 115 -36 16 -114 39 -172 50 -184 37 -355 17 -539 -62 -41 -18 -164 -104
-171 -121 -2 -5 -10 -8 -17 -8 -8 0 -16 -9 -20 -19 -3 -11 -13 -25 -22 -33
-14 -11 -16 -11 -8 2 8 13 7 13 -8 1 -10 -8 -15 -16 -13 -18 2 -3 -11 -21 -30
-41 -18 -19 -40 -50 -49 -68 -8 -17 -21 -34 -28 -37 -24 -9 -97 -221 -97 -281
0 -17 -4 -37 -9 -44 -12 -20 -3 81 15 163 70 311 299 546 611 625 112 28 366
23 468 -10z m-6100 5 c311 -64 561 -315 625 -626 20 -98 27 -249 11 -249 -5 0
-13 45 -16 100 -4 55 -12 100 -17 100 -6 0 -8 7 -4 15 3 8 1 15 -5 15 -6 0 -8
4 -4 9 3 5 1 12 -4 16 -6 3 -13 26 -17 50 -4 28 -10 42 -17 38 -6 -4 -8 0 -4
10 5 14 -2 25 -43 74 -5 7 -10 18 -10 24 0 7 -11 27 -25 45 -14 18 -25 35 -25
38 0 13 -127 140 -160 161 -139 88 -246 128 -387 147 -101 13 -222 3 -303 -27
-25 -9 -53 -18 -62 -20 -83 -19 -288 -155 -288 -191 0 -6 -15 -26 -34 -46 -19
-20 -31 -40 -28 -44 4 -4 2 -4 -4 -1 -16 9 -38 -19 -28 -35 4 -7 4 -10 -1 -6
-14 13 -65 -61 -65 -97 0 -8 -4 -15 -10 -15 -5 0 -9 -3 -8 -7 1 -5 -10 -46
-26 -93 -16 -46 -32 -116 -37 -155 l-8 -70 4 82 c13 262 163 515 387 653 82
50 199 95 286 110 81 13 249 11 327 -5z m-1885 -40 c0 -3 -9 -24 -20 -45 l-20
-40 171 0 c95 0 170 -2 168 -5 -3 -2 -96 -7 -208 -10 -112 -3 -207 -8 -212
-11 -13 -8 -11 29 3 76 13 40 13 40 65 40 29 0 53 -2 53 -5z m1808 -42 c-10
-2 -28 -2 -40 0 -13 2 -5 4 17 4 22 1 32 -1 23 -4z m6075 -10 c-7 -2 -19 -2
-25 0 -7 3 -2 5 12 5 14 0 19 -2 13 -5z m-6014 -29 c162 -36 342 -174 418
-321 37 -70 91 -221 82 -226 -34 -21 -126 -43 -314 -78 -66 -12 -126 -24 -132
-26 -8 -3 -13 3 -13 17 0 12 4 18 11 15 5 -4 40 0 77 9 37 8 124 27 195 42 70
15 132 31 138 35 8 5 5 27 -11 75 -12 38 -26 73 -31 79 -5 5 -9 19 -9 32 0 13
-2 23 -5 23 -3 0 -31 -20 -63 -44 -136 -103 -369 -232 -388 -213 -5 4 85 65
301 202 69 44 125 83 125 86 0 16 -148 164 -194 195 -49 33 -202 91 -212 81
-3 -3 -25 -96 -50 -208 -25 -112 -52 -211 -60 -219 -13 -13 -14 -11 -10 15 3
17 10 71 17 120 10 82 41 244 55 287 5 17 -4 18 -111 18 -106 0 -116 -2 -111
-17 14 -49 66 -382 66 -421 0 -13 -2 -13 -14 3 -11 17 -51 184 -86 367 -13 66
-1 65 -139 1 -83 -38 -106 -55 -183 -133 -48 -49 -88 -93 -88 -99 0 -5 39 -34
88 -64 187 -116 342 -220 342 -229 0 -20 -48 -4 -123 40 -142 84 -314 199
-319 213 -7 20 -11 14 -47 -91 -42 -120 -54 -195 -46 -291 10 -118 61 -279 85
-264 6 4 7 11 4 17 -5 7 -2 8 6 3 10 -6 12 -4 7 8 -19 46 -17 48 7 8 28 -46
34 -68 12 -38 -11 14 -15 15 -25 4 -8 -10 -8 -20 1 -39 l12 -26 56 43 c75 58
327 228 368 247 83 42 2 -42 -123 -126 -196 -132 -290 -183 -309 -167 -20 17
-84 160 -101 226 -22 85 -20 243 5 339 55 215 222 393 445 475 109 41 255 46
394 15z m5988 2 c147 -26 271 -94 376 -206 142 -150 214 -396 178 -606 -27
-151 -117 -302 -244 -404 l-61 -49 -13 31 c-8 17 -10 34 -6 38 5 4 34 28 65
54 82 69 92 52 13 -23 -36 -35 -64 -66 -61 -68 9 -10 157 132 192 185 20 29
49 90 66 135 25 69 31 102 35 203 l6 122 -52 -14 c-149 -38 -429 -78 -408 -58
6 6 158 40 342 76 61 12 112 23 114 25 2 1 -1 9 -8 16 -13 16 -62 157 -55 157
3 0 2 5 -1 11 -5 7 -12 6 -23 -4 -10 -8 -100 -62 -202 -120 -165 -93 -251
-131 -250 -109 1 8 143 96 297 183 l112 63 -25 47 c-14 26 -52 73 -84 105 -32
32 -57 61 -54 63 8 8 123 -118 150 -165 14 -24 32 -44 40 -44 20 0 18 5 -22
66 -41 62 -137 152 -201 190 -49 29 -173 77 -180 70 -8 -7 -75 -318 -76 -353
-1 -17 -4 -29 -6 -27 -3 2 -11 -10 -18 -27 -7 -18 -15 -30 -17 -28 -5 5 30
249 52 360 l18 86 -78 6 c-105 8 -139 1 -133 -27 13 -57 35 -280 34 -351 l0
-80 -28 140 c-16 77 -34 177 -41 223 -13 83 -13 83 -39 77 -58 -14 -159 -60
-211 -95 -52 -35 -180 -162 -180 -178 0 -4 21 -21 48 -38 256 -168 372 -247
372 -253 0 -4 10 -13 23 -20 16 -9 17 -10 2 -5 -11 4 -29 6 -40 6 -11 -1 -49
18 -85 42 -36 24 -117 78 -180 119 -63 42 -127 85 -142 97 -23 18 -28 19 -28
6 0 -9 -16 -55 -35 -103 -19 -48 -34 -88 -32 -89 1 -2 38 -10 82 -19 116 -24
316 -73 348 -86 27 -11 37 -29 16 -29 -12 0 -336 75 -391 90 -21 6 -40 15 -43
20 -17 27 -22 -2 -24 -124 -2 -143 8 -194 65 -310 20 -42 21 -47 5 -29 -33 38
-80 168 -92 249 -30 217 59 460 224 609 98 89 237 158 345 171 25 3 49 7 51
10 9 9 120 3 198 -10z m-397 -20 c0 -2 -7 -7 -16 -10 -8 -3 -12 -2 -9 4 6 10
25 14 25 6z m-5797 -13 c-13 -2 -35 -2 -50 0 -16 2 -5 4 22 4 28 0 40 -2 28
-4z m6157 0 c0 -5 -28 -7 -62 -5 -113 5 -125 9 -30 10 50 1 92 -1 92 -5z
m-7520 -14 c0 -5 -93 -8 -207 -7 -132 1 -188 4 -153 8 79 10 360 9 360 -1z
m-90 -39 c-52 -4 -144 -7 -205 -7 l-110 1 80 6 c44 3 136 6 205 7 l125 0 -95
-7z m1950 -37 l25 -28 -35 30 c-55 47 -56 48 -35 37 11 -6 31 -23 45 -39z
m-130 -17 c0 -2 -8 -10 -17 -17 -16 -13 -17 -12 -4 4 13 16 21 21 21 13z
m5295 -33 c-22 -21 -62 -63 -88 -93 -26 -30 -47 -49 -47 -41 0 15 152 171 166
171 5 0 -9 -17 -31 -37z m-5115 12 c11 -13 10 -14 -4 -9 -9 3 -16 10 -16 15 0
13 6 11 20 -6z m-920 2 c0 -1 -28 -29 -62 -62 l-63 -60 60 63 c55 58 65 67 65
59z m6800 0 c0 -2 -12 -14 -27 -28 l-28 -24 24 28 c23 25 31 32 31 24z m-7795
-27 c-4 -6 -67 -9 -163 -8 -122 1 -141 3 -87 8 119 11 257 11 250 0z m2025
-127 c93 -165 122 -415 68 -593 -32 -107 -81 -184 -183 -287 -57 -57 -108
-103 -115 -103 -7 0 -49 -18 -94 -40 -82 -40 -212 -70 -300 -70 -74 0 -202 28
-270 59 -36 16 -66 27 -66 25 0 -3 -7 2 -16 10 -8 9 -21 16 -28 16 -7 0 -23
11 -36 25 -13 14 -29 25 -35 25 -11 0 -105 93 -105 104 0 4 -9 17 -20 28 -36
39 -99 173 -119 254 -24 100 -34 177 -21 169 6 -3 10 -22 10 -42 0 -83 58
-242 126 -345 98 -147 290 -274 454 -299 235 -36 452 32 610 191 93 94 150
181 187 285 26 74 28 91 28 225 -1 131 -4 153 -29 230 -28 85 -91 205 -120
230 -9 7 -16 18 -16 24 0 19 48 -45 90 -121z m7270 91 c0 -8 -4 -14 -10 -14
-5 0 -10 9 -10 21 0 11 5 17 10 14 6 -3 10 -13 10 -21z m-33 -10 c-3 -3 -12
-4 -19 -1 -8 3 -5 6 6 6 11 1 17 -2 13 -5z m-7837 -20 c-38 -8 -90 -9 -90 -2
0 4 24 7 53 7 28 -1 45 -3 37 -5z m117 0 c-3 -3 -12 -4 -19 -1 -8 3 -5 6 6 6
11 1 17 -2 13 -5z m6484 -11 c13 -16 12 -17 -3 -4 -10 7 -18 15 -18 17 0 8 8
3 21 -13z m-531 -3 c0 -5 -22 -7 -52 -3 -72 8 -73 13 -5 13 32 0 57 -4 57 -10z
m-6233 -6 c-3 -3 -12 -4 -19 -1 -8 3 -5 6 6 6 11 1 17 -2 13 -5z m350 0 c-3
-3 -12 -4 -19 -1 -8 3 -5 6 6 6 11 1 17 -2 13 -5z m5686 -1 c-7 -2 -19 -2 -25
0 -7 3 -2 5 12 5 14 0 19 -2 13 -5z m-46 -9 c-3 -3 -12 -4 -19 -1 -8 3 -5 6 6
6 11 1 17 -2 13 -5z m383 -16 c20 -12 -49 1 -70 13 -9 5 -2 6 20 2 19 -3 42
-10 50 -15z m414 -4 c3 -8 2 -12 -4 -9 -6 3 -10 10 -10 16 0 14 7 11 14 -7z
m-564 -4 c0 -5 -6 -10 -14 -10 -8 0 -18 5 -21 10 -3 6 3 10 14 10 12 0 21 -4
21 -10z m-296 -28 l19 -27 -25 23 -25 22 -49 -41 -49 -41 48 46 c27 25 52 46
55 46 4 0 16 -13 26 -28z m-5459 -2 c10 -11 16 -20 13 -20 -3 0 -13 9 -23 20
-10 11 -16 20 -13 20 3 0 13 -9 23 -20z m-570 -20 l20 -25 -22 18 c-26 22 -48
13 -88 -35 -15 -18 -22 -23 -16 -12 10 20 81 89 85 82 1 -2 10 -14 21 -28z
m6602 -17 c27 -27 33 -34 14 -17 -20 18 -49 39 -66 47 -19 10 -24 16 -13 17 9
0 39 -21 65 -47z m347 -58 c19 -50 37 -117 41 -150 23 -228 8 -308 -84 -468
-77 -134 -289 -289 -461 -336 -91 -26 -244 -28 -340 -6 -91 22 -217 82 -268
130 -24 22 -48 40 -53 40 -5 0 -9 5 -10 10 -1 6 -16 26 -34 46 -98 108 -199
329 -182 395 3 14 5 11 6 -8 2 -42 57 -196 93 -257 18 -31 76 -99 128 -152 80
-81 109 -103 180 -137 246 -119 511 -89 738 85 144 110 233 242 268 399 32
145 9 330 -57 468 -21 44 -24 55 -10 41 6 -6 26 -51 45 -100z m-7277 37 c-20
-4 -32 -42 -23 -70 8 -23 -9 -72 -24 -72 -5 0 -10 10 -10 23 0 16 3 18 9 9 7
-11 10 -10 15 3 10 26 7 42 -4 25 -12 -17 -6 19 12 78 8 28 12 31 25 20 15
-12 15 -13 0 -16z m6058 -8 c-1 -20 -48 -134 -56 -134 -5 0 0 24 12 53 31 79
34 91 19 82 -9 -5 -11 -4 -6 4 9 13 31 10 31 -5z m-5265 -64 c-53 -48 -70 -58
-70 -42 1 7 110 91 120 92 3 0 -20 -22 -50 -50z m6405 -52 c4 -37 2 -33 -15
22 -22 75 -25 99 -4 53 7 -17 16 -51 19 -75z m-6796 58 c-3 -3 -11 5 -18 17
-13 21 -12 21 5 5 10 -10 16 -20 13 -22z m728 12 c-3 -8 -6 -5 -6 6 -1 11 2
17 5 13 3 -3 4 -12 1 -19z m5793 18 c0 -3 -26 -12 -57 -21 -32 -9 -70 -23 -85
-31 -17 -9 -28 -10 -28 -4 0 5 1 10 3 10 1 0 34 11 72 25 68 24 95 30 95 21z
m1525 -23 c-72 -114 -217 -280 -284 -325 -41 -28 -38 -24 22 32 65 60 212 233
250 293 10 15 20 27 23 27 4 0 -2 -12 -11 -27z m-2095 -13 c33 -17 60 -33 60
-36 0 -3 -3 -3 -7 -1 -5 2 -26 12 -48 22 -43 19 -84 45 -72 45 4 0 34 -14 67
-30z m135 0 c-3 -5 -11 -10 -16 -10 -6 0 -7 5 -4 10 3 6 11 10 16 10 6 0 7 -4
4 -10z m-5335 -40 c5 -19 6 -29 1 -24 -10 10 -26 72 -17 63 4 -4 11 -21 16
-39z m5760 36 c0 -2 -26 -19 -57 -37 -89 -51 -106 -60 -110 -56 -1 2 20 17 49
33 28 16 65 37 82 47 33 18 36 19 36 13z m-6455 -25 c-3 -6 -11 -11 -17 -11
-6 0 -6 6 2 15 14 17 26 13 15 -4z m-59 -28 c-6 -6 -36 9 -36 18 0 5 9 4 20
-3 10 -7 18 -14 16 -15z m-535 -83 l-8 -75 -2 62 c-1 54 6 99 14 91 2 -2 0
-37 -4 -78z m6637 50 c3 0 3 -3 0 -6 -7 -6 -78 22 -78 31 0 3 16 -2 36 -10 20
-8 39 -15 42 -15z m-6450 -16 c59 -14 141 -32 182 -40 41 -7 86 -16 99 -19 13
-2 26 -7 29 -10 13 -13 -7 -12 -58 1 -30 8 -98 21 -150 29 -93 15 -230 51
-230 60 0 8 18 6 128 -21z m7369 4 c-3 -8 -6 -5 -6 6 -1 11 2 17 5 13 3 -3 4
-12 1 -19z m-6167 -118 c0 -81 -5 -125 -21 -176 -23 -76 -86 -204 -100 -204
-5 0 4 26 20 58 68 130 82 186 81 320 -1 84 2 122 10 117 6 -4 10 -50 10 -115z
m-1316 104 c9 -3 16 -10 16 -15 0 -4 -7 -5 -17 -2 -12 5 -14 3 -8 -7 5 -9 4
-11 -3 -6 -7 4 -12 14 -12 22 0 16 2 16 24 8z m1268 -109 l-3 -105 -32 1 c-30
2 -31 2 -4 6 l27 4 0 100 c0 54 3 99 8 99 4 0 6 -47 4 -105z m4771 -8 c2 -96
0 -107 -15 -107 -16 0 -18 10 -18 79 0 43 3 93 6 110 13 62 25 24 27 -82z
m-7200 76 c-7 -2 -19 -2 -25 0 -7 3 -2 5 12 5 14 0 19 -2 13 -5z m8462 -108
c0 -63 -3 -115 -6 -115 -3 0 -39 8 -80 19 -41 10 -127 26 -192 36 -65 10 -116
20 -114 22 9 8 184 -18 269 -39 48 -12 90 -20 93 -16 3 3 8 45 11 94 5 84 10
114 16 114 2 0 3 -52 3 -115z m-8312 98 c-13 -2 -33 -2 -45 0 -13 2 -3 4 22 4
25 0 35 -2 23 -4z m152 -34 c36 -23 75 -55 75 -62 0 -3 -26 10 -57 29 -32 19
-78 41 -103 49 l-45 15 50 -6 c28 -4 64 -15 80 -25z m877 -135 c5 -7 0 -14
-12 -17 -11 -3 -23 -1 -26 4 -3 5 0 9 7 9 9 0 10 19 6 71 -3 38 -3 78 1 87 4
9 9 -19 12 -63 3 -44 8 -85 12 -91z m-1028 -13 c38 -25 45 -26 199 -28 88 -1
162 -4 165 -8 3 -3 -65 -5 -152 -5 -111 0 -166 4 -189 14 -36 15 -165 126
-199 171 -12 17 13 -3 57 -44 44 -40 98 -85 119 -100z m2126 154 c19 -23 8
-26 -19 -4 -16 13 -18 19 -8 19 8 0 20 -7 27 -15z m-152 -7 c14 -14 16 -48 3
-48 -5 0 -12 11 -15 25 -4 14 -11 23 -16 20 -6 -3 -10 -1 -10 4 0 15 23 14 38
-1z m-498 -81 c0 -5 -4 -5 -10 -2 -6 3 -7 -1 -4 -9 3 -9 1 -16 -5 -16 -6 0
-11 17 -11 37 0 35 1 36 15 17 8 -10 15 -23 15 -27z m613 26 c-7 -2 -21 -2
-30 0 -10 3 -4 5 12 5 17 0 24 -2 18 -5z m-185 -131 c42 -32 119 -86 169 -120
l93 -61 45 92 c25 51 45 98 45 105 0 7 6 12 14 12 10 0 7 -18 -15 -71 -39 -95
-70 -149 -85 -149 -7 0 -51 19 -96 43 -81 41 -100 53 -239 149 -36 25 -80 50
-96 56 -31 10 -31 10 -23 -16 4 -15 24 -54 43 -87 31 -50 34 -61 22 -68 -11
-6 -22 0 -39 20 -13 15 -25 33 -26 38 -1 6 -11 27 -21 47 -24 47 -24 65 1 78
11 6 20 7 20 3 0 -4 5 -2 11 4 6 6 18 9 26 6 13 -5 13 -2 4 15 -16 30 -7 28
23 -5 l26 -27 7 34 8 35 3 -38 c3 -33 11 -43 80 -95z m-351 86 c-3 -7 -5 -2
-5 12 0 14 2 19 5 13 2 -7 2 -19 0 -25z m6325 -52 c71 -44 197 -136 264 -192
l51 -43 42 89 c39 87 70 121 57 63 -10 -44 -63 -148 -85 -167 -20 -18 -22 -17
-81 25 -318 227 -371 273 -355 299 5 9 14 5 29 -13 11 -14 47 -41 78 -61z
m-6607 64 c-27 -12 -35 -12 -35 0 0 6 12 10 28 9 24 0 25 -1 7 -9z m6215 0 c0
-5 -4 -10 -10 -10 -5 0 -10 5 -10 10 0 6 5 10 10 10 6 0 10 -4 10 -10z m81 -7
c-14 -26 -57 -64 -131 -115 -82 -57 -255 -158 -270 -158 -7 0 -24 9 -40 20
-15 11 -30 17 -34 15 -3 -3 -4 -2 -1 2 3 3 -1 13 -8 22 -16 18 -57 114 -57
131 0 6 7 10 16 8 9 -2 26 -29 39 -65 13 -34 31 -73 41 -87 l17 -26 46 26 c25
15 106 67 178 116 73 48 136 88 140 88 5 0 19 9 33 20 31 24 44 25 31 3z
m-123 0 c-10 -2 -26 -2 -35 0 -10 3 -2 5 17 5 19 0 27 -2 18 -5z m439 1 c-3
-3 -12 -4 -19 -1 -8 3 -5 6 6 6 11 1 17 -2 13 -5z m-577 -17 c-36 -6 -69 -15
-73 -21 -6 -7 -7 -6 -4 4 4 16 49 27 107 27 21 0 8 -4 -30 -10z m-93 -3 c-3
-3 -12 -4 -19 -1 -8 3 -5 6 6 6 11 1 17 -2 13 -5z m372 -25 c-5 -11 -20 -24
-32 -30 -48 -21 -82 -54 -79 -76 3 -20 29 -51 35 -42 2 2 15 19 30 38 16 19
25 40 22 50 -4 13 4 21 30 31 24 9 31 16 23 22 -10 5 -8 8 4 8 13 0 16 -7 14
-28 -4 -25 -1 -28 27 -30 41 -3 51 -21 22 -43 -12 -10 -28 -38 -34 -61 -6 -24
-16 -50 -22 -58 -9 -12 -10 -12 -5 4 26 78 29 108 12 124 -15 15 -20 12 -69
-36 -29 -29 -55 -52 -59 -52 -3 0 -18 21 -33 47 -20 36 -23 48 -13 54 31 17
118 92 118 100 0 6 5 7 10 4 7 -4 6 -13 -1 -26z m-6029 0 c0 -6 -4 -8 -9 -4
-6 3 -15 -4 -21 -16 -7 -11 -14 -18 -17 -16 -8 8 28 57 38 51 5 -3 9 -10 9
-15z m45 11 c4 -6 12 -7 18 -3 7 4 7 0 -1 -10 -17 -21 -9 -34 26 -42 15 -3 33
-14 39 -25 11 -17 10 -18 -10 -14 -72 16 -85 14 -106 -12 -12 -15 -21 -23 -21
-18 -1 5 -19 -11 -42 -36 l-41 -45 38 70 c21 39 49 83 62 99 19 23 21 31 11
37 -10 7 -9 9 4 9 9 0 20 -5 23 -10z m6170 -10 c-4 -6 -10 -8 -14 -5 -5 2 -17
-3 -27 -11 -16 -13 -16 -15 -2 -10 9 2 22 -3 30 -12 12 -15 11 -16 -4 -3 -22
17 -23 8 -1 -25 12 -19 18 -22 25 -12 7 9 8 8 4 -5 -6 -18 26 -77 97 -177 32
-46 33 -49 7 -20 -17 19 -35 34 -41 33 -5 -2 -8 3 -6 10 1 6 -4 11 -11 9 -8
-1 -11 2 -7 9 9 13 -44 71 -58 62 -6 -3 -7 -2 -4 4 3 5 -16 39 -42 74 l-49 64
42 11 c55 15 68 16 61 4z m45 -29 c6 -2 -23 -21 -31 -21 -3 0 -6 6 -6 14 0 7
7 12 16 11 9 -2 18 -4 21 -4z m-6760 -65 c0 -6 -7 -1 -15 10 -8 10 -14 26 -14
34 0 16 28 -28 29 -44z m425 43 c-4 -6 1 -17 11 -24 17 -13 17 -16 4 -25 -41
-27 -72 4 -39 39 21 22 35 28 24 10z m349 -57 c-28 -57 -45 -36 -23 27 10 28
14 31 25 19 12 -12 12 -19 -2 -46z m6039 42 c7 -7 -44 -74 -55 -74 -14 0 -8
31 10 55 17 24 33 31 45 19z m-6083 -20 c0 -8 -5 -12 -10 -9 -6 4 -8 11 -5 16
9 14 15 11 15 -7z m-351 -24 c11 -23 11 -23 -3 -6 -9 11 -20 15 -28 10 -10 -6
-10 -4 1 9 8 10 15 16 16 15 1 -2 8 -14 14 -28z m218 -2 c-3 -8 -6 -5 -6 6 -1
11 2 17 5 13 3 -3 4 -12 1 -19z m6433 2 c-6 -11 -13 -20 -16 -20 -2 0 0 9 6
20 6 11 13 20 16 20 2 0 0 -9 -6 -20z m-215 -21 c-2 -11 3 -33 11 -47 l16 -27
-21 23 c-12 14 -19 33 -17 45 6 28 5 27 10 27 3 0 3 -9 1 -21z m-2752 4 c-13
-2 -33 -2 -45 0 -13 2 -3 4 22 4 25 0 35 -2 23 -4z m-500 -10 c-72 -2 -194 -2
-270 0 -76 1 -16 3 132 3 149 0 211 -2 138 -3z m-3280 -23 c-3 -11 -9 -17 -15
-14 -5 3 -4 12 3 20 16 19 18 18 12 -6z m383 0 c0 -11 -4 -20 -8 -20 -10 0
-11 24 -1 33 9 9 9 10 9 -13z m4779 4 c34 -5 115 -36 115 -44 0 -3 -145 -6
-323 -8 -177 -1 -503 -5 -724 -8 l-403 -6 0 31 0 31 68 1 c629 13 1194 15
1267 3z m-3652 -11 c-13 -2 -35 -2 -50 0 -16 2 -5 4 22 4 28 0 40 -2 28 -4z
m2297 -21 l0 -29 -497 -6 c-273 -4 -781 -7 -1130 -7 -529 0 -633 2 -633 14 0
16 124 20 1030 37 779 14 825 14 1043 17 l187 2 0 -28z m2560 -77 c17 -49 30
-94 29 -99 0 -6 -13 26 -29 72 -38 110 -44 128 -36 121 3 -3 20 -46 36 -94z
m-5849 38 c13 -16 12 -17 -3 -4 -10 7 -18 15 -18 17 0 8 8 3 21 -13z m1019 7
c0 -6 -30 -10 -72 -9 -50 0 -67 3 -53 9 28 12 125 12 125 0z m5040 -10 c6 -11
8 -20 6 -20 -3 0 -10 9 -16 20 -6 11 -8 20 -6 20 3 0 10 -9 16 -20z m-310 -47
c-11 -17 -11 -17 -6 0 3 10 6 24 7 30 0 9 2 9 5 0 3 -7 0 -20 -6 -30z m-6446
1 c5 -14 4 -15 -9 -4 -30 25 -14 -2 32 -56 26 -30 51 -54 56 -54 5 0 -7 18
-27 40 -49 54 -46 60 6 10 23 -22 46 -40 51 -40 5 0 5 -6 -1 -12 -5 -7 -11
-21 -13 -31 -3 -15 -20 -4 -81 53 -43 40 -78 75 -78 78 0 7 36 28 51 31 4 0
10 -6 13 -15z m980 -17 c-5 -8 -33 -40 -63 -72 -49 -51 -54 -54 -66 -38 -11
15 -8 21 25 45 21 15 50 44 65 64 18 23 31 32 37 26 6 -6 7 -16 2 -25z m5143
-115 l-21 -23 -73 73 c-40 40 -73 75 -73 79 0 15 33 4 38 -13 2 -10 8 -15 13
-13 4 3 16 -7 26 -22 10 -15 30 -40 45 -54 23 -22 29 -24 39 -13 9 11 9 14 0
14 -6 0 -26 16 -43 35 -68 78 -69 87 -2 25 l71 -65 -20 -23z m678 128 c10 -11
16 -20 13 -20 -3 0 -13 9 -23 20 -10 11 -16 20 -13 20 3 0 13 -9 23 -20z
m-5776 -7 c-24 -31 -39 -45 -39 -37 0 8 41 54 48 54 2 0 -2 -8 -9 -17z m4179
-24 l266 -30 78 -84 c83 -89 145 -139 231 -186 l52 -29 -2370 0 c-1513 0
-2375 4 -2385 10 -13 9 -13 10 0 10 26 1 162 86 227 142 34 29 87 83 118 120
l57 68 1502 3 c825 1 1604 3 1729 5 201 2 261 -2 495 -29z m-4574 -35 c3 -8 2
-12 -4 -9 -6 3 -10 10 -10 16 0 14 7 11 14 -7z m6046 11 c0 -2 -13 -11 -30
-20 -16 -9 -30 -11 -30 -6 0 7 22 19 58 30 1 1 2 -1 2 -4z m-233 -31 c-3 -3
-12 -4 -19 -1 -8 3 -5 6 6 6 11 1 17 -2 13 -5z m-66 -51 c-11 -21 -20 -35 -21
-31 0 12 33 78 38 74 2 -2 -6 -21 -17 -43z m-5461 23 c0 -2 -8 -10 -17 -17
-16 -13 -17 -12 -4 4 13 16 21 21 21 13z m-730 -31 c16 -9 19 -14 9 -15 -8 0
-24 7 -35 15 -24 18 -7 19 26 0z m593 -24 c-55 -48 -73 -61 -82 -61 -12 0 -24
34 -14 38 4 1 31 15 58 31 59 33 81 28 38 -8z m5486 0 c33 -17 50 -31 43 -35
-7 -4 -12 -16 -12 -27 0 -25 36 -26 49 -1 9 17 17 18 68 10 32 -5 90 -6 129
-2 66 5 72 4 77 -15 3 -12 13 -21 24 -21 27 0 33 9 23 35 -8 20 -4 24 33 35
23 7 59 21 79 31 42 21 58 24 58 9 0 -6 -31 -25 -70 -43 -38 -18 -69 -35 -70
-39 0 -10 78 21 112 44 31 22 38 22 38 4 0 -15 -72 -51 -160 -82 -77 -27 -281
-27 -360 0 -66 22 -166 72 -175 86 -9 14 -7 13 49 -15 27 -14 59 -25 70 -25
13 1 2 9 -29 23 -73 32 -80 38 -64 48 20 13 29 11 88 -20z m-6054 -21 c68 -32
90 -36 100 -20 3 6 -2 10 -12 10 -37 0 -96 21 -86 31 7 7 22 5 44 -5 19 -8 42
-17 52 -20 13 -4 16 -12 11 -31 -4 -18 -2 -27 11 -31 9 -4 20 -2 24 5 6 9 15
9 35 1 15 -5 53 -9 84 -8 l57 1 -55 6 c-34 4 -47 9 -35 12 11 4 6 4 -11 2 -32
-3 -64 4 -64 16 0 3 58 5 129 4 115 -2 132 -4 150 -22 18 -18 18 -20 3 -26 -9
-4 -67 -9 -129 -12 -124 -7 -210 8 -312 53 -63 28 -83 43 -75 55 7 12 7 12 79
-21z m635 15 c0 -6 -79 -51 -122 -70 -60 -24 -44 -8 25 26 34 17 64 35 65 40
4 9 32 13 32 4z"/>
<path d="M4421 6178 c25 -49 79 -93 79 -65 0 15 -68 87 -82 87 -5 0 -3 -10 3
-22z"/>
<path d="M7290 5763 c-55 -9 -144 -34 -176 -49 -49 -24 -44 -48 14 -71 38 -15
74 -18 187 -17 173 1 249 15 287 51 33 32 35 46 8 73 -18 18 -32 20 -157 19
-76 -1 -149 -4 -163 -6z m309 -27 c13 -15 4 -16 -264 -36 -82 -6 -166 -15
-185 -20 -44 -12 -50 -12 -50 1 0 20 71 41 119 34 44 -6 298 19 309 30 11 10
60 5 71 -9z m-119 -75 c0 -13 -42 -20 -135 -22 -124 -3 -160 0 -149 10 16 16
284 27 284 12z"/>
<path d="M6655 5659 c-382 -13 -960 -40 -970 -45 -29 -13 1287 33 1325 46 30
10 -56 10 -355 -1z"/>
<path d="M7656 5435 c-201 -82 -352 -216 -549 -488 -112 -153 -121 -157 -340
-168 -95 -4 -365 -12 -602 -19 -454 -11 -578 -18 -535 -29 14 -4 122 -4 240 0
118 4 388 12 600 18 412 13 473 19 527 52 20 13 83 86 149 173 183 244 276
328 471 423 62 31 113 57 113 59 0 8 -16 3 -74 -21z"/>
<path d="M5780 5364 c184 -5 481 -23 569 -35 251 -33 421 -131 565 -323 20
-27 35 -51 33 -53 -2 -2 -42 6 -88 17 -142 34 -345 43 -784 35 -489 -10 -455
-9 -455 -16 0 -4 242 -6 538 -5 472 1 548 -1 629 -16 51 -10 112 -25 135 -33
24 -8 46 -11 51 -6 11 11 -82 138 -150 202 -191 182 -365 227 -893 233 -151 2
-219 2 -150 0z"/>
<path d="M6135 4399 c-154 -3 -332 -7 -394 -8 -82 -1 -112 -4 -104 -12 7 -7
153 -7 504 0 514 12 658 7 797 -24 40 -9 76 -15 78 -12 11 11 -183 48 -298 57
-130 10 -144 10 -583 -1z"/>
<path d="M3266 5273 c-51 -47 -70 -106 -69 -209 2 -93 25 -263 44 -322 6 -19
22 -38 40 -47 35 -19 37 -14 5 18 -21 21 -25 38 -31 123 -5 54 -8 151 -9 214
0 111 1 117 32 174 45 84 41 99 -12 49z"/>
<path d="M9648 5563 c7 -3 16 -2 19 1 4 3 -2 6 -13 5 -11 0 -14 -3 -6 -6z"/>
<path d="M9578 5553 c7 -3 16 -2 19 1 4 3 -2 6 -13 5 -11 0 -14 -3 -6 -6z"/>
<path d="M9528 5543 c6 -2 18 -2 25 0 6 3 1 5 -13 5 -14 0 -19 -2 -12 -5z"/>
<path d="M9418 5524 c-124 -30 -258 -128 -258 -188 0 -94 350 -161 660 -126
46 5 5 7 -145 9 -129 1 -241 7 -290 16 -89 16 -208 70 -213 97 -5 24 68 99
125 131 27 14 87 37 133 51 91 27 83 33 -12 10z"/>
<path d="M1110 5630 c-8 -5 -10 -10 -5 -10 6 0 17 5 25 10 8 5 11 10 5 10 -5
0 -17 -5 -25 -10z"/>
<path d="M3880 5380 c-225 -8 -404 -23 -470 -40 -41 -11 16 -7 190 13 75 9
375 12 1047 12 519 0 943 3 943 8 0 4 -143 7 -317 7 -175 0 -509 2 -743 4
-234 2 -526 1 -650 -4z"/>
<path d="M5160 4979 c-548 -19 -1594 -61 -1690 -67 -58 -4 -100 -9 -95 -13 6
-3 154 0 330 7 772 30 1436 54 1638 60 119 4 217 11 217 16 0 9 -72 9 -400 -3z"/>
<path d="M4860 4369 c-724 -17 -1191 -31 -1281 -39 -86 -7 -225 -37 -216 -46
2 -2 35 3 73 11 38 7 107 17 154 20 93 6 1044 31 1618 41 200 4 365 11 368 16
6 9 -252 8 -716 -3z"/>
<path d="M1042 5021 c-11 -7 -11 -9 2 -14 10 -4 16 -1 16 8 0 17 -1 17 -18 6z"/>
<path d="M665 4480 l-70 -6 75 -1 c41 0 109 3 150 7 l75 7 -80 0 c-44 0 -111
-3 -150 -7z"/>
<path d="M2710 5183 c19 -15 75 -68 125 -118 49 -49 75 -72 58 -50 -39 51
-138 144 -183 173 l-35 23 35 -28z"/>
<path d="M2940 4940 c12 -16 24 -30 26 -30 3 0 -4 14 -16 30 -12 17 -24 30
-26 30 -3 0 4 -13 16 -30z"/>
<path d="M8830 5136 c0 -2 8 -10 18 -17 15 -13 16 -12 3 4 -13 16 -21 21 -21
13z"/>
<path d="M8900 5065 c19 -19 36 -35 39 -35 3 0 -10 16 -29 35 -19 19 -36 35
-39 35 -3 0 10 -16 29 -35z"/>
<path d="M8950 5006 c0 -2 8 -10 18 -17 15 -13 16 -12 3 4 -13 16 -21 21 -21
13z"/>
<path d="M7581 5233 c-117 -69 -242 -201 -323 -341 -48 -84 -26 -60 31 34 66
107 191 235 289 293 62 37 81 51 69 51 -1 0 -31 -17 -66 -37z"/>
<path d="M366 5151 c-12 -5 -15 -10 -9 -14 6 -4 16 0 23 8 14 17 13 17 -14 6z"/>
<path d="M300 5120 c0 -5 5 -10 11 -10 5 0 7 5 4 10 -3 6 -8 10 -11 10 -2 0
-4 -4 -4 -10z"/>
<path d="M7493 4380 c0 -41 2 -58 4 -37 2 20 2 54 0 75 -2 20 -4 3 -4 -38z"/>
<path d="M7540 4126 c0 -2 7 -9 15 -16 13 -11 14 -10 9 4 -5 14 -24 23 -24 12z"/>
<path d="M7990 3752 c22 -14 181 -24 215 -13 24 7 9 9 -66 10 -53 1 -112 4
-130 7 -24 4 -29 2 -19 -4z"/>
<path d="M2183 3758 c15 -10 67 -10 67 0 0 4 -18 7 -40 7 -23 1 -34 -2 -27 -7z"/>
<path d="M6555 3469 c-319 -4 -1127 -10 -1795 -13 -2081 -10 -4053 -25 -4059
-31 -5 -6 680 -3 3524 15 820 6 2030 13 2690 17 660 5 1155 11 1100 14 -128 8
-723 8 -1460 -2z"/>
</g>
</svg>
