<?xml version="1.0" standalone="no"?>
<!DOCTYPE svg PUBLIC "-//W3C//DTD SVG 20010904//EN"
 "http://www.w3.org/TR/2001/REC-SVG-20010904/DTD/svg10.dtd">
<svg version="1.0" xmlns="http://www.w3.org/2000/svg"
 width="1024.000000pt" height="1024.000000pt" viewBox="0 0 1024.000000 1024.000000"
 preserveAspectRatio="xMidYMid meet">

<g transform="translate(0.000000,1024.000000) scale(0.100000,-0.100000)"
fill="#000000" stroke="none">
<path d="M5315 6814 c-33 -2 -139 -8 -235 -14 -336 -21 -541 -57 -658 -116
-96 -48 -266 -198 -584 -515 l-278 -276 0 54 c0 73 -12 93 -56 93 -68 0 -155
-65 -174 -129 -5 -19 -7 -53 -3 -77 5 -39 4 -43 -18 -48 -13 -3 -139 -13 -279
-21 -603 -36 -1115 -81 -1509 -135 -248 -33 -310 -53 -388 -123 -105 -95 -150
-293 -98 -425 15 -36 15 -45 0 -103 -9 -35 -27 -77 -39 -94 -42 -56 -57 -134
-37 -189 9 -22 7 -25 -19 -31 -49 -11 -70 -48 -70 -125 0 -73 16 -100 58 -100
15 0 22 -6 22 -18 0 -42 128 -191 209 -243 24 -15 24 -15 8 -64 -10 -27 -17
-68 -17 -92 0 -34 5 -46 25 -59 31 -20 152 -36 480 -64 137 -12 251 -23 253
-25 4 -3 -28 -7 -213 -24 -60 -5 -168 -17 -240 -25 -71 -8 -196 -22 -276 -31
-80 -8 -165 -21 -190 -29 l-44 -13 45 -7 c216 -31 446 -59 660 -80 641 -63
566 -59 1230 -53 923 10 1659 25 2005 42 311 16 797 52 1930 145 336 27 759
61 940 74 289 23 660 52 1100 86 72 6 146 13 165 15 166 21 210 28 210 35 0 9
-96 18 -275 26 -77 4 -146 10 -153 13 -9 5 1 24 34 67 70 89 128 217 164 362
l11 42 57 0 c72 0 102 15 128 65 18 35 32 45 114 81 101 44 134 73 150 133 5
21 17 44 25 51 10 9 15 32 15 77 0 58 -3 67 -29 94 -16 16 -40 29 -53 29 -21
0 -25 7 -36 67 -17 88 -64 175 -125 228 -28 24 -120 85 -206 136 -146 87 -214
133 -285 192 l-30 24 35 7 c51 9 104 59 139 130 38 77 38 125 -1 143 -38 18
-234 41 -418 49 -146 6 -166 9 -190 29 -118 97 -391 274 -537 349 -50 25 -114
67 -144 92 -74 63 -126 87 -276 127 -350 94 -724 152 -1144 177 -176 10 -785
20 -885 14z m605 -24 c612 -24 1056 -85 1460 -201 122 -35 191 -70 224 -114
15 -19 66 -53 137 -90 286 -148 479 -285 907 -645 94 -80 212 -170 261 -200
49 -30 137 -84 195 -120 171 -104 235 -181 256 -312 4 -29 7 -54 6 -54 0 -1
-49 -3 -109 -5 l-107 -4 -33 75 c-86 196 -262 379 -424 441 -36 13 -33 11 62
-52 151 -101 286 -259 345 -404 25 -62 21 -75 -30 -75 -22 0 -29 9 -48 58 -76
190 -265 288 -487 252 -158 -25 -242 -88 -335 -253 l-32 -58 -97 6 c-149 10
-162 -2 -266 -235 -19 -43 -23 -45 -73 -54 -29 -5 -55 -6 -58 -3 -9 9 106 326
162 445 56 119 116 216 184 297 23 28 9 16 -31 -26 -108 -110 -188 -261 -278
-522 -71 -206 -63 -193 -132 -201 -33 -3 -69 -11 -80 -17 -26 -13 -57 -82 -65
-143 -8 -54 -16 -63 -69 -68 l-40 -3 45 45 c66 66 130 224 221 545 87 307 111
503 68 575 -11 19 -35 47 -52 62 l-32 27 147 1 c242 0 433 27 505 71 42 26 57
70 39 113 -42 99 -111 165 -318 299 -321 209 -549 300 -920 367 -253 46 -578
48 -644 5 -36 -24 -60 -69 -80 -149 -26 -110 -162 -596 -180 -643 -17 -47 -20
-48 -149 -57 -66 -5 -67 -4 -20 5 91 17 122 74 215 385 55 181 90 341 90 404
0 111 -43 139 -276 175 -171 26 -412 43 -669 47 l-160 2 130 6 c222 10 371 10
635 0z m-284 -41 c322 -18 515 -52 566 -98 57 -51 51 -117 -42 -446 -64 -223
-104 -334 -138 -374 -51 -60 -125 -62 -622 -16 -85 8 -265 22 -399 30 -134 8
-246 17 -249 20 -9 8 241 5 393 -5 77 -5 248 -19 380 -31 274 -24 385 -22 436
7 47 26 86 110 148 319 88 295 107 406 81 456 -34 63 -236 98 -703 121 -257
13 -633 1 -867 -26 -63 -8 -116 -13 -118 -11 -5 5 86 23 178 35 219 29 649 38
956 19z m1280 -165 c185 -24 424 -79 519 -118 l31 -13 12 -229 c7 -126 15
-280 19 -342 l6 -113 -294 2 c-162 2 -352 5 -424 9 -88 4 0 7 273 8 l402 2 0
56 c0 90 -20 547 -25 570 -4 17 -25 26 -117 52 -215 60 -409 90 -627 100
l-154 7 7 -125 c3 -69 9 -178 13 -244 5 -99 4 -118 -8 -114 -15 5 -22 67 -34
332 l-7 149 -50 -6 c-86 -11 -80 2 -174 -362 -53 -206 -112 -391 -121 -381 -2
2 2 30 10 62 24 100 167 617 178 646 15 38 43 60 87 69 53 12 339 1 478 -17z
m-47 -60 c147 -16 327 -50 437 -83 l71 -21 6 -157 c9 -216 9 -289 -2 -277 -5
5 -21 51 -36 103 -49 173 -65 187 -215 178 -111 -6 -163 -24 -183 -64 -8 -15
-27 -72 -42 -126 -32 -113 -13 -109 -182 -36 -61 27 -117 49 -122 49 -6 0 -11
3 -12 8 -5 41 -23 445 -20 447 5 6 145 -4 300 -21z m-386 -6 c5 -18 22 -340
22 -408 0 -9 -15 -17 -43 -22 -58 -10 -150 -53 -186 -86 -24 -23 -28 -24 -22
-7 3 11 35 130 70 265 68 257 79 280 131 280 15 0 25 -7 28 -22z m-1703 2
c168 -17 182 -21 174 -39 -3 -9 -8 -35 -11 -57 -5 -37 -2 -44 21 -59 22 -14
47 -16 167 -13 132 3 142 4 159 26 19 23 36 27 59 13 11 -7 -6 -44 -83 -180
-54 -93 -103 -177 -110 -185 -7 -11 -41 -18 -106 -24 -70 -7 -81 -10 -42 -11
29 0 52 -6 52 -12 0 -5 -4 -8 -9 -5 -9 6 -273 -26 -373 -46 -50 -9 -58 -14
-58 -33 0 -24 6 -23 -134 -24 -78 -1 -95 5 -96 36 0 14 92 30 355 59 l210 23
-145 -5 c-308 -10 -565 -42 -659 -80 -19 -8 -36 -12 -38 -10 -13 12 338 606
371 628 16 11 184 9 296 -2z m-429 -77 c-5 -10 -82 -139 -170 -287 -128 -216
-165 -270 -183 -272 -13 -2 -67 -6 -120 -10 -91 -6 -98 -5 -98 12 0 18 554
574 572 574 5 0 4 -8 -1 -17z m3408 -120 c142 -75 335 -201 411 -270 81 -72
97 -119 59 -167 -39 -50 -173 -72 -489 -81 -106 -3 -196 -8 -200 -12 -3 -3 94
-3 215 0 296 8 459 38 486 89 6 11 13 17 16 14 3 -3 -1 -16 -10 -30 -19 -28
-106 -59 -212 -76 -38 -5 -170 -13 -292 -17 l-223 -6 0 24 c0 13 -7 157 -15
319 -8 162 -15 305 -15 317 0 22 0 22 72 -8 39 -16 128 -59 197 -96z m-1614
45 c-4 -24 -10 -46 -14 -51 -4 -4 -40 7 -79 24 -40 18 -70 35 -66 38 5 6 112
27 147 30 17 1 18 -4 12 -41z m-534 -78 c61 -27 120 -56 131 -65 21 -14 21
-15 2 -20 -65 -21 -83 -43 -109 -130 -10 -31 -17 -40 -34 -39 -11 0 -63 1
-115 2 l-94 2 -6 43 c-6 38 -1 52 51 150 31 59 58 107 60 107 2 0 53 -22 114
-50z m999 -233 c49 -17 73 -63 73 -141 0 -120 -26 -136 -221 -136 -77 0 -154
-3 -171 -6 -42 -9 -40 -37 4 -64 39 -24 44 -44 16 -60 -31 -16 -107 -12 -127
7 -34 35 2 197 63 280 71 98 253 158 363 120z m-3081 -51 c8 -9 11 -43 9 -92
-3 -85 4 -77 -82 -98 l-29 -7 5 71 c7 90 -12 79 -21 -12 -5 -51 -10 -63 -25
-66 -26 -5 -36 14 -36 70 0 36 6 54 26 78 48 57 128 86 153 56z m2041 -17
c-67 -11 -242 -11 -235 1 4 6 61 9 143 9 103 -1 126 -4 92 -10z m1215 -29 c39
-16 63 -29 55 -29 -15 0 -140 56 -130 58 3 1 37 -12 75 -29z m2131 -15 c12
-30 -28 -117 -75 -165 -61 -63 -107 -73 -157 -35 -72 55 -225 185 -217 185 4
0 41 -9 82 -20 130 -35 266 -23 312 26 26 27 47 31 55 9z m-3814 -11 c3 -3 4
-14 1 -25 -5 -18 -14 -19 -132 -18 -69 1 -139 5 -156 8 -28 7 -26 8 25 19 90
19 250 29 262 16z m482 -26 c-15 -50 -20 -51 -153 -44 -69 4 -127 9 -130 12
-3 3 0 13 5 22 12 19 72 27 207 30 77 2 78 2 71 -20z m-1230 -63 c4 -11 16
-14 48 -10 138 14 148 14 148 0 0 -19 44 -20 59 -2 6 8 8 17 4 20 -3 4 -1 7 5
7 5 0 12 -6 14 -12 3 -9 33 -14 89 -16 197 -7 641 -33 719 -43 47 -6 159 -17
250 -24 l165 -14 -215 4 c-118 2 -354 -3 -525 -11 -309 -14 -858 -51 -883 -59
-7 -3 -11 -1 -7 4 5 10 164 49 300 75 44 8 100 19 125 24 63 12 -570 27 -760
18 -129 -6 -166 -12 -340 -57 -382 -99 -953 -270 -965 -289 -6 -10 55 6 360
95 339 99 346 101 540 151 94 24 178 47 188 50 11 3 17 0 17 -10 0 -14 35 -16
283 -18 l282 -3 -65 -23 c-42 -15 -138 -31 -275 -47 -419 -50 -585 -88 -660
-153 -76 -64 -124 -185 -125 -309 l0 -81 -82 -44 c-132 -71 -267 -157 -337
-217 l-64 -54 -571 13 c-314 7 -627 15 -696 19 l-125 6 102 82 c427 343 1084
630 1893 827 257 63 692 115 710 86 9 -14 60 -6 60 10 0 6 31 10 70 10 56 0
70 -3 70 -15 0 -19 44 -20 63 -1 26 26 122 34 131 11z m1776 -94 c-8 -5 -44
-15 -80 -21 -87 -16 -125 -33 -147 -66 -17 -26 -18 -69 -23 -654 l-5 -625 -47
-3 c-37 -2 -48 0 -48 11 0 51 -23 238 -41 327 -81 420 -271 656 -594 741 -112
29 -287 29 -410 0 -112 -27 -233 -86 -304 -148 -115 -100 -243 -315 -341 -569
-48 -127 -44 -124 -170 -124 l-68 0 -7 47 c-10 66 -43 171 -58 180 -6 4 -241
7 -522 8 -280 0 -429 -3 -330 -6 l180 -5 -185 -1 -185 -1 -38 -39 c-47 -47
-81 -104 -98 -163 -9 -32 -14 -39 -16 -24 -2 11 2 38 10 60 32 87 31 81 9 57
-11 -13 -26 -45 -33 -73 -16 -63 -33 -65 -26 -4 6 54 35 99 66 99 11 0 45 23
73 51 29 28 69 62 88 76 44 31 242 148 308 182 l50 25 6 -23 c3 -12 1 -38 -4
-57 -13 -44 -13 -89 0 -89 6 0 10 11 10 24 0 52 10 57 41 21 38 -42 87 -59
154 -52 108 11 209 94 269 220 81 170 72 350 -23 429 l-29 25 56 6 c31 3 122
15 202 26 285 39 984 94 1316 103 l101 3 52 -47 c59 -54 91 -63 201 -62 55 0
82 5 103 18 27 18 37 59 17 71 -5 3 -10 13 -10 21 0 12 31 14 188 15 103 1
214 5 247 9 91 11 113 11 95 1z m1100 -1 c323 0 327 0 361 -23 50 -33 79 -97
79 -174 0 -112 -82 -451 -175 -721 -87 -255 -132 -310 -273 -332 -71 -11 -631
-59 -1234 -106 l-88 -6 0 616 c0 663 0 659 50 686 18 10 156 40 181 40 5 0 9
-13 9 -29 0 -17 10 -42 24 -58 22 -25 30 -28 83 -27 32 1 69 6 81 13 33 17 28
56 -10 91 l-32 30 264 3 c146 2 285 2 309 0 24 -2 191 -3 371 -3z m-4075 -7
c-89 -20 -403 -113 -547 -162 -515 -175 -952 -395 -1232 -621 l-78 -63 -88 11
c-48 7 -104 12 -124 12 -33 0 -36 3 -36 28 0 15 4 33 9 41 7 11 11 9 20 -8 24
-43 172 -19 265 43 113 77 166 184 166 338 0 100 -15 151 -57 196 -18 19 -33
36 -33 38 0 2 12 4 28 4 15 0 90 9 167 20 77 10 257 31 400 45 452 45 1230 99
1140 78z m2435 -30 c43 -55 5 -83 -113 -83 -89 0 -136 16 -185 63 l-33 32 48
6 c26 3 96 7 155 7 105 2 107 1 128 -25z m-4169 -150 c110 -93 97 -336 -26
-471 -73 -81 -224 -129 -279 -89 -16 12 -14 13 18 9 101 -12 210 94 257 251
38 122 13 256 -54 297 -19 12 -24 20 -15 23 32 13 68 5 99 -20z m2169 -30 c43
-43 49 -55 60 -119 11 -62 10 -82 -4 -144 -33 -146 -114 -263 -221 -317 -59
-30 -127 -34 -170 -9 l-30 17 33 -6 c45 -9 114 26 178 90 58 58 97 127 119
212 30 113 15 205 -41 272 -36 41 -35 51 4 51 16 0 41 -16 72 -47z m-2242 -7
c65 -74 64 -200 -1 -333 -35 -73 -79 -122 -130 -146 -44 -21 -101 -22 -117 -2
-11 13 -8 21 20 50 36 37 34 51 -13 63 -30 8 -32 12 -31 50 1 58 43 112 88
112 29 0 34 -4 40 -31 4 -24 10 -29 24 -25 10 4 26 0 37 -7 16 -12 17 -18 6
-48 -6 -18 -23 -45 -36 -59 -23 -24 -51 -90 -38 -90 19 0 74 46 97 80 95 143
96 305 4 384 l-42 36 31 0 c23 0 39 -9 61 -34z m2122 19 c63 -32 99 -141 81
-242 -15 -79 -70 -189 -120 -241 -81 -82 -187 -115 -227 -71 -15 16 -16 21 -4
19 30 -5 40 1 55 30 23 45 19 58 -17 62 l-33 3 0 65 c0 64 0 64 40 91 l40 28
6 -30 c9 -43 16 -46 47 -17 55 50 81 38 47 -22 -22 -38 -18 -47 20 -54 19 -4
35 -11 35 -16 0 -14 -100 -130 -112 -130 -6 0 -9 -3 -6 -6 11 -10 62 23 105
68 66 67 97 146 98 243 0 87 -12 119 -62 169 -15 16 -41 33 -58 39 l-30 11 25
7 c37 10 39 10 70 -6z m-2268 -92 c29 -26 21 -33 -42 -33 -33 0 -60 3 -60 7 0
3 7 15 17 25 20 22 61 23 85 1z m2136 -31 c12 -8 21 -17 18 -19 -4 -5 -145
-43 -159 -43 -9 0 19 58 40 82 12 14 20 15 46 6 18 -6 42 -18 55 -26z m1817
14 c100 -27 215 -90 288 -156 183 -168 281 -440 312 -867 l5 -83 -24 0 c-22 0
-25 5 -30 43 -74 599 -177 798 -461 883 -89 27 -256 25 -360 -5 -215 -61 -344
-188 -494 -487 -69 -140 -59 -134 -228 -134 l-91 0 39 103 c22 56 64 152 93
214 145 299 288 431 535 493 95 24 321 22 416 -4z m3532 -197 c109 -41 205
-183 244 -364 7 -33 13 -120 13 -195 -1 -118 -4 -147 -28 -225 -51 -168 -120
-265 -223 -312 -63 -29 -116 -27 -183 7 -256 131 -312 718 -94 987 77 94 185
135 271 102z m-3551 -179 c85 -41 164 -128 214 -232 53 -112 72 -205 72 -358
0 -106 -4 -138 -27 -215 -53 -180 -149 -311 -271 -371 -53 -26 -69 -29 -154
-29 -79 0 -103 4 -142 23 -111 55 -206 177 -255 329 -21 64 -27 103 -31 224
-4 125 -1 157 17 230 84 338 340 515 577 399z m4309 -43 c16 -12 11 -15 -46
-21 -84 -8 -93 -18 -84 -95 l7 -61 59 0 c66 0 71 -7 43 -66 -13 -28 -31 -41
-93 -69 -42 -19 -88 -41 -102 -49 l-27 -14 -7 87 c-3 47 -13 128 -21 178 -8
51 -14 97 -14 102 0 20 259 26 285 8z m-1318 -13 l31 -5 -19 -67 c-35 -119
-78 -305 -90 -393 l-13 -86 -340 -6 c-188 -3 -415 -12 -506 -21 -473 -44 -924
-78 -1185 -91 -66 -3 -144 -8 -172 -11 -49 -5 -53 -4 -53 15 0 16 6 21 24 21
26 0 640 44 846 60 911 73 1052 88 1079 108 19 14 35 50 67 148 76 239 117
315 177 333 30 9 75 7 154 -5z m1018 -67 c21 -110 36 -322 26 -350 -5 -14 -23
-29 -39 -35 l-29 -10 -6 147 c-4 80 -15 185 -25 233 l-18 87 36 3 c19 2 36 3
38 2 1 -1 9 -35 17 -77z m325 -9 l0 -53 -65 -3 -65 -3 0 50 0 50 58 4 c31 2
60 4 65 5 4 1 7 -22 7 -50z m-8286 -30 c50 -6 93 -13 95 -14 2 -2 -16 -25 -40
-53 -26 -29 -53 -77 -67 -113 -18 -52 -21 -56 -16 -23 8 51 35 103 73 139 17
17 31 32 31 35 0 3 -28 7 -63 8 -34 1 -80 8 -102 17 -50 18 -28 19 89 4z m-13
-48 c24 0 38 -4 34 -10 -12 -20 -105 -9 -105 12 0 6 7 7 16 4 9 -3 34 -6 55
-6z m2591 -9 c16 -6 28 -23 36 -49 17 -57 14 -64 -6 -12 l-18 45 -144 -3 c-80
-2 -224 0 -320 5 l-175 8 290 5 c160 3 295 6 302 8 6 1 22 -2 35 -7z m-2627
-29 c13 3 22 1 19 -3 -3 -5 -21 -9 -40 -9 -25 0 -34 4 -34 16 0 13 3 14 15 4
8 -7 26 -10 40 -8z m1863 3 c-3 -3 -62 -8 -132 -12 -91 -4 -126 -3 -126 6 0 8
40 11 132 11 72 0 129 -2 126 -5z m-1828 -36 c0 -13 -66 -14 -90 -2 -23 11
-19 12 32 10 32 -1 58 -5 58 -8z m1794 -4 c-5 -12 -30 -15 -142 -15 -173 0
-166 18 8 23 69 1 128 4 132 5 4 1 5 -5 2 -13z m323 -17 c-3 -8 -6 -5 -6 6 -1
11 2 17 5 13 3 -3 4 -12 1 -19z m-2197 8 c0 -2 -7 -6 -15 -10 -8 -3 -15 -1
-15 4 0 6 7 10 15 10 8 0 15 -2 15 -4z m11 -26 c16 0 29 -4 29 -10 0 -5 -10
-10 -22 -10 -35 0 -68 11 -68 22 0 6 7 7 16 4 9 -3 29 -6 45 -6z m2316 -12
c-3 -8 -6 -5 -6 6 -1 11 2 17 5 13 3 -3 4 -12 1 -19z m-477 -4 c0 -14 -8 -16
-46 -10 -26 3 -89 6 -141 6 -60 0 -92 4 -88 10 4 6 62 10 141 10 117 0 134 -2
134 -16z m877 -16 c-3 -8 -6 -5 -6 6 -1 11 2 17 5 13 3 -3 4 -12 1 -19z
m-2712 -23 l40 -13 -36 -1 c-48 -1 -99 9 -99 20 0 13 48 10 95 -6z m1835 -5
c0 -6 -57 -10 -150 -10 -93 0 -150 4 -150 10 0 6 57 10 150 10 93 0 150 -4
150 -10z m898 -50 c0 -9 -3 -7 -8 5 -5 11 -8 29 -8 40 0 16 2 15 8 -5 4 -14 8
-32 8 -40z m-511 34 c-3 -3 -12 -4 -19 -1 -8 3 -5 6 6 6 11 1 17 -2 13 -5z
m463 -35 c-14 -4 -90 -7 -170 -6 l-145 0 155 11 c153 11 212 9 160 -5z m-2618
-3 c303 -27 1223 -56 1783 -56 359 0 699 10 1138 33 125 7 227 11 227 10 0 -1
-43 -118 -96 -260 -54 -146 -110 -281 -130 -310 -39 -61 -97 -95 -188 -112
-170 -31 -715 -61 -1128 -61 l-278 0 0 30 c0 33 -30 70 -58 70 -29 0 -380 28
-692 56 l-294 26 -32 -37 -31 -37 -102 15 c-57 8 -108 20 -113 25 -7 7 -4 29
7 67 14 51 18 56 38 50 58 -17 724 -62 1048 -71 123 -3 234 -7 247 -10 17 -3
22 -11 22 -33 0 -16 6 -31 15 -35 11 -4 15 2 15 28 l0 33 333 6 c182 3 377 11
432 17 318 34 450 67 515 129 22 21 40 44 40 51 0 8 -17 -2 -37 -22 -21 -20
-53 -43 -70 -52 -118 -59 -542 -106 -965 -106 l-188 0 0 28 c0 32 -32 72 -58
72 -27 0 -42 -20 -42 -58 0 -20 -4 -31 -10 -27 -14 9 -105 191 -117 235 l-10
35 576 0 c564 1 886 13 959 36 39 13 62 53 62 108 0 58 -21 74 -84 67 -94 -12
-579 -26 -896 -26 -598 0 -1680 28 -1936 50 -153 14 -177 19 -163 36 15 18 59
18 261 0z m1776 -6 c2 -13 -20 -15 -163 -12 -138 2 -165 5 -165 18 0 22 323
16 328 -6z m-1848 -60 c402 -32 1797 -56 2322 -40 189 5 387 13 440 16 l97 7
6 -25 c4 -14 0 -41 -9 -61 -20 -48 -43 -53 -312 -66 -431 -21 -1051 -13 -1919
24 -584 25 -784 40 -811 59 -9 7 -18 33 -21 61 l-6 48 44 -6 c24 -4 100 -11
169 -17z m63 -146 c86 -5 97 -8 97 -25 0 -55 65 -169 129 -227 l26 -23 -73 5
c-40 4 -90 14 -110 23 l-37 17 63 6 63 5 -54 90 c-30 50 -65 95 -78 101 -13 7
-61 14 -106 17 l-83 5 45 -57 c82 -104 108 -124 183 -137 l67 -12 -53 -1 c-29
-1 -66 6 -81 14 -36 18 -177 169 -184 196 -5 19 -2 20 41 15 26 -3 91 -8 145
-12z m6865 -36 c-13 -73 -31 -103 -75 -123 -33 -16 -51 -17 -157 -9 -200 15
-767 9 -981 -9 -104 -9 -282 -24 -395 -33 -113 -9 -303 -26 -422 -38 l-218
-21 0 82 0 83 58 0 c94 0 772 48 1132 80 425 38 390 36 756 38 l311 2 -9 -52z
m-6428 12 c118 -5 298 -12 400 -15 102 -3 226 -8 277 -11 l91 -6 17 -51 c19
-57 68 -158 97 -199 l19 -28 -68 0 c-37 0 -156 5 -263 10 -461 23 -709 43
-741 61 -10 5 -41 38 -69 75 -52 64 -79 119 -80 160 0 19 5 20 53 17 28 -1
149 -7 267 -13z m4160 -132 c0 -91 -12 -158 -26 -158 -10 0 -14 16 -14 59 0
32 -3 79 -6 105 -7 45 -6 46 20 46 25 0 26 -2 26 -52z m1755 -25 c-186 -5
-489 -24 -760 -48 -154 -13 -426 -36 -605 -50 -179 -14 -335 -27 -348 -29 -12
-2 -25 1 -28 5 -3 5 1 9 8 9 7 0 69 7 138 15 127 14 249 25 810 70 422 33 385
31 645 31 127 0 190 -1 140 -3z m-4927 -105 c19 -19 15 -48 -8 -48 -16 0 -20
7 -20 30 0 32 9 37 28 18z m5247 1 c4 -6 5 -12 4 -13 -2 -2 -49 -6 -104 -9
l-100 -5 75 18 c89 22 117 24 125 9z m-506 -33 c-2 -2 -89 -6 -194 -8 -104 -3
-156 -2 -115 2 84 7 316 12 309 6z m-426 -23 c-7 -2 -19 -2 -25 0 -7 3 -2 5
12 5 14 0 19 -2 13 -5z"/>
<path d="M7525 6278 c4 -68 10 -197 14 -287 l6 -163 140 1 c77 1 192 6 256 11
193 16 270 38 291 86 10 20 8 29 -9 52 -27 37 -142 125 -260 198 -110 68 -409
224 -431 224 -11 0 -12 -21 -7 -122z m130 31 c252 -144 543 -365 517 -391 -6
-6 -54 -6 -130 1 -66 6 -200 11 -296 11 -97 0 -176 1 -177 3 0 1 -6 98 -12
215 -8 146 -9 212 -2 212 6 0 51 -23 100 -51z"/>
<path d="M2100 5072 c-30 -23 -67 -88 -57 -98 8 -8 94 26 155 62 52 30 46 42
-24 50 -40 5 -54 2 -74 -14z"/>
<path d="M7435 5576 c-16 -7 -39 -23 -49 -35 -11 -11 -25 -21 -32 -21 -19 0
-34 -33 -27 -58 4 -15 13 -22 31 -22 14 0 36 -9 48 -21 33 -31 96 -37 122 -11
15 15 32 21 61 19 22 0 43 2 47 5 3 4 9 27 11 51 8 69 -30 92 -99 62 -13 -5
-18 -3 -18 9 0 16 -29 36 -52 36 -7 -1 -26 -7 -43 -14z m159 -72 c3 -9 6 -19
6 -22 0 -4 -56 -7 -125 -8 -131 -1 -166 10 -67 21 47 5 149 19 173 24 4 0 10
-6 13 -15z m-74 -69 c0 -32 -97 -30 -108 3 -3 9 12 12 52 12 43 0 56 -3 56
-15z"/>
<path d="M8568 5210 c-108 -32 -193 -141 -240 -307 -33 -114 -33 -334 0 -446
29 -102 50 -141 108 -207 98 -108 197 -119 312 -33 49 37 98 119 134 225 40
120 50 297 24 427 -49 239 -193 385 -338 341z m100 -34 c133 -70 227 -374 193
-629 -23 -171 -67 -265 -152 -327 -51 -37 -93 -45 -149 -30 l-43 12 29 17 c40
25 99 92 125 143 12 24 15 37 8 31 -16 -15 -29 -17 -29 -3 0 5 -19 53 -41 106
-37 86 -40 97 -26 111 14 14 21 9 77 -44 33 -33 63 -57 65 -53 5 8 25 166 25
198 0 22 -3 24 -36 17 -68 -12 -106 -37 -125 -83 -21 -48 -40 -59 -75 -44 -20
10 -24 18 -24 58 0 57 -8 55 -11 -3 -2 -23 -6 -41 -9 -40 -7 2 -56 -53 -89
-100 -37 -54 -45 -45 -56 64 l-7 61 56 12 c60 12 76 28 76 75 0 18 -17 44 -55
84 l-55 58 20 64 c24 78 37 100 44 79 2 -8 19 -60 37 -115 39 -124 37 -120 60
-99 18 16 19 28 13 171 l-7 153 22 0 c12 0 32 -5 43 -11 13 -7 18 -7 14 -1 -3
6 -22 16 -41 22 -40 13 -37 26 9 46 40 17 80 17 114 0z m-148 -608 c5 -1 12
-70 16 -153 6 -134 5 -152 -10 -164 -13 -11 -24 -12 -44 -5 -35 12 -38 39 -18
156 9 50 16 116 16 145 0 48 2 53 15 40 8 -9 19 -17 25 -19z"/>
<path d="M8590 4935 c-29 -112 -32 -136 -21 -149 7 -9 19 -16 25 -16 14 0 116
124 116 142 0 20 -55 131 -71 145 -12 10 -20 -8 -49 -122z"/>
<path d="M8509 4754 c-11 -13 -9 -14 14 -9 22 6 29 2 47 -27 18 -27 20 -29 15
-8 -9 30 -34 60 -50 60 -7 0 -18 -7 -26 -16z"/>
<path d="M4907 5036 c-103 -29 -202 -123 -263 -251 -53 -112 -69 -183 -69
-325 0 -144 12 -202 65 -315 99 -215 288 -303 462 -217 175 86 282 295 282
552 0 133 -22 227 -79 339 -85 169 -249 259 -398 217z m146 -30 c172 -62 291
-316 273 -581 -16 -229 -120 -426 -258 -485 -63 -27 -161 -25 -223 5 l-40 20
48 7 c116 16 244 117 304 238 46 94 63 173 63 287 0 159 -40 277 -125 371 -55
61 -122 99 -197 110 l-53 8 45 16 c55 20 113 21 163 4z m-109 -122 c21 -8 21
-50 0 -149 -9 -43 -14 -92 -12 -110 3 -29 0 -34 -28 -44 -31 -11 -46 -34 -58
-91 -7 -33 9 -103 27 -114 11 -7 9 -13 -9 -31 -12 -12 -29 -48 -38 -81 -28
-98 -47 -144 -61 -144 -19 0 -105 86 -105 106 0 9 36 54 80 100 92 96 100 122
48 154 -25 15 -51 20 -106 20 -56 0 -74 3 -79 16 -7 19 11 110 32 161 l16 38
77 -83 c43 -45 82 -82 88 -82 18 0 54 58 54 86 0 15 -12 72 -26 126 -14 54
-23 105 -20 113 6 15 88 21 120 9z m217 -236 c7 -24 13 -68 13 -98 l1 -55 -84
-5 -84 -5 -14 -39 c-25 -75 -55 -85 -104 -37 -35 36 -39 86 -9 124 23 30 66
43 86 26 12 -9 29 2 92 59 42 39 80 71 84 72 4 0 13 -19 19 -42z m-87 -355
c29 -32 37 -48 32 -66 -7 -31 -82 -110 -98 -105 -7 3 -25 55 -41 118 l-28 113
23 24 23 25 25 -34 c14 -18 42 -52 64 -75z"/>
<path d="M2634 4316 c-8 -22 20 -75 72 -134 57 -65 94 -77 226 -69 99 6 138
18 138 40 0 23 -52 122 -78 150 l-26 27 -163 0 c-133 0 -165 -3 -169 -14z m41
-25 c26 -52 114 -149 137 -154 23 -4 23 -4 -1 -6 -16 -1 -37 13 -64 41 -40 42
-97 124 -97 140 0 16 10 7 25 -21z m294 -57 c3 -16 1 -17 -13 -5 -19 16 -21
34 -3 29 6 -3 14 -13 16 -24z m4 -101 c-23 -2 -64 -2 -90 0 -26 2 -7 3 42 3
50 0 71 -1 48 -3z"/>
<path d="M1417 4349 c-12 -7 -17 -23 -17 -51 0 -35 6 -47 43 -83 50 -50 37
-48 392 -70 361 -22 369 -23 393 -14 17 7 22 16 22 44 0 28 -9 45 -41 80 -59
64 -31 59 -519 85 -107 6 -209 12 -225 14 -17 2 -39 0 -48 -5z"/>
</g>
</svg>
