<?xml version="1.0" standalone="no"?>
<!DOCTYPE svg PUBLIC "-//W3C//DTD SVG 20010904//EN"
 "http://www.w3.org/TR/2001/REC-SVG-20010904/DTD/svg10.dtd">
<svg version="1.0" xmlns="http://www.w3.org/2000/svg"
 width="1024.000000pt" height="1024.000000pt" viewBox="0 0 1024.000000 1024.000000"
 preserveAspectRatio="xMidYMid meet">

<g transform="translate(0.000000,1024.000000) scale(0.100000,-0.100000)"
fill="#000000" stroke="none">
<path d="M5245 6514 c-22 -2 -92 -9 -155 -14 -148 -14 -340 -45 -461 -75 -161
-41 -842 -374 -1452 -710 -37 -20 -66 -39 -63 -42 8 -9 540 116 568 133 5 3
19 7 32 10 13 2 41 12 62 21 22 9 41 17 44 18 6 1 81 48 139 88 24 17 41 25
37 19 -3 -6 -50 -41 -104 -79 -53 -37 -155 -109 -225 -161 l-129 -94 -99 11
c-133 15 -380 14 -416 -1 -45 -18 -391 -48 -848 -73 -681 -37 -866 -69 -1042
-181 -75 -48 -129 -99 -189 -180 -48 -65 -65 -79 -211 -168 -305 -189 -401
-266 -388 -310 19 -67 18 -77 -4 -83 -33 -8 -24 -47 11 -51 32 -4 32 -3 67
-166 45 -206 44 -193 13 -199 -43 -10 -92 -45 -92 -66 0 -32 39 -127 59 -145
11 -10 100 -33 237 -60 251 -51 275 -58 378 -119 l76 -44 -278 -7 c-152 -4
-394 -14 -537 -21 -143 -8 -263 -15 -267 -15 -5 0 -8 -18 -8 -39 0 -39 1 -40
43 -45 390 -53 4127 -81 7402 -56 1636 12 2373 28 2718 56 l77 7 0 33 c0 40 1
39 -205 54 -299 21 -580 30 -1116 37 l-547 6 48 38 c27 21 74 70 105 109 l57
70 97 0 c54 0 102 -5 107 -10 21 -21 682 100 865 159 112 36 152 61 193 119
29 41 29 44 17 90 -12 47 -10 54 33 187 26 76 46 152 46 169 0 17 7 44 15 59
13 26 13 31 0 50 -11 16 -15 50 -15 129 0 59 -5 118 -11 132 -7 14 -53 57
-103 95 -80 61 -96 79 -130 143 -49 91 -45 112 24 163 95 70 59 92 -130 77
-72 -5 -141 -8 -153 -5 -30 7 -267 83 -662 213 -738 243 -1096 354 -1500 466
-456 126 -869 200 -1370 244 -126 11 -591 21 -660 14z m555 -84 c756 -52 1560
-220 2445 -510 442 -146 763 -265 794 -295 30 -30 -27 -28 -283 8 -361 51
-495 60 -805 54 -224 -4 -291 -9 -421 -31 -233 -38 -251 -47 -188 -86 44 -27
102 -26 318 5 316 46 622 44 1071 -5 160 -18 532 -74 569 -86 26 -9 -8 -21
-95 -33 -44 -7 -161 -25 -260 -41 -142 -23 -234 -31 -440 -39 -212 -8 -274
-13 -335 -30 -41 -12 -82 -25 -91 -30 -9 -5 -48 -5 -98 2 -166 22 -395 -29
-552 -124 -107 -64 -168 -117 -243 -210 -152 -191 -216 -408 -216 -740 l0
-157 -372 -6 c-205 -3 -989 -11 -1743 -16 -753 -5 -1479 -12 -1611 -14 l-242
-4 5 61 c3 34 6 63 7 63 0 1 278 7 616 13 946 18 1706 40 1800 51 121 15 193
36 285 80 l80 39 235 12 c243 12 408 9 472 -11 21 -6 57 -25 80 -43 43 -33 96
-112 83 -125 -4 -4 -277 -10 -608 -13 -331 -4 -892 -12 -1247 -18 -1569 -26
-1470 -26 -1471 -5 0 11 -3 14 -6 7 -2 -7 -13 -13 -24 -13 -15 0 -19 -7 -19
-37 l0 -36 158 6 c87 4 252 2 367 -3 123 -7 211 -7 214 -2 11 17 177 24 647
27 259 1 477 5 483 9 11 7 150 7 163 0 11 -7 221 -13 230 -8 5 3 214 8 466 10
251 3 480 7 507 9 28 2 60 4 73 4 13 1 20 6 17 11 -5 8 39 16 68 11 4 0 7 4 7
10 0 5 4 8 8 5 4 -2 8 4 8 14 0 11 -2 17 -5 15 -2 -3 -14 17 -26 43 -12 26
-38 61 -58 79 -19 17 -33 34 -29 38 4 4 0 5 -8 3 -8 -2 -14 3 -12 10 1 8 -2
11 -8 7 -6 -4 -27 -1 -48 6 -20 7 -65 12 -100 11 -40 0 -60 3 -56 10 4 6 -1 8
-12 5 -39 -11 -251 -17 -321 -9 -58 6 -73 5 -73 -5 0 -7 -5 -13 -11 -13 -5 0
-7 5 -4 10 3 6 2 10 -4 10 -5 0 -13 -5 -16 -11 -5 -7 -14 -4 -28 8 -21 18 -21
17 -7 -1 14 -17 13 -18 -7 -12 -12 4 -24 2 -28 -4 -3 -5 -15 -10 -26 -10 -17
0 -9 12 36 57 186 184 395 572 451 836 31 150 5 311 -64 390 -14 16 -13 17 14
17 146 0 958 44 1214 66 258 22 380 53 380 99 0 52 -217 149 -585 261 -662
201 -1340 305 -1900 291 -263 -6 -434 -35 -585 -97 -202 -83 -680 -391 -942
-607 l-77 -63 -72 0 -71 0 103 82 c170 135 361 272 579 415 113 75 220 149
238 166 33 32 42 73 20 95 -6 6 -9 15 -5 18 3 4 11 -6 18 -22 6 -16 15 -36 20
-46 6 -12 2 -21 -14 -32 -12 -8 23 5 78 28 150 65 281 97 495 119 78 8 515 6
650 -3z m105 -85 c286 -27 523 -65 817 -131 467 -103 1002 -283 1087 -364 l24
-23 -22 -18 c-23 -19 -117 -49 -148 -48 -10 0 5 7 32 16 49 14 85 38 85 54 0
81 -699 305 -1286 413 -385 70 -607 95 -934 103 -580 14 -761 -44 -1335 -427
-193 -129 -239 -149 -75 -33 584 413 799 488 1360 478 129 -2 307 -11 395 -20z
m179 -488 l-76 -185 -101 -6 c-56 -3 -388 -13 -737 -21 -349 -8 -663 -17 -697
-19 l-62 -4 3 85 3 84 139 81 c145 84 248 138 261 138 4 0 -11 -12 -34 -26
-24 -14 -43 -30 -43 -35 0 -15 1116 6 1355 24 12 1 28 17 40 39 11 20 21 36
22 34 2 -2 -31 -86 -73 -189z m471 79 c24 -9 450 -9 453 0 2 5 -25 17 -60 26
-93 26 -4 12 117 -18 55 -14 170 -46 255 -72 154 -47 154 -47 100 -50 -92 -4
-729 -52 -825 -62 -49 -5 -97 -10 -106 -10 -15 0 -13 15 15 121 18 70 32 110
34 96 2 -14 9 -28 17 -31z m322 48 c-3 -3 -12 -4 -19 -1 -8 3 -5 6 6 6 11 1
17 -2 13 -5z m-2542 -124 c34 -13 54 -62 59 -147 2 -37 1 -50 -1 -28 -2 22 -8
44 -13 49 -16 16 -399 -40 -472 -69 -27 -11 -23 21 7 51 35 34 193 108 285
133 88 23 100 24 135 11z m1866 -37 c-12 -20 -14 -14 -5 12 4 9 9 14 11 11 3
-2 0 -13 -6 -23z m-20 -50 c-12 -20 -14 -14 -5 12 4 9 9 14 11 11 3 -2 0 -13
-6 -23z m1452 -20 c-7 -2 -19 -2 -25 0 -7 3 -2 5 12 5 14 0 19 -2 13 -5z m-76
-9 c-3 -3 -12 -4 -19 -1 -8 3 -5 6 6 6 11 1 17 -2 13 -5z m-1397 -22 c0 -5 -7
-17 -15 -28 -14 -18 -14 -17 -4 9 12 27 19 34 19 19z m-2315 -82 c-10 -11 -23
-20 -28 -20 -13 0 24 39 37 39 5 1 1 -8 -9 -19z m205 5 c-133 -15 -176 -17
-168 -9 8 7 159 21 228 21 35 0 14 -4 -60 -12z m2196 -30 c64 -110 75 -257 31
-411 -68 -234 -234 -542 -390 -725 -101 -119 -106 -121 -255 -125 -70 -2 -143
-5 -162 -6 -19 -2 -82 1 -140 5 -70 6 -102 5 -95 -2 6 -5 37 -12 70 -14 33 -2
15 -3 -41 -1 -55 2 -163 -1 -240 -6 -76 -6 -202 -11 -279 -12 -82 0 -130 -4
-115 -9 16 -4 -7 -7 -60 -6 -224 3 -400 -5 -400 -18 0 -18 -59 -27 -120 -19
-32 4 -55 2 -64 -5 -8 -7 -70 -11 -172 -12 -87 -1 -167 -6 -178 -11 -10 -6
-39 -14 -65 -19 -63 -11 49 -6 754 36 891 53 1368 84 1393 90 40 10 14 -15
-42 -40 -131 -57 -245 -70 -811 -85 -330 -10 -1435 -29 -1442 -25 -15 7 -66
645 -66 830 -1 169 1 185 26 261 32 96 84 180 156 252 53 51 54 52 115 52 33
0 97 3 142 6 l81 7 12 -48 c18 -72 37 -101 87 -135 149 -103 554 -167 554 -88
0 5 -50 61 -111 123 l-111 114 39 19 c35 18 76 20 513 31 528 13 1141 30 1210
35 153 9 146 11 176 -39z m-2736 -93 c-73 -74 -124 -167 -157 -282 -14 -53
-18 -99 -17 -240 2 -162 32 -574 55 -734 5 -38 8 -70 7 -72 -2 -1 -89 -4 -194
-6 l-191 -3 -6 145 c-10 288 -97 499 -278 677 -248 244 -602 314 -921 182 -86
-35 -125 -58 -204 -120 -45 -36 -68 -48 -92 -47 -18 1 -32 2 -32 4 0 4 36 46
78 89 19 20 37 33 42 30 4 -3 10 2 13 9 10 25 188 105 292 131 55 14 150 29
210 34 71 5 90 9 55 10 -142 3 -330 -39 -455 -101 -82 -42 -195 -121 -238
-167 l-35 -38 -144 -6 c-162 -8 -194 -16 -256 -62 -41 -32 -47 -33 -165 -40
-67 -4 -144 -5 -172 -3 l-50 3 92 48 c50 26 98 47 106 47 29 0 198 92 279 152
113 84 220 194 253 262 20 42 33 56 53 60 64 11 106 17 256 31 l158 15 34 -29
c40 -35 121 -47 248 -37 104 8 165 25 245 66 l65 32 275 9 c387 13 845 25 852
22 3 -1 -25 -33 -61 -71z m6217 32 c-10 -10 -390 -83 -400 -77 -5 3 -5 9 0 13
6 7 182 43 303 63 41 7 104 7 97 1z m-8370 -147 c-33 -55 -156 -178 -233 -233
-81 -58 -215 -134 -236 -134 -23 0 -16 17 48 116 61 93 156 186 233 228 66 35
205 84 209 74 2 -5 -8 -27 -21 -51z m2680 7 c-3 -3 -12 -4 -19 -1 -8 3 -5 6 6
6 11 1 17 -2 13 -5z m5498 -45 c-71 -4 -221 -13 -333 -20 -111 -7 -205 -9
-209 -6 -3 4 11 7 33 8 21 0 113 6 204 13 91 8 226 13 300 13 l135 0 -130 -8z
m-735 -30 c25 -16 68 -42 95 -57 l50 -27 392 0 c215 0 389 -3 387 -6 -2 -4 12
-19 31 -34 20 -15 48 -44 62 -66 23 -36 25 -42 11 -55 -22 -22 -117 -33 -414
-44 -148 -5 -285 -13 -304 -16 -134 -22 -179 -63 -225 -204 -19 -56 -19 -67
-5 -63 4 1 14 -4 20 -12 16 -19 30 -19 30 -1 0 8 -11 17 -25 20 -14 4 -25 12
-25 18 0 6 3 8 7 5 3 -4 12 -2 20 5 11 9 13 8 11 -3 -2 -8 4 -13 12 -12 12 2
15 -8 15 -47 0 -28 -3 -50 -7 -50 -5 0 -8 6 -8 13 0 8 -4 7 -10 -3 -8 -12 -10
-10 -11 10 0 14 -3 19 -6 12 -2 -6 -9 -10 -14 -6 -5 3 -9 -2 -9 -10 0 -9 -4
-16 -10 -16 -5 0 -10 6 -10 14 0 8 5 18 10 21 17 10 11 25 -7 18 -9 -4 -14 -2
-10 3 17 29 -117 240 -217 340 -103 103 -331 246 -388 243 -19 -1 -17 -2 7 -8
84 -21 283 -147 373 -237 63 -63 64 -65 47 -84 -10 -11 -13 -20 -7 -20 6 0 13
6 15 13 3 7 6 5 6 -5 1 -12 -6 -18 -20 -18 -17 0 -19 -3 -10 -14 9 -11 9 -16
0 -21 -8 -6 -8 -10 2 -15 7 -5 14 -16 15 -24 1 -9 12 -33 23 -52 12 -20 42
-88 67 -151 62 -158 76 -275 57 -503 -8 -89 -8 -82 -14 120 -7 237 -19 305
-82 449 -101 234 -310 426 -558 512 -44 15 -76 29 -72 32 5 3 49 15 98 28 83
20 178 27 510 37 41 2 58 -4 95 -29z m173 -6 c-7 -2 -19 -2 -25 0 -7 3 -2 5
12 5 14 0 19 -2 13 -5z m-946 -170 c40 -9 70 -19 68 -23 -2 -3 24 -17 58 -30
96 -37 91 -43 -8 -9 -158 55 -355 52 -500 -8 -33 -13 -67 -26 -77 -28 -46 -10
-122 -61 -112 -77 3 -4 1 -7 -5 -6 -19 6 -122 -129 -166 -217 -50 -100 -72
-176 -84 -292 -5 -46 -9 -64 -11 -43 -19 260 94 501 297 636 156 103 358 140
540 97z m1841 -47 c-10 -19 -10 -20 5 -7 20 16 22 4 7 -34 -7 -18 -15 -25 -26
-21 -9 3 -12 2 -9 -4 7 -11 -6 -18 -40 -23 -11 -1 -24 -5 -30 -9 -13 -7 -96
-19 -170 -24 -75 -4 -100 -8 -255 -34 -143 -25 -194 -41 -110 -34 48 3 45 2
-25 -12 -81 -16 -149 -38 -92 -29 15 2 25 0 22 -6 -4 -5 -16 -9 -28 -9 -30 -1
-114 -24 -124 -34 -4 -5 1 -6 12 -2 61 18 272 46 423 56 178 11 253 6 324 -25
l33 -13 -35 -6 c-79 -12 -340 -26 -521 -27 -107 -1 -207 -5 -224 -9 -21 -5
-24 -8 -10 -9 19 -2 19 -2 -2 -20 -13 -11 -23 -26 -23 -35 0 -9 -4 -16 -8 -16
-4 0 -8 11 -8 25 0 18 5 25 21 25 15 1 12 4 -12 15 -37 16 -43 26 -13 20 11
-2 22 1 26 6 3 5 0 8 -8 7 -7 -2 -12 4 -10 14 2 12 -3 16 -18 13 -17 -3 -19 0
-15 23 15 83 66 124 175 141 36 5 157 12 270 16 242 6 414 22 453 42 31 16 34
38 10 72 l-16 24 31 -18 c27 -16 29 -21 20 -39z m-7620 9 c29 -9 50 -20 48
-24 -3 -4 26 -18 65 -31 39 -13 72 -27 75 -31 2 -4 -35 6 -83 22 -395 135
-790 -94 -889 -516 -12 -54 -13 -55 -9 -15 13 150 77 284 195 413 134 147 422
234 598 182z m5868 -44 c207 -71 354 -229 425 -461 35 -111 33 -265 -4 -373
-53 -152 -154 -273 -300 -359 -253 -148 -525 -127 -759 60 -110 88 -190 206
-222 328 -43 165 -27 304 51 464 39 79 60 109 132 180 112 111 221 168 365
191 88 13 222 1 312 -30z m1794 9 c0 -5 -5 -10 -11 -10 -5 0 -7 5 -4 10 3 6 8
10 11 10 2 0 4 -4 4 -10z m-7618 -36 c163 -39 320 -168 397 -325 54 -111 74
-194 75 -304 0 -113 -15 -178 -67 -285 -68 -140 -212 -268 -360 -320 -163 -57
-315 -44 -497 42 -142 68 -281 228 -328 378 -12 40 -17 89 -17 180 1 109 4
135 28 206 66 198 228 361 422 424 91 30 234 32 347 4z m6035 -38 c18 -12 33
-24 33 -28 0 -8 -94 55 -115 76 -10 9 16 -5 82 -48z m-7476 21 c-10 -9 -11 -8
-5 6 3 10 9 15 12 12 3 -3 0 -11 -7 -18z m6649 -21 c0 -2 -8 -10 -17 -17 -16
-13 -17 -12 -4 4 13 16 21 21 21 13z m-6125 -26 c-183 -8 -247 -16 -272 -36
-16 -13 -15 -13 10 -4 16 5 52 8 80 6 36 -3 42 -2 17 3 -31 6 -26 7 35 14 39
4 89 7 113 7 36 0 41 -2 30 -14 -8 -9 -17 -11 -22 -5 -6 5 -17 9 -25 8 -11 0
-10 -3 4 -8 19 -8 2 -10 -225 -25 -30 -2 -64 -7 -75 -12 -18 -7 -19 -6 -6 10
41 50 116 63 346 63 l150 0 -160 -7z m1266 -7 c13 -16 12 -17 -3 -4 -17 13
-22 21 -14 21 2 0 10 -8 17 -17z m-1151 -23 c-10 -19 -50 -29 -50 -12 0 7 17
16 58 31 1 1 -2 -8 -8 -19z m6926 -22 l29 -33 -32 29 c-18 17 -33 31 -33 33 0
8 8 1 36 -29z m-5841 2 c10 -11 16 -20 13 -20 -3 0 -13 9 -23 20 -10 11 -16
20 -13 20 3 0 13 -9 23 -20z m6783 -7 c-10 -2 -26 -2 -35 0 -10 3 -2 5 17 5
19 0 27 -2 18 -5z m-8000 -30 c-21 -24 -75 -134 -104 -211 -27 -71 -28 -76
-14 -67 6 4 10 3 9 -2 -4 -22 2 -44 10 -39 5 4 8 17 6 31 -1 14 0 23 3 21 2
-3 13 -1 24 5 14 8 17 14 8 23 -5 8 -8 20 -4 29 3 8 1 18 -5 21 -12 8 -3 36
41 124 18 34 38 62 46 62 7 0 10 5 7 10 -4 6 10 10 34 10 l41 0 -37 -57 c-52
-82 -90 -171 -116 -271 -19 -77 -22 -113 -22 -302 1 -118 4 -227 8 -242 l7
-28 -298 0 c-165 0 -319 -2 -343 -4 -24 -2 -32 -1 -16 1 36 6 36 36 -2 74 -16
16 -25 29 -21 29 15 0 50 -43 56 -67 6 -22 9 -23 138 -23 73 0 207 3 298 7
l166 6 -2 56 c-2 31 -4 83 -6 116 l-3 60 -7 -55 c-6 -48 -7 -42 -8 44 -2 118
-13 120 -21 3 -1 -5 -5 -5 -11 -2 -6 4 -10 -8 -10 -28 0 -34 -11 -49 -58 -75
-21 -12 -27 -11 -43 4 -11 9 -22 14 -26 11 -3 -4 0 -7 8 -7 8 0 1 -7 -15 -15
-46 -24 -716 -20 -716 4 0 4 20 17 45 29 38 18 53 20 88 13 23 -5 108 -12 189
-16 166 -8 188 -2 188 46 0 52 -75 334 -112 421 -28 66 -46 71 -234 66 -86 -2
-148 -1 -137 3 10 4 32 8 49 8 24 1 47 18 112 80 96 94 65 87 447 100 401 13
381 14 363 -6z m1283 -30 c13 -16 12 -17 -3 -4 -17 13 -22 21 -14 21 2 0 10
-8 17 -17z m7238 -32 c14 -4 26 -12 29 -19 3 -9 -14 -12 -57 -12 -54 0 -60 2
-58 20 1 16 8 20 32 19 16 -1 41 -4 54 -8z m51 -11 c6 -11 8 -20 6 -20 -3 0
-10 9 -16 20 -6 11 -8 20 -6 20 3 0 10 -9 16 -20z m-192 -7 c-10 -2 -26 -2
-35 0 -10 3 -2 5 17 5 19 0 27 -2 18 -5z m-32 -24 c-108 -11 -141 -24 -166
-65 -12 -19 -20 -40 -18 -46 3 -7 -6 -21 -18 -31 -26 -20 -115 -159 -163 -255
-31 -61 -31 -62 -9 -62 49 0 466 39 496 47 25 6 32 -21 8 -30 -23 -9 -159 -25
-306 -37 -74 -5 -156 -12 -182 -15 -45 -5 -48 -4 -48 17 0 29 29 108 48 131 8
9 12 17 7 17 -4 0 -2 7 5 15 7 8 9 15 5 15 -5 0 -1 8 8 18 23 25 13 31 -31 22
-20 -5 -77 -11 -127 -14 -74 -4 -80 -3 -35 4 30 5 75 14 100 20 25 6 56 13 69
16 35 7 53 18 81 50 14 16 18 23 9 16 -14 -10 -17 -9 -22 9 -4 16 -2 19 10 15
17 -7 68 40 53 49 -4 3 -10 0 -12 -7 -3 -8 -6 -9 -11 -1 -4 6 3 19 15 29 14
12 18 14 13 4 -5 -10 -1 -8 13 4 21 18 24 36 9 47 -5 3 -1 9 8 12 9 4 13 3 10
-3 -3 -6 -1 -10 4 -10 6 0 11 5 11 11 0 7 12 10 29 7 17 -2 30 -2 29 1 0 3 0
8 1 11 0 3 43 3 93 1 l93 -4 -79 -8z m164 -23 c0 -23 -10 -25 -142 -41 -68 -8
-138 -17 -156 -19 -29 -4 -31 -3 -22 14 13 24 59 37 175 48 136 14 145 14 145
-2z m-8583 -95 c0 -22 -5 -29 -18 -28 -17 1 -17 3 -1 29 9 15 17 28 17 28 1 0
2 -13 2 -29z m7610 -3 c-3 -8 -6 -5 -6 6 -1 11 2 17 5 13 3 -3 4 -12 1 -19z
m-8317 2 c-14 -4 -54 -8 -90 -8 -47 0 -58 2 -40 8 14 4 54 8 90 8 47 0 58 -2
40 -8z m150 -9 c20 -38 12 -50 -32 -53 l-43 -3 2 -40 1 -40 -15 43 -15 44 -47
-6 c-91 -12 -244 -11 -248 1 -3 7 24 13 79 18 46 4 88 6 93 5 6 -1 34 -2 63
-1 51 1 52 2 46 26 -6 24 -5 25 50 25 44 0 57 -4 66 -19z m8853 12 c-7 -2 -19
-2 -25 0 -7 3 -2 5 12 5 14 0 19 -2 13 -5z m-653 -23 c0 -5 -2 -10 -4 -10 -3
0 -8 5 -11 10 -3 6 -1 10 4 10 6 0 11 -4 11 -10z m-30 -20 c0 -5 -5 -10 -11
-10 -5 0 -7 5 -4 10 3 6 8 10 11 10 2 0 4 -4 4 -10z m-8312 -117 c-27 -2 -69
-2 -95 0 -27 2 -5 3 47 3 52 0 74 -1 48 -3z m8515 -10 c-13 -2 -33 -2 -45 0
-13 2 -3 4 22 4 25 0 35 -2 23 -4z m-90 -10 c-7 -2 -19 -2 -25 0 -7 3 -2 5 12
5 14 0 19 -2 13 -5z m-60 -10 c-7 -2 -21 -2 -30 0 -10 3 -4 5 12 5 17 0 24 -2
18 -5z m-7496 -55 c-3 -8 -6 -5 -6 6 -1 11 2 17 5 13 3 -3 4 -12 1 -19z m-827
-2 c8 -2 -19 -4 -60 -5 -41 0 -80 3 -87 7 -11 7 113 5 147 -2z m859 -204 c40
-132 145 -273 258 -348 60 -39 173 -88 258 -110 l50 -13 -55 3 c-134 10 -256
70 -366 180 -116 116 -180 253 -181 391 l-1 60 8 -48 c5 -27 18 -79 29 -115z
m5721 123 c0 -13 11 -59 25 -102 57 -181 188 -330 369 -418 74 -36 171 -65
218 -65 15 0 30 -5 34 -12 5 -8 -13 -10 -71 -5 -95 8 -219 43 -209 59 5 8 1 9
-10 5 -10 -4 -35 4 -63 22 -25 16 -40 30 -32 33 7 2 -2 13 -23 26 -33 21 -110
100 -154 159 -48 64 -79 138 -86 208 -4 39 -10 83 -14 99 -5 21 -4 27 5 22 6
-4 11 -18 11 -31z m-1213 19 c-3 -3 -12 -4 -19 -1 -8 3 -5 6 6 6 11 1 17 -2
13 -5z m-5409 -21 c-10 -2 -26 -2 -35 0 -10 3 -2 5 17 5 19 0 27 -2 18 -5z
m4585 -30 c-13 -2 -33 -2 -45 0 -13 2 -3 4 22 4 25 0 35 -2 23 -4z m4530 -10
c-7 -2 -19 -2 -25 0 -7 3 -2 5 12 5 14 0 19 -2 13 -5z m-76 -9 c-3 -3 -12 -4
-19 -1 -8 3 -5 6 6 6 11 1 17 -2 13 -5z m-94 -11 c-7 -2 -19 -2 -25 0 -7 3 -2
5 12 5 14 0 19 -2 13 -5z m-5216 -17 c4 -3 -27 -6 -68 -5 -47 0 -67 3 -54 8
22 9 113 7 122 -3z m5126 7 c-7 -2 -21 -2 -30 0 -10 3 -4 5 12 5 17 0 24 -2
18 -5z m-8860 -10 c-13 -2 -35 -2 -50 0 -16 2 -5 4 22 4 28 0 40 -2 28 -4z
m3820 0 c-7 -2 -21 -2 -30 0 -10 3 -4 5 12 5 17 0 24 -2 18 -5z m4928 -4 c-55
-11 -73 -27 -123 -112 -22 -37 -45 -70 -50 -73 -11 -7 78 145 99 168 16 18 40
25 88 26 22 0 18 -2 -14 -9z m-8638 -6 c-7 -2 -21 -2 -30 0 -10 3 -4 5 12 5
17 0 24 -2 18 -5z m2634 -179 c-3 -3 -12 -4 -19 -1 -8 3 -5 6 6 6 11 1 17 -2
13 -5z m5561 -27 l77 -3 -82 -2 c-80 -2 -83 -1 -82 21 1 16 3 17 6 5 3 -14 19
-18 81 -21z m-4871 17 c-3 -3 -12 -4 -19 -1 -8 3 -5 6 6 6 11 1 17 -2 13 -5z
m5116 -1 c-7 -2 -21 -2 -30 0 -10 3 -4 5 12 5 17 0 24 -2 18 -5z m-85 -10
c-10 -2 -26 -2 -35 0 -10 3 -2 5 17 5 19 0 27 -2 18 -5z m-2598 -60 c-25 -1
-364 -4 -755 -5 -390 -2 -678 0 -640 3 39 3 378 5 755 5 377 0 665 -1 640 -3z
m-1597 -10 c-68 -2 -178 -2 -245 0 -68 1 -13 3 122 3 135 0 190 -2 123 -3z
m-645 -10 c-38 -2 -98 -2 -135 0 -38 2 -7 3 67 3 74 0 105 -1 68 -3z m690 -10
c-71 -2 -185 -2 -255 0 -71 1 -13 3 127 3 140 0 198 -2 128 -3z m3457 -43
c-62 -65 -224 -151 -282 -150 -10 0 11 11 47 23 76 25 194 93 229 131 14 14
27 26 30 26 2 0 -8 -14 -24 -30z m-1014 -70 l64 -60 -194 0 -193 0 6 31 c3 17
6 44 6 60 l0 29 124 0 123 0 64 -60z m-4355 19 c5 -9 490 -10 1916 -4 l1908 7
70 -41 c39 -23 70 -43 70 -44 0 -1 -973 -1 -2162 1 l-2163 3 43 39 44 39 106
4 c59 1 119 4 134 5 15 1 30 -3 34 -9z m-1429 -15 c9 -9 26 -14 38 -11 14 2
37 -7 60 -24 l37 -28 -176 -3 -176 -3 1 40 2 40 7 -35 7 -35 2 38 1 37 91 0
c69 0 94 -4 106 -16z m6486 -91 c-7 -2 -19 -2 -25 0 -7 3 -2 5 12 5 14 0 19
-2 13 -5z m-5770 -10 c-7 -2 -19 -2 -25 0 -7 3 -2 5 12 5 14 0 19 -2 13 -5z
m5715 0 c-10 -2 -26 -2 -35 0 -10 3 -2 5 17 5 19 0 27 -2 18 -5z m-5780 -10
c-10 -2 -26 -2 -35 0 -10 3 -2 5 17 5 19 0 27 -2 18 -5z"/>
<path d="M7888 5393 c23 -2 59 -2 80 0 20 2 1 4 -43 4 -44 0 -61 -2 -37 -4z"/>
<path d="M7758 5383 c12 -2 32 -2 45 0 12 2 2 4 -23 4 -25 0 -35 -2 -22 -4z"/>
<path d="M8011 5386 c2 -2 33 -6 69 -9 41 -3 54 -2 35 3 -31 8 -112 13 -104 6z"/>
<path d="M7693 5373 c9 -2 23 -2 30 0 6 3 -1 5 -18 5 -16 0 -22 -2 -12 -5z"/>
<path d="M7648 5363 c7 -3 16 -2 19 1 4 3 -2 6 -13 5 -11 0 -14 -3 -6 -6z"/>
<path d="M8158 5363 c6 -2 18 -2 25 0 6 3 1 5 -13 5 -14 0 -19 -2 -12 -5z"/>
<path d="M7608 5353 c7 -3 16 -2 19 1 4 3 -2 6 -13 5 -11 0 -14 -3 -6 -6z"/>
<path d="M7522 5333 c-24 -8 -41 -17 -39 -19 2 -2 28 5 58 15 30 11 47 20 39
19 -8 0 -34 -6 -58 -15z"/>
<path d="M7391 5275 c-36 -19 -70 -40 -75 -46 -9 -8 138 66 153 78 18 14 -26
-4 -78 -32z"/>
<path d="M6409 5220 c129 -12 171 -23 213 -57 29 -24 31 -25 13 -4 -37 44 -96
62 -218 66 l-112 4 104 -9z"/>
<path d="M7260 5189 l-35 -30 38 26 c33 24 43 35 34 35 -1 0 -18 -14 -37 -31z"/>
<path d="M7174 5118 c-59 -63 -88 -98 -83 -98 3 0 33 32 68 70 68 77 79 95 15
28z"/>
<path d="M6656 5117 c3 -10 9 -15 12 -12 3 3 0 11 -7 18 -10 9 -11 8 -5 -6z"/>
<path d="M6672 5070 c0 -14 2 -19 5 -12 2 6 2 18 0 25 -3 6 -5 1 -5 -13z"/>
<path d="M6684 4910 c0 -74 1 -105 3 -67 2 37 2 97 0 135 -2 37 -3 6 -3 -68z"/>
<path d="M7073 4998 c-15 -20 -25 -38 -20 -38 3 0 12 11 21 25 17 26 16 35 -1
13z"/>
<path d="M7006 4883 c-69 -140 -128 -379 -125 -511 2 -51 3 -48 10 28 19 192
64 361 133 498 14 29 24 52 21 52 -2 0 -20 -30 -39 -67z"/>
<path d="M6691 4743 c-1 -23 7 -41 27 -61 15 -15 18 -18 8 -5 -11 12 -22 40
-26 60 l-8 38 -1 -32z"/>
<path d="M6812 4646 c7 -8 15 -12 17 -11 5 6 -10 25 -20 25 -5 0 -4 -6 3 -14z"/>
<path d="M6248 4613 c56 -2 148 -2 205 0 56 1 10 3 -103 3 -113 0 -159 -2
-102 -3z"/>
<path d="M6838 4415 c2 -115 8 -214 12 -219 18 -18 36 9 29 44 l-6 35 -2 -37
c0 -21 -5 -38 -11 -38 -6 0 -10 65 -11 173 0 94 -3 190 -7 212 -4 22 -6 -54
-4 -170z"/>
<path d="M6188 4413 c7 -3 16 -2 19 1 4 3 -2 6 -13 5 -11 0 -14 -3 -6 -6z"/>
<path d="M6263 4413 c26 -2 67 -2 90 0 23 2 2 3 -48 3 -49 0 -68 -1 -42 -3z"/>
<path d="M6466 4398 c3 -4 9 -8 15 -8 5 0 9 4 9 8 0 5 -7 9 -15 9 -8 0 -12 -4
-9 -9z"/>
<path d="M6525 4380 c3 -5 11 -10 16 -10 6 0 7 5 4 10 -3 6 -11 10 -16 10 -6
0 -7 -4 -4 -10z"/>
<path d="M3171 4136 c3 -3 23 -8 44 -11 21 -2 35 -2 32 2 -4 3 -23 8 -44 10
-20 2 -35 2 -32 -1z"/>
<path d="M5775 5300 c-74 -15 -165 -64 -165 -90 0 -12 79 -27 180 -35 78 -7
87 -5 109 14 13 12 31 19 40 17 131 -39 168 -40 205 -7 19 17 56 83 56 101 0
12 -363 12 -425 0z m405 -20 c-14 -27 -24 -28 -272 -34 -178 -4 -222 -8 -250
-22 -31 -16 -32 -16 -19 0 45 54 141 73 389 75 159 1 162 1 152 -19z m-172
-47 c-10 -2 -26 -2 -35 0 -10 3 -2 5 17 5 19 0 27 -2 18 -5z m110 0 c-15 -2
-42 -2 -60 0 -18 2 -6 4 27 4 33 0 48 -2 33 -4z"/>
<path d="M6218 5223 c12 -2 30 -2 40 0 9 3 -1 5 -23 4 -22 0 -30 -2 -17 -4z"/>
<path d="M5330 5212 c-74 -1 -295 -7 -490 -12 l-355 -8 465 4 c426 4 638 11
649 20 2 2 -27 3 -65 2 -38 -1 -130 -4 -204 -6z"/>
<path d="M3735 5179 c-176 -5 -331 -10 -345 -13 -30 -5 524 4 860 14 l235 7
-215 0 c-118 0 -359 -4 -535 -8z"/>
<path d="M5675 5165 c52 -14 267 -19 297 -7 10 4 -44 7 -120 7 -75 0 -157 3
-182 7 l-45 7 50 -14z"/>
<path d="M4930 4599 c-162 -3 -32 -4 290 -1 322 2 587 6 589 8 5 5 -494 1
-879 -7z"/>
<path d="M4008 4583 c84 -2 219 -2 300 0 81 1 12 3 -153 3 -165 0 -231 -2
-147 -3z"/>
<path d="M5558 4373 c6 -2 18 -2 25 0 6 3 1 5 -13 5 -14 0 -19 -2 -12 -5z"/>
<path d="M2263 5313 c9 -2 23 -2 30 0 6 3 -1 5 -18 5 -16 0 -22 -2 -12 -5z"/>
<path d="M2328 5303 c7 -3 16 -2 19 1 4 3 -2 6 -13 5 -11 0 -14 -3 -6 -6z"/>
<path d="M2368 5293 c7 -3 16 -2 19 1 4 3 -2 6 -13 5 -11 0 -14 -3 -6 -6z"/>
<path d="M2450 5268 c70 -33 150 -66 150 -62 0 7 -117 60 -150 68 l-25 6 25
-12z"/>
<path d="M2630 5183 c116 -86 149 -114 207 -179 80 -89 135 -165 180 -248 36
-67 46 -70 12 -3 -82 160 -260 355 -394 431 -30 17 -30 17 -5 -1z"/>
<path d="M3293 5163 c9 -2 23 -2 30 0 6 3 -1 5 -18 5 -16 0 -22 -2 -12 -5z"/>
<path d="M3248 5153 c7 -3 16 -2 19 1 4 3 -2 6 -13 5 -11 0 -14 -3 -6 -6z"/>
<path d="M3172 5112 c-37 -37 -73 -124 -58 -139 3 -3 6 1 6 11 0 39 44 118 79
142 20 13 30 24 23 24 -6 0 -29 -17 -50 -38z"/>
<path d="M3100 4953 c0 -5 -7 -62 -15 -127 -8 -66 -13 -122 -10 -124 3 -3 6 0
6 6 3 26 4 31 11 38 4 3 5 -4 3 -16 -3 -17 -1 -20 6 -13 6 6 10 35 8 64 -1 30
-2 82 -1 117 1 34 0 62 -3 62 -3 0 -5 -3 -5 -7z m-3 -155 c-3 -8 -6 -5 -6 6
-1 11 2 17 5 13 3 -3 4 -12 1 -19z"/>
<path d="M3100 4700 c-8 -5 -12 -12 -9 -15 4 -3 12 1 19 10 14 17 11 19 -10 5z"/>
<path d="M3362 4330 c0 -19 2 -27 5 -17 2 9 2 25 0 35 -3 9 -5 1 -5 -18z"/>
<path d="M1220 5313 c-14 -7 -36 -13 -50 -13 -33 0 -117 -40 -157 -74 -30 -25
-96 -117 -110 -151 -5 -14 4 -12 43 10 80 45 194 126 254 182 57 53 64 70 20
46z"/>
<path d="M8631 4977 c-13 -21 -12 -21 5 -5 10 10 16 20 13 22 -3 3 -11 -5 -18
-17z"/>
<path d="M9743 5043 c9 -2 23 -2 30 0 6 3 -1 5 -18 5 -16 0 -22 -2 -12 -5z"/>
<path d="M9600 5030 c-15 -5 4 -6 45 -3 39 3 72 7 74 9 8 7 -94 2 -119 -6z"/>
<path d="M9060 4900 c-31 -10 -46 -18 -33 -19 12 -1 34 4 50 10 15 7 46 15 68
19 l40 7 -35 1 c-19 0 -60 -7 -90 -18z"/>
<path d="M7888 5093 c18 -2 45 -2 60 0 15 2 0 4 -33 4 -33 0 -45 -2 -27 -4z"/>
<path d="M7704 5045 c-132 -45 -251 -131 -331 -238 -23 -33 -43 -63 -43 -67 0
-4 12 -11 26 -14 40 -10 356 -147 379 -164 11 -8 13 -12 5 -9 -8 3 -105 42
-215 86 -174 70 -202 78 -212 65 -16 -21 -46 -151 -38 -163 9 -16 35 -13 35 3
0 24 43 152 47 140 2 -6 -5 -44 -16 -84 -12 -41 -20 -75 -18 -76 9 -9 338 -64
369 -62 20 1 40 -1 44 -5 21 -21 -361 24 -448 53 l-28 9 0 -62 c1 -133 48
-272 130 -381 l42 -55 117 121 118 122 -19 48 c-10 26 -14 48 -9 48 5 0 14
-20 21 -45 7 -25 15 -45 19 -45 3 1 26 21 51 45 24 24 46 43 48 41 2 -3 -50
-56 -116 -120 -65 -64 -139 -142 -165 -174 l-46 -59 47 -35 c73 -54 109 -78
119 -78 5 0 14 12 21 28 32 72 199 376 209 379 6 2 -38 -91 -98 -208 -60 -116
-108 -213 -107 -214 11 -9 115 -36 172 -45 96 -15 292 8 302 35 3 7 -38 106
-90 221 -53 115 -88 200 -79 189 13 -18 104 -201 144 -292 15 -36 31 -36 79
-3 32 22 70 42 70 37 0 -2 -27 -21 -60 -41 -33 -21 -60 -39 -60 -42 0 -3 7
-18 16 -35 l15 -30 32 19 c18 11 53 32 80 47 26 15 47 29 47 31 0 3 -41 57
-92 122 -109 139 -171 221 -183 242 -24 41 38 -27 143 -159 l116 -144 48 54
c77 86 138 231 138 329 0 16 5 32 12 36 19 12 2 -116 -25 -196 -27 -74 -103
-190 -143 -217 -23 -15 -24 -17 -9 -32 15 -15 20 -12 60 34 99 112 152 237
162 382 l6 81 -39 -4 c-21 -2 -109 -11 -194 -20 -85 -8 -180 -18 -210 -21 -30
-3 -52 -3 -49 1 7 8 182 32 322 45 48 5 90 11 93 14 5 5 -12 102 -24 137 -3
10 -2 12 5 5 6 -5 16 -32 23 -60 6 -27 14 -58 17 -67 4 -17 33 -25 45 -12 13
12 -39 194 -54 194 -12 0 -297 -111 -373 -145 -33 -15 -55 -21 -49 -15 13 13
121 62 259 117 50 20 92 37 93 39 7 5 -9 43 -34 81 l-24 38 30 -35 c17 -19 33
-45 36 -57 7 -27 13 -28 40 -9 18 14 17 17 -32 88 -28 40 -77 95 -110 121 -71
58 -185 116 -241 124 l-41 5 -12 -73 c-20 -121 -68 -340 -76 -347 -4 -4 -4 4
0 18 9 35 66 371 66 393 0 15 -11 17 -100 17 l-99 0 4 -147 c2 -107 1 -130 -5
-83 -4 36 -8 95 -9 132 -1 66 -7 98 -20 98 -3 0 -38 -11 -77 -25z m363 -161
c-3 -3 -12 -4 -19 -1 -8 3 -5 6 6 6 11 1 17 -2 13 -5z m274 -41 c13 -16 12
-17 -3 -4 -10 7 -18 15 -18 17 0 8 8 3 21 -13z m-751 -56 c0 -2 -10 -12 -22
-23 l-23 -19 19 23 c18 21 26 27 26 19z m253 -147 c5 -9 3 -9 -5 2 -13 15 -18
14 -57 -18 -24 -19 -45 -34 -47 -34 -11 0 1 12 41 41 44 31 45 34 47 88 l1 56
6 -60 c3 -33 10 -67 14 -75z m-315 71 c-13 -15 -25 -27 -27 -25 -4 4 39 54 47
54 2 0 -7 -13 -20 -29z m401 -33 c-15 -28 -31 -32 -45 -13 -19 25 -8 33 12 9
15 -18 15 -18 9 3 -5 17 -2 22 14 20 15 -1 17 -5 10 -19z m118 -58 c24 -30 12
-33 -17 -5 -16 16 -30 33 -30 38 0 10 28 -9 47 -33z m-129 -27 c-10 -2 -26 -2
-35 0 -10 3 -2 5 17 5 19 0 27 -2 18 -5z m77 -34 c19 -17 35 -36 35 -42 0 -6
-7 -1 -16 12 -9 12 -30 31 -48 42 -17 10 -26 19 -19 19 7 0 28 -14 48 -31z
m42 -116 c-3 -10 -5 -4 -5 12 0 17 2 24 5 18 2 -7 2 -21 0 -30z m-709 -70 c15
-94 44 -169 94 -243 40 -61 46 -95 9 -49 -71 87 -118 201 -127 311 -8 93 8 80
24 -19z m516 21 c3 -8 2 -12 -4 -9 -6 3 -10 10 -10 16 0 14 7 11 14 -7z m186
7 c0 -21 -53 -70 -86 -81 -19 -7 -51 -9 -70 -5 -34 6 -104 58 -104 77 0 5 11
-3 24 -19 55 -66 148 -64 203 2 31 37 33 39 33 26z m-333 -73 c-3 -8 -6 -5 -6
6 -1 11 2 17 5 13 3 -3 4 -12 1 -19z m348 -98 c-3 -5 -14 -10 -23 -10 -15 0
-15 2 -2 10 20 13 33 13 25 0z m-5 -30 c0 -5 -4 -10 -10 -10 -5 0 -10 5 -10
10 0 6 5 10 10 10 6 0 10 -4 10 -10z m-499 -176 c7 -9 32 -29 56 -45 39 -27
49 -49 22 -49 -6 0 -8 4 -5 9 7 11 -18 33 -35 29 -7 -2 -13 3 -14 10 0 8 -13
25 -30 38 -16 13 -25 24 -19 24 6 0 17 -7 25 -16z m486 -30 c-3 -3 -12 -4 -19
-1 -8 3 -5 6 6 6 11 1 17 -2 13 -5z m243 -11 c0 -7 -109 -73 -121 -73 -8 0 1
10 18 21 18 12 30 26 26 32 -3 5 -1 7 5 4 12 -8 44 2 38 12 -3 4 4 7 15 7 10
0 19 -1 19 -3z m-355 -79 c55 3 117 9 139 12 24 4 36 3 33 -3 -10 -15 -170
-36 -234 -31 -70 7 -185 37 -178 48 3 4 35 -1 72 -12 55 -16 87 -18 168 -14z
m-200 -24 c8 -13 -5 -13 -25 0 -13 8 -13 10 2 10 9 0 20 -4 23 -10z m328 -7
c-7 -2 -21 -2 -30 0 -10 3 -4 5 12 5 17 0 24 -2 18 -5z"/>
<path d="M2043 5033 c-20 -4 -23 -10 -22 -56 0 -56 32 -326 43 -367 l7 -25
-11 24 c-7 17 -16 22 -31 18 -20 -5 -20 -5 -4 14 17 18 17 26 -4 166 -11 82
-21 163 -21 182 0 32 -1 33 -32 27 -58 -11 -171 -71 -234 -124 -53 -44 -163
-186 -153 -197 2 -1 40 -15 83 -29 63 -22 81 -24 89 -14 6 10 7 9 4 -4 -6 -17
-2 -19 181 -94 17 -7 32 -15 32 -18 0 -3 -12 -1 -27 5 -168 67 -378 136 -385
126 -10 -16 -38 -144 -38 -173 0 -14 6 -24 14 -24 9 0 20 25 30 73 9 39 21 79
26 87 19 31 18 1 -2 -73 -12 -42 -19 -79 -16 -82 9 -10 332 -36 368 -30 29 5
32 4 16 -6 -14 -9 -66 -9 -213 0 -106 7 -200 14 -208 17 -12 5 -15 -6 -15 -58
0 -174 107 -366 262 -471 68 -46 71 -47 90 -30 17 15 17 19 4 28 -76 51 -116
81 -116 89 0 5 10 1 23 -8 58 -42 109 -68 117 -60 4 5 45 83 91 174 45 91 83
167 85 168 1 2 11 -1 21 -8 11 -7 12 -10 3 -7 -11 3 -43 -54 -117 -202 -56
-113 -101 -207 -100 -208 1 -1 39 -11 84 -22 121 -31 317 -26 373 9 12 7 13
13 4 28 -50 81 -200 407 -182 396 5 -3 23 -36 40 -73 52 -116 130 -271 136
-271 3 0 36 16 74 35 37 19 65 30 62 23 -2 -7 -31 -26 -64 -42 -33 -16 -60
-32 -60 -35 0 -4 6 -16 14 -26 13 -18 16 -18 70 16 90 54 94 61 57 106 -74 91
-120 152 -161 213 -24 36 -53 76 -65 90 l-20 25 28 -25 c24 -21 93 -108 232
-292 l30 -40 51 56 c86 94 134 214 149 369 l7 69 -29 -6 c-15 -3 -98 -10 -183
-16 -85 -5 -180 -12 -210 -15 -50 -4 -51 -3 -15 5 22 4 99 13 170 20 72 6 145
13 163 16 35 5 38 15 23 74 -5 19 -12 49 -15 65 -6 27 -5 28 8 12 8 -10 20
-47 27 -83 10 -50 16 -64 31 -64 12 0 18 7 18 23 0 22 -36 163 -46 178 -2 4
-26 -1 -52 -11 -147 -59 -365 -140 -368 -137 -2 2 31 18 73 35 119 47 328 134
331 137 2 2 -9 25 -24 52 -44 75 -149 175 -224 212 -64 31 -170 64 -178 56 -3
-2 -15 -73 -28 -157 -13 -84 -26 -157 -29 -163 -7 -15 5 117 20 225 8 52 12
97 9 99 -7 7 -143 11 -171 4z m24 -175 c-3 -8 -6 -5 -6 6 -1 11 2 17 5 13 3
-3 4 -12 1 -19z m-217 -91 c0 -2 -12 -14 -27 -28 l-28 -24 24 28 c23 25 31 32
31 24z m170 -23 c0 -8 -19 -13 -24 -6 -3 5 1 9 9 9 8 0 15 -2 15 -3z m-230
-48 c0 -2 -8 -10 -17 -17 -16 -13 -17 -12 -4 4 13 16 21 21 21 13z m380 -63
c-11 -17 -11 -17 -6 0 3 10 7 28 7 40 2 22 2 22 6 0 2 -12 -1 -30 -7 -40z
m-50 27 c10 0 21 -4 24 -8 2 -4 -7 -8 -22 -7 -19 0 -27 6 -29 20 -2 11 0 14 3
8 3 -7 14 -13 24 -13z m180 -84 c0 -5 -18 11 -40 35 -21 24 -39 49 -40 54 0 6
18 -10 40 -35 21 -25 39 -49 40 -54z m-101 -22 c15 -17 15 -17 -1 -5 -9 7 -38
16 -65 21 l-48 9 49 -3 c30 -2 54 -10 65 -22z m-120 13 c-2 -2 -17 -11 -34
-21 l-30 -17 24 20 c13 12 28 21 34 21 6 0 8 -1 6 -3z m170 -71 c-3 -3 -11 5
-18 17 -13 21 -12 21 5 5 10 -10 16 -20 13 -22z m8 -38 c-3 -8 -6 -5 -6 6 -1
11 2 17 5 13 3 -3 4 -12 1 -19z m443 -60 c-1 -64 -29 -169 -65 -237 -38 -72
-105 -154 -112 -135 -2 6 13 28 32 50 63 68 124 227 125 322 0 17 5 32 10 32
6 0 10 -15 10 -32z m-455 -28 c-19 -37 -70 -70 -105 -69 -22 1 -21 2 7 10 38
11 103 72 104 97 0 9 3 12 5 5 3 -6 -2 -26 -11 -43z m-630 -152 c13 -33 40
-81 61 -109 20 -27 34 -52 31 -55 -7 -7 -80 91 -105 141 -23 48 -42 131 -41
183 0 30 4 23 16 -32 8 -39 25 -96 38 -128z m449 101 c17 -10 25 -19 19 -19
-16 0 -93 69 -93 83 0 5 10 -3 22 -18 12 -15 35 -36 52 -46z m-117 -18 c1 -3
14 6 28 19 14 13 25 19 25 13 0 -6 -3 -13 -8 -15 -9 -4 -216 -239 -253 -288
-15 -19 -30 -32 -34 -28 -7 6 50 77 192 237 29 33 43 56 35 59 -6 2 -12 13
-12 25 1 22 1 22 12 2 6 -11 13 -22 15 -24z m393 -11 c0 -5 -5 -10 -11 -10 -5
0 -7 5 -4 10 3 6 8 10 11 10 2 0 4 -4 4 -10z m-81 -56 c-35 -20 -45 -17 -18 5
13 11 28 17 33 14 5 -3 -2 -12 -15 -19z m-515 -10 c3 -8 2 -12 -4 -9 -6 3 -10
10 -10 16 0 14 7 11 14 -7z m219 -4 c-3 -11 -9 -20 -15 -20 -5 0 -4 9 2 20 6
11 12 20 14 20 2 0 2 -9 -1 -20z m486 -69 c7 -5 9 -11 5 -14 -5 -3 -15 1 -22
9 -14 16 -5 18 17 5z m-107 -115 c10 6 11 4 0 -7 -10 -11 -15 -10 -30 6 -15
17 -15 18 0 6 9 -7 23 -9 30 -5z m128 -80 c0 -2 -7 -7 -16 -10 -8 -3 -12 -2
-9 4 6 10 25 14 25 6z m-460 -52 c67 -17 156 -17 238 0 34 7 62 10 62 6 0 -8
-82 -25 -165 -35 -53 -7 -200 25 -220 47 -7 8 -5 9 10 4 11 -4 45 -14 75 -22z
m-50 -19 l35 -13 -31 -1 c-17 -1 -37 6 -44 14 -15 18 -7 18 40 0z m355 -4
c-11 -9 -123 -26 -114 -17 3 3 30 10 60 15 30 5 56 9 59 10 2 0 0 -3 -5 -8z"/>
<path d="M1288 4963 c6 -2 18 -2 25 0 6 3 1 5 -13 5 -14 0 -19 -2 -12 -5z"/>
<path d="M1345 4769 c-4 -6 -5 -12 -2 -15 2 -3 7 2 10 11 7 17 1 20 -8 4z"/>
<path d="M1316 4695 c-9 -26 -7 -32 5 -12 6 10 9 21 6 23 -2 3 -7 -2 -11 -11z"/>
<path d="M1105 4664 c-55 -13 -139 -29 -188 -36 -48 -6 -84 -15 -79 -20 5 -5
84 7 177 26 93 19 172 33 177 30 4 -3 8 -15 8 -26 0 -29 6 -20 13 20 4 17 3
31 -1 31 -4 -1 -52 -12 -107 -25z"/>
<path d="M1279 4623 c0 -5 -3 -20 -5 -35 -3 -16 0 -28 6 -28 5 0 10 6 10 13 0
6 3 22 6 35 4 13 2 22 -5 22 -6 0 -11 -3 -12 -7z"/>
<path d="M1216 4611 c-4 -5 -2 -12 3 -15 5 -4 12 -2 15 3 4 5 2 12 -3 15 -5 4
-12 2 -15 -3z"/>
<path d="M1260 4541 c0 -6 5 -13 10 -16 6 -3 10 1 10 9 0 9 -4 16 -10 16 -5 0
-10 -4 -10 -9z"/>
<path d="M1239 4478 c-5 -80 -4 -108 3 -108 4 0 8 29 8 65 0 36 -2 65 -5 65
-3 0 -6 -10 -6 -22z"/>
<path d="M1212 4300 c0 -14 2 -19 5 -12 2 6 2 18 0 25 -3 6 -5 1 -5 -13z"/>
<path d="M899 4199 c-18 -4 -11 -7 31 -13 30 -5 70 -15 89 -22 24 -10 38 -11
45 -4 7 7 5 10 -4 10 -13 0 -13 2 0 10 13 9 13 10 0 11 -8 0 -23 2 -33 4 -11
2 -15 -1 -10 -8 5 -9 3 -9 -8 -1 -18 14 -77 22 -110 13z"/>
<path d="M7480 3865 c0 -2 10 -10 23 -16 20 -11 21 -11 8 4 -13 16 -31 23 -31
12z"/>
<path d="M7535 3830 c3 -5 11 -10 16 -10 6 0 7 5 4 10 -3 6 -11 10 -16 10 -6
0 -7 -4 -4 -10z"/>
</g>
</svg>
