<?xml version="1.0" standalone="no"?>
<!DOCTYPE svg PUBLIC "-//W3C//DTD SVG 20010904//EN"
 "http://www.w3.org/TR/2001/REC-SVG-20010904/DTD/svg10.dtd">
<svg version="1.0" xmlns="http://www.w3.org/2000/svg"
 width="1024.000000pt" height="1024.000000pt" viewBox="0 0 1024.000000 1024.000000"
 preserveAspectRatio="xMidYMid meet">

<g transform="translate(0.000000,1024.000000) scale(0.100000,-0.100000)"
fill="#000000" stroke="none">
<path d="M5715 7565 c-110 -7 -249 -18 -310 -25 -451 -44 -924 -190 -1278
-392 -222 -128 -477 -314 -710 -519 -69 -61 -82 -69 -118 -69 -110 0 -188 -50
-239 -154 -23 -45 -30 -74 -28 -102 3 -37 0 -42 -56 -87 -32 -26 -71 -50 -85
-53 -177 -39 -372 -96 -556 -164 -77 -29 -193 -61 -280 -79 -201 -41 -326 -81
-470 -151 -324 -157 -532 -359 -738 -717 -37 -65 -76 -145 -86 -178 -40 -129
-55 -476 -37 -865 8 -186 8 -198 -13 -265 -15 -46 -20 -82 -16 -104 9 -48 109
-145 213 -207 l82 -49 -87 -22 c-49 -12 -124 -26 -168 -31 l-80 -9 90 -2 90
-2 -49 -15 c-57 -18 -58 -27 -1 -14 51 12 57 5 10 -10 -50 -17 -81 -33 -82
-45 -1 -5 -23 -19 -50 -31 -26 -12 -42 -23 -34 -23 11 -1 10 -6 -4 -21 -10
-11 -14 -20 -9 -21 5 0 -4 -7 -21 -14 -16 -8 -25 -14 -18 -15 16 0 -33 -49
-61 -60 -17 -7 -18 -9 -3 -9 19 -1 24 -21 5 -21 -6 0 -8 -3 -4 -7 3 -4 -4 -13
-16 -20 -20 -11 -21 -12 -4 -13 15 0 16 -3 7 -14 -9 -11 -9 -15 1 -19 10 -4
10 -6 0 -6 -10 -1 -10 -5 2 -17 23 -22 20 -59 -6 -78 -13 -9 -18 -14 -11 -11
16 7 22 -16 10 -40 -9 -17 -8 -18 5 -7 12 10 21 10 47 -1 17 -7 28 -17 24 -21
-4 -4 3 -9 15 -13 12 -3 22 -9 22 -14 0 -5 0 -11 0 -14 0 -14 41 -44 54 -39 8
3 17 1 21 -5 3 -6 0 -11 -7 -11 -17 -1 33 -39 51 -40 11 0 11 -3 0 -17 -13
-15 -11 -16 14 -9 19 4 26 3 22 -4 -4 -6 4 -10 20 -10 15 0 36 -5 48 -12 21
-11 21 -11 2 -19 -16 -6 -12 -8 15 -8 62 -2 140 -14 135 -21 -2 -4 8 -8 23 -8
50 -2 112 -14 118 -23 3 -5 20 -9 37 -9 l32 -1 -35 -20 c-19 -11 -26 -17 -15
-14 43 14 106 22 110 15 2 -4 17 -5 32 -3 l28 5 -25 -22 -25 -21 32 15 c39 20
53 20 88 2 18 -9 22 -16 13 -20 -14 -6 29 4 51 12 10 4 12 1 6 -7 -5 -10 -2
-11 13 -7 11 4 23 2 27 -4 3 -5 1 -10 -6 -10 -7 0 -10 -3 -7 -6 4 -3 16 -1 27
6 12 6 51 10 89 10 37 -1 75 -1 84 -1 10 0 15 -6 11 -15 -4 -12 -1 -12 23 1
20 10 32 11 41 3 9 -7 13 -7 13 1 0 6 8 11 18 11 14 0 14 -2 3 -9 -10 -6 1 -9
32 -9 52 1 69 -8 47 -23 -12 -9 -11 -9 5 -4 11 4 54 8 95 10 45 2 65 1 50 -4
-22 -7 -20 -8 20 -14 53 -8 57 -8 134 -1 51 5 58 4 53 -9 -4 -11 -1 -14 8 -10
8 3 13 8 11 12 -2 3 32 7 76 9 59 3 83 0 89 -10 7 -10 9 -10 9 0 0 6 5 12 11
12 5 0 8 -4 5 -9 -4 -5 9 -6 29 -1 20 4 32 4 29 -1 -4 -8 39 -4 73 6 7 2 15 0
18 -5 4 -6 11 -10 16 -10 6 0 8 4 5 8 -3 5 8 6 25 4 16 -2 29 -6 29 -8 0 -1
-25 -11 -55 -20 -88 -28 -56 -27 43 0 57 17 102 24 121 20 23 -5 31 -3 31 7 0
11 2 11 10 -1 8 -12 13 -13 29 -3 13 8 22 9 26 3 4 -7 13 -7 25 0 22 12 33 13
27 3 -3 -5 32 -7 76 -5 221 8 413 14 627 18 129 2 246 5 260 5 14 1 45 0 70
-1 44 -3 44 -3 -15 -10 l-60 -7 50 -1 c28 -1 79 3 115 8 36 5 122 14 191 19
69 6 135 13 145 17 16 5 16 4 4 -5 -18 -13 25 -8 170 19 52 10 185 30 295 44
110 15 233 31 274 36 41 6 76 8 79 5 3 -3 -3 -5 -13 -5 -10 0 -16 -3 -12 -6 3
-3 40 2 82 11 42 10 79 14 82 11 4 -3 -2 -6 -12 -6 -10 0 -16 -2 -13 -5 3 -3
59 5 124 18 65 14 130 24 144 25 53 1 158 21 215 41 76 27 143 72 236 158 41
37 98 83 127 102 59 37 68 49 20 26 l-33 -16 25 20 c14 11 50 30 80 43 49 20
52 23 30 28 -25 6 -25 7 10 25 19 11 38 19 43 20 8 0 10 15 2 15 -3 0 -19 -7
-35 -15 -17 -9 -30 -12 -30 -8 0 5 32 25 71 46 39 21 68 34 64 28 -3 -6 10 -2
29 10 20 12 36 25 36 29 0 5 33 24 72 42 40 18 185 89 323 157 137 68 380 184
539 257 160 74 294 138 300 144 19 19 -3 22 -31 3 -15 -11 -57 -32 -93 -48
-36 -15 -139 -64 -230 -107 -91 -44 -187 -89 -215 -101 -61 -26 -376 -185
-392 -198 -12 -11 -73 -30 -73 -23 0 2 34 20 75 39 41 20 75 40 75 46 0 6 4 8
9 5 4 -3 17 1 27 9 10 8 27 15 36 15 9 0 18 3 20 8 2 6 154 86 313 165 22 11
48 27 57 35 9 8 22 11 29 6 8 -4 10 -3 5 4 -4 7 -1 12 9 12 17 0 65 28 77 45
4 5 8 6 8 1 0 -4 11 -1 25 8 14 9 31 14 37 10 7 -4 8 -3 4 4 -4 7 -2 12 5 12
7 0 42 14 78 32 36 17 71 32 77 34 16 3 119 53 128 61 4 5 11 8 14 9 4 0 20 6
35 12 16 7 35 12 44 12 9 0 21 7 28 16 6 9 22 18 36 19 39 4 40 5 35 14 -4 5
4 7 16 4 19 -4 21 -3 8 7 -13 10 -13 11 2 7 9 -3 57 14 107 39 50 24 96 44
102 44 6 0 23 7 37 15 34 18 160 65 176 64 6 0 -23 -14 -64 -30 -41 -16 -88
-36 -105 -44 -16 -7 -59 -25 -95 -40 -36 -15 -109 -49 -162 -76 -54 -26 -114
-51 -135 -55 -31 -6 -34 -8 -18 -15 20 -8 20 -8 0 -8 -34 -2 -99 -28 -84 -34
10 -4 9 -6 -3 -6 -10 -1 -18 -5 -18 -11 0 -15 16 -12 30 5 7 9 15 13 17 11 3
-3 30 8 62 24 118 60 477 220 619 275 77 30 94 46 22 20 -50 -18 -53 -18 -46
-6 3 5 18 12 33 16 15 3 50 17 78 30 27 13 70 28 95 34 25 5 60 17 77 26 18 9
46 18 62 20 16 2 54 11 85 20 30 9 57 15 58 14 2 -1 13 3 26 10 28 15 127 42
115 31 -4 -4 -26 -13 -48 -20 -60 -18 -176 -63 -172 -67 2 -1 50 13 108 32
120 41 259 78 266 71 3 -2 -34 -19 -81 -37 -47 -18 -84 -34 -82 -37 2 -2 82
27 178 65 157 62 178 73 226 120 117 116 213 416 247 773 4 36 13 111 21 166
17 121 18 379 3 704 -18 404 -65 553 -195 615 -21 10 -61 33 -88 52 -26 18
-53 33 -60 33 -35 0 -130 61 -223 142 -337 296 -490 399 -722 489 -223 87
-668 154 -1376 210 -222 17 -1105 20 -1340 4z m1360 -39 c324 -25 652 -59 810
-84 l50 -8 -70 -8 c-257 -27 -502 -115 -683 -247 -36 -27 -71 -49 -77 -49 -5
0 -84 11 -175 25 -594 88 -1604 141 -2230 116 -145 -6 -265 -9 -267 -7 -5 5
288 105 397 135 253 71 509 109 880 130 107 7 215 13 240 15 114 9 941 -4
1125 -18z m1079 -131 c182 -32 391 -116 561 -226 39 -25 166 -126 284 -225
260 -218 261 -219 332 -243 62 -21 195 -97 182 -104 -4 -2 -26 -10 -48 -17
-22 -7 -95 -35 -163 -61 l-123 -49 -82 39 c-48 23 -99 57 -121 80 l-40 41 21
27 c56 77 75 178 45 249 -13 31 -151 149 -240 207 -200 128 -477 207 -727 207
-249 0 -494 -73 -698 -207 -80 -52 -231 -194 -312 -293 -217 -266 -464 -716
-525 -957 l-11 -43 -92 0 c-51 0 -115 3 -144 6 l-52 7 29 36 c15 20 63 101
106 181 227 426 444 733 674 953 84 81 117 106 133 103 12 -1 16 -1 10 1 -7 3
-13 8 -13 11 0 10 173 124 227 151 242 120 545 168 787 126z m117 -111 c248
-43 502 -167 679 -333 l52 -49 -3 -75 c-4 -61 -10 -82 -34 -122 -35 -56 -46
-62 -62 -36 -10 16 -8 27 12 63 30 54 48 133 40 175 -4 25 -21 43 -73 82 -142
107 -365 203 -572 248 -118 25 -382 25 -498 0 -249 -55 -435 -153 -602 -317
-80 -79 -190 -214 -219 -268 -7 -12 -16 -20 -21 -17 -5 3 -12 0 -16 -6 -5 -8
-3 -9 6 -4 8 5 11 3 8 -6 -3 -8 -10 -13 -16 -12 -16 4 -165 -232 -236 -375
-66 -130 -150 -331 -143 -338 2 -3 23 44 47 103 70 177 261 535 277 520 2 -3
-22 -49 -55 -104 -79 -130 -170 -315 -217 -438 -21 -55 -41 -103 -44 -107 -3
-4 -18 -10 -33 -13 -36 -9 -36 3 -2 103 63 188 255 534 424 764 81 110 243
286 300 325 19 13 58 40 85 59 110 78 262 140 420 174 118 25 363 27 496 4z
m-2861 -34 c512 -15 861 -38 1235 -80 178 -20 435 -56 440 -62 2 -2 -26 -28
-61 -58 -117 -99 -270 -279 -418 -490 -48 -69 -90 -127 -92 -129 -2 -3 -1 9 2
26 10 48 -12 47 -47 -2 -35 -49 -47 -58 -28 -22 11 19 10 20 -2 10 -9 -8 -68
-14 -155 -18 -130 -5 -175 -10 -216 -21 -10 -3 -19 3 -23 16 -4 12 -9 20 -11
17 -2 -2 2 -25 10 -50 8 -26 10 -49 6 -52 -4 -3 -11 2 -14 10 -5 13 -32 15
-193 11 -103 -3 -206 -7 -228 -10 -22 -3 -101 -10 -175 -16 -138 -10 -179 -16
-215 -27 -11 -4 -24 -7 -30 -8 -5 -1 -23 -7 -40 -15 -62 -28 -55 -16 56 97 72
73 89 94 45 55 -37 -34 -71 -60 -75 -60 -3 1 -16 -3 -29 -10 -12 -7 -28 -12
-35 -11 -6 2 -36 -1 -65 -5 -42 -6 -60 -15 -87 -44 -19 -19 -35 -30 -35 -25 0
11 -5 11 -154 -8 -60 -8 -104 -18 -113 -28 -14 -13 -15 -9 -9 40 6 52 6 53 -6
19 -7 -19 -17 -35 -23 -35 -5 -1 -28 -4 -49 -9 -29 -6 -36 -10 -25 -17 9 -6
-9 -9 -53 -9 -51 0 -69 -4 -76 -16 -5 -9 -13 -16 -18 -15 -10 0 -68 -14 -129
-34 -22 -6 -76 -22 -120 -35 -44 -12 -104 -31 -133 -41 -29 -11 -63 -20 -75
-20 -18 -1 -16 -3 8 -9 34 -9 -80 -4 -222 11 -158 16 -156 8 3 -12 143 -17
665 -68 715 -70 17 0 11 -4 -18 -14 -28 -8 -70 -11 -119 -8 -68 5 -76 4 -71
-10 9 -23 -5 -28 -47 -16 -27 7 -46 7 -72 -3 -30 -10 -70 -9 -257 10 -339 34
-852 114 -874 136 -3 3 6 15 19 28 13 13 17 17 8 11 -9 -7 -21 -13 -27 -13 -6
0 -13 -5 -15 -11 -2 -7 -15 -9 -35 -5 l-32 7 73 67 c40 37 171 160 292 274
400 377 682 588 1001 746 l118 59 235 2 c129 2 237 5 239 7 7 6 192 4 541 -6z
m2871 -36 c101 -17 264 -65 291 -86 20 -15 76 -209 112 -389 15 -70 26 -131
26 -137 0 -5 -19 -21 -42 -35 -57 -33 -330 -157 -443 -200 -49 -19 -98 -38
-107 -42 -16 -6 -18 -1 -18 34 0 53 -54 368 -85 496 -23 97 -86 322 -100 358
-7 16 4 17 132 17 82 0 178 -7 234 -16z m-377 -41 c67 -210 134 -510 155 -703
19 -177 23 -159 -34 -179 -28 -10 -57 -21 -66 -25 -13 -6 -17 16 -28 161 -19
268 -76 655 -110 755 -11 30 -4 36 41 37 23 1 28 -5 42 -46z m-85 -83 c49
-250 76 -468 87 -706 l7 -141 -27 -5 c-32 -6 -34 0 -3 11 13 5 -61 8 -188 8
-115 -1 -253 2 -305 5 -90 6 -82 1 24 -17 21 -3 36 -8 33 -11 -2 -2 -46 2 -98
11 -161 26 -213 20 -266 -28 -35 -32 -27 -12 10 24 17 17 25 28 17 23 -8 -5
-65 -7 -127 -5 l-112 3 -4 -39 c-2 -21 -4 9 -5 66 -2 120 0 125 128 316 177
264 371 442 575 529 88 37 218 76 227 67 3 -3 15 -53 27 -111z m898 -29 c51
-27 120 -70 154 -96 l61 -48 -4 -57 c-6 -87 -41 -145 -123 -207 l-69 -52 -27
137 c-25 120 -73 304 -94 355 -10 25 0 22 102 -32z m189 -429 c-13 -22 -191
-131 -321 -197 -126 -64 -381 -177 -476 -210 -34 -12 -37 -12 -52 14 l-16 27
146 58 c292 115 573 254 651 322 36 32 38 32 56 14 10 -10 16 -22 12 -28z
m177 -132 l78 -37 -53 -23 c-105 -44 -228 -103 -225 -107 3 -2 62 22 133 52
71 31 136 59 146 62 14 4 17 -7 23 -74 10 -99 -1 -320 -20 -443 -32 -196 -130
-518 -222 -730 -200 -460 -251 -515 -590 -654 -62 -26 -147 -62 -189 -81 -43
-20 -78 -34 -80 -32 -2 1 11 32 28 67 17 36 45 97 63 136 l33 71 178 89 c289
144 463 255 496 317 7 13 -9 3 -39 -23 -63 -57 -262 -175 -460 -274 -84 -42
-156 -76 -161 -76 -8 0 -87 159 -81 164 2 2 72 31 154 66 199 82 424 157 510
169 l70 10 -75 -4 c-105 -5 -351 -87 -602 -199 -32 -14 -58 -24 -58 -21 0 3
14 112 30 242 17 131 36 316 43 411 l12 173 190 70 c105 38 254 93 333 121 78
28 141 53 139 54 -4 5 -290 -92 -506 -170 -85 -31 -156 -54 -159 -51 -6 5 -69
169 -108 277 -14 37 -26 84 -27 103 l-2 36 165 68 c287 119 476 216 606 311
l69 50 40 -42 c24 -25 70 -56 118 -78z m-2153 55 c-12 -20 -24 -34 -27 -31 -2
2 6 20 19 39 30 46 37 39 8 -8z m2648 -119 c103 -152 98 -135 107 -385 4 -91
9 -179 11 -195 4 -21 -2 -13 -18 24 -49 114 -106 176 -172 187 -106 17 -255
-145 -346 -378 -76 -194 -89 -242 -159 -609 -60 -316 -90 -440 -124 -506 -44
-87 -58 -96 -238 -153 -241 -77 -572 -209 -1189 -474 -605 -260 -814 -357
-939 -438 l-33 -22 20 39 c10 21 29 69 41 106 l22 67 98 65 c53 36 139 85 191
110 112 51 776 340 1320 573 211 91 407 180 435 198 132 88 215 216 346 532
115 277 204 570 235 778 18 116 24 389 12 462 l-8 41 138 55 c75 30 142 55
149 56 6 1 52 -59 101 -133z m23 82 c20 -40 52 -138 44 -138 -2 0 -18 24 -35
53 -18 28 -46 69 -62 90 l-30 37 31 0 c26 0 34 -6 52 -42z m-6377 -70 c-54
-51 -112 -106 -128 -121 -16 -15 -30 -26 -32 -24 -9 8 26 101 51 137 41 59 73
74 204 99 3 1 -40 -41 -95 -91z m1956 -81 c0 -2 -10 -12 -22 -23 l-23 -19 19
23 c18 21 26 27 26 19z m1650 -137 c-4 -69 -7 -115 -8 -102 -2 17 -8 22 -30
22 -21 0 -39 -11 -66 -42 -35 -40 -33 -34 36 102 40 80 73 146 74 145 0 0 -2
-56 -6 -125z m-518 100 c64 -18 49 -25 -61 -27 -58 -1 -126 -7 -151 -14 -55
-14 -170 -68 -188 -89 -11 -13 -12 -12 -3 5 9 19 45 55 82 83 60 45 230 67
321 42z m1730 -95 c6 -14 9 -28 5 -31 -3 -3 -88 -35 -189 -70 l-183 -64 -17
23 c-10 12 -18 25 -18 28 0 5 361 136 383 138 4 1 13 -10 19 -24z m-3249 -12
c-13 -2 -33 -2 -45 0 -13 2 -3 4 22 4 25 0 35 -2 23 -4z m2610 -23 c114 -23
182 -53 209 -90 10 -14 29 -52 43 -85 23 -57 23 -60 5 -67 -48 -18 -198 -30
-443 -35 l-268 -6 36 83 c44 105 96 185 138 211 27 17 43 20 105 15 40 -3 119
-15 175 -26z m-2458 -5 c201 -12 427 -32 431 -38 1 -1 4 -24 7 -52 3 -27 3
-41 -1 -30 -5 16 -15 20 -37 18 -47 -3 -287 -32 -420 -49 -66 -9 -138 -18
-160 -20 -22 -2 -56 -7 -75 -10 -34 -7 -34 -7 -10 -15 14 -5 -23 -6 -90 -3
-63 3 -117 7 -119 10 -2 2 -12 49 -21 104 l-17 100 136 0 c75 0 244 -7 376
-15z m2832 9 c-3 -3 -12 -4 -19 -1 -8 3 -5 6 6 6 11 1 17 -2 13 -5z m289 -51
c10 -47 31 -108 85 -248 32 -82 49 -139 43 -144 -5 -5 -126 -53 -269 -106
-318 -119 -819 -318 -1055 -418 -96 -42 -176 -74 -177 -73 -2 1 -14 57 -27
123 -33 162 -64 280 -86 329 l-18 41 102 21 c55 12 174 36 264 53 89 18 161
34 158 36 -6 6 -351 -55 -449 -80 l-89 -22 -19 24 c-14 17 -19 39 -19 80 l0
57 98 26 c177 48 247 56 432 48 101 -3 98 -4 -70 -10 -176 -7 -229 -17 -265
-45 -19 -15 -19 -15 5 -4 40 20 140 38 200 37 l55 -1 -75 -12 c-43 -7 -62 -13
-45 -14 18 -2 -7 -10 -64 -22 -103 -22 -155 -44 -145 -61 4 -7 3 -8 -5 -4 -6
4 -24 0 -38 -9 -14 -10 -38 -21 -52 -25 -18 -6 -8 -8 34 -7 33 1 69 -2 80 -6
12 -5 11 -2 -5 8 -24 16 -24 16 -2 12 12 -3 20 -2 17 3 -7 12 76 48 148 65 34
8 143 19 242 25 461 27 548 36 608 67 45 23 49 49 22 138 -5 18 7 24 117 59
68 21 148 48 178 61 72 30 78 30 86 -2z m-5201 -38 c-5 -3 -64 -21 -129 -40
-311 -94 -624 -247 -841 -414 -217 -165 -461 -467 -530 -653 l-17 -46 -74 -4
c-41 -2 -74 -3 -74 -2 0 0 14 40 30 89 17 49 33 121 36 160 3 38 7 84 10 102
6 43 76 135 203 266 84 88 102 112 99 132 -4 21 4 27 81 63 47 22 109 47 136
56 50 16 297 76 312 76 4 0 -33 -23 -84 -51 -266 -149 -510 -395 -634 -641
-43 -85 -35 -83 15 4 69 121 133 205 241 317 208 215 426 346 780 470 128 45
397 120 430 119 11 0 16 -1 10 -3z m105 -58 c458 -118 1404 -209 2560 -247
190 -7 392 -15 450 -19 l105 -6 -65 -22 c-36 -12 -191 -54 -344 -93 -819 -207
-1273 -382 -2016 -777 -435 -231 -425 -228 -755 -227 -264 0 -365 9 -760 65
-457 64 -718 127 -764 183 -59 71 190 447 436 661 219 189 504 345 858 466
154 53 151 53 295 16z m6581 -30 c79 -53 138 -190 144 -337 4 -78 3 -81 -5
-33 -6 29 -21 85 -35 125 -47 136 -104 193 -182 185 -79 -8 -158 -92 -237
-253 -84 -170 -130 -338 -196 -714 -17 -96 -38 -204 -47 -240 -17 -72 -74
-188 -104 -216 -18 -16 -17 -11 6 33 31 63 55 156 96 367 76 400 93 478 130
591 106 319 245 513 370 515 14 0 41 -10 60 -23z m-4768 -44 c-13 -2 -35 -2
-50 0 -16 2 -5 4 22 4 28 0 40 -2 28 -4z m-230 -10 c-13 -2 -35 -2 -50 0 -16
2 -5 4 22 4 28 0 40 -2 28 -4z m125 -10 c-10 -2 -26 -2 -35 0 -10 3 -2 5 17 5
19 0 27 -2 18 -5z m-413 -33 c-4 -6 16 -11 52 -12 l58 -2 -54 -3 c-29 -2 -60
-2 -68 1 -15 6 -9 26 8 26 6 0 7 -4 4 -10z m3395 -4 c-31 -17 -140 -39 -166
-34 -10 2 16 9 60 16 43 7 86 17 95 22 9 5 21 9 26 9 6 0 -1 -6 -15 -13z
m-3451 -12 c2 -2 -12 -4 -33 -4 -22 0 -35 4 -31 10 5 9 52 4 64 -6z m234 -11
c-13 -2 -33 -2 -45 0 -13 2 -3 4 22 4 25 0 35 -2 23 -4z m2179 -25 c-8 -8 -9
-4 -5 13 4 13 8 18 11 10 2 -7 -1 -18 -6 -23z m794 15 c-4 -4 -40 -7 -79 -6
-56 1 -64 0 -37 -6 l35 -8 -36 -2 c-22 0 -42 5 -49 14 -11 13 -1 15 80 15 52
0 90 -3 86 -7z m41 -9 c-3 -3 -12 -4 -19 -1 -8 3 -5 6 6 6 11 1 17 -2 13 -5z
m-222 -14 c3 -5 1 -10 -4 -10 -6 0 -11 5 -11 10 0 6 2 10 4 10 3 0 8 -4 11
-10z m-92 -7 c-24 -2 -62 -2 -85 0 -24 2 -5 4 42 4 47 0 66 -2 43 -4z m-165
-10 c-10 -2 -28 -2 -40 0 -13 2 -5 4 17 4 22 1 32 -1 23 -4z m-638 -42 c115
-6 120 -7 70 -14 -127 -19 -570 -113 -771 -163 -677 -169 -1274 -404 -1869
-736 -69 -38 -136 -78 -150 -89 -14 -11 13 1 60 26 200 108 589 297 765 372
564 240 1172 419 1908 563 56 11 110 23 120 26 14 5 17 -1 17 -38 0 -24 7 -54
16 -66 9 -13 14 -25 12 -28 -2 -2 -47 -12 -99 -23 -161 -33 -527 -127 -679
-175 -156 -48 -397 -142 -467 -181 -32 -17 -52 -22 -78 -18 -100 16 -284 -49
-780 -274 -72 -33 -162 -63 -260 -88 -82 -20 -186 -48 -230 -62 -80 -25 -289
-124 -378 -180 l-48 -29 -89 30 c-83 29 -112 46 -75 46 16 0 195 91 385 195
625 342 1211 564 2000 760 124 30 254 65 290 77 74 24 155 63 165 78 4 6 14 8
24 4 9 -4 72 -10 141 -13z m3117 9 c69 0 124 -80 170 -247 25 -93 27 -110 27
-333 1 -210 -2 -247 -23 -350 -49 -238 -112 -388 -201 -483 -56 -60 -60 -62
-108 -62 -64 0 -97 29 -141 125 -46 98 -63 192 -71 390 -3 96 -7 158 -8 137
-1 -23 -6 -36 -12 -32 -5 3 -10 1 -10 -4 0 -6 5 -11 10 -11 6 0 10 -12 10 -26
0 -19 -4 -25 -17 -22 -13 3 -17 12 -15 33 1 17 2 39 3 49 0 10 6 28 14 39 7
10 11 26 8 33 -3 8 -1 14 4 14 11 0 11 40 0 58 -5 7 -5 21 -2 33 6 17 9 18 23
7 14 -11 14 -10 0 8 -20 23 -24 39 -7 28 7 -4 9 0 5 13 -4 11 1 47 10 79 8 33
17 75 19 94 3 41 25 124 30 118 2 -2 -2 -28 -10 -58 -25 -95 -15 -79 29 45 23
66 52 138 63 161 27 51 107 141 134 149 11 4 18 9 15 12 -9 9 -73 -37 -101
-72 -25 -34 -50 -40 -39 -10 4 8 9 13 14 10 10 -6 47 39 42 53 -2 8 2 10 14 5
12 -4 15 -3 10 5 -4 8 -2 10 7 6 8 -3 18 0 22 6 4 7 17 9 29 6 11 -3 35 -6 53
-6z m-1257 -144 c0 -72 -21 -296 -50 -531 -31 -251 -27 -235 -67 -251 -245
-103 -823 -413 -1083 -582 -119 -77 -250 -178 -250 -193 0 -28 635 222 1184
465 131 59 240 105 242 103 2 -1 -24 -61 -56 -132 -40 -88 -66 -133 -82 -141
-13 -6 -259 -114 -548 -239 -595 -258 -728 -319 -795 -365 -25 -17 -48 -30
-51 -27 -3 2 0 25 5 49 32 140 45 388 45 851 l1 467 120 51 c171 72 648 261
935 369 135 51 288 110 340 131 52 20 98 37 103 38 4 1 7 -28 7 -63z m-6640
28 c0 -17 -31 -55 -114 -139 -51 -51 -114 -125 -141 -163 -45 -67 -48 -76 -56
-157 -4 -48 -10 -89 -12 -91 -3 -3 -17 -2 -31 2 -33 8 -52 43 -61 115 -6 46
-3 63 14 96 26 52 125 151 226 226 44 33 79 64 77 69 -1 5 1 7 6 4 5 -3 24 6
43 19 34 24 49 30 49 19z m7685 -43 c-3 -12 -10 -21 -15 -21 -5 0 -4 11 2 25
13 29 23 26 13 -4z m-7800 -9 c-6 -4 -46 -35 -90 -67 -43 -33 -124 -102 -180
-154 l-100 -94 100 100 c86 86 254 223 273 223 3 0 2 -4 -3 -8z m5121 -37 c16
-40 69 -247 80 -313 6 -41 6 -43 -26 -55 -80 -29 -216 -97 -225 -111 -7 -12
-2 -32 24 -81 35 -68 48 -77 73 -47 17 19 110 192 104 192 -11 0 -127 -84
-134 -97 -7 -12 -13 -13 -31 -4 -11 7 -21 15 -21 19 0 4 56 35 124 68 l124 61
6 -30 c12 -58 8 -67 -36 -87 -51 -22 -43 -27 9 -5 19 8 37 15 38 15 2 0 6 -91
10 -202 10 -291 -12 -808 -46 -1084 -10 -84 -13 -92 -39 -107 -15 -10 -30 -17
-32 -17 -2 0 2 46 9 103 27 231 7 497 -52 702 -14 50 -53 146 -87 215 -53 106
-73 135 -138 202 -107 109 -180 143 -306 143 -86 0 -94 -2 -175 -42 -134 -67
-249 -175 -358 -335 -18 -27 -35 -48 -39 -48 -4 0 -45 7 -92 15 -113 20 -245
18 -352 -4 -49 -10 -88 -16 -88 -13 0 3 13 17 29 31 15 14 69 73 118 131 182
214 217 275 211 368 l-3 56 55 28 c223 110 503 196 1115 342 134 32 133 32
151 -9z m2650 -22 c-8 -15 -15 -25 -16 -21 0 12 23 58 27 54 3 -2 -2 -17 -11
-33z m-25 -60 c-8 -15 -10 -15 -11 -2 0 17 10 32 18 25 2 -3 -1 -13 -7 -23z
m-8111 -206 c0 -2 -10 -12 -22 -23 l-23 -19 19 23 c18 21 26 27 26 19z m4113
-97 c-27 -26 -439 -291 -493 -317 -70 -34 -188 -61 -388 -89 -122 -17 -123
-17 -175 4 -29 12 -59 22 -66 22 -31 0 0 11 110 39 83 21 188 62 384 149 306
136 417 177 525 196 74 12 119 11 103 -4z m-4139 -82 c10 -79 41 -135 87 -158
54 -28 43 -50 -26 -50 -58 0 -74 12 -99 71 -27 65 -30 130 -6 167 11 18 24 31
29 28 5 -3 11 -29 15 -58z m4156 57 c0 -6 -337 -229 -370 -244 -32 -15 -33
-15 183 130 164 111 187 125 187 114z m-4238 -69 c-5 -64 19 -154 51 -191 19
-22 30 -26 82 -26 54 -1 58 -2 40 -16 -14 -10 -36 -13 -74 -10 -45 3 -59 9
-82 35 -31 34 -54 123 -44 168 9 38 26 94 29 94 1 0 1 -24 -2 -54z m115 2 c-3
-7 -5 -2 -5 12 0 14 2 19 5 13 2 -7 2 -19 0 -25z m133 -25 c0 -5 -5 -15 -10
-23 -8 -12 -10 -11 -10 8 0 12 5 22 10 22 6 0 10 -3 10 -7z m-77 -85 c12 -11
16 -18 8 -16 -19 5 -48 46 -55 78 -4 17 -1 15 10 -9 8 -19 25 -42 37 -53z
m4954 37 c202 -60 366 -306 445 -669 20 -89 23 -130 22 -341 0 -305 -12 -374
-65 -375 -15 0 -16 5 -6 43 16 62 15 485 -1 577 -69 388 -231 628 -453 670
-63 12 -144 -5 -222 -48 -80 -43 -217 -180 -293 -290 -3 -5 -74 31 -74 38 0
19 130 177 198 241 154 145 305 197 449 154z m-5159 -180 c33 -47 86 -69 150
-62 52 6 75 25 92 76 12 37 15 39 64 45 87 10 106 8 106 -12 0 -66 165 -122
545 -186 672 -112 1134 -139 1333 -77 l63 19 86 -29 c47 -16 88 -31 90 -33 3
-2 -16 -18 -41 -36 -25 -17 -46 -35 -46 -40 0 -26 246 -117 375 -140 81 -14
293 2 595 46 288 42 373 69 474 152 41 34 60 42 135 55 157 29 203 30 333 12
67 -10 124 -19 126 -20 2 -2 -11 -25 -28 -53 -76 -123 -167 -348 -230 -571
-73 -254 -109 -459 -130 -736 -17 -225 -28 -293 -60 -355 -46 -92 -70 -106
-187 -114 -249 -15 -419 -17 -678 -7 -253 10 -291 14 -400 41 -129 32 -244 48
-565 80 -334 34 -796 96 -734 99 11 1 65 -6 120 -14 333 -50 796 -91 1192
-106 321 -13 697 -2 912 26 122 16 323 55 317 62 -2 2 -60 -6 -128 -16 -213
-35 -314 -42 -644 -48 -1058 -19 -2379 168 -3055 432 -146 57 -257 122 -332
194 -50 49 -58 62 -58 94 0 21 8 54 17 75 12 27 17 64 16 142 0 82 2 95 8 60
15 -81 42 -160 56 -160 17 0 17 0 -8 88 -11 40 -18 76 -15 79 8 8 48 -87 75
-174 15 -52 35 -89 72 -135 28 -35 54 -69 59 -77 6 -12 13 -11 36 6 l29 21
100 -48 c396 -191 1302 -366 2148 -416 112 -6 118 -8 123 -30 7 -28 24 -32 24
-5 0 51 -122 164 -245 226 -90 45 -155 58 -455 90 -588 62 -1042 150 -1453
279 -97 31 -184 56 -192 56 -18 0 -31 -24 -40 -73 -7 -37 -39 -87 -55 -87 -20
0 -100 130 -120 195 -12 39 -26 80 -31 93 -10 27 -5 28 29 3 261 -184 1159
-378 1987 -431 423 -26 774 -22 1300 16 238 17 308 31 105 20 -428 -22 -536
-26 -815 -26 -705 0 -1359 74 -1950 220 -346 85 -568 172 -670 262 -58 51 -72
79 -81 157 l-7 63 26 -16 c29 -20 67 -14 93 15 17 18 15 22 -48 87 -106 110
-102 99 -93 280 4 86 10 186 14 222 l6 65 24 -62 c28 -74 113 -207 147 -229
22 -15 29 -14 96 6 60 19 88 21 158 17 240 -16 1323 -192 1583 -258 77 -19
247 -89 472 -191 243 -111 265 -115 43 -7 -254 125 -429 197 -538 223 -229 55
-1012 185 -1432 238 -176 22 -179 22 -246 4 -123 -34 -125 -34 -166 20 -51 66
-116 201 -123 253 -5 38 0 55 43 138 l48 94 13 -63 c7 -36 25 -80 41 -103z
m29 19 c19 -29 83 -48 138 -41 31 5 36 3 21 -5 -24 -13 -111 -3 -141 16 -26
17 -53 70 -60 118 -4 23 -1 18 11 -16 8 -27 22 -59 31 -72z m3993 44 c-1 -51
-54 -172 -85 -192 l-23 -15 18 37 c10 20 28 70 41 110 13 41 29 72 36 72 7 0
13 -6 13 -12z m-150 -2 c0 -14 -126 -80 -190 -100 -85 -27 -335 -71 -455 -81
-80 -7 -188 10 -237 36 -34 18 -13 20 33 3 138 -52 671 31 814 126 32 21 35
23 35 16z m181 -46 c-18 -46 -68 -140 -75 -140 -2 0 13 43 32 95 20 54 41 95
49 95 10 0 9 -12 -6 -50z m-110 -32 c-22 -65 -64 -138 -81 -138 -8 0 6 35 58
150 37 83 52 76 23 -12z m-56 10 c-9 -24 -20 -45 -24 -48 -4 -3 -20 -26 -35
-52 -15 -25 -34 -52 -43 -60 -15 -12 -15 -11 -1 12 9 14 31 54 50 90 44 83 61
110 66 105 3 -2 -3 -23 -13 -47z m-40 5 c-14 -21 -38 -64 -55 -95 -26 -50 -50
-80 -50 -63 0 3 13 33 30 67 16 34 27 64 25 66 -4 5 -76 -94 -94 -130 -8 -16
-18 -28 -23 -28 -11 0 5 30 51 94 45 64 59 79 69 72 5 -3 21 8 36 25 37 39 41
37 11 -8z m205 -40 c-23 -41 -23 -38 0 20 8 21 16 34 18 28 2 -5 -6 -27 -18
-48z m3170 -30 c22 -47 39 -87 37 -89 -6 -7 -355 -162 -552 -246 -330 -140
-827 -338 -851 -338 -12 0 68 60 171 129 204 137 458 279 850 477 165 84 301
152 303 153 1 0 20 -38 42 -86z m930 67 c11 -7 11 -10 2 -10 -9 0 -10 -5 -2
-19 16 -30 12 -39 -15 -33 -19 3 -25 10 -25 31 0 40 12 49 40 31z m-4461 -87
c-54 -89 -70 -113 -74 -113 -8 0 66 134 79 142 19 13 18 9 -5 -29z m4415 -5
c-4 -7 4 -8 25 -3 28 6 31 4 31 -16 0 -18 -3 -20 -12 -11 -7 7 -22 12 -35 12
-17 0 -23 6 -23 21 0 11 5 17 10 14 6 -4 7 -11 4 -17z m-4529 -40 c-14 -25
-35 -53 -46 -64 -20 -17 -20 -15 3 21 14 22 33 53 42 68 28 46 29 25 1 -25z
m65 46 c0 -11 -51 -93 -66 -105 -9 -7 -1 15 18 49 28 53 48 76 48 56z m1487
-16 c268 -126 398 -722 277 -1268 -56 -252 -160 -504 -268 -652 -101 -138
-259 -248 -356 -248 -76 0 -139 27 -196 85 -163 167 -252 539 -224 935 13 181
33 305 70 423 16 50 27 93 26 95 -4 3 -25 -53 -49 -128 -9 -31 -20 -46 -33
-47 -17 -2 -17 -1 -1 3 11 4 16 12 13 20 -3 8 -2 14 3 14 5 0 11 16 14 36 9
55 49 137 59 122 6 -9 8 -7 5 7 -5 30 74 214 134 312 61 99 172 216 242 257
101 59 204 72 284 34z m-1594 -18 c-3 -11 -9 -23 -14 -26 -5 -3 -6 3 -2 12 12
31 -17 4 -47 -44 -29 -46 -41 -52 -19 -9 13 26 70 87 80 87 4 0 5 -9 2 -20z
m-62 -7 c-5 -10 -24 -34 -41 -53 l-31 -35 32 53 c17 28 35 52 40 52 6 0 6 -7
0 -17z m-441 3 c0 -2 -8 -10 -17 -17 -16 -13 -17 -12 -4 4 13 16 21 21 21 13z
m379 -33 c-12 -21 -34 -49 -48 -63 -14 -14 -18 -16 -9 -5 8 11 25 39 37 63 12
23 26 42 32 42 6 0 1 -17 -12 -37z m421 17 c-6 -11 -13 -20 -16 -20 -2 0 0 9
6 20 6 11 13 20 16 20 2 0 0 -9 -6 -20z m995 10 c-3 -5 -12 -10 -18 -10 -7 0
-6 4 3 10 19 12 23 12 15 0z m3295 0 c13 -9 13 -10 0 -10 -8 0 -22 5 -30 10
-13 9 -13 10 0 10 8 0 22 -5 30 -10z m-5056 -15 c-10 -8 -23 -15 -28 -15 -6 0
-1 7 10 15 10 8 23 15 28 15 6 0 1 -7 -10 -15z m260 -15 c-19 -20 -20 -20 -20
-1 0 11 4 18 7 15 4 -2 11 1 14 7 4 5 10 8 13 4 3 -3 -3 -14 -14 -25z m-205
16 c-2 -2 -15 -9 -29 -15 -24 -11 -24 -11 -6 3 16 13 49 24 35 12z m14 -34
c-21 -21 -40 -37 -42 -35 -6 4 61 73 71 73 4 0 -9 -17 -29 -38z m86 35 c-2 -2
-31 -28 -64 -57 l-60 -54 55 57 c30 31 59 57 64 57 5 0 7 -1 5 -3z m41 -27
c-12 -16 -24 -30 -26 -30 -3 0 3 14 13 30 9 17 21 30 26 30 5 0 -1 -13 -13
-30z m-39 -7 c-39 -52 -48 -63 -55 -63 -4 0 10 20 31 45 41 50 56 60 24 18z
m4949 -5 c1 -18 6 -63 13 -99 l13 -66 -45 10 c-25 5 -50 13 -55 18 -12 11 -3
11 47 0 29 -7 37 -6 37 5 0 8 -6 11 -17 7 -9 -4 -14 -2 -11 3 3 5 -7 9 -24 10
-30 1 -57 19 -45 30 3 4 25 2 47 -4 30 -7 40 -7 37 1 -2 6 -20 16 -40 20 -31
7 -37 13 -37 34 0 24 3 25 35 20 19 -3 35 -2 35 4 0 5 -12 9 -27 10 -16 0 -37
4 -48 9 -14 7 -9 8 18 4 24 -4 37 -2 37 5 0 6 7 11 15 11 10 0 15 -10 15 -32z
m-4667 7 c-3 -9 -8 -14 -10 -11 -3 3 -2 9 2 15 9 16 15 13 8 -4z m-433 -9 c0
-2 -8 -10 -17 -17 -16 -13 -17 -12 -4 4 13 16 21 21 21 13z m210 0 c0 -2 -8
-10 -17 -17 -16 -13 -17 -12 -4 4 13 16 21 21 21 13z m50 0 c0 -2 -8 -10 -17
-17 -16 -13 -17 -12 -4 4 13 16 21 21 21 13z m1372 -51 c-28 -30 -72 -89 -97
-130 -49 -78 -68 -99 -39 -42 30 59 76 121 128 175 66 69 72 67 8 -3z m-789
24 c-34 -34 -652 -129 -858 -132 -128 -2 -183 7 -295 51 -83 32 -100 46 -72
61 16 8 50 3 159 -26 125 -34 149 -37 263 -37 154 1 365 24 615 68 105 18 192
31 194 29 3 -2 0 -8 -6 -14z m-883 -3 c0 -2 -8 -10 -17 -17 -16 -13 -17 -12
-4 4 13 16 21 21 21 13z m50 -11 c0 -2 -10 -9 -22 -15 -22 -11 -22 -10 -4 4
21 17 26 19 26 11z m1455 -19 c19 -8 35 -17 35 -19 0 -3 -19 -36 -42 -73 -113
-187 -212 -450 -272 -724 -47 -215 -63 -341 -82 -643 -6 -108 -17 -137 -49
-137 -8 0 -16 -4 -19 -9 -3 -4 6 -6 19 -3 31 5 31 -6 5 -59 -27 -52 -89 -113
-129 -127 l-32 -11 31 31 c70 69 80 112 105 428 36 462 137 856 306 1198 44
89 82 162 85 162 2 0 20 -7 39 -14z m-738 -32 c-3 -3 -12 -4 -19 -1 -8 3 -5 6
6 6 11 1 17 -2 13 -5z m-50 -10 c-3 -3 -12 -4 -19 -1 -8 3 -5 6 6 6 11 1 17
-2 13 -5z m4327 -118 c13 -28 37 -67 52 -86 l28 -35 -28 25 c-35 30 -96 158
-95 197 1 25 2 23 10 -10 5 -21 20 -62 33 -91z m-4371 107 c-7 -2 -19 -2 -25
0 -7 3 -2 5 12 5 14 0 19 -2 13 -5z m-46 -9 c-3 -3 -12 -4 -19 -1 -8 3 -5 6 6
6 11 1 17 -2 13 -5z m-54 -11 c-7 -2 -19 -2 -25 0 -7 3 -2 5 12 5 14 0 19 -2
13 -5z m4409 -22 c3 -19 0 -27 -7 -24 -7 2 -10 15 -7 29 6 31 9 30 14 -5z
m-5431 -16 c30 -14 43 -22 29 -19 -26 7 -100 43 -89 44 4 0 31 -11 60 -25z
m906 19 c-3 -3 -12 -4 -19 -1 -8 3 -5 6 6 6 11 1 17 -2 13 -5z m228 -4 c-11
-5 -29 -8 -40 -8 -16 0 -15 2 5 8 34 11 60 11 35 0z m-292 -7 c-7 -2 -19 -2
-25 0 -7 3 -2 5 12 5 14 0 19 -2 13 -5z m4765 -31 c11 -14 12 -14 13 4 0 11 6
4 14 -18 20 -54 71 -125 103 -143 27 -15 26 -15 -23 -13 -27 2 -53 7 -56 11
-3 5 -14 10 -24 11 -11 2 -21 9 -23 17 -3 11 -1 11 8 -1 10 -12 11 -11 7 8 -5
22 -4 23 18 8 12 -8 25 -12 29 -9 12 12 -16 42 -78 82 -35 23 -66 50 -69 60
-4 17 -1 18 32 9 20 -5 42 -17 49 -26z m-4861 22 c-3 -3 -12 -4 -19 -1 -8 3
-5 6 6 6 11 1 17 -2 13 -5z m322 1 c-7 -7 -190 -35 -219 -34 -14 1 22 9 80 19
115 19 146 22 139 15z m-402 -11 c-3 -3 -12 -4 -19 -1 -8 3 -5 6 6 6 11 1 17
-2 13 -5z m4761 -35 c-3 -8 -7 -3 -11 10 -4 17 -3 21 5 13 5 -5 8 -16 6 -23z
m102 -4 c0 -5 -5 -3 -10 5 -5 8 -10 20 -10 25 0 6 5 3 10 -5 5 -8 10 -19 10
-25z m-5360 -7 c55 -14 108 -20 200 -21 123 0 124 0 40 -7 -47 -4 -114 -3
-150 2 -69 9 -200 45 -200 54 0 4 8 3 18 -1 9 -4 51 -16 92 -27z m535 2 c-66
-10 -140 -18 -165 -18 -25 0 14 8 85 18 72 9 146 17 165 17 19 0 -19 -8 -85
-17z m4875 -32 c0 -6 8 -21 18 -32 17 -21 17 -21 -5 -3 -20 18 -40 63 -22 51
5 -3 9 -10 9 -16z m30 -8 c0 -5 -2 -10 -4 -10 -3 0 -8 5 -11 10 -3 6 -1 10 4
10 6 0 11 -4 11 -10z m-149 -17 c13 -16 12 -17 -3 -4 -10 7 -18 15 -18 17 0 8
8 3 21 -13z m-30 -30 c13 -16 12 -17 -3 -4 -10 7 -18 15 -18 17 0 8 8 3 21
-13z m71 -8 c3 3 11 -1 18 -10 17 -21 -3 -19 -27 3 -10 9 -14 14 -8 10 7 -4
14 -6 17 -3z m-91 -12 c13 -16 12 -17 -3 -4 -10 7 -18 15 -18 17 0 8 8 3 21
-13z m60 -10 c13 -16 12 -17 -3 -4 -10 7 -18 15 -18 17 0 8 8 3 21 -13z m140
-10 c13 -16 12 -17 -3 -4 -10 7 -18 15 -18 17 0 8 8 3 21 -13z m-8272 -181
c-17 -7 -81 50 -95 84 -23 54 -17 52 45 -16 32 -36 55 -67 50 -68z m-102 -164
c-3 -8 -6 -5 -6 6 -1 11 2 17 5 13 3 -3 4 -12 1 -19z m4573 -48 c0 -5 -5 -10
-11 -10 -5 0 -7 5 -4 10 3 6 8 10 11 10 2 0 4 -4 4 -10z m-23 -102 c-3 -8 -6
-5 -6 6 -1 11 2 17 5 13 3 -3 4 -12 1 -19z m-17 -118 c0 -5 -9 -10 -20 -10
-11 0 -20 5 -20 10 0 6 9 10 20 10 11 0 20 -4 20 -10z m1224 -126 c-37 -101
-51 -123 -102 -155 -60 -38 -70 -37 -29 5 36 36 68 97 86 163 10 38 21 48 57
52 7 1 2 -24 -12 -65z m-1291 -171 c-7 -2 -19 -2 -25 0 -7 3 -2 5 12 5 14 0
19 -2 13 -5z m64 -145 c-2 -13 -4 -5 -4 17 -1 22 1 32 4 23 2 -10 2 -28 0 -40z
m13 -78 c0 -5 -8 -10 -17 -10 -15 0 -16 2 -3 10 19 12 20 12 20 0z m-103 -6
c-3 -3 -12 -4 -19 -1 -8 3 -5 6 6 6 11 1 17 -2 13 -5z m113 -54 c0 -24 -3 -28
-17 -23 -11 4 -12 8 -5 11 18 6 14 30 -5 35 -14 4 -12 5 5 6 18 1 22 -4 22
-29z m12 -68 c4 -15 0 -17 -31 -13 l-36 4 30 13 c17 7 31 13 31 14 1 0 4 -8 6
-18z m-145 -14 c-3 -8 -6 -5 -6 6 -1 11 2 17 5 13 3 -3 4 -12 1 -19z m-2980 6
c-3 -3 -12 -4 -19 -1 -8 3 -5 6 6 6 11 1 17 -2 13 -5z m56 -11 c-7 -2 -19 -2
-25 0 -7 3 -2 5 12 5 14 0 19 -2 13 -5z m70 -10 c-7 -2 -21 -2 -30 0 -10 3 -4
5 12 5 17 0 24 -2 18 -5z m50 -10 c-7 -2 -19 -2 -25 0 -7 3 -2 5 12 5 14 0 19
-2 13 -5z m2814 -15 c-3 -8 -6 -5 -6 6 -1 11 2 17 5 13 3 -3 4 -12 1 -19z
m147 7 c4 -10 -1 -15 -16 -15 -17 0 -18 2 -8 15 7 8 14 15 15 15 2 0 5 -7 9
-15z m-66 -2 c-10 -2 -26 -2 -35 0 -10 3 -2 5 17 5 19 0 27 -2 18 -5z m-71
-45 c-3 -8 -6 -5 -6 6 -1 11 2 17 5 13 3 -3 4 -12 1 -19z m151 -3 c4 -17 0
-17 -117 0 -8 1 -17 7 -19 13 -3 9 16 11 65 8 53 -4 69 -8 71 -21z m-117 -61
c2 2 5 -8 6 -22 l1 -27 -13 25 c-7 14 -15 36 -19 50 -5 23 -5 23 7 -3 7 -15
15 -25 18 -23z m86 20 c-3 -3 -12 -4 -19 -1 -8 3 -5 6 6 6 11 1 17 -2 13 -5z
m928 -4 c-3 -5 -12 -10 -18 -10 -7 0 -6 4 3 10 19 12 23 12 15 0z m-1141 -71
c4 -8 -1 -3 -12 10 -12 15 -17 32 -14 45 5 18 7 17 12 -10 4 -17 10 -37 14
-45z m86 26 c0 -5 -5 -3 -10 5 -5 8 -10 20 -10 25 0 6 5 3 10 -5 5 -8 10 -19
10 -25z m78 -6 c-8 -6 -1 -9 22 -9 26 0 31 -3 20 -10 -12 -8 -11 -10 7 -10 15
0 21 5 17 14 -6 15 11 16 33 3 6 -4 13 -2 15 4 2 6 9 1 15 -12 l10 -24 -63 5
c-63 5 -86 17 -90 44 -1 9 4 12 13 9 12 -5 12 -7 1 -14z m-224 -45 c3 -8 2
-12 -4 -9 -6 3 -10 10 -10 16 0 14 7 11 14 -7z m180 -21 c9 -18 14 -33 12 -33
-6 0 -36 55 -36 66 0 11 5 3 24 -33z m34 -118 l37 -40 -39 35 c-36 33 -106
129 -106 147 0 4 16 -17 36 -47 19 -30 52 -73 72 -95z m121 125 c32 0 39 -5
59 -43 19 -35 20 -38 3 -19 -10 12 -25 22 -33 22 -10 0 -10 2 1 9 10 6 2 9
-25 9 -21 0 -54 3 -71 7 -41 9 -41 0 -1 -55 18 -24 27 -40 19 -36 -7 5 -26 29
-42 54 -32 51 -26 67 25 57 16 -3 45 -5 65 -5z m-245 -17 c4 -10 4 -14 0 -10
-4 4 -14 1 -22 -6 -13 -11 -14 -9 -1 11 17 26 15 26 23 5z m-104 -37 c0 -22
106 -113 153 -131 26 -10 45 -20 43 -22 -2 -3 -31 7 -64 22 -45 20 -74 43
-116 92 -54 63 -77 105 -36 68 11 -10 20 -23 20 -29z m-59 7 c13 -16 12 -17
-3 -4 -10 7 -18 15 -18 17 0 8 8 3 21 -13z m-35 -41 c13 4 65 -33 59 -42 -4
-6 45 -30 61 -30 2 0 -16 18 -39 41 -36 35 -33 34 21 -10 35 -28 68 -51 74
-51 6 0 9 -2 6 -5 -9 -10 -113 28 -153 55 -22 15 -53 43 -70 62 l-30 33 31
-28 c17 -15 35 -27 40 -25z m144 28 c6 -11 8 -20 6 -20 -3 0 -10 9 -16 20 -6
11 -8 20 -6 20 3 0 10 -9 16 -20z m163 -92 c34 -31 63 -55 67 -53 3 2 12 0 20
-6 25 -15 -15 -11 -55 6 -36 14 -149 114 -140 123 2 3 -3 11 -13 19 -16 12
-16 13 1 7 11 -4 17 -1 17 7 0 8 10 1 22 -16 12 -16 48 -56 81 -87z m13 90 c3
-4 -1 -5 -10 -4 -8 1 -18 5 -22 8 -3 4 1 5 10 4 8 -1 18 -5 22 -8z m19 -37 c0
-5 15 -20 33 -35 17 -16 30 -31 27 -35 -4 -8 21 -23 59 -35 10 -4 16 -9 13
-12 -3 -3 -27 4 -52 17 -48 24 -70 43 -38 33 10 -3 -1 11 -25 31 -23 20 -39
41 -36 47 6 10 19 2 19 -11z m-146 -35 c-2 -2 -13 8 -23 22 l-19 27 24 -22
c12 -12 21 -24 18 -27z m377 -4 c21 -27 41 -49 44 -50 3 0 25 -10 50 -21 45
-20 45 -20 13 -20 -17 -1 -35 4 -38 9 -3 6 -17 10 -30 10 -12 0 -25 7 -29 15
-3 8 -1 15 5 15 6 0 -2 15 -18 34 -24 30 -33 34 -60 29 -31 -5 -42 4 -26 20
19 19 52 4 89 -41z m-96 -28 c0 3 9 -2 20 -11 18 -15 37 -23 67 -25 7 -1 10
-5 7 -9 -2 -4 10 -10 28 -12 23 -3 20 -4 -7 -2 -52 3 -103 27 -152 71 l-38 35
38 -26 c20 -15 37 -25 37 -21z m-1347 -281 c-7 -2 -19 -2 -25 0 -7 3 -2 5 12
5 14 0 19 -2 13 -5z m-1946 -9 c-3 -3 -12 -4 -19 -1 -8 3 -5 6 6 6 11 1 17 -2
13 -5z"/>
<path d="M5298 6563 c7 -3 16 -2 19 1 4 3 -2 6 -13 5 -11 0 -14 -3 -6 -6z"/>
<path d="M5258 6553 c7 -3 16 -2 19 1 4 3 -2 6 -13 5 -11 0 -14 -3 -6 -6z"/>
<path d="M5198 6543 c7 -3 16 -2 19 1 4 3 -2 6 -13 5 -11 0 -14 -3 -6 -6z"/>
<path d="M5148 6533 c7 -3 16 -2 19 1 4 3 -2 6 -13 5 -11 0 -14 -3 -6 -6z"/>
<path d="M5098 6523 c7 -3 16 -2 19 1 4 3 -2 6 -13 5 -11 0 -14 -3 -6 -6z"/>
<path d="M5048 6513 c7 -3 16 -2 19 1 4 3 -2 6 -13 5 -11 0 -14 -3 -6 -6z"/>
<path d="M4580 6450 c-9 -6 -10 -10 -3 -10 6 0 15 5 18 10 8 12 4 12 -15 0z"/>
<path d="M4478 6413 c7 -3 16 -2 19 1 4 3 -2 6 -13 5 -11 0 -14 -3 -6 -6z"/>
<path d="M4428 6403 c7 -3 16 -2 19 1 4 3 -2 6 -13 5 -11 0 -14 -3 -6 -6z"/>
<path d="M4378 6393 c6 -2 18 -2 25 0 6 3 1 5 -13 5 -14 0 -19 -2 -12 -5z"/>
<path d="M4328 6383 c6 -2 18 -2 25 0 6 3 1 5 -13 5 -14 0 -19 -2 -12 -5z"/>
<path d="M3195 6318 c-126 -132 -159 -168 -154 -168 3 0 54 52 113 115 59 63
106 115 104 115 -2 0 -30 -28 -63 -62z"/>
<path d="M4278 6373 c6 -2 18 -2 25 0 6 3 1 5 -13 5 -14 0 -19 -2 -12 -5z"/>
<path d="M4228 6363 c7 -3 16 -2 19 1 4 3 -2 6 -13 5 -11 0 -14 -3 -6 -6z"/>
<path d="M4178 6353 c7 -3 16 -2 19 1 4 3 -2 6 -13 5 -11 0 -14 -3 -6 -6z"/>
<path d="M4118 6343 c6 -2 18 -2 25 0 6 3 1 5 -13 5 -14 0 -19 -2 -12 -5z"/>
<path d="M4068 6333 c6 -2 18 -2 25 0 6 3 1 5 -13 5 -14 0 -19 -2 -12 -5z"/>
<path d="M4018 6323 c7 -3 16 -2 19 1 4 3 -2 6 -13 5 -11 0 -14 -3 -6 -6z"/>
<path d="M3978 6313 c7 -3 16 -2 19 1 4 3 -2 6 -13 5 -11 0 -14 -3 -6 -6z"/>
<path d="M3928 6303 c7 -3 16 -2 19 1 4 3 -2 6 -13 5 -11 0 -14 -3 -6 -6z"/>
<path d="M3878 6293 c7 -3 16 -2 19 1 4 3 -2 6 -13 5 -11 0 -14 -3 -6 -6z"/>
<path d="M3778 6273 c7 -3 16 -2 19 1 4 3 -2 6 -13 5 -11 0 -14 -3 -6 -6z"/>
<path d="M3388 6103 c7 -3 16 -2 19 1 4 3 -2 6 -13 5 -11 0 -14 -3 -6 -6z"/>
<path d="M3458 6093 c7 -3 16 -2 19 1 4 3 -2 6 -13 5 -11 0 -14 -3 -6 -6z"/>
<path d="M3528 6083 c12 -2 30 -2 40 0 9 3 -1 5 -23 4 -22 0 -30 -2 -17 -4z"/>
<path d="M9034 6290 c-12 -5 -24 -20 -28 -33 -5 -20 -20 -31 -68 -49 -48 -18
-64 -29 -66 -46 -4 -28 5 -28 99 3 97 33 109 42 119 93 7 39 6 42 -14 41 -11
0 -31 -4 -42 -9z m46 -15 c0 -28 -23 -63 -49 -75 -14 -7 -52 -20 -83 -30 -46
-14 -58 -15 -58 -5 0 8 29 23 65 35 56 19 65 25 65 46 0 16 8 28 23 34 31 13
37 12 37 -5z"/>
<path d="M8635 4591 c-248 -95 -1606 -686 -1810 -789 -120 -60 -220 -120 -212
-128 3 -3 29 10 58 29 83 53 206 112 539 260 355 157 1338 581 1455 627 44 17
82 34 84 36 11 10 -22 0 -114 -35z"/>
<path d="M7994 5916 c-19 -9 -35 -25 -42 -44 -7 -20 -19 -32 -39 -36 -103 -26
-131 -38 -137 -59 -3 -12 -2 -25 2 -28 7 -7 178 39 235 62 31 13 47 44 47 90
0 33 -16 37 -66 15z m53 -13 c-3 -10 -8 -30 -11 -44 -4 -17 -16 -31 -33 -37
-52 -21 -206 -62 -212 -57 -10 11 19 27 90 48 64 20 76 27 88 54 8 18 26 37
40 42 38 14 43 13 38 -6z"/>
<path d="M6778 5843 c6 -2 18 -2 25 0 6 3 1 5 -13 5 -14 0 -19 -2 -12 -5z"/>
<path d="M2126 4982 c-9 -14 19 -33 38 -26 24 9 20 -2 -23 -59 -41 -56 -65
-97 -56 -97 3 0 20 13 38 30 19 16 55 46 82 65 41 29 55 34 85 29 19 -3 46 -1
60 4 24 10 24 11 -25 33 -55 24 -188 39 -199 21z m134 -30 c0 -6 -70 -57 -120
-86 -15 -9 0 12 49 67 22 24 71 38 71 19z m40 -2 c8 -5 12 -11 10 -14 -3 -2
-14 2 -24 10 -22 15 -10 19 14 4z"/>
<path d="M9395 5742 c-69 -43 -118 -119 -165 -257 -78 -226 -108 -535 -69
-720 17 -78 60 -219 70 -230 7 -7 8 -5 5 5 -3 8 12 83 32 165 l38 150 39 3
c87 7 98 0 145 -98 45 -97 55 -109 64 -84 9 23 7 31 -4 14 -7 -12 -10 -11 -16
5 -3 11 -36 82 -72 157 -61 130 -66 136 -81 118 -9 -11 -29 -21 -45 -22 -41
-4 -56 26 -45 89 5 27 12 77 15 114 6 63 5 68 -39 152 l-45 87 21 70 c11 40
24 67 30 63 6 -3 7 -1 3 6 -8 13 43 125 71 156 10 11 27 27 38 35 11 8 6 -1
-11 -20 -35 -40 -60 -79 -74 -115 -14 -38 -3 -30 17 12 10 21 38 59 63 85 25
26 41 50 36 52 -6 2 9 5 33 5 38 1 48 -4 77 -36 31 -34 47 -72 24 -58 -5 3
-10 12 -10 20 0 18 -62 65 -86 65 -13 0 -7 -6 16 -19 19 -10 48 -36 63 -57
l28 -40 -65 -161 c-35 -89 -66 -172 -68 -185 l-3 -23 -17 25 c-15 22 -16 32
-6 65 26 94 84 355 78 355 -3 0 -23 -75 -44 -167 -43 -188 -49 -205 -73 -196
-18 7 -17 6 29 -63 15 -23 28 -47 28 -53 0 -6 5 -11 10 -11 6 0 10 9 10 21 0
36 18 57 88 102 37 24 74 52 82 63 17 22 20 24 -94 -58 -36 -26 -66 -44 -66
-40 0 14 123 313 127 309 17 -18 54 -199 60 -294 l6 -113 -24 0 c-13 0 -64 -8
-113 -18 -88 -19 -88 -19 -108 2 -41 43 -72 132 -92 266 -8 47 -14 72 -15 55
0 -16 6 -72 14 -124 8 -52 11 -99 8 -104 -3 -6 -1 -7 5 -3 6 3 13 -3 17 -14 4
-11 22 -41 41 -66 20 -25 33 -52 30 -60 -7 -19 0 -18 23 5 11 11 46 23 87 30
38 6 82 14 98 17 l29 6 -7 -92 c-7 -95 -34 -238 -60 -325 -8 -27 -14 -51 -11
-53 5 -6 43 126 61 211 8 40 18 155 21 258 6 185 5 186 -27 315 -35 141 -67
215 -104 239 -39 26 -87 28 -121 7z m179 -118 c3 -8 2 -12 -4 -9 -6 3 -10 10
-10 16 0 14 7 11 14 -7z m-318 -326 c32 -63 36 -78 30 -121 -7 -62 -26 -91
-74 -116 -45 -23 -57 -22 -54 4 6 48 55 305 58 305 2 0 20 -32 40 -72z m12
-271 c-5 -62 -87 -245 -100 -224 -4 6 -8 57 -8 113 l0 101 40 18 c22 10 45 24
51 32 19 22 22 15 17 -40z m22 -107 c9 -35 7 -58 -19 -163 -45 -186 -45 -185
-70 -102 -11 39 -21 81 -23 95 -2 25 80 209 94 210 4 0 12 -18 18 -40z m130
-9 l20 -40 -65 2 c-59 2 -65 4 -65 23 0 16 11 26 38 37 51 22 49 22 72 -22z"/>
<path d="M9343 5555 c0 -22 2 -30 4 -17 2 12 2 30 0 40 -3 9 -5 -1 -4 -23z"/>
<path d="M9352 5485 c0 -16 2 -22 5 -12 2 9 2 23 0 30 -3 6 -5 -1 -5 -18z"/>
<path d="M9146 5323 c-9 -26 -12 -43 -7 -38 11 13 32 77 27 82 -2 2 -11 -17
-20 -44z"/>
<path d="M9120 5240 c0 -5 5 -10 11 -10 5 0 7 5 4 10 -3 6 -8 10 -11 10 -2 0
-4 -4 -4 -10z"/>
<path d="M9115 5140 c-3 -5 -1 -10 4 -10 6 0 11 5 11 10 0 6 -2 10 -4 10 -3 0
-8 -4 -11 -10z"/>
<path d="M9347 5103 c-13 -46 -17 -98 -8 -83 6 8 11 25 11 38 0 13 5 32 10 43
7 12 7 19 1 19 -5 0 -12 -8 -14 -17z"/>
<path d="M9476 4984 c49 -31 98 -60 109 -66 18 -9 18 -9 5 4 -24 23 -178 118
-191 118 -7 0 28 -25 77 -56z"/>
<path d="M9363 4790 c0 -25 2 -35 4 -22 2 12 2 32 0 45 -2 12 -4 2 -4 -23z"/>
<path d="M9411 4816 c-2 -21 41 -271 48 -278 3 -4 -4 54 -16 130 -22 130 -30
169 -32 148z"/>
<path d="M9141 4744 c0 -11 3 -14 6 -6 3 7 2 16 -1 19 -3 4 -6 -2 -5 -13z"/>
<path d="M9151 4703 c-1 -41 49 -178 84 -230 36 -54 77 -83 117 -83 26 0 93
38 84 47 -3 3 -14 -1 -23 -10 -10 -8 -30 -18 -45 -22 -29 -8 -71 2 -63 14 6
10 -29 43 -37 35 -12 -11 -79 124 -98 197 -10 41 -19 64 -19 52z m140 -270
c13 -16 12 -17 -3 -4 -10 7 -18 15 -18 17 0 8 8 3 21 -13z"/>
<path d="M9352 4553 c-1 -79 1 -143 6 -143 4 0 6 48 4 107 -4 174 -9 188 -10
36z"/>
<path d="M9525 4630 c-16 -50 -58 -132 -64 -123 -3 5 -23 -11 -45 -34 -47 -52
-41 -57 9 -6 35 37 43 37 25 2 -19 -34 -3 -20 19 17 29 49 73 155 67 161 -2 2
-7 -5 -11 -17z"/>
<path d="M4795 4335 c-271 -54 -572 -105 -872 -150 -125 -18 -214 -34 -197
-34 77 -2 601 76 909 135 166 32 398 84 404 89 8 9 -21 4 -244 -40z"/>
<path d="M2230 4280 l25 -8 -25 -1 c-19 -1 -22 -3 -11 -10 17 -11 23 -53 7
-48 -6 3 -10 9 -9 15 2 6 -4 9 -12 6 -11 -5 -8 -13 17 -40 17 -18 36 -30 42
-27 6 4 5 0 -2 -9 -11 -13 -11 -18 0 -24 7 -5 21 -7 32 -5 16 2 18 -2 12 -26
-4 -18 -3 -23 3 -14 6 10 13 11 27 2 18 -10 18 -10 1 -11 -10 0 -16 -4 -13 -9
3 -4 17 -6 31 -3 14 2 25 0 25 -5 0 -5 11 -10 26 -11 14 -1 23 2 19 8 -3 6 -1
10 4 10 6 0 11 -4 11 -10 0 -5 8 -6 17 -3 11 4 12 8 5 11 -7 2 -12 8 -12 13 0
6 3 8 8 6 4 -3 16 7 27 22 15 20 15 23 2 12 -14 -11 -17 -11 -17 1 0 8 6 20
13 27 7 8 7 11 1 8 -13 -8 -37 16 -27 26 3 4 -1 7 -10 7 -8 0 -19 9 -22 20 -4
11 -15 20 -26 20 -13 0 -18 4 -13 12 5 7 2 9 -9 5 -9 -3 -18 0 -21 9 -3 8 -19
14 -36 14 -16 0 -30 5 -30 10 0 6 -19 10 -42 9 -37 -1 -39 -2 -18 -9z m47 -26
c-3 -3 -12 -4 -19 -1 -8 3 -5 6 6 6 11 1 17 -2 13 -5z m73 -2 c0 -5 -7 -9 -15
-9 -8 0 -12 4 -9 9 3 4 9 8 15 8 5 0 9 -4 9 -8z"/>
<path d="M3653 4143 c9 -2 23 -2 30 0 6 3 -1 5 -18 5 -16 0 -22 -2 -12 -5z"/>
<path d="M2372 4038 c-12 -5 -9 -7 11 -7 19 -1 26 -5 21 -13 -4 -6 -3 -8 4 -4
6 3 20 -4 31 -16 17 -17 24 -19 34 -9 10 10 8 11 -5 6 -13 -5 -18 -2 -18 9 0
9 -5 16 -11 16 -6 0 -9 6 -6 13 5 13 -32 17 -61 5z"/>
<path d="M2450 4040 c0 -6 11 -8 28 -4 39 10 40 14 4 14 -18 0 -32 -5 -32 -10z"/>
<path d="M2527 4029 c7 -7 15 -10 18 -7 3 3 -2 9 -12 12 -14 6 -15 5 -6 -5z"/>
<path d="M3137 3839 c-27 -16 -49 -67 -42 -98 18 -82 144 -114 190 -48 17 25
20 79 5 108 -22 41 -110 63 -153 38z m98 -14 c57 -23 71 -84 30 -129 -50 -54
-155 -15 -155 59 0 25 8 40 31 59 35 30 47 31 94 11z"/>
<path d="M4791 3819 l-1 -26 -197 -11 c-109 -7 -389 -21 -623 -33 -234 -11
-427 -23 -430 -26 -8 -7 41 -41 112 -77 123 -63 183 -70 513 -62 159 3 324 8
365 11 41 2 67 2 58 -1 -10 -3 -18 -12 -18 -20 0 -28 -96 -218 -148 -294 l-51
-75 61 -10 c62 -10 62 -10 33 -23 -39 -18 -274 -38 -595 -52 -146 -6 -292 -12
-325 -13 -33 -2 35 -4 150 -5 206 -2 449 9 634 29 52 5 96 7 99 4 5 -4 -45
-28 -138 -66 -62 -25 -23 -24 53 2 177 59 286 166 356 348 55 143 107 355 98
402 l-4 24 -2 -26z m-41 -58 c0 -6 -4 -13 -10 -16 -5 -3 -10 1 -10 9 0 9 5 16
10 16 6 0 10 -4 10 -9z m-120 -16 c0 -8 -4 -15 -10 -15 -5 0 -10 7 -10 15 0 8
5 15 10 15 6 0 10 -7 10 -15z m60 0 c0 -8 -4 -15 -10 -15 -5 0 -10 7 -10 15 0
8 5 15 10 15 6 0 10 -7 10 -15z m-161 -22 c-2 -26 -2 -26 -6 -4 -5 23 -6 23
-91 17 -237 -18 -384 -26 -457 -24 -53 1 -27 4 80 10 88 4 207 12 265 17 58 4
129 9 158 10 51 1 52 0 51 -26z m-686 -20 c-24 -2 -62 -2 -85 0 -24 2 -5 4 42
4 47 0 66 -2 43 -4z m887 -32 c-15 -9 -170 -17 -200 -10 -15 3 100 14 175 17
27 1 35 -1 25 -7z"/>
<path d="M5860 4701 c-135 -42 -275 -192 -376 -405 -53 -112 -117 -354 -138
-524 -60 -472 75 -944 299 -1049 65 -30 170 -32 233 -3 70 32 177 143 238 246
60 103 130 262 173 398 28 89 72 300 70 341 0 11 -13 -46 -29 -127 -32 -167
-53 -236 -118 -393 -69 -165 -137 -278 -217 -360 -91 -93 -127 -110 -230 -110
-64 0 -89 5 -124 24 -232 122 -356 631 -272 1116 51 294 117 464 251 645 60
81 112 127 190 166 70 37 181 41 245 9 62 -30 139 -114 179 -193 49 -97 45
-105 -5 -12 -162 299 -421 279 -636 -48 -101 -153 -161 -314 -208 -557 -55
-288 -28 -636 65 -843 104 -228 279 -325 444 -247 37 18 86 65 68 65 -7 0 -12
-4 -12 -9 0 -14 -119 -71 -147 -71 -23 0 -23 0 -22 123 1 67 4 199 8 294 6
164 7 173 31 198 l24 26 23 -108 c13 -59 42 -184 64 -276 35 -142 43 -166 55
-156 43 36 123 153 174 256 58 118 134 326 127 347 -2 6 -7 -4 -11 -22 -5 -20
-13 -32 -20 -29 -7 3 -60 37 -119 75 -125 83 -197 112 -273 112 -48 0 -59 -4
-85 -29 -16 -16 -29 -39 -29 -50 0 -11 -4 -22 -8 -25 -5 -3 -16 57 -24 133
-14 115 -22 149 -46 197 -50 97 -77 128 -201 225 -22 18 -23 21 -11 66 18 73
67 179 123 266 27 43 51 77 52 75 2 -2 26 -75 55 -163 75 -228 98 -266 153
-251 19 5 18 3 -5 -20 -33 -33 -92 -41 -152 -21 -25 9 -46 12 -46 8 0 -5 14
-38 31 -74 17 -37 33 -93 37 -129 6 -48 10 -58 16 -41 8 26 -26 163 -49 196
-21 29 -19 40 4 27 11 -5 46 -10 79 -10 51 0 63 4 87 27 50 51 76 120 126 347
27 121 49 232 49 246 1 53 14 57 74 17 30 -20 59 -45 64 -54 7 -14 -6 -51 -55
-153 -92 -194 -129 -299 -163 -467 -16 -81 -30 -153 -30 -160 0 -6 16 -30 35
-53 19 -23 32 -46 29 -51 -3 -5 -1 -9 4 -9 22 0 18 15 -15 61 -33 47 -35 54
-29 102 11 98 65 295 105 383 21 49 61 140 89 202 l50 113 35 -58 c19 -32 42
-75 51 -96 l16 -38 -105 -139 c-175 -232 -182 -246 -191 -350 -4 -53 -11 -90
-17 -90 -7 0 -7 -3 -1 -9 5 -6 89 -18 186 -27 170 -17 177 -19 173 -38 -16
-75 -35 -199 -32 -203 14 -13 51 246 55 380 2 81 7 147 11 147 8 0 -11 157
-28 235 -50 218 -156 392 -273 445 -45 20 -148 26 -198 11z m136 -37 c20 -5
21 -7 7 -67 -7 -34 -34 -156 -59 -272 -24 -115 -51 -220 -60 -232 -20 -31 -89
-34 -79 -4 16 51 25 154 32 344 4 152 10 210 19 214 6 2 34 8 60 13 27 4 51 8
54 9 3 0 14 -2 26 -5z m-172 -211 c-5 -193 -19 -332 -33 -346 -14 -14 -33 30
-95 211 l-54 160 57 54 c55 54 110 97 123 98 3 0 4 -80 2 -177z m485 -191 c6
-29 11 -69 11 -88 0 -21 4 -33 10 -29 6 4 9 -14 7 -46 l-2 -52 -158 -74 c-87
-40 -162 -73 -167 -73 -28 0 25 89 165 275 53 72 100 136 102 143 9 21 20 1
32 -56z m-804 -266 c22 -17 52 -41 67 -55 l28 -24 -32 -56 c-62 -112 -72 -121
-134 -121 -46 0 -54 3 -54 19 0 28 28 168 45 229 17 57 15 57 80 8z m837 -93
c-3 -171 -5 -183 -35 -178 -12 2 -62 6 -112 10 -49 3 -114 8 -142 12 l-53 5 0
63 0 62 173 81 c94 44 172 81 172 81 0 1 -1 -61 -3 -136z m-693 -67 c22 -44
28 -105 12 -121 -6 -6 -6 -28 -2 -52 15 -80 -2 -134 -101 -316 -51 -95 -100
-185 -108 -200 -18 -36 -24 -25 -49 85 -26 114 -35 208 -20 208 14 0 271 241
264 248 -2 3 -52 -40 -110 -94 -58 -54 -119 -110 -136 -123 l-29 -24 0 136 0
135 60 4 c71 5 83 15 136 107 43 77 49 77 83 7z m66 -300 c11 -64 11 -91 2
-131 l-11 -50 -7 80 c-3 44 -9 114 -13 155 -8 95 8 64 29 -54z m260 23 l55
-21 -61 -30 c-34 -17 -89 -56 -122 -88 l-61 -57 -7 -114 c-4 -63 -8 -198 -8
-301 -1 -215 3 -208 -93 -164 -92 40 -188 160 -233 287 -8 21 -10 39 -6 41 9
4 142 245 192 347 24 50 38 70 44 62 4 -8 10 -53 13 -102 5 -97 -11 -182 -74
-399 -37 -124 -46 -195 -17 -130 19 43 104 355 139 509 26 118 44 165 66 174
31 13 121 6 173 -14z m114 -61 c20 -12 66 -42 103 -65 l67 -44 -25 -72 c-15
-40 -42 -106 -60 -147 l-35 -74 -20 33 c-31 52 -169 330 -169 341 0 10 74 49
94 50 5 0 25 -10 45 -22z m16 -464 c-13 -23 -45 -67 -71 -99 -37 -45 -49 -54
-55 -42 -7 12 -49 185 -113 460 l-13 58 40 27 39 28 99 -195 98 -195 -24 -42z"/>
<path d="M6364 3865 c0 -77 2 -107 3 -67 2 40 2 103 0 140 -2 37 -3 4 -3 -73z"/>
<path d="M5807 3882 c-10 -10 -17 -25 -17 -33 1 -8 8 -2 16 14 20 36 41 34 53
-5 8 -30 9 -31 10 -7 2 46 -33 63 -62 31z"/>
<path d="M5833 3853 c11 -11 -14 -32 -30 -26 -11 4 -14 2 -9 -5 4 -7 14 -12
23 -12 12 0 14 -7 9 -31 -3 -17 -6 -42 -6 -55 0 -13 -4 -24 -10 -24 -5 0 -7 6
-4 13 2 7 0 31 -5 52 -9 38 -9 37 -8 -20 2 -45 6 -60 17 -60 9 0 17 16 22 45
4 25 10 56 13 68 4 15 2 21 -5 17 -5 -3 -10 -2 -10 4 0 5 5 13 10 16 14 8 13
25 -2 25 -6 0 -8 -3 -5 -7z"/>
<path d="M5751 3799 c-11 -19 -11 -21 4 -15 9 3 19 6 21 6 2 0 4 7 4 15 0 21
-13 19 -29 -6z"/>
<path d="M9051 4656 c12 -10 60 -16 54 -6 -3 5 -18 10 -32 10 -15 0 -24 -2
-22 -4z"/>
<path d="M9132 4471 c-11 -6 -9 -9 6 -13 15 -4 19 -2 15 8 -6 16 -4 16 -21 5z"/>
<path d="M4940 2736 c0 -2 8 -10 18 -17 15 -13 16 -12 3 4 -13 16 -21 21 -21
13z"/>
<path d="M5144 2758 c2 -14 66 -82 101 -107 11 -8 -7 13 -39 45 -33 32 -58 61
-57 62 2 2 0 6 -2 9 -3 3 -5 -1 -3 -9z"/>
<path d="M8790 4150 c-8 -5 -10 -10 -5 -10 6 0 17 5 25 10 8 5 11 10 5 10 -5
0 -17 -5 -25 -10z"/>
<path d="M8740 4130 c-8 -5 -10 -10 -5 -10 6 0 17 5 25 10 8 5 11 10 5 10 -5
0 -17 -5 -25 -10z"/>
<path d="M7900 3830 c-9 -6 -10 -10 -3 -10 6 0 15 5 18 10 8 12 4 12 -15 0z"/>
<path d="M6370 3040 c-9 -6 -10 -10 -3 -10 6 0 15 5 18 10 8 12 4 12 -15 0z"/>
<path d="M723 2563 c9 -2 23 -2 30 0 6 3 -1 5 -18 5 -16 0 -22 -2 -12 -5z"/>
<path d="M5138 2483 c7 -3 16 -2 19 1 4 3 -2 6 -13 5 -11 0 -14 -3 -6 -6z"/>
<path d="M5098 2473 c7 -3 16 -2 19 1 4 3 -2 6 -13 5 -11 0 -14 -3 -6 -6z"/>
<path d="M4328 2383 c7 -3 16 -2 19 1 4 3 -2 6 -13 5 -11 0 -14 -3 -6 -6z"/>
<path d="M4278 2373 c6 -2 18 -2 25 0 6 3 1 5 -13 5 -14 0 -19 -2 -12 -5z"/>
<path d="M4218 2363 c6 -2 18 -2 25 0 6 3 1 5 -13 5 -14 0 -19 -2 -12 -5z"/>
<path d="M3838 2353 c6 -2 18 -2 25 0 6 3 1 5 -13 5 -14 0 -19 -2 -12 -5z"/>
<path d="M4158 2353 c6 -2 18 -2 25 0 6 3 1 5 -13 5 -14 0 -19 -2 -12 -5z"/>
<path d="M2185 2330 c-3 -6 1 -7 9 -4 18 7 21 14 7 14 -6 0 -13 -4 -16 -10z"/>
<path d="M3518 2333 c6 -2 18 -2 25 0 6 3 1 5 -13 5 -14 0 -19 -2 -12 -5z"/>
<path d="M2518 2303 c7 -3 16 -2 19 1 4 3 -2 6 -13 5 -11 0 -14 -3 -6 -6z"/>
</g>
</svg>
